%
M48
M72
T01C0.02362
T02C0.03600
T03C0.04000
%
T01
X46800Y31800
X46800Y36800
X46800Y41800
X56800Y41800
X56800Y36800
X56800Y31800
X86800Y56800
X96800Y76800
X126800Y86800
X146800Y79300
X176800Y71800
X194300Y79300
X194300Y91800
X181800Y56800
X146800Y56800
X131800Y56800
X141800Y41800
X146800Y16800
X101800Y111800
X111800Y121800
X99300Y139300
X104300Y156800
X81800Y171800
X66800Y161800
X116800Y181800
X121800Y176800
X141800Y171800
X166800Y166800
X196800Y186800
X201800Y171800
X209300Y164300
X209300Y159300
X229300Y169300
X229300Y174300
X229300Y179300
X236800Y186800
X241800Y196800
X261800Y181800
X251800Y179300
X281800Y161800
X291800Y161800
X299300Y156800
X254300Y149300
X266800Y126800
X151800Y141800
T02
X314300Y141800
X324300Y141800
X324300Y151800
X314300Y151800
X314300Y161800
X324300Y161800
X324300Y171800
X314300Y171800
X314300Y131800
X324300Y131800
T03
X321800Y86800
X321800Y76800
X321800Y66800
X321800Y56800
X321800Y46800
X294300Y46800
X294300Y36800
X266800Y31800
X266800Y41800
X266800Y51800
X239300Y51800
X239300Y41800
X239300Y31800
X239300Y21800
X239300Y11800
X266800Y11800
X266800Y21800
X294300Y56800
X294300Y66800
X294300Y76800
X61800Y186800
X51800Y186800
X41800Y186800
X31800Y186800
M30
