G75*
%MOIN*%
%OFA0B0*%
%FSLAX25Y25*%
%IPPOS*%
%LPD*%
%AMOC8*
5,1,8,0,0,1.08239X$1,22.5*
%
%ADD10C,0.00300*%
%ADD11C,0.02200*%
%ADD12C,0.00100*%
%ADD13C,0.00400*%
D10*
X0232005Y0165455D02*
X0232005Y0166689D01*
X0232622Y0167306D01*
X0232622Y0168521D02*
X0232005Y0169138D01*
X0232005Y0170372D01*
X0232622Y0170989D01*
X0233240Y0170989D01*
X0233857Y0170372D01*
X0233857Y0169755D01*
X0233857Y0170372D02*
X0234474Y0170989D01*
X0235091Y0170989D01*
X0235708Y0170372D01*
X0235708Y0169138D01*
X0235091Y0168521D01*
X0235091Y0167306D02*
X0235708Y0166689D01*
X0235708Y0165455D01*
X0235091Y0164838D01*
X0232622Y0164838D01*
X0232005Y0165455D01*
X0229098Y0168630D02*
X0228481Y0168013D01*
X0226012Y0168013D01*
X0225395Y0168630D01*
X0225395Y0169865D01*
X0226012Y0170482D01*
X0225395Y0171696D02*
X0227864Y0174165D01*
X0228481Y0174165D01*
X0229098Y0173548D01*
X0229098Y0172313D01*
X0228481Y0171696D01*
X0228481Y0170482D02*
X0229098Y0169865D01*
X0229098Y0168630D01*
X0225395Y0171696D02*
X0225395Y0174165D01*
X0226012Y0175379D02*
X0225395Y0175996D01*
X0225395Y0177231D01*
X0226012Y0177848D01*
X0226629Y0177848D01*
X0227246Y0177231D01*
X0227246Y0175379D01*
X0226012Y0175379D01*
X0227246Y0175379D02*
X0228481Y0176614D01*
X0229098Y0177848D01*
X0232622Y0174673D02*
X0232005Y0174055D01*
X0232005Y0172821D01*
X0232622Y0172204D01*
X0235091Y0174673D01*
X0232622Y0174673D01*
X0235091Y0174673D02*
X0235708Y0174055D01*
X0235708Y0172821D01*
X0235091Y0172204D01*
X0232622Y0172204D01*
D11*
X0156800Y0169420D02*
X0156800Y0169180D01*
D12*
X0156919Y0166251D02*
X0156669Y0166001D01*
X0156919Y0166251D02*
X0157420Y0166251D01*
X0157670Y0166001D01*
X0157670Y0165000D01*
X0157420Y0164750D01*
X0156919Y0164750D01*
X0156669Y0165000D01*
X0156197Y0165000D02*
X0155946Y0164750D01*
X0155446Y0164750D01*
X0155196Y0165000D01*
X0155196Y0165250D01*
X0155446Y0165501D01*
X0155696Y0165501D01*
X0155446Y0165501D02*
X0155196Y0165751D01*
X0155196Y0166001D01*
X0155446Y0166251D01*
X0155946Y0166251D01*
X0156197Y0166001D01*
X0154723Y0166001D02*
X0154473Y0166251D01*
X0153973Y0166251D01*
X0153722Y0166001D01*
X0153722Y0165751D01*
X0153973Y0165501D01*
X0153722Y0165250D01*
X0153722Y0165000D01*
X0153973Y0164750D01*
X0154473Y0164750D01*
X0154723Y0165000D01*
X0154223Y0165501D02*
X0153973Y0165501D01*
D13*
X0131500Y0072302D02*
X0131500Y0070767D01*
X0132267Y0070000D01*
X0135337Y0070000D01*
X0136104Y0070767D01*
X0136104Y0072302D01*
X0135337Y0073069D01*
X0136104Y0074604D02*
X0131500Y0074604D01*
X0132267Y0073069D02*
X0131500Y0072302D01*
X0133802Y0074604D02*
X0133802Y0076139D01*
X0136104Y0074604D02*
X0136104Y0077673D01*
X0136104Y0079208D02*
X0136104Y0082277D01*
X0135337Y0082277D01*
X0132267Y0079208D01*
X0131500Y0079208D01*
X0155000Y0061698D02*
X0155000Y0060163D01*
X0155767Y0059396D01*
X0156535Y0059396D01*
X0157302Y0060163D01*
X0157302Y0061698D01*
X0156535Y0062465D01*
X0155767Y0062465D01*
X0155000Y0061698D01*
X0157302Y0061698D02*
X0158069Y0062465D01*
X0158837Y0062465D01*
X0159604Y0061698D01*
X0159604Y0060163D01*
X0158837Y0059396D01*
X0158069Y0059396D01*
X0157302Y0060163D01*
X0159604Y0057861D02*
X0159604Y0054792D01*
X0155000Y0054792D01*
X0155767Y0053257D02*
X0155000Y0052490D01*
X0155000Y0050956D01*
X0155767Y0050188D01*
X0158837Y0050188D01*
X0159604Y0050956D01*
X0159604Y0052490D01*
X0158837Y0053257D01*
X0157302Y0054792D02*
X0157302Y0056327D01*
X0256402Y0177000D02*
X0257937Y0177000D01*
X0258704Y0177767D01*
X0258704Y0179302D02*
X0257169Y0180069D01*
X0256402Y0180069D01*
X0255635Y0179302D01*
X0255635Y0177767D01*
X0256402Y0177000D01*
X0258704Y0179302D02*
X0258704Y0181604D01*
X0255635Y0181604D01*
X0260239Y0180837D02*
X0260239Y0179302D01*
X0261006Y0178535D01*
X0263308Y0178535D01*
X0261773Y0178535D02*
X0260239Y0177000D01*
X0263308Y0177000D02*
X0263308Y0181604D01*
X0261006Y0181604D01*
X0260239Y0180837D01*
M02*
