G75*
%MOIN*%
%OFA0B0*%
%FSLAX25Y25*%
%IPPOS*%
%LPD*%
%AMOC8*
5,1,8,0,0,1.08239X$1,22.5*
%
%ADD10C,0.00004*%
%ADD11R,0.06299X0.05118*%
%ADD12R,0.04331X0.03937*%
%ADD13R,0.03150X0.05512*%
%ADD14R,0.04331X0.02362*%
%ADD15R,0.05906X0.05118*%
%ADD16C,0.06000*%
%ADD17OC8,0.05600*%
%ADD18C,0.03562*%
%ADD19C,0.01600*%
%ADD20C,0.01000*%
%ADD21C,0.01200*%
D10*
X0008565Y0001698D02*
X0008565Y0222171D01*
X0339274Y0222171D01*
X0339274Y0001698D01*
X0008565Y0001698D01*
X0012502Y0017446D02*
X0012504Y0017639D01*
X0012511Y0017832D01*
X0012523Y0018025D01*
X0012540Y0018218D01*
X0012561Y0018410D01*
X0012587Y0018601D01*
X0012618Y0018792D01*
X0012653Y0018982D01*
X0012693Y0019171D01*
X0012738Y0019359D01*
X0012787Y0019546D01*
X0012841Y0019732D01*
X0012899Y0019916D01*
X0012962Y0020099D01*
X0013030Y0020280D01*
X0013101Y0020459D01*
X0013178Y0020637D01*
X0013258Y0020813D01*
X0013343Y0020986D01*
X0013432Y0021158D01*
X0013525Y0021327D01*
X0013622Y0021494D01*
X0013724Y0021659D01*
X0013829Y0021821D01*
X0013938Y0021980D01*
X0014052Y0022137D01*
X0014169Y0022290D01*
X0014289Y0022441D01*
X0014414Y0022589D01*
X0014542Y0022734D01*
X0014673Y0022875D01*
X0014808Y0023014D01*
X0014947Y0023149D01*
X0015088Y0023280D01*
X0015233Y0023408D01*
X0015381Y0023533D01*
X0015532Y0023653D01*
X0015685Y0023770D01*
X0015842Y0023884D01*
X0016001Y0023993D01*
X0016163Y0024098D01*
X0016328Y0024200D01*
X0016495Y0024297D01*
X0016664Y0024390D01*
X0016836Y0024479D01*
X0017009Y0024564D01*
X0017185Y0024644D01*
X0017363Y0024721D01*
X0017542Y0024792D01*
X0017723Y0024860D01*
X0017906Y0024923D01*
X0018090Y0024981D01*
X0018276Y0025035D01*
X0018463Y0025084D01*
X0018651Y0025129D01*
X0018840Y0025169D01*
X0019030Y0025204D01*
X0019221Y0025235D01*
X0019412Y0025261D01*
X0019604Y0025282D01*
X0019797Y0025299D01*
X0019990Y0025311D01*
X0020183Y0025318D01*
X0020376Y0025320D01*
X0020569Y0025318D01*
X0020762Y0025311D01*
X0020955Y0025299D01*
X0021148Y0025282D01*
X0021340Y0025261D01*
X0021531Y0025235D01*
X0021722Y0025204D01*
X0021912Y0025169D01*
X0022101Y0025129D01*
X0022289Y0025084D01*
X0022476Y0025035D01*
X0022662Y0024981D01*
X0022846Y0024923D01*
X0023029Y0024860D01*
X0023210Y0024792D01*
X0023389Y0024721D01*
X0023567Y0024644D01*
X0023743Y0024564D01*
X0023916Y0024479D01*
X0024088Y0024390D01*
X0024257Y0024297D01*
X0024424Y0024200D01*
X0024589Y0024098D01*
X0024751Y0023993D01*
X0024910Y0023884D01*
X0025067Y0023770D01*
X0025220Y0023653D01*
X0025371Y0023533D01*
X0025519Y0023408D01*
X0025664Y0023280D01*
X0025805Y0023149D01*
X0025944Y0023014D01*
X0026079Y0022875D01*
X0026210Y0022734D01*
X0026338Y0022589D01*
X0026463Y0022441D01*
X0026583Y0022290D01*
X0026700Y0022137D01*
X0026814Y0021980D01*
X0026923Y0021821D01*
X0027028Y0021659D01*
X0027130Y0021494D01*
X0027227Y0021327D01*
X0027320Y0021158D01*
X0027409Y0020986D01*
X0027494Y0020813D01*
X0027574Y0020637D01*
X0027651Y0020459D01*
X0027722Y0020280D01*
X0027790Y0020099D01*
X0027853Y0019916D01*
X0027911Y0019732D01*
X0027965Y0019546D01*
X0028014Y0019359D01*
X0028059Y0019171D01*
X0028099Y0018982D01*
X0028134Y0018792D01*
X0028165Y0018601D01*
X0028191Y0018410D01*
X0028212Y0018218D01*
X0028229Y0018025D01*
X0028241Y0017832D01*
X0028248Y0017639D01*
X0028250Y0017446D01*
X0028248Y0017253D01*
X0028241Y0017060D01*
X0028229Y0016867D01*
X0028212Y0016674D01*
X0028191Y0016482D01*
X0028165Y0016291D01*
X0028134Y0016100D01*
X0028099Y0015910D01*
X0028059Y0015721D01*
X0028014Y0015533D01*
X0027965Y0015346D01*
X0027911Y0015160D01*
X0027853Y0014976D01*
X0027790Y0014793D01*
X0027722Y0014612D01*
X0027651Y0014433D01*
X0027574Y0014255D01*
X0027494Y0014079D01*
X0027409Y0013906D01*
X0027320Y0013734D01*
X0027227Y0013565D01*
X0027130Y0013398D01*
X0027028Y0013233D01*
X0026923Y0013071D01*
X0026814Y0012912D01*
X0026700Y0012755D01*
X0026583Y0012602D01*
X0026463Y0012451D01*
X0026338Y0012303D01*
X0026210Y0012158D01*
X0026079Y0012017D01*
X0025944Y0011878D01*
X0025805Y0011743D01*
X0025664Y0011612D01*
X0025519Y0011484D01*
X0025371Y0011359D01*
X0025220Y0011239D01*
X0025067Y0011122D01*
X0024910Y0011008D01*
X0024751Y0010899D01*
X0024589Y0010794D01*
X0024424Y0010692D01*
X0024257Y0010595D01*
X0024088Y0010502D01*
X0023916Y0010413D01*
X0023743Y0010328D01*
X0023567Y0010248D01*
X0023389Y0010171D01*
X0023210Y0010100D01*
X0023029Y0010032D01*
X0022846Y0009969D01*
X0022662Y0009911D01*
X0022476Y0009857D01*
X0022289Y0009808D01*
X0022101Y0009763D01*
X0021912Y0009723D01*
X0021722Y0009688D01*
X0021531Y0009657D01*
X0021340Y0009631D01*
X0021148Y0009610D01*
X0020955Y0009593D01*
X0020762Y0009581D01*
X0020569Y0009574D01*
X0020376Y0009572D01*
X0020183Y0009574D01*
X0019990Y0009581D01*
X0019797Y0009593D01*
X0019604Y0009610D01*
X0019412Y0009631D01*
X0019221Y0009657D01*
X0019030Y0009688D01*
X0018840Y0009723D01*
X0018651Y0009763D01*
X0018463Y0009808D01*
X0018276Y0009857D01*
X0018090Y0009911D01*
X0017906Y0009969D01*
X0017723Y0010032D01*
X0017542Y0010100D01*
X0017363Y0010171D01*
X0017185Y0010248D01*
X0017009Y0010328D01*
X0016836Y0010413D01*
X0016664Y0010502D01*
X0016495Y0010595D01*
X0016328Y0010692D01*
X0016163Y0010794D01*
X0016001Y0010899D01*
X0015842Y0011008D01*
X0015685Y0011122D01*
X0015532Y0011239D01*
X0015381Y0011359D01*
X0015233Y0011484D01*
X0015088Y0011612D01*
X0014947Y0011743D01*
X0014808Y0011878D01*
X0014673Y0012017D01*
X0014542Y0012158D01*
X0014414Y0012303D01*
X0014289Y0012451D01*
X0014169Y0012602D01*
X0014052Y0012755D01*
X0013938Y0012912D01*
X0013829Y0013071D01*
X0013724Y0013233D01*
X0013622Y0013398D01*
X0013525Y0013565D01*
X0013432Y0013734D01*
X0013343Y0013906D01*
X0013258Y0014079D01*
X0013178Y0014255D01*
X0013101Y0014433D01*
X0013030Y0014612D01*
X0012962Y0014793D01*
X0012899Y0014976D01*
X0012841Y0015160D01*
X0012787Y0015346D01*
X0012738Y0015533D01*
X0012693Y0015721D01*
X0012653Y0015910D01*
X0012618Y0016100D01*
X0012587Y0016291D01*
X0012561Y0016482D01*
X0012540Y0016674D01*
X0012523Y0016867D01*
X0012511Y0017060D01*
X0012504Y0017253D01*
X0012502Y0017446D01*
X0012502Y0206423D02*
X0012504Y0206616D01*
X0012511Y0206809D01*
X0012523Y0207002D01*
X0012540Y0207195D01*
X0012561Y0207387D01*
X0012587Y0207578D01*
X0012618Y0207769D01*
X0012653Y0207959D01*
X0012693Y0208148D01*
X0012738Y0208336D01*
X0012787Y0208523D01*
X0012841Y0208709D01*
X0012899Y0208893D01*
X0012962Y0209076D01*
X0013030Y0209257D01*
X0013101Y0209436D01*
X0013178Y0209614D01*
X0013258Y0209790D01*
X0013343Y0209963D01*
X0013432Y0210135D01*
X0013525Y0210304D01*
X0013622Y0210471D01*
X0013724Y0210636D01*
X0013829Y0210798D01*
X0013938Y0210957D01*
X0014052Y0211114D01*
X0014169Y0211267D01*
X0014289Y0211418D01*
X0014414Y0211566D01*
X0014542Y0211711D01*
X0014673Y0211852D01*
X0014808Y0211991D01*
X0014947Y0212126D01*
X0015088Y0212257D01*
X0015233Y0212385D01*
X0015381Y0212510D01*
X0015532Y0212630D01*
X0015685Y0212747D01*
X0015842Y0212861D01*
X0016001Y0212970D01*
X0016163Y0213075D01*
X0016328Y0213177D01*
X0016495Y0213274D01*
X0016664Y0213367D01*
X0016836Y0213456D01*
X0017009Y0213541D01*
X0017185Y0213621D01*
X0017363Y0213698D01*
X0017542Y0213769D01*
X0017723Y0213837D01*
X0017906Y0213900D01*
X0018090Y0213958D01*
X0018276Y0214012D01*
X0018463Y0214061D01*
X0018651Y0214106D01*
X0018840Y0214146D01*
X0019030Y0214181D01*
X0019221Y0214212D01*
X0019412Y0214238D01*
X0019604Y0214259D01*
X0019797Y0214276D01*
X0019990Y0214288D01*
X0020183Y0214295D01*
X0020376Y0214297D01*
X0020569Y0214295D01*
X0020762Y0214288D01*
X0020955Y0214276D01*
X0021148Y0214259D01*
X0021340Y0214238D01*
X0021531Y0214212D01*
X0021722Y0214181D01*
X0021912Y0214146D01*
X0022101Y0214106D01*
X0022289Y0214061D01*
X0022476Y0214012D01*
X0022662Y0213958D01*
X0022846Y0213900D01*
X0023029Y0213837D01*
X0023210Y0213769D01*
X0023389Y0213698D01*
X0023567Y0213621D01*
X0023743Y0213541D01*
X0023916Y0213456D01*
X0024088Y0213367D01*
X0024257Y0213274D01*
X0024424Y0213177D01*
X0024589Y0213075D01*
X0024751Y0212970D01*
X0024910Y0212861D01*
X0025067Y0212747D01*
X0025220Y0212630D01*
X0025371Y0212510D01*
X0025519Y0212385D01*
X0025664Y0212257D01*
X0025805Y0212126D01*
X0025944Y0211991D01*
X0026079Y0211852D01*
X0026210Y0211711D01*
X0026338Y0211566D01*
X0026463Y0211418D01*
X0026583Y0211267D01*
X0026700Y0211114D01*
X0026814Y0210957D01*
X0026923Y0210798D01*
X0027028Y0210636D01*
X0027130Y0210471D01*
X0027227Y0210304D01*
X0027320Y0210135D01*
X0027409Y0209963D01*
X0027494Y0209790D01*
X0027574Y0209614D01*
X0027651Y0209436D01*
X0027722Y0209257D01*
X0027790Y0209076D01*
X0027853Y0208893D01*
X0027911Y0208709D01*
X0027965Y0208523D01*
X0028014Y0208336D01*
X0028059Y0208148D01*
X0028099Y0207959D01*
X0028134Y0207769D01*
X0028165Y0207578D01*
X0028191Y0207387D01*
X0028212Y0207195D01*
X0028229Y0207002D01*
X0028241Y0206809D01*
X0028248Y0206616D01*
X0028250Y0206423D01*
X0028248Y0206230D01*
X0028241Y0206037D01*
X0028229Y0205844D01*
X0028212Y0205651D01*
X0028191Y0205459D01*
X0028165Y0205268D01*
X0028134Y0205077D01*
X0028099Y0204887D01*
X0028059Y0204698D01*
X0028014Y0204510D01*
X0027965Y0204323D01*
X0027911Y0204137D01*
X0027853Y0203953D01*
X0027790Y0203770D01*
X0027722Y0203589D01*
X0027651Y0203410D01*
X0027574Y0203232D01*
X0027494Y0203056D01*
X0027409Y0202883D01*
X0027320Y0202711D01*
X0027227Y0202542D01*
X0027130Y0202375D01*
X0027028Y0202210D01*
X0026923Y0202048D01*
X0026814Y0201889D01*
X0026700Y0201732D01*
X0026583Y0201579D01*
X0026463Y0201428D01*
X0026338Y0201280D01*
X0026210Y0201135D01*
X0026079Y0200994D01*
X0025944Y0200855D01*
X0025805Y0200720D01*
X0025664Y0200589D01*
X0025519Y0200461D01*
X0025371Y0200336D01*
X0025220Y0200216D01*
X0025067Y0200099D01*
X0024910Y0199985D01*
X0024751Y0199876D01*
X0024589Y0199771D01*
X0024424Y0199669D01*
X0024257Y0199572D01*
X0024088Y0199479D01*
X0023916Y0199390D01*
X0023743Y0199305D01*
X0023567Y0199225D01*
X0023389Y0199148D01*
X0023210Y0199077D01*
X0023029Y0199009D01*
X0022846Y0198946D01*
X0022662Y0198888D01*
X0022476Y0198834D01*
X0022289Y0198785D01*
X0022101Y0198740D01*
X0021912Y0198700D01*
X0021722Y0198665D01*
X0021531Y0198634D01*
X0021340Y0198608D01*
X0021148Y0198587D01*
X0020955Y0198570D01*
X0020762Y0198558D01*
X0020569Y0198551D01*
X0020376Y0198549D01*
X0020183Y0198551D01*
X0019990Y0198558D01*
X0019797Y0198570D01*
X0019604Y0198587D01*
X0019412Y0198608D01*
X0019221Y0198634D01*
X0019030Y0198665D01*
X0018840Y0198700D01*
X0018651Y0198740D01*
X0018463Y0198785D01*
X0018276Y0198834D01*
X0018090Y0198888D01*
X0017906Y0198946D01*
X0017723Y0199009D01*
X0017542Y0199077D01*
X0017363Y0199148D01*
X0017185Y0199225D01*
X0017009Y0199305D01*
X0016836Y0199390D01*
X0016664Y0199479D01*
X0016495Y0199572D01*
X0016328Y0199669D01*
X0016163Y0199771D01*
X0016001Y0199876D01*
X0015842Y0199985D01*
X0015685Y0200099D01*
X0015532Y0200216D01*
X0015381Y0200336D01*
X0015233Y0200461D01*
X0015088Y0200589D01*
X0014947Y0200720D01*
X0014808Y0200855D01*
X0014673Y0200994D01*
X0014542Y0201135D01*
X0014414Y0201280D01*
X0014289Y0201428D01*
X0014169Y0201579D01*
X0014052Y0201732D01*
X0013938Y0201889D01*
X0013829Y0202048D01*
X0013724Y0202210D01*
X0013622Y0202375D01*
X0013525Y0202542D01*
X0013432Y0202711D01*
X0013343Y0202883D01*
X0013258Y0203056D01*
X0013178Y0203232D01*
X0013101Y0203410D01*
X0013030Y0203589D01*
X0012962Y0203770D01*
X0012899Y0203953D01*
X0012841Y0204137D01*
X0012787Y0204323D01*
X0012738Y0204510D01*
X0012693Y0204698D01*
X0012653Y0204887D01*
X0012618Y0205077D01*
X0012587Y0205268D01*
X0012561Y0205459D01*
X0012540Y0205651D01*
X0012523Y0205844D01*
X0012511Y0206037D01*
X0012504Y0206230D01*
X0012502Y0206423D01*
X0319589Y0206423D02*
X0319591Y0206616D01*
X0319598Y0206809D01*
X0319610Y0207002D01*
X0319627Y0207195D01*
X0319648Y0207387D01*
X0319674Y0207578D01*
X0319705Y0207769D01*
X0319740Y0207959D01*
X0319780Y0208148D01*
X0319825Y0208336D01*
X0319874Y0208523D01*
X0319928Y0208709D01*
X0319986Y0208893D01*
X0320049Y0209076D01*
X0320117Y0209257D01*
X0320188Y0209436D01*
X0320265Y0209614D01*
X0320345Y0209790D01*
X0320430Y0209963D01*
X0320519Y0210135D01*
X0320612Y0210304D01*
X0320709Y0210471D01*
X0320811Y0210636D01*
X0320916Y0210798D01*
X0321025Y0210957D01*
X0321139Y0211114D01*
X0321256Y0211267D01*
X0321376Y0211418D01*
X0321501Y0211566D01*
X0321629Y0211711D01*
X0321760Y0211852D01*
X0321895Y0211991D01*
X0322034Y0212126D01*
X0322175Y0212257D01*
X0322320Y0212385D01*
X0322468Y0212510D01*
X0322619Y0212630D01*
X0322772Y0212747D01*
X0322929Y0212861D01*
X0323088Y0212970D01*
X0323250Y0213075D01*
X0323415Y0213177D01*
X0323582Y0213274D01*
X0323751Y0213367D01*
X0323923Y0213456D01*
X0324096Y0213541D01*
X0324272Y0213621D01*
X0324450Y0213698D01*
X0324629Y0213769D01*
X0324810Y0213837D01*
X0324993Y0213900D01*
X0325177Y0213958D01*
X0325363Y0214012D01*
X0325550Y0214061D01*
X0325738Y0214106D01*
X0325927Y0214146D01*
X0326117Y0214181D01*
X0326308Y0214212D01*
X0326499Y0214238D01*
X0326691Y0214259D01*
X0326884Y0214276D01*
X0327077Y0214288D01*
X0327270Y0214295D01*
X0327463Y0214297D01*
X0327656Y0214295D01*
X0327849Y0214288D01*
X0328042Y0214276D01*
X0328235Y0214259D01*
X0328427Y0214238D01*
X0328618Y0214212D01*
X0328809Y0214181D01*
X0328999Y0214146D01*
X0329188Y0214106D01*
X0329376Y0214061D01*
X0329563Y0214012D01*
X0329749Y0213958D01*
X0329933Y0213900D01*
X0330116Y0213837D01*
X0330297Y0213769D01*
X0330476Y0213698D01*
X0330654Y0213621D01*
X0330830Y0213541D01*
X0331003Y0213456D01*
X0331175Y0213367D01*
X0331344Y0213274D01*
X0331511Y0213177D01*
X0331676Y0213075D01*
X0331838Y0212970D01*
X0331997Y0212861D01*
X0332154Y0212747D01*
X0332307Y0212630D01*
X0332458Y0212510D01*
X0332606Y0212385D01*
X0332751Y0212257D01*
X0332892Y0212126D01*
X0333031Y0211991D01*
X0333166Y0211852D01*
X0333297Y0211711D01*
X0333425Y0211566D01*
X0333550Y0211418D01*
X0333670Y0211267D01*
X0333787Y0211114D01*
X0333901Y0210957D01*
X0334010Y0210798D01*
X0334115Y0210636D01*
X0334217Y0210471D01*
X0334314Y0210304D01*
X0334407Y0210135D01*
X0334496Y0209963D01*
X0334581Y0209790D01*
X0334661Y0209614D01*
X0334738Y0209436D01*
X0334809Y0209257D01*
X0334877Y0209076D01*
X0334940Y0208893D01*
X0334998Y0208709D01*
X0335052Y0208523D01*
X0335101Y0208336D01*
X0335146Y0208148D01*
X0335186Y0207959D01*
X0335221Y0207769D01*
X0335252Y0207578D01*
X0335278Y0207387D01*
X0335299Y0207195D01*
X0335316Y0207002D01*
X0335328Y0206809D01*
X0335335Y0206616D01*
X0335337Y0206423D01*
X0335335Y0206230D01*
X0335328Y0206037D01*
X0335316Y0205844D01*
X0335299Y0205651D01*
X0335278Y0205459D01*
X0335252Y0205268D01*
X0335221Y0205077D01*
X0335186Y0204887D01*
X0335146Y0204698D01*
X0335101Y0204510D01*
X0335052Y0204323D01*
X0334998Y0204137D01*
X0334940Y0203953D01*
X0334877Y0203770D01*
X0334809Y0203589D01*
X0334738Y0203410D01*
X0334661Y0203232D01*
X0334581Y0203056D01*
X0334496Y0202883D01*
X0334407Y0202711D01*
X0334314Y0202542D01*
X0334217Y0202375D01*
X0334115Y0202210D01*
X0334010Y0202048D01*
X0333901Y0201889D01*
X0333787Y0201732D01*
X0333670Y0201579D01*
X0333550Y0201428D01*
X0333425Y0201280D01*
X0333297Y0201135D01*
X0333166Y0200994D01*
X0333031Y0200855D01*
X0332892Y0200720D01*
X0332751Y0200589D01*
X0332606Y0200461D01*
X0332458Y0200336D01*
X0332307Y0200216D01*
X0332154Y0200099D01*
X0331997Y0199985D01*
X0331838Y0199876D01*
X0331676Y0199771D01*
X0331511Y0199669D01*
X0331344Y0199572D01*
X0331175Y0199479D01*
X0331003Y0199390D01*
X0330830Y0199305D01*
X0330654Y0199225D01*
X0330476Y0199148D01*
X0330297Y0199077D01*
X0330116Y0199009D01*
X0329933Y0198946D01*
X0329749Y0198888D01*
X0329563Y0198834D01*
X0329376Y0198785D01*
X0329188Y0198740D01*
X0328999Y0198700D01*
X0328809Y0198665D01*
X0328618Y0198634D01*
X0328427Y0198608D01*
X0328235Y0198587D01*
X0328042Y0198570D01*
X0327849Y0198558D01*
X0327656Y0198551D01*
X0327463Y0198549D01*
X0327270Y0198551D01*
X0327077Y0198558D01*
X0326884Y0198570D01*
X0326691Y0198587D01*
X0326499Y0198608D01*
X0326308Y0198634D01*
X0326117Y0198665D01*
X0325927Y0198700D01*
X0325738Y0198740D01*
X0325550Y0198785D01*
X0325363Y0198834D01*
X0325177Y0198888D01*
X0324993Y0198946D01*
X0324810Y0199009D01*
X0324629Y0199077D01*
X0324450Y0199148D01*
X0324272Y0199225D01*
X0324096Y0199305D01*
X0323923Y0199390D01*
X0323751Y0199479D01*
X0323582Y0199572D01*
X0323415Y0199669D01*
X0323250Y0199771D01*
X0323088Y0199876D01*
X0322929Y0199985D01*
X0322772Y0200099D01*
X0322619Y0200216D01*
X0322468Y0200336D01*
X0322320Y0200461D01*
X0322175Y0200589D01*
X0322034Y0200720D01*
X0321895Y0200855D01*
X0321760Y0200994D01*
X0321629Y0201135D01*
X0321501Y0201280D01*
X0321376Y0201428D01*
X0321256Y0201579D01*
X0321139Y0201732D01*
X0321025Y0201889D01*
X0320916Y0202048D01*
X0320811Y0202210D01*
X0320709Y0202375D01*
X0320612Y0202542D01*
X0320519Y0202711D01*
X0320430Y0202883D01*
X0320345Y0203056D01*
X0320265Y0203232D01*
X0320188Y0203410D01*
X0320117Y0203589D01*
X0320049Y0203770D01*
X0319986Y0203953D01*
X0319928Y0204137D01*
X0319874Y0204323D01*
X0319825Y0204510D01*
X0319780Y0204698D01*
X0319740Y0204887D01*
X0319705Y0205077D01*
X0319674Y0205268D01*
X0319648Y0205459D01*
X0319627Y0205651D01*
X0319610Y0205844D01*
X0319598Y0206037D01*
X0319591Y0206230D01*
X0319589Y0206423D01*
X0319589Y0017446D02*
X0319591Y0017639D01*
X0319598Y0017832D01*
X0319610Y0018025D01*
X0319627Y0018218D01*
X0319648Y0018410D01*
X0319674Y0018601D01*
X0319705Y0018792D01*
X0319740Y0018982D01*
X0319780Y0019171D01*
X0319825Y0019359D01*
X0319874Y0019546D01*
X0319928Y0019732D01*
X0319986Y0019916D01*
X0320049Y0020099D01*
X0320117Y0020280D01*
X0320188Y0020459D01*
X0320265Y0020637D01*
X0320345Y0020813D01*
X0320430Y0020986D01*
X0320519Y0021158D01*
X0320612Y0021327D01*
X0320709Y0021494D01*
X0320811Y0021659D01*
X0320916Y0021821D01*
X0321025Y0021980D01*
X0321139Y0022137D01*
X0321256Y0022290D01*
X0321376Y0022441D01*
X0321501Y0022589D01*
X0321629Y0022734D01*
X0321760Y0022875D01*
X0321895Y0023014D01*
X0322034Y0023149D01*
X0322175Y0023280D01*
X0322320Y0023408D01*
X0322468Y0023533D01*
X0322619Y0023653D01*
X0322772Y0023770D01*
X0322929Y0023884D01*
X0323088Y0023993D01*
X0323250Y0024098D01*
X0323415Y0024200D01*
X0323582Y0024297D01*
X0323751Y0024390D01*
X0323923Y0024479D01*
X0324096Y0024564D01*
X0324272Y0024644D01*
X0324450Y0024721D01*
X0324629Y0024792D01*
X0324810Y0024860D01*
X0324993Y0024923D01*
X0325177Y0024981D01*
X0325363Y0025035D01*
X0325550Y0025084D01*
X0325738Y0025129D01*
X0325927Y0025169D01*
X0326117Y0025204D01*
X0326308Y0025235D01*
X0326499Y0025261D01*
X0326691Y0025282D01*
X0326884Y0025299D01*
X0327077Y0025311D01*
X0327270Y0025318D01*
X0327463Y0025320D01*
X0327656Y0025318D01*
X0327849Y0025311D01*
X0328042Y0025299D01*
X0328235Y0025282D01*
X0328427Y0025261D01*
X0328618Y0025235D01*
X0328809Y0025204D01*
X0328999Y0025169D01*
X0329188Y0025129D01*
X0329376Y0025084D01*
X0329563Y0025035D01*
X0329749Y0024981D01*
X0329933Y0024923D01*
X0330116Y0024860D01*
X0330297Y0024792D01*
X0330476Y0024721D01*
X0330654Y0024644D01*
X0330830Y0024564D01*
X0331003Y0024479D01*
X0331175Y0024390D01*
X0331344Y0024297D01*
X0331511Y0024200D01*
X0331676Y0024098D01*
X0331838Y0023993D01*
X0331997Y0023884D01*
X0332154Y0023770D01*
X0332307Y0023653D01*
X0332458Y0023533D01*
X0332606Y0023408D01*
X0332751Y0023280D01*
X0332892Y0023149D01*
X0333031Y0023014D01*
X0333166Y0022875D01*
X0333297Y0022734D01*
X0333425Y0022589D01*
X0333550Y0022441D01*
X0333670Y0022290D01*
X0333787Y0022137D01*
X0333901Y0021980D01*
X0334010Y0021821D01*
X0334115Y0021659D01*
X0334217Y0021494D01*
X0334314Y0021327D01*
X0334407Y0021158D01*
X0334496Y0020986D01*
X0334581Y0020813D01*
X0334661Y0020637D01*
X0334738Y0020459D01*
X0334809Y0020280D01*
X0334877Y0020099D01*
X0334940Y0019916D01*
X0334998Y0019732D01*
X0335052Y0019546D01*
X0335101Y0019359D01*
X0335146Y0019171D01*
X0335186Y0018982D01*
X0335221Y0018792D01*
X0335252Y0018601D01*
X0335278Y0018410D01*
X0335299Y0018218D01*
X0335316Y0018025D01*
X0335328Y0017832D01*
X0335335Y0017639D01*
X0335337Y0017446D01*
X0335335Y0017253D01*
X0335328Y0017060D01*
X0335316Y0016867D01*
X0335299Y0016674D01*
X0335278Y0016482D01*
X0335252Y0016291D01*
X0335221Y0016100D01*
X0335186Y0015910D01*
X0335146Y0015721D01*
X0335101Y0015533D01*
X0335052Y0015346D01*
X0334998Y0015160D01*
X0334940Y0014976D01*
X0334877Y0014793D01*
X0334809Y0014612D01*
X0334738Y0014433D01*
X0334661Y0014255D01*
X0334581Y0014079D01*
X0334496Y0013906D01*
X0334407Y0013734D01*
X0334314Y0013565D01*
X0334217Y0013398D01*
X0334115Y0013233D01*
X0334010Y0013071D01*
X0333901Y0012912D01*
X0333787Y0012755D01*
X0333670Y0012602D01*
X0333550Y0012451D01*
X0333425Y0012303D01*
X0333297Y0012158D01*
X0333166Y0012017D01*
X0333031Y0011878D01*
X0332892Y0011743D01*
X0332751Y0011612D01*
X0332606Y0011484D01*
X0332458Y0011359D01*
X0332307Y0011239D01*
X0332154Y0011122D01*
X0331997Y0011008D01*
X0331838Y0010899D01*
X0331676Y0010794D01*
X0331511Y0010692D01*
X0331344Y0010595D01*
X0331175Y0010502D01*
X0331003Y0010413D01*
X0330830Y0010328D01*
X0330654Y0010248D01*
X0330476Y0010171D01*
X0330297Y0010100D01*
X0330116Y0010032D01*
X0329933Y0009969D01*
X0329749Y0009911D01*
X0329563Y0009857D01*
X0329376Y0009808D01*
X0329188Y0009763D01*
X0328999Y0009723D01*
X0328809Y0009688D01*
X0328618Y0009657D01*
X0328427Y0009631D01*
X0328235Y0009610D01*
X0328042Y0009593D01*
X0327849Y0009581D01*
X0327656Y0009574D01*
X0327463Y0009572D01*
X0327270Y0009574D01*
X0327077Y0009581D01*
X0326884Y0009593D01*
X0326691Y0009610D01*
X0326499Y0009631D01*
X0326308Y0009657D01*
X0326117Y0009688D01*
X0325927Y0009723D01*
X0325738Y0009763D01*
X0325550Y0009808D01*
X0325363Y0009857D01*
X0325177Y0009911D01*
X0324993Y0009969D01*
X0324810Y0010032D01*
X0324629Y0010100D01*
X0324450Y0010171D01*
X0324272Y0010248D01*
X0324096Y0010328D01*
X0323923Y0010413D01*
X0323751Y0010502D01*
X0323582Y0010595D01*
X0323415Y0010692D01*
X0323250Y0010794D01*
X0323088Y0010899D01*
X0322929Y0011008D01*
X0322772Y0011122D01*
X0322619Y0011239D01*
X0322468Y0011359D01*
X0322320Y0011484D01*
X0322175Y0011612D01*
X0322034Y0011743D01*
X0321895Y0011878D01*
X0321760Y0012017D01*
X0321629Y0012158D01*
X0321501Y0012303D01*
X0321376Y0012451D01*
X0321256Y0012602D01*
X0321139Y0012755D01*
X0321025Y0012912D01*
X0320916Y0013071D01*
X0320811Y0013233D01*
X0320709Y0013398D01*
X0320612Y0013565D01*
X0320519Y0013734D01*
X0320430Y0013906D01*
X0320345Y0014079D01*
X0320265Y0014255D01*
X0320188Y0014433D01*
X0320117Y0014612D01*
X0320049Y0014793D01*
X0319986Y0014976D01*
X0319928Y0015160D01*
X0319874Y0015346D01*
X0319825Y0015533D01*
X0319780Y0015721D01*
X0319740Y0015910D01*
X0319705Y0016100D01*
X0319674Y0016291D01*
X0319648Y0016482D01*
X0319627Y0016674D01*
X0319610Y0016867D01*
X0319598Y0017060D01*
X0319591Y0017253D01*
X0319589Y0017446D01*
D11*
X0239300Y0167863D03*
X0239300Y0175737D03*
X0221800Y0175737D03*
X0221800Y0167863D03*
D12*
X0160146Y0169300D03*
X0153454Y0169300D03*
D13*
X0151800Y0072410D03*
X0139300Y0072410D03*
X0139300Y0061190D03*
X0151800Y0061190D03*
D14*
X0148454Y0066800D03*
X0142646Y0066800D03*
X0135954Y0066800D03*
X0155146Y0066800D03*
D15*
X0251800Y0163060D03*
X0251800Y0170540D03*
D16*
X0318800Y0086800D02*
X0324800Y0086800D01*
X0324800Y0076800D02*
X0318800Y0076800D01*
X0318800Y0066800D02*
X0324800Y0066800D01*
X0324800Y0056800D02*
X0318800Y0056800D01*
X0318800Y0046800D02*
X0324800Y0046800D01*
X0297300Y0046800D02*
X0291300Y0046800D01*
X0291300Y0036800D02*
X0297300Y0036800D01*
X0269800Y0031800D02*
X0263800Y0031800D01*
X0263800Y0041800D02*
X0269800Y0041800D01*
X0269800Y0051800D02*
X0263800Y0051800D01*
X0242300Y0051800D02*
X0236300Y0051800D01*
X0236300Y0041800D02*
X0242300Y0041800D01*
X0242300Y0031800D02*
X0236300Y0031800D01*
X0236300Y0021800D02*
X0242300Y0021800D01*
X0242300Y0011800D02*
X0236300Y0011800D01*
X0263800Y0011800D02*
X0269800Y0011800D01*
X0269800Y0021800D02*
X0263800Y0021800D01*
X0291300Y0056800D02*
X0297300Y0056800D01*
X0297300Y0066800D02*
X0291300Y0066800D01*
X0291300Y0076800D02*
X0297300Y0076800D01*
X0061800Y0183800D02*
X0061800Y0189800D01*
X0051800Y0189800D02*
X0051800Y0183800D01*
X0041800Y0183800D02*
X0041800Y0189800D01*
X0031800Y0189800D02*
X0031800Y0183800D01*
D17*
X0314300Y0171800D03*
X0324300Y0171800D03*
X0324300Y0161800D03*
X0314300Y0161800D03*
X0314300Y0151800D03*
X0324300Y0151800D03*
X0324300Y0141800D03*
X0314300Y0141800D03*
X0314300Y0131800D03*
X0324300Y0131800D03*
D18*
X0299300Y0156800D03*
X0291800Y0161800D03*
X0281800Y0161800D03*
X0254300Y0149300D03*
X0229300Y0169300D03*
X0229300Y0174300D03*
X0229300Y0179300D03*
X0236800Y0186800D03*
X0241800Y0196800D03*
X0261800Y0181800D03*
X0251800Y0179300D03*
X0209300Y0164300D03*
X0209300Y0159300D03*
X0201800Y0171800D03*
X0196800Y0186800D03*
X0166800Y0166800D03*
X0141800Y0171800D03*
X0121800Y0176800D03*
X0116800Y0181800D03*
X0081800Y0171800D03*
X0066800Y0161800D03*
X0104300Y0156800D03*
X0099300Y0139300D03*
X0111800Y0121800D03*
X0101800Y0111800D03*
X0126800Y0086800D03*
X0146800Y0079300D03*
X0176800Y0071800D03*
X0194300Y0079300D03*
X0194300Y0091800D03*
X0181800Y0056800D03*
X0146800Y0056800D03*
X0131800Y0056800D03*
X0141800Y0041800D03*
X0146800Y0016800D03*
X0086800Y0056800D03*
X0056800Y0041800D03*
X0056800Y0036800D03*
X0056800Y0031800D03*
X0046800Y0031800D03*
X0046800Y0036800D03*
X0046800Y0041800D03*
X0096800Y0076800D03*
X0151800Y0141800D03*
X0266800Y0126800D03*
D19*
X0256329Y0146264D02*
X0257336Y0147271D01*
X0257881Y0148588D01*
X0257881Y0149200D01*
X0310395Y0149200D01*
X0312395Y0147200D01*
X0316205Y0147200D01*
X0318900Y0149895D01*
X0318900Y0153705D01*
X0316205Y0156400D01*
X0312395Y0156400D01*
X0310395Y0154400D01*
X0301964Y0154400D01*
X0302336Y0154771D01*
X0302881Y0156088D01*
X0302881Y0157512D01*
X0302336Y0158829D01*
X0301329Y0159836D01*
X0300012Y0160381D01*
X0298588Y0160381D01*
X0297271Y0159836D01*
X0296836Y0159400D01*
X0294464Y0159400D01*
X0294836Y0159771D01*
X0295381Y0161088D01*
X0295381Y0162512D01*
X0294836Y0163829D01*
X0293829Y0164836D01*
X0292512Y0165381D01*
X0291613Y0165381D01*
X0273835Y0183159D01*
X0273159Y0183835D01*
X0272277Y0184200D01*
X0264464Y0184200D01*
X0263829Y0184836D01*
X0262512Y0185381D01*
X0261088Y0185381D01*
X0259771Y0184836D01*
X0258764Y0183829D01*
X0258589Y0183405D01*
X0253835Y0188159D01*
X0253159Y0188835D01*
X0252277Y0189200D01*
X0239464Y0189200D01*
X0238829Y0189836D01*
X0237512Y0190381D01*
X0236088Y0190381D01*
X0234771Y0189836D01*
X0234036Y0189100D01*
X0215847Y0189100D01*
X0202128Y0175381D01*
X0201088Y0175381D01*
X0199771Y0174836D01*
X0198764Y0173829D01*
X0198219Y0172512D01*
X0198219Y0171088D01*
X0198764Y0169771D01*
X0199136Y0169400D01*
X0169264Y0169400D01*
X0168829Y0169836D01*
X0167512Y0170381D01*
X0166472Y0170381D01*
X0165253Y0171600D01*
X0164112Y0171600D01*
X0164112Y0172014D01*
X0163057Y0173068D01*
X0157236Y0173068D01*
X0156800Y0172633D01*
X0156724Y0172709D01*
X0156314Y0172946D01*
X0155856Y0173068D01*
X0153638Y0173068D01*
X0153638Y0169484D01*
X0153269Y0169484D01*
X0153269Y0169116D01*
X0149488Y0169116D01*
X0149488Y0167095D01*
X0149611Y0166637D01*
X0149848Y0166226D01*
X0150183Y0165891D01*
X0150593Y0165654D01*
X0151051Y0165531D01*
X0153269Y0165531D01*
X0153269Y0169116D01*
X0153638Y0169116D01*
X0153638Y0165531D01*
X0155856Y0165531D01*
X0156314Y0165654D01*
X0156724Y0165891D01*
X0156800Y0165967D01*
X0157236Y0165531D01*
X0163057Y0165531D01*
X0163334Y0165809D01*
X0163764Y0164771D01*
X0164771Y0163764D01*
X0166088Y0163219D01*
X0167512Y0163219D01*
X0168829Y0163764D01*
X0169264Y0164200D01*
X0202317Y0164200D01*
X0203273Y0164596D01*
X0204004Y0165327D01*
X0211814Y0173137D01*
X0216850Y0173137D01*
X0216850Y0172432D01*
X0217483Y0171800D01*
X0217210Y0171527D01*
X0216973Y0171117D01*
X0216850Y0170659D01*
X0216850Y0168343D01*
X0221320Y0168343D01*
X0221320Y0167383D01*
X0222280Y0167383D01*
X0222280Y0168343D01*
X0226750Y0168343D01*
X0226750Y0170659D01*
X0226627Y0171117D01*
X0226390Y0171527D01*
X0226117Y0171800D01*
X0226426Y0172109D01*
X0227271Y0171264D01*
X0228588Y0170719D01*
X0230012Y0170719D01*
X0231329Y0171264D01*
X0231764Y0171700D01*
X0234883Y0171700D01*
X0234710Y0171527D01*
X0234473Y0171117D01*
X0234350Y0170659D01*
X0234350Y0168343D01*
X0238820Y0168343D01*
X0238820Y0167383D01*
X0239780Y0167383D01*
X0239780Y0168343D01*
X0244250Y0168343D01*
X0244250Y0170659D01*
X0244127Y0171117D01*
X0243890Y0171527D01*
X0243617Y0171800D01*
X0244250Y0172432D01*
X0244250Y0179042D01*
X0243195Y0180096D01*
X0235405Y0180096D01*
X0234350Y0179042D01*
X0234350Y0176900D01*
X0231964Y0176900D01*
X0232336Y0177271D01*
X0232881Y0178588D01*
X0232881Y0180012D01*
X0232336Y0181329D01*
X0231329Y0182336D01*
X0230012Y0182881D01*
X0228588Y0182881D01*
X0227271Y0182336D01*
X0226264Y0181329D01*
X0225736Y0180055D01*
X0225695Y0180096D01*
X0217905Y0180096D01*
X0216850Y0179042D01*
X0216850Y0178337D01*
X0211590Y0178337D01*
X0217753Y0184500D01*
X0234036Y0184500D01*
X0234771Y0183764D01*
X0236088Y0183219D01*
X0237512Y0183219D01*
X0238829Y0183764D01*
X0239464Y0184400D01*
X0250806Y0184400D01*
X0252325Y0182881D01*
X0251088Y0182881D01*
X0249771Y0182336D01*
X0248764Y0181329D01*
X0248219Y0180012D01*
X0248219Y0178588D01*
X0248764Y0177271D01*
X0249200Y0176836D01*
X0249200Y0174899D01*
X0248102Y0174899D01*
X0247047Y0173845D01*
X0247047Y0167236D01*
X0247483Y0166800D01*
X0247047Y0166364D01*
X0247047Y0159755D01*
X0248102Y0158701D01*
X0251700Y0158701D01*
X0251700Y0151764D01*
X0251264Y0151329D01*
X0250719Y0150012D01*
X0250719Y0148588D01*
X0251264Y0147271D01*
X0252271Y0146264D01*
X0253588Y0145719D01*
X0255012Y0145719D01*
X0256329Y0146264D01*
X0257329Y0147265D02*
X0312330Y0147265D01*
X0312395Y0146400D02*
X0309700Y0143705D01*
X0309700Y0139895D01*
X0312395Y0137200D01*
X0316205Y0137200D01*
X0318900Y0139895D01*
X0318900Y0143705D01*
X0316205Y0146400D01*
X0312395Y0146400D01*
X0311661Y0145666D02*
X0188919Y0145666D01*
X0190517Y0147265D02*
X0251271Y0147265D01*
X0250719Y0148863D02*
X0192116Y0148863D01*
X0193714Y0150462D02*
X0250905Y0150462D01*
X0251700Y0152060D02*
X0205313Y0152060D01*
X0205253Y0152000D02*
X0208972Y0155719D01*
X0210012Y0155719D01*
X0211329Y0156264D01*
X0212336Y0157271D01*
X0212881Y0158588D01*
X0212881Y0160012D01*
X0212336Y0161329D01*
X0211864Y0161800D01*
X0212336Y0162271D01*
X0212881Y0163588D01*
X0212881Y0165012D01*
X0212336Y0166329D01*
X0211329Y0167336D01*
X0210012Y0167881D01*
X0208588Y0167881D01*
X0207271Y0167336D01*
X0206264Y0166329D01*
X0205719Y0165012D01*
X0205719Y0163972D01*
X0200847Y0159100D01*
X0185847Y0159100D01*
X0184500Y0157753D01*
X0137000Y0110253D01*
X0137000Y0076966D01*
X0136980Y0076966D01*
X0135925Y0075912D01*
X0135925Y0069781D01*
X0133551Y0069781D01*
X0133093Y0069658D01*
X0132683Y0069421D01*
X0132348Y0069086D01*
X0132111Y0068676D01*
X0131988Y0068218D01*
X0131988Y0066800D01*
X0135953Y0066800D01*
X0131988Y0066800D01*
X0131988Y0065382D01*
X0132111Y0064924D01*
X0132348Y0064514D01*
X0132683Y0064179D01*
X0133093Y0063942D01*
X0133551Y0063819D01*
X0135925Y0063819D01*
X0135925Y0057688D01*
X0136980Y0056634D01*
X0137000Y0056634D01*
X0137000Y0043347D01*
X0138219Y0042128D01*
X0138219Y0041088D01*
X0138764Y0039771D01*
X0139771Y0038764D01*
X0141088Y0038219D01*
X0142512Y0038219D01*
X0143829Y0038764D01*
X0144836Y0039771D01*
X0145381Y0041088D01*
X0145381Y0042512D01*
X0144836Y0043829D01*
X0143829Y0044836D01*
X0142512Y0045381D01*
X0141600Y0045381D01*
X0141600Y0056634D01*
X0141620Y0056634D01*
X0142675Y0057688D01*
X0142675Y0063819D01*
X0145049Y0063819D01*
X0145507Y0063942D01*
X0145550Y0063967D01*
X0145593Y0063942D01*
X0146051Y0063819D01*
X0148425Y0063819D01*
X0148425Y0061068D01*
X0147672Y0060315D01*
X0147512Y0060381D01*
X0146088Y0060381D01*
X0144771Y0059836D01*
X0143764Y0058829D01*
X0143219Y0057512D01*
X0143219Y0056088D01*
X0143764Y0054771D01*
X0144771Y0053764D01*
X0146088Y0053219D01*
X0147512Y0053219D01*
X0148829Y0053764D01*
X0149836Y0054771D01*
X0150381Y0056088D01*
X0150381Y0056518D01*
X0150497Y0056634D01*
X0154120Y0056634D01*
X0155175Y0057688D01*
X0155175Y0063819D01*
X0157549Y0063819D01*
X0158007Y0063942D01*
X0158417Y0064179D01*
X0158752Y0064514D01*
X0158989Y0064924D01*
X0159112Y0065382D01*
X0159112Y0066800D01*
X0159112Y0068218D01*
X0158989Y0068676D01*
X0158752Y0069086D01*
X0158417Y0069421D01*
X0158007Y0069658D01*
X0157549Y0069781D01*
X0155175Y0069781D01*
X0155175Y0075912D01*
X0154120Y0076966D01*
X0154100Y0076966D01*
X0154100Y0110847D01*
X0195253Y0152000D01*
X0205253Y0152000D01*
X0206911Y0153659D02*
X0251700Y0153659D01*
X0251700Y0155257D02*
X0208510Y0155257D01*
X0211920Y0156856D02*
X0251700Y0156856D01*
X0251700Y0158454D02*
X0212826Y0158454D01*
X0212864Y0160053D02*
X0247047Y0160053D01*
X0247047Y0161651D02*
X0212013Y0161651D01*
X0212741Y0163250D02*
X0247047Y0163250D01*
X0247047Y0164848D02*
X0244191Y0164848D01*
X0244250Y0165067D02*
X0244250Y0167383D01*
X0239780Y0167383D01*
X0239780Y0163504D01*
X0242687Y0163504D01*
X0243144Y0163627D01*
X0243555Y0163864D01*
X0243890Y0164199D01*
X0244127Y0164609D01*
X0244250Y0165067D01*
X0244250Y0166447D02*
X0247129Y0166447D01*
X0247047Y0168045D02*
X0239780Y0168045D01*
X0238820Y0168045D02*
X0222280Y0168045D01*
X0221800Y0167863D02*
X0207863Y0167863D01*
X0201800Y0161800D01*
X0151800Y0161800D01*
X0144300Y0169300D01*
X0141800Y0171800D01*
X0141800Y0151800D01*
X0151800Y0141800D01*
X0101800Y0141800D01*
X0099300Y0139300D01*
X0081800Y0156800D01*
X0081800Y0171800D01*
X0065869Y0181081D02*
X0066600Y0182845D01*
X0066600Y0190755D01*
X0065869Y0192519D01*
X0064519Y0193869D01*
X0062755Y0194600D01*
X0060845Y0194600D01*
X0059081Y0193869D01*
X0057731Y0192519D01*
X0057000Y0190755D01*
X0057000Y0182845D01*
X0057731Y0181081D01*
X0059081Y0179731D01*
X0060845Y0179000D01*
X0062755Y0179000D01*
X0064519Y0179731D01*
X0065869Y0181081D01*
X0065621Y0180833D02*
X0207581Y0180833D01*
X0209179Y0182432D02*
X0066429Y0182432D01*
X0066600Y0184030D02*
X0194505Y0184030D01*
X0194771Y0183764D02*
X0196088Y0183219D01*
X0197512Y0183219D01*
X0198829Y0183764D01*
X0199836Y0184771D01*
X0200381Y0186088D01*
X0200381Y0187512D01*
X0199836Y0188829D01*
X0198829Y0189836D01*
X0197512Y0190381D01*
X0196088Y0190381D01*
X0194771Y0189836D01*
X0193764Y0188829D01*
X0193219Y0187512D01*
X0193219Y0186088D01*
X0193764Y0184771D01*
X0194771Y0183764D01*
X0193409Y0185629D02*
X0066600Y0185629D01*
X0066600Y0187227D02*
X0193219Y0187227D01*
X0193763Y0188826D02*
X0066600Y0188826D01*
X0066600Y0190424D02*
X0304499Y0190424D01*
X0306097Y0188826D02*
X0253168Y0188826D01*
X0254767Y0187227D02*
X0307696Y0187227D01*
X0309294Y0185629D02*
X0256365Y0185629D01*
X0257964Y0184030D02*
X0258966Y0184030D01*
X0251176Y0184030D02*
X0239095Y0184030D01*
X0234505Y0184030D02*
X0217283Y0184030D01*
X0215684Y0182432D02*
X0227503Y0182432D01*
X0226059Y0180833D02*
X0214086Y0180833D01*
X0212487Y0179235D02*
X0217044Y0179235D01*
X0221800Y0175737D02*
X0210737Y0175737D01*
X0201800Y0166800D01*
X0166800Y0166800D01*
X0169021Y0169644D02*
X0198892Y0169644D01*
X0198219Y0171242D02*
X0165610Y0171242D01*
X0163285Y0172841D02*
X0198355Y0172841D01*
X0199375Y0174439D02*
X0124504Y0174439D01*
X0124836Y0174771D02*
X0125381Y0176088D01*
X0125381Y0177512D01*
X0124836Y0178829D01*
X0123829Y0179836D01*
X0122512Y0180381D01*
X0121088Y0180381D01*
X0119771Y0179836D01*
X0118764Y0178829D01*
X0118219Y0177512D01*
X0118219Y0176896D01*
X0102096Y0160773D01*
X0101700Y0159817D01*
X0101700Y0159264D01*
X0101264Y0158829D01*
X0100719Y0157512D01*
X0100719Y0156088D01*
X0101264Y0154771D01*
X0102271Y0153764D01*
X0103588Y0153219D01*
X0105012Y0153219D01*
X0106329Y0153764D01*
X0107336Y0154771D01*
X0107881Y0156088D01*
X0107881Y0157512D01*
X0107386Y0158709D01*
X0121896Y0173219D01*
X0122512Y0173219D01*
X0123829Y0173764D01*
X0124836Y0174771D01*
X0125360Y0176038D02*
X0202785Y0176038D01*
X0204384Y0177636D02*
X0125330Y0177636D01*
X0124430Y0179235D02*
X0205982Y0179235D01*
X0210778Y0184030D02*
X0199095Y0184030D01*
X0200191Y0185629D02*
X0212376Y0185629D01*
X0213975Y0187227D02*
X0200381Y0187227D01*
X0199837Y0188826D02*
X0215573Y0188826D01*
X0225737Y0175737D02*
X0229300Y0179300D01*
X0232881Y0179235D02*
X0234544Y0179235D01*
X0234350Y0177636D02*
X0232487Y0177636D01*
X0232541Y0180833D02*
X0248559Y0180833D01*
X0248219Y0179235D02*
X0244056Y0179235D01*
X0244250Y0177636D02*
X0248613Y0177636D01*
X0249200Y0176038D02*
X0244250Y0176038D01*
X0244250Y0174439D02*
X0247642Y0174439D01*
X0247047Y0172841D02*
X0244250Y0172841D01*
X0244055Y0171242D02*
X0247047Y0171242D01*
X0247047Y0169644D02*
X0244250Y0169644D01*
X0239780Y0166447D02*
X0238820Y0166447D01*
X0238820Y0167383D02*
X0238820Y0163504D01*
X0235913Y0163504D01*
X0235456Y0163627D01*
X0235045Y0163864D01*
X0234710Y0164199D01*
X0234473Y0164609D01*
X0234350Y0165067D01*
X0234350Y0167383D01*
X0238820Y0167383D01*
X0238820Y0164848D02*
X0239780Y0164848D01*
X0234409Y0164848D02*
X0226691Y0164848D01*
X0226750Y0165067D02*
X0226750Y0167383D01*
X0222280Y0167383D01*
X0222280Y0163504D01*
X0225187Y0163504D01*
X0225644Y0163627D01*
X0226055Y0163864D01*
X0226390Y0164199D01*
X0226627Y0164609D01*
X0226750Y0165067D01*
X0226750Y0166447D02*
X0234350Y0166447D01*
X0234350Y0169644D02*
X0226750Y0169644D01*
X0226555Y0171242D02*
X0227324Y0171242D01*
X0229300Y0169300D02*
X0223237Y0169300D01*
X0221800Y0167863D01*
X0221320Y0168045D02*
X0206722Y0168045D01*
X0206382Y0166447D02*
X0205124Y0166447D01*
X0205719Y0164848D02*
X0203525Y0164848D01*
X0204997Y0163250D02*
X0167587Y0163250D01*
X0166013Y0163250D02*
X0111927Y0163250D01*
X0113525Y0164848D02*
X0163732Y0164848D01*
X0153638Y0166447D02*
X0153269Y0166447D01*
X0153269Y0168045D02*
X0153638Y0168045D01*
X0153269Y0169484D02*
X0149488Y0169484D01*
X0149488Y0171505D01*
X0149611Y0171963D01*
X0149848Y0172374D01*
X0150183Y0172709D01*
X0150593Y0172946D01*
X0151051Y0173068D01*
X0153269Y0173068D01*
X0153269Y0169484D01*
X0153269Y0169644D02*
X0153638Y0169644D01*
X0153638Y0171242D02*
X0153269Y0171242D01*
X0153269Y0172841D02*
X0153638Y0172841D01*
X0156496Y0172841D02*
X0157008Y0172841D01*
X0150411Y0172841D02*
X0121518Y0172841D01*
X0119919Y0171242D02*
X0149488Y0171242D01*
X0149488Y0169644D02*
X0118321Y0169644D01*
X0116722Y0168045D02*
X0149488Y0168045D01*
X0149721Y0166447D02*
X0115124Y0166447D01*
X0110967Y0169644D02*
X0010942Y0169644D01*
X0010942Y0171242D02*
X0112565Y0171242D01*
X0114164Y0172841D02*
X0010942Y0172841D01*
X0010942Y0174439D02*
X0115762Y0174439D01*
X0117361Y0176038D02*
X0010942Y0176038D01*
X0010942Y0177636D02*
X0118270Y0177636D01*
X0119170Y0179235D02*
X0063322Y0179235D01*
X0060278Y0179235D02*
X0053322Y0179235D01*
X0052755Y0179000D02*
X0054519Y0179731D01*
X0055869Y0181081D01*
X0056600Y0182845D01*
X0056600Y0190755D01*
X0055869Y0192519D01*
X0054519Y0193869D01*
X0052755Y0194600D01*
X0050845Y0194600D01*
X0049081Y0193869D01*
X0047731Y0192519D01*
X0047000Y0190755D01*
X0047000Y0182845D01*
X0047731Y0181081D01*
X0049081Y0179731D01*
X0050845Y0179000D01*
X0052755Y0179000D01*
X0050278Y0179235D02*
X0043283Y0179235D01*
X0042924Y0179118D02*
X0043643Y0179352D01*
X0044316Y0179695D01*
X0044927Y0180139D01*
X0045461Y0180673D01*
X0045905Y0181284D01*
X0046248Y0181957D01*
X0046482Y0182676D01*
X0046600Y0183422D01*
X0046600Y0186600D01*
X0042000Y0186600D01*
X0042000Y0187000D01*
X0046600Y0187000D01*
X0046600Y0190178D01*
X0046482Y0190924D01*
X0046248Y0191643D01*
X0045905Y0192316D01*
X0045461Y0192927D01*
X0044927Y0193461D01*
X0044316Y0193905D01*
X0043643Y0194248D01*
X0042924Y0194482D01*
X0042178Y0194600D01*
X0042000Y0194600D01*
X0042000Y0187000D01*
X0041600Y0187000D01*
X0041600Y0194600D01*
X0041422Y0194600D01*
X0040676Y0194482D01*
X0039957Y0194248D01*
X0039284Y0193905D01*
X0038673Y0193461D01*
X0038139Y0192927D01*
X0037695Y0192316D01*
X0037352Y0191643D01*
X0037118Y0190924D01*
X0037000Y0190178D01*
X0037000Y0187000D01*
X0041600Y0187000D01*
X0041600Y0186600D01*
X0042000Y0186600D01*
X0042000Y0179000D01*
X0042178Y0179000D01*
X0042924Y0179118D01*
X0042000Y0179235D02*
X0041600Y0179235D01*
X0041600Y0179000D02*
X0041600Y0186600D01*
X0037000Y0186600D01*
X0037000Y0183422D01*
X0037118Y0182676D01*
X0037352Y0181957D01*
X0037695Y0181284D01*
X0038139Y0180673D01*
X0038673Y0180139D01*
X0039284Y0179695D01*
X0039957Y0179352D01*
X0040676Y0179118D01*
X0041422Y0179000D01*
X0041600Y0179000D01*
X0040317Y0179235D02*
X0033322Y0179235D01*
X0032755Y0179000D02*
X0034519Y0179731D01*
X0035869Y0181081D01*
X0036600Y0182845D01*
X0036600Y0190755D01*
X0035869Y0192519D01*
X0034519Y0193869D01*
X0032755Y0194600D01*
X0030845Y0194600D01*
X0029081Y0193869D01*
X0027731Y0192519D01*
X0027000Y0190755D01*
X0027000Y0182845D01*
X0027731Y0181081D01*
X0029081Y0179731D01*
X0030845Y0179000D01*
X0032755Y0179000D01*
X0030278Y0179235D02*
X0010942Y0179235D01*
X0010942Y0180833D02*
X0027979Y0180833D01*
X0027171Y0182432D02*
X0010942Y0182432D01*
X0010942Y0184030D02*
X0027000Y0184030D01*
X0027000Y0185629D02*
X0010942Y0185629D01*
X0010942Y0187227D02*
X0027000Y0187227D01*
X0027000Y0188826D02*
X0010942Y0188826D01*
X0010942Y0190424D02*
X0027000Y0190424D01*
X0027525Y0192023D02*
X0010942Y0192023D01*
X0010942Y0193621D02*
X0028833Y0193621D01*
X0034767Y0193621D02*
X0038893Y0193621D01*
X0037545Y0192023D02*
X0036075Y0192023D01*
X0036600Y0190424D02*
X0037039Y0190424D01*
X0037000Y0188826D02*
X0036600Y0188826D01*
X0036600Y0187227D02*
X0037000Y0187227D01*
X0037000Y0185629D02*
X0036600Y0185629D01*
X0036600Y0184030D02*
X0037000Y0184030D01*
X0037198Y0182432D02*
X0036429Y0182432D01*
X0035621Y0180833D02*
X0038022Y0180833D01*
X0041600Y0180833D02*
X0042000Y0180833D01*
X0042000Y0182432D02*
X0041600Y0182432D01*
X0041600Y0184030D02*
X0042000Y0184030D01*
X0042000Y0185629D02*
X0041600Y0185629D01*
X0041600Y0187227D02*
X0042000Y0187227D01*
X0042000Y0188826D02*
X0041600Y0188826D01*
X0041600Y0190424D02*
X0042000Y0190424D01*
X0042000Y0192023D02*
X0041600Y0192023D01*
X0041600Y0193621D02*
X0042000Y0193621D01*
X0044707Y0193621D02*
X0048833Y0193621D01*
X0047525Y0192023D02*
X0046055Y0192023D01*
X0046561Y0190424D02*
X0047000Y0190424D01*
X0047000Y0188826D02*
X0046600Y0188826D01*
X0046600Y0187227D02*
X0047000Y0187227D01*
X0047000Y0185629D02*
X0046600Y0185629D01*
X0046600Y0184030D02*
X0047000Y0184030D01*
X0047171Y0182432D02*
X0046402Y0182432D01*
X0045578Y0180833D02*
X0047979Y0180833D01*
X0055621Y0180833D02*
X0057979Y0180833D01*
X0057171Y0182432D02*
X0056429Y0182432D01*
X0056600Y0184030D02*
X0057000Y0184030D01*
X0057000Y0185629D02*
X0056600Y0185629D01*
X0056600Y0187227D02*
X0057000Y0187227D01*
X0057000Y0188826D02*
X0056600Y0188826D01*
X0056600Y0190424D02*
X0057000Y0190424D01*
X0057525Y0192023D02*
X0056075Y0192023D01*
X0054767Y0193621D02*
X0058833Y0193621D01*
X0064767Y0193621D02*
X0240116Y0193621D01*
X0239771Y0193764D02*
X0241088Y0193219D01*
X0242512Y0193219D01*
X0243829Y0193764D01*
X0244264Y0194200D01*
X0300723Y0194200D01*
X0311700Y0183223D01*
X0311700Y0175705D01*
X0309700Y0173705D01*
X0309700Y0169895D01*
X0312395Y0167200D01*
X0316205Y0167200D01*
X0318900Y0169895D01*
X0318900Y0173705D01*
X0316900Y0175705D01*
X0316900Y0184817D01*
X0316504Y0185773D01*
X0304004Y0198273D01*
X0303273Y0199004D01*
X0302317Y0199400D01*
X0244264Y0199400D01*
X0243829Y0199836D01*
X0242512Y0200381D01*
X0241088Y0200381D01*
X0239771Y0199836D01*
X0238764Y0198829D01*
X0238219Y0197512D01*
X0238219Y0196088D01*
X0238764Y0194771D01*
X0239771Y0193764D01*
X0238578Y0195220D02*
X0010942Y0195220D01*
X0010942Y0196818D02*
X0017059Y0196818D01*
X0017571Y0196563D02*
X0014199Y0198242D01*
X0014199Y0198242D01*
X0011661Y0201026D01*
X0011661Y0201026D01*
X0010942Y0202882D01*
X0010942Y0020987D01*
X0011661Y0022843D01*
X0011661Y0022843D01*
X0014199Y0025627D01*
X0014199Y0025627D01*
X0014199Y0025627D01*
X0017571Y0027306D01*
X0017571Y0027306D01*
X0021322Y0027653D01*
X0021322Y0027653D01*
X0024945Y0026623D01*
X0024945Y0026623D01*
X0027952Y0024352D01*
X0027952Y0024352D01*
X0029935Y0021149D01*
X0029935Y0021149D01*
X0030627Y0017446D01*
X0030627Y0017446D01*
X0029935Y0013743D01*
X0027952Y0010540D01*
X0027952Y0010540D01*
X0024945Y0008270D01*
X0024945Y0008270D01*
X0021322Y0007239D01*
X0021322Y0007239D01*
X0017571Y0007587D01*
X0017571Y0007587D01*
X0014199Y0009266D01*
X0014199Y0009266D01*
X0011661Y0012050D01*
X0011661Y0012050D01*
X0010942Y0013906D01*
X0010942Y0004075D01*
X0336897Y0004075D01*
X0336897Y0013543D01*
X0335038Y0010540D01*
X0335038Y0010540D01*
X0335038Y0010540D01*
X0332032Y0008270D01*
X0332032Y0008270D01*
X0328409Y0007239D01*
X0328409Y0007239D01*
X0324658Y0007587D01*
X0324658Y0007587D01*
X0321285Y0009266D01*
X0321285Y0009266D01*
X0318748Y0012050D01*
X0318748Y0012050D01*
X0317387Y0015563D01*
X0317387Y0019330D01*
X0318748Y0022843D01*
X0318748Y0022843D01*
X0321285Y0025627D01*
X0321285Y0025627D01*
X0324658Y0027306D01*
X0324658Y0027306D01*
X0328409Y0027653D01*
X0328409Y0027653D01*
X0332032Y0026623D01*
X0332032Y0026623D01*
X0335038Y0024352D01*
X0335038Y0024352D01*
X0335038Y0024352D01*
X0336897Y0021350D01*
X0336897Y0202519D01*
X0335038Y0199517D01*
X0335038Y0199517D01*
X0335038Y0199517D01*
X0332032Y0197247D01*
X0332032Y0197247D01*
X0328409Y0196216D01*
X0328409Y0196216D01*
X0324658Y0196563D01*
X0324658Y0196563D01*
X0321285Y0198242D01*
X0321285Y0198242D01*
X0318748Y0201026D01*
X0318748Y0201026D01*
X0317387Y0204539D01*
X0317387Y0208306D01*
X0318748Y0211819D01*
X0318748Y0211819D01*
X0321285Y0214603D01*
X0321285Y0214603D01*
X0324658Y0216282D01*
X0324658Y0216282D01*
X0328409Y0216630D01*
X0328409Y0216630D01*
X0332032Y0215599D01*
X0332032Y0215599D01*
X0335038Y0213329D01*
X0335038Y0213329D01*
X0335038Y0213329D01*
X0336897Y0210327D01*
X0336897Y0219794D01*
X0010942Y0219794D01*
X0010942Y0209963D01*
X0011661Y0211819D01*
X0011661Y0211819D01*
X0014199Y0214603D01*
X0014199Y0214603D01*
X0017571Y0216282D01*
X0017571Y0216282D01*
X0021322Y0216630D01*
X0021322Y0216630D01*
X0024945Y0215599D01*
X0024945Y0215599D01*
X0027952Y0213329D01*
X0027952Y0213329D01*
X0027952Y0213329D01*
X0029935Y0210126D01*
X0029935Y0210126D01*
X0030627Y0206423D01*
X0030627Y0206423D01*
X0029935Y0202720D01*
X0027952Y0199517D01*
X0027952Y0199517D01*
X0024945Y0197247D01*
X0024945Y0197247D01*
X0021322Y0196216D01*
X0021322Y0196216D01*
X0017571Y0196563D01*
X0017571Y0196563D01*
X0014040Y0198417D02*
X0010942Y0198417D01*
X0010942Y0200015D02*
X0012583Y0200015D01*
X0011433Y0201614D02*
X0010942Y0201614D01*
X0023440Y0196818D02*
X0238219Y0196818D01*
X0238594Y0198417D02*
X0026495Y0198417D01*
X0028260Y0200015D02*
X0240205Y0200015D01*
X0243395Y0200015D02*
X0319669Y0200015D01*
X0318520Y0201614D02*
X0029250Y0201614D01*
X0030027Y0203212D02*
X0317901Y0203212D01*
X0317387Y0204811D02*
X0030326Y0204811D01*
X0030625Y0206409D02*
X0317387Y0206409D01*
X0317387Y0208008D02*
X0030331Y0208008D01*
X0030032Y0209606D02*
X0317890Y0209606D01*
X0318510Y0211205D02*
X0029267Y0211205D01*
X0028277Y0212803D02*
X0319645Y0212803D01*
X0321102Y0214402D02*
X0026530Y0214402D01*
X0023534Y0216001D02*
X0324092Y0216001D01*
X0330620Y0216001D02*
X0336897Y0216001D01*
X0336897Y0217599D02*
X0010942Y0217599D01*
X0010942Y0216001D02*
X0017005Y0216001D01*
X0014199Y0214603D02*
X0014199Y0214603D01*
X0014016Y0214402D02*
X0010942Y0214402D01*
X0010942Y0212803D02*
X0012558Y0212803D01*
X0011423Y0211205D02*
X0010942Y0211205D01*
X0010942Y0219198D02*
X0336897Y0219198D01*
X0336897Y0214402D02*
X0333617Y0214402D01*
X0335364Y0212803D02*
X0336897Y0212803D01*
X0336897Y0211205D02*
X0336353Y0211205D01*
X0336337Y0201614D02*
X0336897Y0201614D01*
X0336897Y0200015D02*
X0335347Y0200015D01*
X0336897Y0198417D02*
X0333582Y0198417D01*
X0330527Y0196818D02*
X0336897Y0196818D01*
X0336897Y0195220D02*
X0307057Y0195220D01*
X0305459Y0196818D02*
X0324145Y0196818D01*
X0321126Y0198417D02*
X0303860Y0198417D01*
X0301800Y0196800D02*
X0241800Y0196800D01*
X0243484Y0193621D02*
X0301302Y0193621D01*
X0302900Y0192023D02*
X0066075Y0192023D01*
X0104573Y0163250D02*
X0010942Y0163250D01*
X0010942Y0164848D02*
X0106171Y0164848D01*
X0107770Y0166447D02*
X0010942Y0166447D01*
X0010942Y0168045D02*
X0109368Y0168045D01*
X0110328Y0161651D02*
X0203398Y0161651D01*
X0201800Y0160053D02*
X0108730Y0160053D01*
X0107491Y0158454D02*
X0185201Y0158454D01*
X0183603Y0156856D02*
X0107881Y0156856D01*
X0107537Y0155257D02*
X0182004Y0155257D01*
X0180406Y0153659D02*
X0106074Y0153659D01*
X0102526Y0153659D02*
X0010942Y0153659D01*
X0010942Y0155257D02*
X0101063Y0155257D01*
X0100719Y0156856D02*
X0010942Y0156856D01*
X0010942Y0158454D02*
X0101109Y0158454D01*
X0101798Y0160053D02*
X0010942Y0160053D01*
X0010942Y0161651D02*
X0102974Y0161651D01*
X0104300Y0159300D02*
X0121800Y0176800D01*
X0116800Y0181800D02*
X0131800Y0181800D01*
X0141800Y0171800D01*
X0175610Y0148863D02*
X0010942Y0148863D01*
X0010942Y0147265D02*
X0174012Y0147265D01*
X0172413Y0145666D02*
X0010942Y0145666D01*
X0010942Y0144068D02*
X0170815Y0144068D01*
X0169216Y0142469D02*
X0010942Y0142469D01*
X0010942Y0140870D02*
X0167618Y0140870D01*
X0166019Y0139272D02*
X0010942Y0139272D01*
X0010942Y0137673D02*
X0164421Y0137673D01*
X0162822Y0136075D02*
X0010942Y0136075D01*
X0010942Y0134476D02*
X0161224Y0134476D01*
X0159625Y0132878D02*
X0010942Y0132878D01*
X0010942Y0131279D02*
X0158027Y0131279D01*
X0156428Y0129681D02*
X0010942Y0129681D01*
X0010942Y0128082D02*
X0154830Y0128082D01*
X0153231Y0126484D02*
X0010942Y0126484D01*
X0010942Y0124885D02*
X0151633Y0124885D01*
X0150034Y0123287D02*
X0010942Y0123287D01*
X0010942Y0121688D02*
X0148436Y0121688D01*
X0146837Y0120090D02*
X0010942Y0120090D01*
X0010942Y0118491D02*
X0145239Y0118491D01*
X0143640Y0116893D02*
X0010942Y0116893D01*
X0010942Y0115294D02*
X0100878Y0115294D01*
X0101088Y0115381D02*
X0099771Y0114836D01*
X0098764Y0113829D01*
X0098219Y0112512D01*
X0098219Y0111896D01*
X0095327Y0109004D01*
X0094596Y0108273D01*
X0094200Y0107317D01*
X0094200Y0079264D01*
X0093764Y0078829D01*
X0093219Y0077512D01*
X0093219Y0076088D01*
X0093764Y0074771D01*
X0094771Y0073764D01*
X0096088Y0073219D01*
X0097512Y0073219D01*
X0098829Y0073764D01*
X0099836Y0074771D01*
X0100381Y0076088D01*
X0100381Y0077512D01*
X0099836Y0078829D01*
X0099400Y0079264D01*
X0099400Y0105723D01*
X0101896Y0108219D01*
X0102512Y0108219D01*
X0103829Y0108764D01*
X0104836Y0109771D01*
X0105381Y0111088D01*
X0105381Y0112512D01*
X0104836Y0113829D01*
X0103829Y0114836D01*
X0102512Y0115381D01*
X0101088Y0115381D01*
X0102722Y0115294D02*
X0142042Y0115294D01*
X0140443Y0113696D02*
X0104891Y0113696D01*
X0105381Y0112097D02*
X0138845Y0112097D01*
X0137246Y0110499D02*
X0105137Y0110499D01*
X0103965Y0108900D02*
X0137000Y0108900D01*
X0137000Y0107302D02*
X0100979Y0107302D01*
X0099400Y0105703D02*
X0137000Y0105703D01*
X0137000Y0104105D02*
X0099400Y0104105D01*
X0099400Y0102506D02*
X0137000Y0102506D01*
X0137000Y0100908D02*
X0099400Y0100908D01*
X0099400Y0099309D02*
X0137000Y0099309D01*
X0137000Y0097711D02*
X0099400Y0097711D01*
X0099400Y0096112D02*
X0137000Y0096112D01*
X0137000Y0094514D02*
X0099400Y0094514D01*
X0099400Y0092915D02*
X0137000Y0092915D01*
X0137000Y0091317D02*
X0099400Y0091317D01*
X0099400Y0089718D02*
X0137000Y0089718D01*
X0137000Y0088120D02*
X0099400Y0088120D01*
X0099400Y0086521D02*
X0137000Y0086521D01*
X0137000Y0084923D02*
X0099400Y0084923D01*
X0099400Y0083324D02*
X0137000Y0083324D01*
X0137000Y0081726D02*
X0099400Y0081726D01*
X0099400Y0080127D02*
X0137000Y0080127D01*
X0137000Y0078529D02*
X0099960Y0078529D01*
X0100381Y0076930D02*
X0136944Y0076930D01*
X0135925Y0075332D02*
X0100068Y0075332D01*
X0098753Y0073733D02*
X0135925Y0073733D01*
X0135925Y0072134D02*
X0010942Y0072134D01*
X0010942Y0070536D02*
X0135925Y0070536D01*
X0132262Y0068937D02*
X0010942Y0068937D01*
X0010942Y0067339D02*
X0131988Y0067339D01*
X0131988Y0065740D02*
X0010942Y0065740D01*
X0010942Y0064142D02*
X0132746Y0064142D01*
X0135925Y0062543D02*
X0010942Y0062543D01*
X0010942Y0060945D02*
X0135925Y0060945D01*
X0135925Y0059346D02*
X0010942Y0059346D01*
X0010942Y0057748D02*
X0135925Y0057748D01*
X0137000Y0056149D02*
X0010942Y0056149D01*
X0010942Y0054551D02*
X0137000Y0054551D01*
X0137000Y0052952D02*
X0010942Y0052952D01*
X0010942Y0051354D02*
X0137000Y0051354D01*
X0137000Y0049755D02*
X0010942Y0049755D01*
X0010942Y0048157D02*
X0137000Y0048157D01*
X0137000Y0046558D02*
X0010942Y0046558D01*
X0010942Y0044960D02*
X0137000Y0044960D01*
X0137000Y0043361D02*
X0010942Y0043361D01*
X0010942Y0041763D02*
X0138219Y0041763D01*
X0138601Y0040164D02*
X0010942Y0040164D01*
X0010942Y0038566D02*
X0140250Y0038566D01*
X0143350Y0038566D02*
X0232746Y0038566D01*
X0232639Y0038673D02*
X0233173Y0038139D01*
X0233784Y0037695D01*
X0234457Y0037352D01*
X0235176Y0037118D01*
X0235922Y0037000D01*
X0239100Y0037000D01*
X0239100Y0041600D01*
X0239500Y0041600D01*
X0239500Y0042000D01*
X0239100Y0042000D01*
X0239100Y0046600D01*
X0235922Y0046600D01*
X0235176Y0046482D01*
X0234457Y0046248D01*
X0233784Y0045905D01*
X0233173Y0045461D01*
X0232639Y0044927D01*
X0232195Y0044316D01*
X0231852Y0043643D01*
X0231618Y0042924D01*
X0231500Y0042178D01*
X0231500Y0042000D01*
X0239100Y0042000D01*
X0239100Y0041600D01*
X0231500Y0041600D01*
X0231500Y0041422D01*
X0231618Y0040676D01*
X0231852Y0039957D01*
X0232195Y0039284D01*
X0232639Y0038673D01*
X0231784Y0040164D02*
X0144999Y0040164D01*
X0145381Y0041763D02*
X0239100Y0041763D01*
X0239300Y0041800D02*
X0266800Y0041800D01*
X0291800Y0066800D01*
X0294300Y0066800D01*
X0299300Y0071800D01*
X0316800Y0071800D01*
X0321800Y0076800D01*
X0322000Y0076930D02*
X0336897Y0076930D01*
X0336897Y0075332D02*
X0329370Y0075332D01*
X0329482Y0075676D02*
X0329600Y0076422D01*
X0329600Y0076600D01*
X0322000Y0076600D01*
X0322000Y0077000D01*
X0321600Y0077000D01*
X0321600Y0081600D01*
X0320277Y0081600D01*
X0320677Y0082000D01*
X0325755Y0082000D01*
X0327519Y0082731D01*
X0328869Y0084081D01*
X0329600Y0085845D01*
X0329600Y0087755D01*
X0328869Y0089519D01*
X0327519Y0090869D01*
X0325755Y0091600D01*
X0317845Y0091600D01*
X0316081Y0090869D01*
X0314731Y0089519D01*
X0314000Y0087755D01*
X0314000Y0085845D01*
X0314731Y0084081D01*
X0315067Y0083744D01*
X0310723Y0079400D01*
X0301419Y0079400D01*
X0301369Y0079519D01*
X0300019Y0080869D01*
X0298255Y0081600D01*
X0290345Y0081600D01*
X0288581Y0080869D01*
X0287231Y0079519D01*
X0287181Y0079400D01*
X0281283Y0079400D01*
X0280327Y0079004D01*
X0264596Y0063273D01*
X0264200Y0062317D01*
X0264200Y0056600D01*
X0262845Y0056600D01*
X0261081Y0055869D01*
X0259731Y0054519D01*
X0259681Y0054400D01*
X0246419Y0054400D01*
X0246369Y0054519D01*
X0245019Y0055869D01*
X0243255Y0056600D01*
X0235345Y0056600D01*
X0233581Y0055869D01*
X0232231Y0054519D01*
X0232181Y0054400D01*
X0187877Y0054400D01*
X0185381Y0056896D01*
X0185381Y0057512D01*
X0184836Y0058829D01*
X0183829Y0059836D01*
X0182512Y0060381D01*
X0181088Y0060381D01*
X0179771Y0059836D01*
X0178764Y0058829D01*
X0178219Y0057512D01*
X0178219Y0056088D01*
X0178764Y0054771D01*
X0179771Y0053764D01*
X0181088Y0053219D01*
X0181704Y0053219D01*
X0184596Y0050327D01*
X0185327Y0049596D01*
X0186283Y0049200D01*
X0232181Y0049200D01*
X0232231Y0049081D01*
X0233581Y0047731D01*
X0235345Y0047000D01*
X0243255Y0047000D01*
X0245019Y0047731D01*
X0246369Y0049081D01*
X0246419Y0049200D01*
X0259681Y0049200D01*
X0259731Y0049081D01*
X0261081Y0047731D01*
X0262845Y0047000D01*
X0270755Y0047000D01*
X0272519Y0047731D01*
X0273869Y0049081D01*
X0274600Y0050845D01*
X0274600Y0052755D01*
X0273869Y0054519D01*
X0272519Y0055869D01*
X0270755Y0056600D01*
X0269400Y0056600D01*
X0269400Y0060723D01*
X0282877Y0074200D01*
X0287181Y0074200D01*
X0287231Y0074081D01*
X0288581Y0072731D01*
X0290345Y0072000D01*
X0298255Y0072000D01*
X0300019Y0072731D01*
X0301369Y0074081D01*
X0301419Y0074200D01*
X0312317Y0074200D01*
X0313273Y0074596D01*
X0314004Y0075327D01*
X0314176Y0075499D01*
X0314352Y0074957D01*
X0314695Y0074284D01*
X0315139Y0073673D01*
X0315673Y0073139D01*
X0316284Y0072695D01*
X0316957Y0072352D01*
X0317676Y0072118D01*
X0318422Y0072000D01*
X0321600Y0072000D01*
X0321600Y0076600D01*
X0322000Y0076600D01*
X0322000Y0072000D01*
X0325178Y0072000D01*
X0325924Y0072118D01*
X0326643Y0072352D01*
X0327316Y0072695D01*
X0327927Y0073139D01*
X0328461Y0073673D01*
X0328905Y0074284D01*
X0329248Y0074957D01*
X0329482Y0075676D01*
X0329600Y0077000D02*
X0329600Y0077178D01*
X0329482Y0077924D01*
X0329248Y0078643D01*
X0328905Y0079316D01*
X0328461Y0079927D01*
X0327927Y0080461D01*
X0327316Y0080905D01*
X0326643Y0081248D01*
X0325924Y0081482D01*
X0325178Y0081600D01*
X0322000Y0081600D01*
X0322000Y0077000D01*
X0329600Y0077000D01*
X0329285Y0078529D02*
X0336897Y0078529D01*
X0336897Y0080127D02*
X0328261Y0080127D01*
X0328112Y0083324D02*
X0336897Y0083324D01*
X0336897Y0081726D02*
X0320402Y0081726D01*
X0321600Y0080127D02*
X0322000Y0080127D01*
X0322000Y0078529D02*
X0321600Y0078529D01*
X0321600Y0075332D02*
X0322000Y0075332D01*
X0322000Y0073733D02*
X0321600Y0073733D01*
X0321600Y0072134D02*
X0322000Y0072134D01*
X0325755Y0071600D02*
X0327519Y0070869D01*
X0328869Y0069519D01*
X0329600Y0067755D01*
X0329600Y0065845D01*
X0328869Y0064081D01*
X0327519Y0062731D01*
X0325755Y0062000D01*
X0317845Y0062000D01*
X0316081Y0062731D01*
X0314731Y0064081D01*
X0314000Y0065845D01*
X0314000Y0067755D01*
X0314731Y0069519D01*
X0316081Y0070869D01*
X0317845Y0071600D01*
X0325755Y0071600D01*
X0325974Y0072134D02*
X0336897Y0072134D01*
X0336897Y0070536D02*
X0327852Y0070536D01*
X0329110Y0068937D02*
X0336897Y0068937D01*
X0336897Y0067339D02*
X0329600Y0067339D01*
X0329557Y0065740D02*
X0336897Y0065740D01*
X0336897Y0064142D02*
X0328894Y0064142D01*
X0327067Y0062543D02*
X0336897Y0062543D01*
X0336897Y0060945D02*
X0327336Y0060945D01*
X0327519Y0060869D02*
X0325755Y0061600D01*
X0317845Y0061600D01*
X0316081Y0060869D01*
X0314731Y0059519D01*
X0314000Y0057755D01*
X0314000Y0055845D01*
X0314731Y0054081D01*
X0316081Y0052731D01*
X0317845Y0052000D01*
X0325755Y0052000D01*
X0327519Y0052731D01*
X0328869Y0054081D01*
X0329600Y0055845D01*
X0329600Y0057755D01*
X0328869Y0059519D01*
X0327519Y0060869D01*
X0328941Y0059346D02*
X0336897Y0059346D01*
X0336897Y0057748D02*
X0329600Y0057748D01*
X0329600Y0056149D02*
X0336897Y0056149D01*
X0336897Y0054551D02*
X0329064Y0054551D01*
X0327741Y0052952D02*
X0336897Y0052952D01*
X0336897Y0051354D02*
X0326318Y0051354D01*
X0326643Y0051248D02*
X0325924Y0051482D01*
X0325178Y0051600D01*
X0322000Y0051600D01*
X0322000Y0047000D01*
X0321600Y0047000D01*
X0321600Y0051600D01*
X0318422Y0051600D01*
X0317676Y0051482D01*
X0316957Y0051248D01*
X0316284Y0050905D01*
X0315673Y0050461D01*
X0315139Y0049927D01*
X0314695Y0049316D01*
X0314352Y0048643D01*
X0314118Y0047924D01*
X0314000Y0047178D01*
X0314000Y0047000D01*
X0321600Y0047000D01*
X0321600Y0046600D01*
X0322000Y0046600D01*
X0322000Y0047000D01*
X0329600Y0047000D01*
X0329600Y0047178D01*
X0329482Y0047924D01*
X0329248Y0048643D01*
X0328905Y0049316D01*
X0328461Y0049927D01*
X0327927Y0050461D01*
X0327316Y0050905D01*
X0326643Y0051248D01*
X0328586Y0049755D02*
X0336897Y0049755D01*
X0336897Y0048157D02*
X0329406Y0048157D01*
X0329600Y0046600D02*
X0322000Y0046600D01*
X0322000Y0042000D01*
X0325178Y0042000D01*
X0325924Y0042118D01*
X0326643Y0042352D01*
X0327316Y0042695D01*
X0327927Y0043139D01*
X0328461Y0043673D01*
X0328905Y0044284D01*
X0329248Y0044957D01*
X0329482Y0045676D01*
X0329600Y0046422D01*
X0329600Y0046600D01*
X0329600Y0046558D02*
X0336897Y0046558D01*
X0336897Y0044960D02*
X0329249Y0044960D01*
X0328150Y0043361D02*
X0336897Y0043361D01*
X0336897Y0041763D02*
X0267000Y0041763D01*
X0267000Y0041600D02*
X0267000Y0042000D01*
X0266600Y0042000D01*
X0266600Y0046600D01*
X0263422Y0046600D01*
X0262676Y0046482D01*
X0261957Y0046248D01*
X0261284Y0045905D01*
X0260673Y0045461D01*
X0260139Y0044927D01*
X0259695Y0044316D01*
X0259352Y0043643D01*
X0259118Y0042924D01*
X0259000Y0042178D01*
X0259000Y0042000D01*
X0266600Y0042000D01*
X0266600Y0041600D01*
X0267000Y0041600D01*
X0274600Y0041600D01*
X0274600Y0041422D01*
X0274482Y0040676D01*
X0274248Y0039957D01*
X0273905Y0039284D01*
X0273461Y0038673D01*
X0272927Y0038139D01*
X0272316Y0037695D01*
X0271643Y0037352D01*
X0270924Y0037118D01*
X0270178Y0037000D01*
X0267000Y0037000D01*
X0267000Y0041600D01*
X0267000Y0042000D02*
X0274600Y0042000D01*
X0274600Y0042178D01*
X0274482Y0042924D01*
X0274248Y0043643D01*
X0273905Y0044316D01*
X0273461Y0044927D01*
X0272927Y0045461D01*
X0272316Y0045905D01*
X0271643Y0046248D01*
X0270924Y0046482D01*
X0270178Y0046600D01*
X0267000Y0046600D01*
X0267000Y0042000D01*
X0266600Y0041763D02*
X0239500Y0041763D01*
X0239500Y0041600D02*
X0247100Y0041600D01*
X0247100Y0041422D01*
X0246982Y0040676D01*
X0246748Y0039957D01*
X0246405Y0039284D01*
X0245961Y0038673D01*
X0245427Y0038139D01*
X0244816Y0037695D01*
X0244143Y0037352D01*
X0243424Y0037118D01*
X0242678Y0037000D01*
X0239500Y0037000D01*
X0239500Y0041600D01*
X0239500Y0042000D02*
X0247100Y0042000D01*
X0247100Y0042178D01*
X0246982Y0042924D01*
X0246748Y0043643D01*
X0246405Y0044316D01*
X0245961Y0044927D01*
X0245427Y0045461D01*
X0244816Y0045905D01*
X0244143Y0046248D01*
X0243424Y0046482D01*
X0242678Y0046600D01*
X0239500Y0046600D01*
X0239500Y0042000D01*
X0239500Y0043361D02*
X0239100Y0043361D01*
X0239100Y0044960D02*
X0239500Y0044960D01*
X0239500Y0046558D02*
X0239100Y0046558D01*
X0235659Y0046558D02*
X0141600Y0046558D01*
X0141600Y0048157D02*
X0233155Y0048157D01*
X0232672Y0044960D02*
X0143529Y0044960D01*
X0145029Y0043361D02*
X0231760Y0043361D01*
X0239100Y0040164D02*
X0239500Y0040164D01*
X0239500Y0038566D02*
X0239100Y0038566D01*
X0235345Y0036600D02*
X0233581Y0035869D01*
X0232231Y0034519D01*
X0231500Y0032755D01*
X0231500Y0030845D01*
X0232231Y0029081D01*
X0233581Y0027731D01*
X0235345Y0027000D01*
X0243255Y0027000D01*
X0245019Y0027731D01*
X0246369Y0029081D01*
X0247100Y0030845D01*
X0247100Y0032755D01*
X0246369Y0034519D01*
X0245019Y0035869D01*
X0243255Y0036600D01*
X0235345Y0036600D01*
X0233081Y0035369D02*
X0010942Y0035369D01*
X0010942Y0036967D02*
X0294100Y0036967D01*
X0294100Y0037000D02*
X0294100Y0036600D01*
X0294500Y0036600D01*
X0294500Y0037000D01*
X0294100Y0037000D01*
X0294100Y0041600D01*
X0290922Y0041600D01*
X0290176Y0041482D01*
X0289457Y0041248D01*
X0288784Y0040905D01*
X0288173Y0040461D01*
X0287639Y0039927D01*
X0287195Y0039316D01*
X0286852Y0038643D01*
X0286618Y0037924D01*
X0286500Y0037178D01*
X0286500Y0037000D01*
X0294100Y0037000D01*
X0294300Y0036800D02*
X0301800Y0036800D01*
X0311800Y0046800D01*
X0321800Y0046800D01*
X0321600Y0046600D02*
X0321600Y0042000D01*
X0318422Y0042000D01*
X0317676Y0042118D01*
X0316957Y0042352D01*
X0316284Y0042695D01*
X0315673Y0043139D01*
X0315139Y0043673D01*
X0314695Y0044284D01*
X0314352Y0044957D01*
X0314118Y0045676D01*
X0314000Y0046422D01*
X0314000Y0046600D01*
X0321600Y0046600D01*
X0321600Y0046558D02*
X0322000Y0046558D01*
X0322000Y0044960D02*
X0321600Y0044960D01*
X0321600Y0043361D02*
X0322000Y0043361D01*
X0322000Y0048157D02*
X0321600Y0048157D01*
X0321600Y0049755D02*
X0322000Y0049755D01*
X0322000Y0051354D02*
X0321600Y0051354D01*
X0317282Y0051354D02*
X0298849Y0051354D01*
X0298255Y0051600D02*
X0300019Y0050869D01*
X0301369Y0049519D01*
X0302100Y0047755D01*
X0302100Y0045845D01*
X0301369Y0044081D01*
X0300019Y0042731D01*
X0298255Y0042000D01*
X0290345Y0042000D01*
X0288581Y0042731D01*
X0287231Y0044081D01*
X0286500Y0045845D01*
X0286500Y0047755D01*
X0287231Y0049519D01*
X0288581Y0050869D01*
X0290345Y0051600D01*
X0298255Y0051600D01*
X0298255Y0052000D02*
X0300019Y0052731D01*
X0301369Y0054081D01*
X0302100Y0055845D01*
X0302100Y0057755D01*
X0301369Y0059519D01*
X0300019Y0060869D01*
X0298255Y0061600D01*
X0290345Y0061600D01*
X0288581Y0060869D01*
X0287231Y0059519D01*
X0286500Y0057755D01*
X0286500Y0055845D01*
X0287231Y0054081D01*
X0288581Y0052731D01*
X0290345Y0052000D01*
X0298255Y0052000D01*
X0300241Y0052952D02*
X0315859Y0052952D01*
X0314536Y0054551D02*
X0301564Y0054551D01*
X0302100Y0056149D02*
X0314000Y0056149D01*
X0314000Y0057748D02*
X0302100Y0057748D01*
X0301441Y0059346D02*
X0314659Y0059346D01*
X0316264Y0060945D02*
X0299836Y0060945D01*
X0299143Y0062352D02*
X0299816Y0062695D01*
X0300427Y0063139D01*
X0300961Y0063673D01*
X0301405Y0064284D01*
X0301748Y0064957D01*
X0301982Y0065676D01*
X0302100Y0066422D01*
X0302100Y0066600D01*
X0294500Y0066600D01*
X0294500Y0067000D01*
X0294100Y0067000D01*
X0294100Y0071600D01*
X0290922Y0071600D01*
X0290176Y0071482D01*
X0289457Y0071248D01*
X0288784Y0070905D01*
X0288173Y0070461D01*
X0287639Y0069927D01*
X0287195Y0069316D01*
X0286852Y0068643D01*
X0286618Y0067924D01*
X0286500Y0067178D01*
X0286500Y0067000D01*
X0294100Y0067000D01*
X0294100Y0066600D01*
X0294500Y0066600D01*
X0294500Y0062000D01*
X0297678Y0062000D01*
X0298424Y0062118D01*
X0299143Y0062352D01*
X0299519Y0062543D02*
X0316533Y0062543D01*
X0314706Y0064142D02*
X0301302Y0064142D01*
X0301992Y0065740D02*
X0314043Y0065740D01*
X0314000Y0067339D02*
X0302074Y0067339D01*
X0302100Y0067178D02*
X0301982Y0067924D01*
X0301748Y0068643D01*
X0301405Y0069316D01*
X0300961Y0069927D01*
X0300427Y0070461D01*
X0299816Y0070905D01*
X0299143Y0071248D01*
X0298424Y0071482D01*
X0297678Y0071600D01*
X0294500Y0071600D01*
X0294500Y0067000D01*
X0302100Y0067000D01*
X0302100Y0067178D01*
X0301598Y0068937D02*
X0314490Y0068937D01*
X0315748Y0070536D02*
X0300324Y0070536D01*
X0298579Y0072134D02*
X0317626Y0072134D01*
X0315095Y0073733D02*
X0301021Y0073733D01*
X0294500Y0070536D02*
X0294100Y0070536D01*
X0294100Y0068937D02*
X0294500Y0068937D01*
X0294500Y0067339D02*
X0294100Y0067339D01*
X0294100Y0066600D02*
X0286500Y0066600D01*
X0286500Y0066422D01*
X0286618Y0065676D01*
X0286852Y0064957D01*
X0287195Y0064284D01*
X0287639Y0063673D01*
X0288173Y0063139D01*
X0288784Y0062695D01*
X0289457Y0062352D01*
X0290176Y0062118D01*
X0290922Y0062000D01*
X0294100Y0062000D01*
X0294100Y0066600D01*
X0294100Y0065740D02*
X0294500Y0065740D01*
X0294500Y0064142D02*
X0294100Y0064142D01*
X0294100Y0062543D02*
X0294500Y0062543D01*
X0289081Y0062543D02*
X0271220Y0062543D01*
X0269622Y0060945D02*
X0288764Y0060945D01*
X0287159Y0059346D02*
X0269400Y0059346D01*
X0269400Y0057748D02*
X0286500Y0057748D01*
X0286500Y0056149D02*
X0271843Y0056149D01*
X0273837Y0054551D02*
X0287036Y0054551D01*
X0288359Y0052952D02*
X0274518Y0052952D01*
X0274600Y0051354D02*
X0289751Y0051354D01*
X0287467Y0049755D02*
X0274149Y0049755D01*
X0272945Y0048157D02*
X0286667Y0048157D01*
X0286500Y0046558D02*
X0270441Y0046558D01*
X0273428Y0044960D02*
X0286867Y0044960D01*
X0287950Y0043361D02*
X0274340Y0043361D01*
X0274316Y0040164D02*
X0287876Y0040164D01*
X0286827Y0038566D02*
X0273354Y0038566D01*
X0272519Y0035869D02*
X0270755Y0036600D01*
X0262845Y0036600D01*
X0261081Y0035869D01*
X0259731Y0034519D01*
X0259000Y0032755D01*
X0259000Y0030845D01*
X0259731Y0029081D01*
X0261081Y0027731D01*
X0262845Y0027000D01*
X0270755Y0027000D01*
X0272519Y0027731D01*
X0273869Y0029081D01*
X0274600Y0030845D01*
X0274600Y0032755D01*
X0273869Y0034519D01*
X0272519Y0035869D01*
X0273019Y0035369D02*
X0286718Y0035369D01*
X0286618Y0035676D02*
X0286852Y0034957D01*
X0287195Y0034284D01*
X0287639Y0033673D01*
X0288173Y0033139D01*
X0288784Y0032695D01*
X0289457Y0032352D01*
X0290176Y0032118D01*
X0290922Y0032000D01*
X0294100Y0032000D01*
X0294100Y0036600D01*
X0286500Y0036600D01*
X0286500Y0036422D01*
X0286618Y0035676D01*
X0287568Y0033770D02*
X0274179Y0033770D01*
X0274600Y0032172D02*
X0290011Y0032172D01*
X0291800Y0034300D02*
X0294300Y0036800D01*
X0294500Y0036967D02*
X0336897Y0036967D01*
X0336897Y0035369D02*
X0301882Y0035369D01*
X0301982Y0035676D02*
X0302100Y0036422D01*
X0302100Y0036600D01*
X0294500Y0036600D01*
X0294500Y0032000D01*
X0297678Y0032000D01*
X0298424Y0032118D01*
X0299143Y0032352D01*
X0299816Y0032695D01*
X0300427Y0033139D01*
X0300961Y0033673D01*
X0301405Y0034284D01*
X0301748Y0034957D01*
X0301982Y0035676D01*
X0302100Y0037000D02*
X0302100Y0037178D01*
X0301982Y0037924D01*
X0301748Y0038643D01*
X0301405Y0039316D01*
X0300961Y0039927D01*
X0300427Y0040461D01*
X0299816Y0040905D01*
X0299143Y0041248D01*
X0298424Y0041482D01*
X0297678Y0041600D01*
X0294500Y0041600D01*
X0294500Y0037000D01*
X0302100Y0037000D01*
X0301773Y0038566D02*
X0336897Y0038566D01*
X0336897Y0040164D02*
X0300724Y0040164D01*
X0300650Y0043361D02*
X0315450Y0043361D01*
X0314351Y0044960D02*
X0301733Y0044960D01*
X0302100Y0046558D02*
X0314000Y0046558D01*
X0314194Y0048157D02*
X0301933Y0048157D01*
X0301133Y0049755D02*
X0315014Y0049755D01*
X0294500Y0040164D02*
X0294100Y0040164D01*
X0294100Y0038566D02*
X0294500Y0038566D01*
X0294500Y0035369D02*
X0294100Y0035369D01*
X0294100Y0033770D02*
X0294500Y0033770D01*
X0294500Y0032172D02*
X0294100Y0032172D01*
X0291800Y0034300D02*
X0291800Y0026800D01*
X0276800Y0011800D01*
X0266800Y0011800D01*
X0239300Y0011800D01*
X0239500Y0012000D02*
X0239100Y0012000D01*
X0239100Y0016600D01*
X0235922Y0016600D01*
X0235176Y0016482D01*
X0234457Y0016248D01*
X0233784Y0015905D01*
X0233173Y0015461D01*
X0232639Y0014927D01*
X0232195Y0014316D01*
X0231852Y0013643D01*
X0231618Y0012924D01*
X0231500Y0012178D01*
X0231500Y0012000D01*
X0239100Y0012000D01*
X0239100Y0011600D01*
X0239500Y0011600D01*
X0239500Y0012000D01*
X0239500Y0016600D01*
X0242678Y0016600D01*
X0243424Y0016482D01*
X0244143Y0016248D01*
X0244816Y0015905D01*
X0245427Y0015461D01*
X0245961Y0014927D01*
X0246405Y0014316D01*
X0246748Y0013643D01*
X0246982Y0012924D01*
X0247100Y0012178D01*
X0247100Y0012000D01*
X0239500Y0012000D01*
X0239500Y0011600D02*
X0247100Y0011600D01*
X0247100Y0011422D01*
X0246982Y0010676D01*
X0246748Y0009957D01*
X0246405Y0009284D01*
X0245961Y0008673D01*
X0245427Y0008139D01*
X0244816Y0007695D01*
X0244143Y0007352D01*
X0243424Y0007118D01*
X0242678Y0007000D01*
X0239500Y0007000D01*
X0239500Y0011600D01*
X0239500Y0011391D02*
X0239100Y0011391D01*
X0239100Y0011600D02*
X0239100Y0007000D01*
X0235922Y0007000D01*
X0235176Y0007118D01*
X0234457Y0007352D01*
X0233784Y0007695D01*
X0233173Y0008139D01*
X0232639Y0008673D01*
X0232195Y0009284D01*
X0231852Y0009957D01*
X0231618Y0010676D01*
X0231500Y0011422D01*
X0231500Y0011600D01*
X0239100Y0011600D01*
X0239100Y0012990D02*
X0239500Y0012990D01*
X0239500Y0014588D02*
X0239100Y0014588D01*
X0239100Y0016187D02*
X0239500Y0016187D01*
X0243255Y0017000D02*
X0235345Y0017000D01*
X0233581Y0017731D01*
X0232231Y0019081D01*
X0231500Y0020845D01*
X0231500Y0022755D01*
X0232231Y0024519D01*
X0233581Y0025869D01*
X0235345Y0026600D01*
X0243255Y0026600D01*
X0245019Y0025869D01*
X0246369Y0024519D01*
X0247100Y0022755D01*
X0247100Y0020845D01*
X0246369Y0019081D01*
X0245019Y0017731D01*
X0243255Y0017000D01*
X0244264Y0016187D02*
X0261836Y0016187D01*
X0261957Y0016248D02*
X0261284Y0015905D01*
X0260673Y0015461D01*
X0260139Y0014927D01*
X0259695Y0014316D01*
X0259352Y0013643D01*
X0259118Y0012924D01*
X0259000Y0012178D01*
X0259000Y0012000D01*
X0266600Y0012000D01*
X0266600Y0016600D01*
X0263422Y0016600D01*
X0262676Y0016482D01*
X0261957Y0016248D01*
X0262845Y0017000D02*
X0270755Y0017000D01*
X0272519Y0017731D01*
X0273869Y0019081D01*
X0274600Y0020845D01*
X0274600Y0022755D01*
X0273869Y0024519D01*
X0272519Y0025869D01*
X0270755Y0026600D01*
X0262845Y0026600D01*
X0261081Y0025869D01*
X0259731Y0024519D01*
X0259000Y0022755D01*
X0259000Y0020845D01*
X0259731Y0019081D01*
X0261081Y0017731D01*
X0262845Y0017000D01*
X0261027Y0017785D02*
X0245073Y0017785D01*
X0246495Y0019384D02*
X0259605Y0019384D01*
X0259000Y0020982D02*
X0247100Y0020982D01*
X0247100Y0022581D02*
X0259000Y0022581D01*
X0259590Y0024179D02*
X0246510Y0024179D01*
X0245111Y0025778D02*
X0260989Y0025778D01*
X0261937Y0027376D02*
X0244163Y0027376D01*
X0246263Y0028975D02*
X0259837Y0028975D01*
X0259113Y0030573D02*
X0246987Y0030573D01*
X0247100Y0032172D02*
X0259000Y0032172D01*
X0259421Y0033770D02*
X0246679Y0033770D01*
X0245519Y0035369D02*
X0260581Y0035369D01*
X0261957Y0037352D02*
X0261284Y0037695D01*
X0260673Y0038139D01*
X0260139Y0038673D01*
X0259695Y0039284D01*
X0259352Y0039957D01*
X0259118Y0040676D01*
X0259000Y0041422D01*
X0259000Y0041600D01*
X0266600Y0041600D01*
X0266600Y0037000D01*
X0263422Y0037000D01*
X0262676Y0037118D01*
X0261957Y0037352D01*
X0260246Y0038566D02*
X0245854Y0038566D01*
X0246816Y0040164D02*
X0259284Y0040164D01*
X0259260Y0043361D02*
X0246840Y0043361D01*
X0245928Y0044960D02*
X0260172Y0044960D01*
X0260655Y0048157D02*
X0245445Y0048157D01*
X0242941Y0046558D02*
X0263159Y0046558D01*
X0266600Y0046558D02*
X0267000Y0046558D01*
X0267000Y0044960D02*
X0266600Y0044960D01*
X0266600Y0043361D02*
X0267000Y0043361D01*
X0267000Y0040164D02*
X0266600Y0040164D01*
X0266600Y0038566D02*
X0267000Y0038566D01*
X0274487Y0030573D02*
X0336897Y0030573D01*
X0336897Y0028975D02*
X0273763Y0028975D01*
X0271663Y0027376D02*
X0325417Y0027376D01*
X0329383Y0027376D02*
X0336897Y0027376D01*
X0336897Y0025778D02*
X0333151Y0025778D01*
X0335146Y0024179D02*
X0336897Y0024179D01*
X0336897Y0022581D02*
X0336135Y0022581D01*
X0336897Y0032172D02*
X0298589Y0032172D01*
X0301032Y0033770D02*
X0336897Y0033770D01*
X0321589Y0025778D02*
X0272611Y0025778D01*
X0274010Y0024179D02*
X0319966Y0024179D01*
X0318646Y0022581D02*
X0274600Y0022581D01*
X0274600Y0020982D02*
X0318027Y0020982D01*
X0317407Y0019384D02*
X0273995Y0019384D01*
X0272573Y0017785D02*
X0317387Y0017785D01*
X0317387Y0016187D02*
X0271764Y0016187D01*
X0271643Y0016248D02*
X0270924Y0016482D01*
X0270178Y0016600D01*
X0267000Y0016600D01*
X0267000Y0012000D01*
X0266600Y0012000D01*
X0266600Y0011600D01*
X0267000Y0011600D01*
X0267000Y0012000D01*
X0274600Y0012000D01*
X0274600Y0012178D01*
X0274482Y0012924D01*
X0274248Y0013643D01*
X0273905Y0014316D01*
X0273461Y0014927D01*
X0272927Y0015461D01*
X0272316Y0015905D01*
X0271643Y0016248D01*
X0273707Y0014588D02*
X0317764Y0014588D01*
X0318384Y0012990D02*
X0274460Y0012990D01*
X0274600Y0011600D02*
X0267000Y0011600D01*
X0267000Y0007000D01*
X0270178Y0007000D01*
X0270924Y0007118D01*
X0271643Y0007352D01*
X0272316Y0007695D01*
X0272927Y0008139D01*
X0273461Y0008673D01*
X0273905Y0009284D01*
X0274248Y0009957D01*
X0274482Y0010676D01*
X0274600Y0011422D01*
X0274600Y0011600D01*
X0274595Y0011391D02*
X0319348Y0011391D01*
X0320805Y0009793D02*
X0274164Y0009793D01*
X0272982Y0008194D02*
X0323438Y0008194D01*
X0331764Y0008194D02*
X0336897Y0008194D01*
X0336897Y0006596D02*
X0010942Y0006596D01*
X0010942Y0008194D02*
X0016352Y0008194D01*
X0013719Y0009793D02*
X0010942Y0009793D01*
X0010942Y0011391D02*
X0012262Y0011391D01*
X0011297Y0012990D02*
X0010942Y0012990D01*
X0010942Y0004997D02*
X0336897Y0004997D01*
X0336897Y0009793D02*
X0334048Y0009793D01*
X0335565Y0011391D02*
X0336897Y0011391D01*
X0336897Y0012990D02*
X0336555Y0012990D01*
X0267000Y0012990D02*
X0266600Y0012990D01*
X0266600Y0011600D02*
X0259000Y0011600D01*
X0259000Y0011422D01*
X0259118Y0010676D01*
X0259352Y0009957D01*
X0259695Y0009284D01*
X0260139Y0008673D01*
X0260673Y0008139D01*
X0261284Y0007695D01*
X0261957Y0007352D01*
X0262676Y0007118D01*
X0263422Y0007000D01*
X0266600Y0007000D01*
X0266600Y0011600D01*
X0266600Y0011391D02*
X0267000Y0011391D01*
X0267000Y0009793D02*
X0266600Y0009793D01*
X0266600Y0008194D02*
X0267000Y0008194D01*
X0260618Y0008194D02*
X0245482Y0008194D01*
X0246664Y0009793D02*
X0259436Y0009793D01*
X0259005Y0011391D02*
X0247095Y0011391D01*
X0246960Y0012990D02*
X0259140Y0012990D01*
X0259893Y0014588D02*
X0246207Y0014588D01*
X0239500Y0009793D02*
X0239100Y0009793D01*
X0239100Y0008194D02*
X0239500Y0008194D01*
X0233118Y0008194D02*
X0024678Y0008194D01*
X0026961Y0009793D02*
X0231936Y0009793D01*
X0231505Y0011391D02*
X0028478Y0011391D01*
X0029468Y0012990D02*
X0231640Y0012990D01*
X0232393Y0014588D02*
X0030093Y0014588D01*
X0030392Y0016187D02*
X0234336Y0016187D01*
X0233527Y0017785D02*
X0030564Y0017785D01*
X0030265Y0019384D02*
X0232105Y0019384D01*
X0231500Y0020982D02*
X0029966Y0020982D01*
X0029049Y0022581D02*
X0231500Y0022581D01*
X0232090Y0024179D02*
X0028059Y0024179D01*
X0027952Y0024352D02*
X0027952Y0024352D01*
X0026064Y0025778D02*
X0233489Y0025778D01*
X0234437Y0027376D02*
X0022297Y0027376D01*
X0018330Y0027376D02*
X0010942Y0027376D01*
X0010942Y0025778D02*
X0014502Y0025778D01*
X0012879Y0024179D02*
X0010942Y0024179D01*
X0010942Y0022581D02*
X0011559Y0022581D01*
X0010942Y0028975D02*
X0232337Y0028975D01*
X0231613Y0030573D02*
X0010942Y0030573D01*
X0010942Y0032172D02*
X0231500Y0032172D01*
X0231921Y0033770D02*
X0010942Y0033770D01*
X0010942Y0073733D02*
X0094846Y0073733D01*
X0093532Y0075332D02*
X0010942Y0075332D01*
X0010942Y0076930D02*
X0093219Y0076930D01*
X0093640Y0078529D02*
X0010942Y0078529D01*
X0010942Y0080127D02*
X0094200Y0080127D01*
X0094200Y0081726D02*
X0010942Y0081726D01*
X0010942Y0083324D02*
X0094200Y0083324D01*
X0094200Y0084923D02*
X0010942Y0084923D01*
X0010942Y0086521D02*
X0094200Y0086521D01*
X0094200Y0088120D02*
X0010942Y0088120D01*
X0010942Y0089718D02*
X0094200Y0089718D01*
X0094200Y0091317D02*
X0010942Y0091317D01*
X0010942Y0092915D02*
X0094200Y0092915D01*
X0094200Y0094514D02*
X0010942Y0094514D01*
X0010942Y0096112D02*
X0094200Y0096112D01*
X0094200Y0097711D02*
X0010942Y0097711D01*
X0010942Y0099309D02*
X0094200Y0099309D01*
X0094200Y0100908D02*
X0010942Y0100908D01*
X0010942Y0102506D02*
X0094200Y0102506D01*
X0094200Y0104105D02*
X0010942Y0104105D01*
X0010942Y0105703D02*
X0094200Y0105703D01*
X0094200Y0107302D02*
X0010942Y0107302D01*
X0010942Y0108900D02*
X0095223Y0108900D01*
X0096822Y0110499D02*
X0010942Y0110499D01*
X0010942Y0112097D02*
X0098219Y0112097D01*
X0098709Y0113696D02*
X0010942Y0113696D01*
X0010942Y0150462D02*
X0177209Y0150462D01*
X0178807Y0152060D02*
X0010942Y0152060D01*
X0096800Y0106800D02*
X0096800Y0076800D01*
X0086800Y0056800D02*
X0131800Y0056800D01*
X0141600Y0056149D02*
X0143219Y0056149D01*
X0143316Y0057748D02*
X0142675Y0057748D01*
X0142675Y0059346D02*
X0144282Y0059346D01*
X0142675Y0060945D02*
X0148302Y0060945D01*
X0148425Y0062543D02*
X0142675Y0062543D01*
X0142646Y0066800D02*
X0135954Y0066800D01*
X0139919Y0066800D01*
X0142646Y0066800D01*
X0142646Y0066800D01*
X0142647Y0066800D02*
X0148453Y0066800D01*
X0146612Y0066800D01*
X0142647Y0066800D01*
X0142647Y0066800D01*
X0142675Y0069781D02*
X0142675Y0075912D01*
X0141620Y0076966D01*
X0141600Y0076966D01*
X0141600Y0108347D01*
X0187753Y0154500D01*
X0191247Y0154500D01*
X0149500Y0112753D01*
X0149500Y0110847D01*
X0149500Y0076966D01*
X0149480Y0076966D01*
X0148425Y0075912D01*
X0148425Y0069781D01*
X0146051Y0069781D01*
X0145593Y0069658D01*
X0145550Y0069633D01*
X0145507Y0069658D01*
X0145049Y0069781D01*
X0142675Y0069781D01*
X0142675Y0070536D02*
X0148425Y0070536D01*
X0148425Y0072134D02*
X0142675Y0072134D01*
X0142675Y0073733D02*
X0148425Y0073733D01*
X0148425Y0075332D02*
X0142675Y0075332D01*
X0141656Y0076930D02*
X0149444Y0076930D01*
X0149500Y0078529D02*
X0141600Y0078529D01*
X0141600Y0080127D02*
X0149500Y0080127D01*
X0149500Y0081726D02*
X0141600Y0081726D01*
X0141600Y0083324D02*
X0149500Y0083324D01*
X0149500Y0084923D02*
X0141600Y0084923D01*
X0141600Y0086521D02*
X0149500Y0086521D01*
X0149500Y0088120D02*
X0141600Y0088120D01*
X0141600Y0089718D02*
X0149500Y0089718D01*
X0149500Y0091317D02*
X0141600Y0091317D01*
X0141600Y0092915D02*
X0149500Y0092915D01*
X0149500Y0094514D02*
X0141600Y0094514D01*
X0141600Y0096112D02*
X0149500Y0096112D01*
X0149500Y0097711D02*
X0141600Y0097711D01*
X0141600Y0099309D02*
X0149500Y0099309D01*
X0149500Y0100908D02*
X0141600Y0100908D01*
X0141600Y0102506D02*
X0149500Y0102506D01*
X0149500Y0104105D02*
X0141600Y0104105D01*
X0141600Y0105703D02*
X0149500Y0105703D01*
X0149500Y0107302D02*
X0141600Y0107302D01*
X0142153Y0108900D02*
X0149500Y0108900D01*
X0149500Y0110499D02*
X0143751Y0110499D01*
X0145350Y0112097D02*
X0149500Y0112097D01*
X0150443Y0113696D02*
X0146948Y0113696D01*
X0148547Y0115294D02*
X0152042Y0115294D01*
X0153640Y0116893D02*
X0150145Y0116893D01*
X0151744Y0118491D02*
X0155239Y0118491D01*
X0156837Y0120090D02*
X0153343Y0120090D01*
X0154941Y0121688D02*
X0158436Y0121688D01*
X0160034Y0123287D02*
X0156540Y0123287D01*
X0158138Y0124885D02*
X0161633Y0124885D01*
X0163231Y0126484D02*
X0159737Y0126484D01*
X0161335Y0128082D02*
X0164830Y0128082D01*
X0166428Y0129681D02*
X0162934Y0129681D01*
X0164532Y0131279D02*
X0168027Y0131279D01*
X0169625Y0132878D02*
X0166131Y0132878D01*
X0167729Y0134476D02*
X0171224Y0134476D01*
X0172822Y0136075D02*
X0169328Y0136075D01*
X0170926Y0137673D02*
X0174421Y0137673D01*
X0176019Y0139272D02*
X0172525Y0139272D01*
X0174123Y0140870D02*
X0177618Y0140870D01*
X0179216Y0142469D02*
X0175722Y0142469D01*
X0177320Y0144068D02*
X0180815Y0144068D01*
X0182413Y0145666D02*
X0178919Y0145666D01*
X0180517Y0147265D02*
X0184012Y0147265D01*
X0185610Y0148863D02*
X0182116Y0148863D01*
X0183714Y0150462D02*
X0187209Y0150462D01*
X0188807Y0152060D02*
X0185313Y0152060D01*
X0186911Y0153659D02*
X0190406Y0153659D01*
X0187320Y0144068D02*
X0310062Y0144068D01*
X0309700Y0142469D02*
X0185722Y0142469D01*
X0184123Y0140870D02*
X0309700Y0140870D01*
X0310323Y0139272D02*
X0182525Y0139272D01*
X0180926Y0137673D02*
X0311921Y0137673D01*
X0312395Y0136400D02*
X0309700Y0133705D01*
X0309700Y0129895D01*
X0312395Y0127200D01*
X0316205Y0127200D01*
X0318900Y0129895D01*
X0318900Y0133705D01*
X0316205Y0136400D01*
X0312395Y0136400D01*
X0312070Y0136075D02*
X0179328Y0136075D01*
X0177729Y0134476D02*
X0310471Y0134476D01*
X0309700Y0132878D02*
X0176131Y0132878D01*
X0174532Y0131279D02*
X0309700Y0131279D01*
X0309914Y0129681D02*
X0172934Y0129681D01*
X0171335Y0128082D02*
X0311512Y0128082D01*
X0317088Y0128082D02*
X0321512Y0128082D01*
X0322395Y0127200D02*
X0319700Y0129895D01*
X0319700Y0133705D01*
X0322395Y0136400D01*
X0326205Y0136400D01*
X0328900Y0133705D01*
X0328900Y0129895D01*
X0326205Y0127200D01*
X0322395Y0127200D01*
X0319914Y0129681D02*
X0318686Y0129681D01*
X0318900Y0131279D02*
X0319700Y0131279D01*
X0319700Y0132878D02*
X0318900Y0132878D01*
X0318129Y0134476D02*
X0320471Y0134476D01*
X0322070Y0136075D02*
X0316530Y0136075D01*
X0316679Y0137673D02*
X0321921Y0137673D01*
X0322395Y0137200D02*
X0326205Y0137200D01*
X0328900Y0139895D01*
X0328900Y0143705D01*
X0326205Y0146400D01*
X0322395Y0146400D01*
X0319700Y0143705D01*
X0319700Y0139895D01*
X0322395Y0137200D01*
X0320323Y0139272D02*
X0318277Y0139272D01*
X0318900Y0140870D02*
X0319700Y0140870D01*
X0319700Y0142469D02*
X0318900Y0142469D01*
X0318538Y0144068D02*
X0320062Y0144068D01*
X0321661Y0145666D02*
X0316939Y0145666D01*
X0316270Y0147265D02*
X0322330Y0147265D01*
X0322395Y0147200D02*
X0326205Y0147200D01*
X0328900Y0149895D01*
X0328900Y0153705D01*
X0326205Y0156400D01*
X0322395Y0156400D01*
X0319700Y0153705D01*
X0319700Y0149895D01*
X0322395Y0147200D01*
X0320732Y0148863D02*
X0317868Y0148863D01*
X0318900Y0150462D02*
X0319700Y0150462D01*
X0319700Y0152060D02*
X0318900Y0152060D01*
X0318900Y0153659D02*
X0319700Y0153659D01*
X0321252Y0155257D02*
X0317348Y0155257D01*
X0316205Y0157200D02*
X0318900Y0159895D01*
X0318900Y0163705D01*
X0316205Y0166400D01*
X0312395Y0166400D01*
X0309700Y0163705D01*
X0309700Y0159895D01*
X0312395Y0157200D01*
X0316205Y0157200D01*
X0317459Y0158454D02*
X0321141Y0158454D01*
X0322395Y0157200D02*
X0326205Y0157200D01*
X0328900Y0159895D01*
X0328900Y0163705D01*
X0326205Y0166400D01*
X0322395Y0166400D01*
X0319700Y0163705D01*
X0319700Y0159895D01*
X0322395Y0157200D01*
X0319700Y0160053D02*
X0318900Y0160053D01*
X0318900Y0161651D02*
X0319700Y0161651D01*
X0319700Y0163250D02*
X0318900Y0163250D01*
X0317757Y0164848D02*
X0320843Y0164848D01*
X0322395Y0167200D02*
X0319700Y0169895D01*
X0319700Y0171700D01*
X0324200Y0171700D01*
X0324200Y0171900D01*
X0324200Y0176400D01*
X0322395Y0176400D01*
X0319700Y0173705D01*
X0319700Y0171900D01*
X0324200Y0171900D01*
X0324400Y0171900D01*
X0324400Y0176400D01*
X0326205Y0176400D01*
X0328900Y0173705D01*
X0328900Y0171900D01*
X0324400Y0171900D01*
X0324400Y0171700D01*
X0328900Y0171700D01*
X0328900Y0169895D01*
X0326205Y0167200D01*
X0324400Y0167200D01*
X0324400Y0171700D01*
X0324200Y0171700D01*
X0324200Y0167200D01*
X0322395Y0167200D01*
X0321549Y0168045D02*
X0317051Y0168045D01*
X0318649Y0169644D02*
X0319951Y0169644D01*
X0319700Y0171242D02*
X0318900Y0171242D01*
X0318900Y0172841D02*
X0319700Y0172841D01*
X0320434Y0174439D02*
X0318166Y0174439D01*
X0316900Y0176038D02*
X0322032Y0176038D01*
X0324200Y0176038D02*
X0324400Y0176038D01*
X0324400Y0174439D02*
X0324200Y0174439D01*
X0324200Y0172841D02*
X0324400Y0172841D01*
X0324400Y0171242D02*
X0324200Y0171242D01*
X0324200Y0169644D02*
X0324400Y0169644D01*
X0324400Y0168045D02*
X0324200Y0168045D01*
X0327051Y0168045D02*
X0336897Y0168045D01*
X0336897Y0166447D02*
X0290547Y0166447D01*
X0288949Y0168045D02*
X0311549Y0168045D01*
X0309951Y0169644D02*
X0287350Y0169644D01*
X0285752Y0171242D02*
X0309700Y0171242D01*
X0309700Y0172841D02*
X0284153Y0172841D01*
X0282555Y0174439D02*
X0310434Y0174439D01*
X0311700Y0176038D02*
X0280956Y0176038D01*
X0279358Y0177636D02*
X0311700Y0177636D01*
X0311700Y0179235D02*
X0277759Y0179235D01*
X0276161Y0180833D02*
X0311700Y0180833D01*
X0311700Y0182432D02*
X0274562Y0182432D01*
X0272687Y0184030D02*
X0310893Y0184030D01*
X0314300Y0184300D02*
X0301800Y0196800D01*
X0308656Y0193621D02*
X0336897Y0193621D01*
X0336897Y0192023D02*
X0310254Y0192023D01*
X0311853Y0190424D02*
X0336897Y0190424D01*
X0336897Y0188826D02*
X0313451Y0188826D01*
X0315050Y0187227D02*
X0336897Y0187227D01*
X0336897Y0185629D02*
X0316564Y0185629D01*
X0316900Y0184030D02*
X0336897Y0184030D01*
X0336897Y0182432D02*
X0316900Y0182432D01*
X0316900Y0180833D02*
X0336897Y0180833D01*
X0336897Y0179235D02*
X0316900Y0179235D01*
X0316900Y0177636D02*
X0336897Y0177636D01*
X0336897Y0176038D02*
X0326568Y0176038D01*
X0328166Y0174439D02*
X0336897Y0174439D01*
X0336897Y0172841D02*
X0328900Y0172841D01*
X0328900Y0171242D02*
X0336897Y0171242D01*
X0336897Y0169644D02*
X0328649Y0169644D01*
X0327757Y0164848D02*
X0336897Y0164848D01*
X0336897Y0163250D02*
X0328900Y0163250D01*
X0328900Y0161651D02*
X0336897Y0161651D01*
X0336897Y0160053D02*
X0328900Y0160053D01*
X0327459Y0158454D02*
X0336897Y0158454D01*
X0336897Y0156856D02*
X0302881Y0156856D01*
X0302537Y0155257D02*
X0311252Y0155257D01*
X0311141Y0158454D02*
X0302491Y0158454D01*
X0300805Y0160053D02*
X0309700Y0160053D01*
X0309700Y0161651D02*
X0295381Y0161651D01*
X0295076Y0163250D02*
X0309700Y0163250D01*
X0310843Y0164848D02*
X0293799Y0164848D01*
X0294952Y0160053D02*
X0297795Y0160053D01*
X0299300Y0156800D02*
X0271800Y0156800D01*
X0258060Y0170540D01*
X0251800Y0170540D01*
X0251800Y0179300D01*
X0250003Y0182432D02*
X0231097Y0182432D01*
X0225737Y0175737D02*
X0221800Y0175737D01*
X0216850Y0172841D02*
X0211518Y0172841D01*
X0209919Y0171242D02*
X0217045Y0171242D01*
X0216850Y0169644D02*
X0208321Y0169644D01*
X0212218Y0166447D02*
X0216850Y0166447D01*
X0216850Y0167383D02*
X0216850Y0165067D01*
X0216973Y0164609D01*
X0217210Y0164199D01*
X0217545Y0163864D01*
X0217956Y0163627D01*
X0218413Y0163504D01*
X0221320Y0163504D01*
X0221320Y0167383D01*
X0216850Y0167383D01*
X0216909Y0164848D02*
X0212881Y0164848D01*
X0221320Y0164848D02*
X0222280Y0164848D01*
X0222280Y0166447D02*
X0221320Y0166447D01*
X0231276Y0171242D02*
X0234545Y0171242D01*
X0237863Y0174300D02*
X0239300Y0175737D01*
X0237863Y0174300D02*
X0229300Y0174300D01*
X0251800Y0163060D02*
X0254300Y0160560D01*
X0254300Y0149300D01*
X0256800Y0151800D01*
X0314300Y0151800D01*
X0310732Y0148863D02*
X0257881Y0148863D01*
X0314300Y0171800D02*
X0314300Y0184300D01*
X0327348Y0155257D02*
X0336897Y0155257D01*
X0336897Y0153659D02*
X0328900Y0153659D01*
X0328900Y0152060D02*
X0336897Y0152060D01*
X0336897Y0150462D02*
X0328900Y0150462D01*
X0327868Y0148863D02*
X0336897Y0148863D01*
X0336897Y0147265D02*
X0326270Y0147265D01*
X0326939Y0145666D02*
X0336897Y0145666D01*
X0336897Y0144068D02*
X0328538Y0144068D01*
X0328900Y0142469D02*
X0336897Y0142469D01*
X0336897Y0140870D02*
X0328900Y0140870D01*
X0328277Y0139272D02*
X0336897Y0139272D01*
X0336897Y0137673D02*
X0326679Y0137673D01*
X0326530Y0136075D02*
X0336897Y0136075D01*
X0336897Y0134476D02*
X0328129Y0134476D01*
X0328900Y0132878D02*
X0336897Y0132878D01*
X0336897Y0131279D02*
X0328900Y0131279D01*
X0328686Y0129681D02*
X0336897Y0129681D01*
X0336897Y0128082D02*
X0327088Y0128082D01*
X0336897Y0126484D02*
X0169737Y0126484D01*
X0168138Y0124885D02*
X0336897Y0124885D01*
X0336897Y0123287D02*
X0166540Y0123287D01*
X0164941Y0121688D02*
X0336897Y0121688D01*
X0336897Y0120090D02*
X0163343Y0120090D01*
X0161744Y0118491D02*
X0336897Y0118491D01*
X0336897Y0116893D02*
X0160145Y0116893D01*
X0158547Y0115294D02*
X0336897Y0115294D01*
X0336897Y0113696D02*
X0156948Y0113696D01*
X0155350Y0112097D02*
X0336897Y0112097D01*
X0336897Y0110499D02*
X0154100Y0110499D01*
X0154100Y0108900D02*
X0336897Y0108900D01*
X0336897Y0107302D02*
X0154100Y0107302D01*
X0154100Y0105703D02*
X0336897Y0105703D01*
X0336897Y0104105D02*
X0154100Y0104105D01*
X0154100Y0102506D02*
X0336897Y0102506D01*
X0336897Y0100908D02*
X0154100Y0100908D01*
X0154100Y0099309D02*
X0336897Y0099309D01*
X0336897Y0097711D02*
X0154100Y0097711D01*
X0154100Y0096112D02*
X0336897Y0096112D01*
X0336897Y0094514D02*
X0154100Y0094514D01*
X0154100Y0092915D02*
X0336897Y0092915D01*
X0336897Y0091317D02*
X0326439Y0091317D01*
X0328670Y0089718D02*
X0336897Y0089718D01*
X0336897Y0088120D02*
X0329449Y0088120D01*
X0329600Y0086521D02*
X0336897Y0086521D01*
X0336897Y0084923D02*
X0329218Y0084923D01*
X0321800Y0086800D02*
X0311800Y0076800D01*
X0294300Y0076800D01*
X0281800Y0076800D01*
X0266800Y0061800D01*
X0266800Y0051800D01*
X0239300Y0051800D01*
X0186800Y0051800D01*
X0181800Y0056800D01*
X0179282Y0059346D02*
X0155175Y0059346D01*
X0155175Y0057748D02*
X0178316Y0057748D01*
X0178219Y0056149D02*
X0150381Y0056149D01*
X0149615Y0054551D02*
X0178985Y0054551D01*
X0181971Y0052952D02*
X0141600Y0052952D01*
X0141600Y0051354D02*
X0183569Y0051354D01*
X0185168Y0049755D02*
X0141600Y0049755D01*
X0141600Y0054551D02*
X0143985Y0054551D01*
X0155175Y0060945D02*
X0264200Y0060945D01*
X0264200Y0059346D02*
X0184318Y0059346D01*
X0185284Y0057748D02*
X0264200Y0057748D01*
X0261757Y0056149D02*
X0244343Y0056149D01*
X0246337Y0054551D02*
X0259763Y0054551D01*
X0264294Y0062543D02*
X0155175Y0062543D01*
X0158354Y0064142D02*
X0265465Y0064142D01*
X0267064Y0065740D02*
X0159112Y0065740D01*
X0159112Y0066800D02*
X0155147Y0066800D01*
X0159112Y0066800D01*
X0159112Y0067339D02*
X0268662Y0067339D01*
X0270261Y0068937D02*
X0158838Y0068937D01*
X0155175Y0070536D02*
X0271859Y0070536D01*
X0273458Y0072134D02*
X0155175Y0072134D01*
X0155175Y0073733D02*
X0275056Y0073733D01*
X0276655Y0075332D02*
X0155175Y0075332D01*
X0154156Y0076930D02*
X0278253Y0076930D01*
X0279852Y0078529D02*
X0154100Y0078529D01*
X0154100Y0080127D02*
X0287839Y0080127D01*
X0287579Y0073733D02*
X0282410Y0073733D01*
X0280811Y0072134D02*
X0290020Y0072134D01*
X0288276Y0070536D02*
X0279213Y0070536D01*
X0277614Y0068937D02*
X0287002Y0068937D01*
X0286526Y0067339D02*
X0276016Y0067339D01*
X0274417Y0065740D02*
X0286608Y0065740D01*
X0287298Y0064142D02*
X0272819Y0064142D01*
X0300761Y0080127D02*
X0311450Y0080127D01*
X0313049Y0081726D02*
X0154100Y0081726D01*
X0154100Y0083324D02*
X0314647Y0083324D01*
X0314382Y0084923D02*
X0154100Y0084923D01*
X0154100Y0086521D02*
X0314000Y0086521D01*
X0314151Y0088120D02*
X0154100Y0088120D01*
X0154100Y0089718D02*
X0314930Y0089718D01*
X0317161Y0091317D02*
X0154100Y0091317D01*
X0155146Y0066800D02*
X0151181Y0066800D01*
X0148454Y0066800D01*
X0148454Y0066800D01*
X0155146Y0066800D01*
X0155146Y0066800D01*
X0155147Y0066800D02*
X0155147Y0066800D01*
X0148453Y0066800D02*
X0148453Y0066800D01*
X0135954Y0066800D02*
X0135954Y0066800D01*
X0135953Y0066800D02*
X0135953Y0066800D01*
X0186128Y0056149D02*
X0234257Y0056149D01*
X0232263Y0054551D02*
X0187726Y0054551D01*
X0266600Y0016187D02*
X0267000Y0016187D01*
X0267000Y0014588D02*
X0266600Y0014588D01*
X0328505Y0073733D02*
X0336897Y0073733D01*
X0314230Y0075332D02*
X0314008Y0075332D01*
X0101800Y0111800D02*
X0096800Y0106800D01*
X0104300Y0156800D02*
X0104300Y0159300D01*
D20*
X0144300Y0169300D02*
X0153454Y0169300D01*
X0160146Y0169300D02*
X0164300Y0169300D01*
X0166800Y0166800D01*
X0145146Y0168454D02*
X0144300Y0169300D01*
X0186800Y0156800D02*
X0201800Y0156800D01*
X0209300Y0164300D01*
X0209300Y0159300D02*
X0204300Y0154300D01*
X0194300Y0154300D01*
X0151800Y0111800D01*
X0151800Y0072410D01*
X0148454Y0066800D02*
X0142646Y0066800D01*
X0135954Y0066800D01*
X0131800Y0062646D01*
X0131800Y0056800D01*
X0139300Y0061190D02*
X0139300Y0044300D01*
X0141800Y0041800D01*
X0146800Y0056800D02*
X0147410Y0056800D01*
X0151800Y0061190D01*
X0146800Y0065146D02*
X0148454Y0066800D01*
X0155146Y0066800D01*
X0181800Y0066800D01*
X0194300Y0079300D01*
X0146800Y0079300D02*
X0146800Y0065146D01*
X0139300Y0072410D02*
X0139300Y0109300D01*
X0186800Y0156800D01*
X0201800Y0171800D02*
X0216800Y0186800D01*
X0236800Y0186800D01*
X0229300Y0169300D02*
X0230737Y0167863D01*
X0239300Y0167863D01*
D21*
X0251800Y0186800D02*
X0261800Y0176800D01*
X0266800Y0176800D01*
X0281800Y0161800D01*
X0291800Y0161800D02*
X0271800Y0181800D01*
X0261800Y0181800D01*
X0251800Y0186800D02*
X0236800Y0186800D01*
X0194300Y0091800D02*
X0194300Y0079300D01*
M02*
