G75*
%MOIN*%
%OFA0B0*%
%FSLAX25Y25*%
%IPPOS*%
%LPD*%
%AMOC8*
5,1,8,0,0,1.08239X$1,22.5*
%
%ADD10C,0.00004*%
%ADD11R,0.04724X0.11024*%
%ADD12R,0.05118X0.06299*%
%ADD13R,0.06299X0.05118*%
%ADD14R,0.13780X0.09843*%
%ADD15R,0.13780X0.06299*%
%ADD16R,0.05118X0.05906*%
%ADD17R,0.05906X0.05118*%
%ADD18R,0.03937X0.04331*%
%ADD19R,0.04331X0.03937*%
%ADD20R,0.05512X0.03150*%
%ADD21R,0.02362X0.04331*%
%ADD22R,0.03150X0.05512*%
%ADD23R,0.04331X0.02362*%
%ADD24R,0.09449X0.09449*%
%ADD25R,0.21260X0.24409*%
%ADD26R,0.03937X0.06299*%
%ADD27R,0.05000X0.02200*%
%ADD28R,0.02200X0.05000*%
%ADD29R,0.14173X0.07087*%
%ADD30R,0.07480X0.05512*%
%ADD31R,0.07480X0.04331*%
%ADD32R,0.13780X0.03150*%
%ADD33C,0.06000*%
%ADD34C,0.02362*%
%ADD35R,0.01200X0.03900*%
%ADD36R,0.04500X0.03000*%
%ADD37R,0.02362X0.08661*%
%ADD38OC8,0.05600*%
%ADD39C,0.01600*%
%ADD40C,0.02400*%
%ADD41C,0.03200*%
%ADD42C,0.03562*%
%ADD43C,0.01000*%
%ADD44C,0.01200*%
D10*
X0008565Y0001698D02*
X0008565Y0222171D01*
X0339274Y0222171D01*
X0339274Y0001698D01*
X0008565Y0001698D01*
X0012502Y0017446D02*
X0012504Y0017639D01*
X0012511Y0017832D01*
X0012523Y0018025D01*
X0012540Y0018218D01*
X0012561Y0018410D01*
X0012587Y0018601D01*
X0012618Y0018792D01*
X0012653Y0018982D01*
X0012693Y0019171D01*
X0012738Y0019359D01*
X0012787Y0019546D01*
X0012841Y0019732D01*
X0012899Y0019916D01*
X0012962Y0020099D01*
X0013030Y0020280D01*
X0013101Y0020459D01*
X0013178Y0020637D01*
X0013258Y0020813D01*
X0013343Y0020986D01*
X0013432Y0021158D01*
X0013525Y0021327D01*
X0013622Y0021494D01*
X0013724Y0021659D01*
X0013829Y0021821D01*
X0013938Y0021980D01*
X0014052Y0022137D01*
X0014169Y0022290D01*
X0014289Y0022441D01*
X0014414Y0022589D01*
X0014542Y0022734D01*
X0014673Y0022875D01*
X0014808Y0023014D01*
X0014947Y0023149D01*
X0015088Y0023280D01*
X0015233Y0023408D01*
X0015381Y0023533D01*
X0015532Y0023653D01*
X0015685Y0023770D01*
X0015842Y0023884D01*
X0016001Y0023993D01*
X0016163Y0024098D01*
X0016328Y0024200D01*
X0016495Y0024297D01*
X0016664Y0024390D01*
X0016836Y0024479D01*
X0017009Y0024564D01*
X0017185Y0024644D01*
X0017363Y0024721D01*
X0017542Y0024792D01*
X0017723Y0024860D01*
X0017906Y0024923D01*
X0018090Y0024981D01*
X0018276Y0025035D01*
X0018463Y0025084D01*
X0018651Y0025129D01*
X0018840Y0025169D01*
X0019030Y0025204D01*
X0019221Y0025235D01*
X0019412Y0025261D01*
X0019604Y0025282D01*
X0019797Y0025299D01*
X0019990Y0025311D01*
X0020183Y0025318D01*
X0020376Y0025320D01*
X0020569Y0025318D01*
X0020762Y0025311D01*
X0020955Y0025299D01*
X0021148Y0025282D01*
X0021340Y0025261D01*
X0021531Y0025235D01*
X0021722Y0025204D01*
X0021912Y0025169D01*
X0022101Y0025129D01*
X0022289Y0025084D01*
X0022476Y0025035D01*
X0022662Y0024981D01*
X0022846Y0024923D01*
X0023029Y0024860D01*
X0023210Y0024792D01*
X0023389Y0024721D01*
X0023567Y0024644D01*
X0023743Y0024564D01*
X0023916Y0024479D01*
X0024088Y0024390D01*
X0024257Y0024297D01*
X0024424Y0024200D01*
X0024589Y0024098D01*
X0024751Y0023993D01*
X0024910Y0023884D01*
X0025067Y0023770D01*
X0025220Y0023653D01*
X0025371Y0023533D01*
X0025519Y0023408D01*
X0025664Y0023280D01*
X0025805Y0023149D01*
X0025944Y0023014D01*
X0026079Y0022875D01*
X0026210Y0022734D01*
X0026338Y0022589D01*
X0026463Y0022441D01*
X0026583Y0022290D01*
X0026700Y0022137D01*
X0026814Y0021980D01*
X0026923Y0021821D01*
X0027028Y0021659D01*
X0027130Y0021494D01*
X0027227Y0021327D01*
X0027320Y0021158D01*
X0027409Y0020986D01*
X0027494Y0020813D01*
X0027574Y0020637D01*
X0027651Y0020459D01*
X0027722Y0020280D01*
X0027790Y0020099D01*
X0027853Y0019916D01*
X0027911Y0019732D01*
X0027965Y0019546D01*
X0028014Y0019359D01*
X0028059Y0019171D01*
X0028099Y0018982D01*
X0028134Y0018792D01*
X0028165Y0018601D01*
X0028191Y0018410D01*
X0028212Y0018218D01*
X0028229Y0018025D01*
X0028241Y0017832D01*
X0028248Y0017639D01*
X0028250Y0017446D01*
X0028248Y0017253D01*
X0028241Y0017060D01*
X0028229Y0016867D01*
X0028212Y0016674D01*
X0028191Y0016482D01*
X0028165Y0016291D01*
X0028134Y0016100D01*
X0028099Y0015910D01*
X0028059Y0015721D01*
X0028014Y0015533D01*
X0027965Y0015346D01*
X0027911Y0015160D01*
X0027853Y0014976D01*
X0027790Y0014793D01*
X0027722Y0014612D01*
X0027651Y0014433D01*
X0027574Y0014255D01*
X0027494Y0014079D01*
X0027409Y0013906D01*
X0027320Y0013734D01*
X0027227Y0013565D01*
X0027130Y0013398D01*
X0027028Y0013233D01*
X0026923Y0013071D01*
X0026814Y0012912D01*
X0026700Y0012755D01*
X0026583Y0012602D01*
X0026463Y0012451D01*
X0026338Y0012303D01*
X0026210Y0012158D01*
X0026079Y0012017D01*
X0025944Y0011878D01*
X0025805Y0011743D01*
X0025664Y0011612D01*
X0025519Y0011484D01*
X0025371Y0011359D01*
X0025220Y0011239D01*
X0025067Y0011122D01*
X0024910Y0011008D01*
X0024751Y0010899D01*
X0024589Y0010794D01*
X0024424Y0010692D01*
X0024257Y0010595D01*
X0024088Y0010502D01*
X0023916Y0010413D01*
X0023743Y0010328D01*
X0023567Y0010248D01*
X0023389Y0010171D01*
X0023210Y0010100D01*
X0023029Y0010032D01*
X0022846Y0009969D01*
X0022662Y0009911D01*
X0022476Y0009857D01*
X0022289Y0009808D01*
X0022101Y0009763D01*
X0021912Y0009723D01*
X0021722Y0009688D01*
X0021531Y0009657D01*
X0021340Y0009631D01*
X0021148Y0009610D01*
X0020955Y0009593D01*
X0020762Y0009581D01*
X0020569Y0009574D01*
X0020376Y0009572D01*
X0020183Y0009574D01*
X0019990Y0009581D01*
X0019797Y0009593D01*
X0019604Y0009610D01*
X0019412Y0009631D01*
X0019221Y0009657D01*
X0019030Y0009688D01*
X0018840Y0009723D01*
X0018651Y0009763D01*
X0018463Y0009808D01*
X0018276Y0009857D01*
X0018090Y0009911D01*
X0017906Y0009969D01*
X0017723Y0010032D01*
X0017542Y0010100D01*
X0017363Y0010171D01*
X0017185Y0010248D01*
X0017009Y0010328D01*
X0016836Y0010413D01*
X0016664Y0010502D01*
X0016495Y0010595D01*
X0016328Y0010692D01*
X0016163Y0010794D01*
X0016001Y0010899D01*
X0015842Y0011008D01*
X0015685Y0011122D01*
X0015532Y0011239D01*
X0015381Y0011359D01*
X0015233Y0011484D01*
X0015088Y0011612D01*
X0014947Y0011743D01*
X0014808Y0011878D01*
X0014673Y0012017D01*
X0014542Y0012158D01*
X0014414Y0012303D01*
X0014289Y0012451D01*
X0014169Y0012602D01*
X0014052Y0012755D01*
X0013938Y0012912D01*
X0013829Y0013071D01*
X0013724Y0013233D01*
X0013622Y0013398D01*
X0013525Y0013565D01*
X0013432Y0013734D01*
X0013343Y0013906D01*
X0013258Y0014079D01*
X0013178Y0014255D01*
X0013101Y0014433D01*
X0013030Y0014612D01*
X0012962Y0014793D01*
X0012899Y0014976D01*
X0012841Y0015160D01*
X0012787Y0015346D01*
X0012738Y0015533D01*
X0012693Y0015721D01*
X0012653Y0015910D01*
X0012618Y0016100D01*
X0012587Y0016291D01*
X0012561Y0016482D01*
X0012540Y0016674D01*
X0012523Y0016867D01*
X0012511Y0017060D01*
X0012504Y0017253D01*
X0012502Y0017446D01*
X0012502Y0206423D02*
X0012504Y0206616D01*
X0012511Y0206809D01*
X0012523Y0207002D01*
X0012540Y0207195D01*
X0012561Y0207387D01*
X0012587Y0207578D01*
X0012618Y0207769D01*
X0012653Y0207959D01*
X0012693Y0208148D01*
X0012738Y0208336D01*
X0012787Y0208523D01*
X0012841Y0208709D01*
X0012899Y0208893D01*
X0012962Y0209076D01*
X0013030Y0209257D01*
X0013101Y0209436D01*
X0013178Y0209614D01*
X0013258Y0209790D01*
X0013343Y0209963D01*
X0013432Y0210135D01*
X0013525Y0210304D01*
X0013622Y0210471D01*
X0013724Y0210636D01*
X0013829Y0210798D01*
X0013938Y0210957D01*
X0014052Y0211114D01*
X0014169Y0211267D01*
X0014289Y0211418D01*
X0014414Y0211566D01*
X0014542Y0211711D01*
X0014673Y0211852D01*
X0014808Y0211991D01*
X0014947Y0212126D01*
X0015088Y0212257D01*
X0015233Y0212385D01*
X0015381Y0212510D01*
X0015532Y0212630D01*
X0015685Y0212747D01*
X0015842Y0212861D01*
X0016001Y0212970D01*
X0016163Y0213075D01*
X0016328Y0213177D01*
X0016495Y0213274D01*
X0016664Y0213367D01*
X0016836Y0213456D01*
X0017009Y0213541D01*
X0017185Y0213621D01*
X0017363Y0213698D01*
X0017542Y0213769D01*
X0017723Y0213837D01*
X0017906Y0213900D01*
X0018090Y0213958D01*
X0018276Y0214012D01*
X0018463Y0214061D01*
X0018651Y0214106D01*
X0018840Y0214146D01*
X0019030Y0214181D01*
X0019221Y0214212D01*
X0019412Y0214238D01*
X0019604Y0214259D01*
X0019797Y0214276D01*
X0019990Y0214288D01*
X0020183Y0214295D01*
X0020376Y0214297D01*
X0020569Y0214295D01*
X0020762Y0214288D01*
X0020955Y0214276D01*
X0021148Y0214259D01*
X0021340Y0214238D01*
X0021531Y0214212D01*
X0021722Y0214181D01*
X0021912Y0214146D01*
X0022101Y0214106D01*
X0022289Y0214061D01*
X0022476Y0214012D01*
X0022662Y0213958D01*
X0022846Y0213900D01*
X0023029Y0213837D01*
X0023210Y0213769D01*
X0023389Y0213698D01*
X0023567Y0213621D01*
X0023743Y0213541D01*
X0023916Y0213456D01*
X0024088Y0213367D01*
X0024257Y0213274D01*
X0024424Y0213177D01*
X0024589Y0213075D01*
X0024751Y0212970D01*
X0024910Y0212861D01*
X0025067Y0212747D01*
X0025220Y0212630D01*
X0025371Y0212510D01*
X0025519Y0212385D01*
X0025664Y0212257D01*
X0025805Y0212126D01*
X0025944Y0211991D01*
X0026079Y0211852D01*
X0026210Y0211711D01*
X0026338Y0211566D01*
X0026463Y0211418D01*
X0026583Y0211267D01*
X0026700Y0211114D01*
X0026814Y0210957D01*
X0026923Y0210798D01*
X0027028Y0210636D01*
X0027130Y0210471D01*
X0027227Y0210304D01*
X0027320Y0210135D01*
X0027409Y0209963D01*
X0027494Y0209790D01*
X0027574Y0209614D01*
X0027651Y0209436D01*
X0027722Y0209257D01*
X0027790Y0209076D01*
X0027853Y0208893D01*
X0027911Y0208709D01*
X0027965Y0208523D01*
X0028014Y0208336D01*
X0028059Y0208148D01*
X0028099Y0207959D01*
X0028134Y0207769D01*
X0028165Y0207578D01*
X0028191Y0207387D01*
X0028212Y0207195D01*
X0028229Y0207002D01*
X0028241Y0206809D01*
X0028248Y0206616D01*
X0028250Y0206423D01*
X0028248Y0206230D01*
X0028241Y0206037D01*
X0028229Y0205844D01*
X0028212Y0205651D01*
X0028191Y0205459D01*
X0028165Y0205268D01*
X0028134Y0205077D01*
X0028099Y0204887D01*
X0028059Y0204698D01*
X0028014Y0204510D01*
X0027965Y0204323D01*
X0027911Y0204137D01*
X0027853Y0203953D01*
X0027790Y0203770D01*
X0027722Y0203589D01*
X0027651Y0203410D01*
X0027574Y0203232D01*
X0027494Y0203056D01*
X0027409Y0202883D01*
X0027320Y0202711D01*
X0027227Y0202542D01*
X0027130Y0202375D01*
X0027028Y0202210D01*
X0026923Y0202048D01*
X0026814Y0201889D01*
X0026700Y0201732D01*
X0026583Y0201579D01*
X0026463Y0201428D01*
X0026338Y0201280D01*
X0026210Y0201135D01*
X0026079Y0200994D01*
X0025944Y0200855D01*
X0025805Y0200720D01*
X0025664Y0200589D01*
X0025519Y0200461D01*
X0025371Y0200336D01*
X0025220Y0200216D01*
X0025067Y0200099D01*
X0024910Y0199985D01*
X0024751Y0199876D01*
X0024589Y0199771D01*
X0024424Y0199669D01*
X0024257Y0199572D01*
X0024088Y0199479D01*
X0023916Y0199390D01*
X0023743Y0199305D01*
X0023567Y0199225D01*
X0023389Y0199148D01*
X0023210Y0199077D01*
X0023029Y0199009D01*
X0022846Y0198946D01*
X0022662Y0198888D01*
X0022476Y0198834D01*
X0022289Y0198785D01*
X0022101Y0198740D01*
X0021912Y0198700D01*
X0021722Y0198665D01*
X0021531Y0198634D01*
X0021340Y0198608D01*
X0021148Y0198587D01*
X0020955Y0198570D01*
X0020762Y0198558D01*
X0020569Y0198551D01*
X0020376Y0198549D01*
X0020183Y0198551D01*
X0019990Y0198558D01*
X0019797Y0198570D01*
X0019604Y0198587D01*
X0019412Y0198608D01*
X0019221Y0198634D01*
X0019030Y0198665D01*
X0018840Y0198700D01*
X0018651Y0198740D01*
X0018463Y0198785D01*
X0018276Y0198834D01*
X0018090Y0198888D01*
X0017906Y0198946D01*
X0017723Y0199009D01*
X0017542Y0199077D01*
X0017363Y0199148D01*
X0017185Y0199225D01*
X0017009Y0199305D01*
X0016836Y0199390D01*
X0016664Y0199479D01*
X0016495Y0199572D01*
X0016328Y0199669D01*
X0016163Y0199771D01*
X0016001Y0199876D01*
X0015842Y0199985D01*
X0015685Y0200099D01*
X0015532Y0200216D01*
X0015381Y0200336D01*
X0015233Y0200461D01*
X0015088Y0200589D01*
X0014947Y0200720D01*
X0014808Y0200855D01*
X0014673Y0200994D01*
X0014542Y0201135D01*
X0014414Y0201280D01*
X0014289Y0201428D01*
X0014169Y0201579D01*
X0014052Y0201732D01*
X0013938Y0201889D01*
X0013829Y0202048D01*
X0013724Y0202210D01*
X0013622Y0202375D01*
X0013525Y0202542D01*
X0013432Y0202711D01*
X0013343Y0202883D01*
X0013258Y0203056D01*
X0013178Y0203232D01*
X0013101Y0203410D01*
X0013030Y0203589D01*
X0012962Y0203770D01*
X0012899Y0203953D01*
X0012841Y0204137D01*
X0012787Y0204323D01*
X0012738Y0204510D01*
X0012693Y0204698D01*
X0012653Y0204887D01*
X0012618Y0205077D01*
X0012587Y0205268D01*
X0012561Y0205459D01*
X0012540Y0205651D01*
X0012523Y0205844D01*
X0012511Y0206037D01*
X0012504Y0206230D01*
X0012502Y0206423D01*
X0319589Y0206423D02*
X0319591Y0206616D01*
X0319598Y0206809D01*
X0319610Y0207002D01*
X0319627Y0207195D01*
X0319648Y0207387D01*
X0319674Y0207578D01*
X0319705Y0207769D01*
X0319740Y0207959D01*
X0319780Y0208148D01*
X0319825Y0208336D01*
X0319874Y0208523D01*
X0319928Y0208709D01*
X0319986Y0208893D01*
X0320049Y0209076D01*
X0320117Y0209257D01*
X0320188Y0209436D01*
X0320265Y0209614D01*
X0320345Y0209790D01*
X0320430Y0209963D01*
X0320519Y0210135D01*
X0320612Y0210304D01*
X0320709Y0210471D01*
X0320811Y0210636D01*
X0320916Y0210798D01*
X0321025Y0210957D01*
X0321139Y0211114D01*
X0321256Y0211267D01*
X0321376Y0211418D01*
X0321501Y0211566D01*
X0321629Y0211711D01*
X0321760Y0211852D01*
X0321895Y0211991D01*
X0322034Y0212126D01*
X0322175Y0212257D01*
X0322320Y0212385D01*
X0322468Y0212510D01*
X0322619Y0212630D01*
X0322772Y0212747D01*
X0322929Y0212861D01*
X0323088Y0212970D01*
X0323250Y0213075D01*
X0323415Y0213177D01*
X0323582Y0213274D01*
X0323751Y0213367D01*
X0323923Y0213456D01*
X0324096Y0213541D01*
X0324272Y0213621D01*
X0324450Y0213698D01*
X0324629Y0213769D01*
X0324810Y0213837D01*
X0324993Y0213900D01*
X0325177Y0213958D01*
X0325363Y0214012D01*
X0325550Y0214061D01*
X0325738Y0214106D01*
X0325927Y0214146D01*
X0326117Y0214181D01*
X0326308Y0214212D01*
X0326499Y0214238D01*
X0326691Y0214259D01*
X0326884Y0214276D01*
X0327077Y0214288D01*
X0327270Y0214295D01*
X0327463Y0214297D01*
X0327656Y0214295D01*
X0327849Y0214288D01*
X0328042Y0214276D01*
X0328235Y0214259D01*
X0328427Y0214238D01*
X0328618Y0214212D01*
X0328809Y0214181D01*
X0328999Y0214146D01*
X0329188Y0214106D01*
X0329376Y0214061D01*
X0329563Y0214012D01*
X0329749Y0213958D01*
X0329933Y0213900D01*
X0330116Y0213837D01*
X0330297Y0213769D01*
X0330476Y0213698D01*
X0330654Y0213621D01*
X0330830Y0213541D01*
X0331003Y0213456D01*
X0331175Y0213367D01*
X0331344Y0213274D01*
X0331511Y0213177D01*
X0331676Y0213075D01*
X0331838Y0212970D01*
X0331997Y0212861D01*
X0332154Y0212747D01*
X0332307Y0212630D01*
X0332458Y0212510D01*
X0332606Y0212385D01*
X0332751Y0212257D01*
X0332892Y0212126D01*
X0333031Y0211991D01*
X0333166Y0211852D01*
X0333297Y0211711D01*
X0333425Y0211566D01*
X0333550Y0211418D01*
X0333670Y0211267D01*
X0333787Y0211114D01*
X0333901Y0210957D01*
X0334010Y0210798D01*
X0334115Y0210636D01*
X0334217Y0210471D01*
X0334314Y0210304D01*
X0334407Y0210135D01*
X0334496Y0209963D01*
X0334581Y0209790D01*
X0334661Y0209614D01*
X0334738Y0209436D01*
X0334809Y0209257D01*
X0334877Y0209076D01*
X0334940Y0208893D01*
X0334998Y0208709D01*
X0335052Y0208523D01*
X0335101Y0208336D01*
X0335146Y0208148D01*
X0335186Y0207959D01*
X0335221Y0207769D01*
X0335252Y0207578D01*
X0335278Y0207387D01*
X0335299Y0207195D01*
X0335316Y0207002D01*
X0335328Y0206809D01*
X0335335Y0206616D01*
X0335337Y0206423D01*
X0335335Y0206230D01*
X0335328Y0206037D01*
X0335316Y0205844D01*
X0335299Y0205651D01*
X0335278Y0205459D01*
X0335252Y0205268D01*
X0335221Y0205077D01*
X0335186Y0204887D01*
X0335146Y0204698D01*
X0335101Y0204510D01*
X0335052Y0204323D01*
X0334998Y0204137D01*
X0334940Y0203953D01*
X0334877Y0203770D01*
X0334809Y0203589D01*
X0334738Y0203410D01*
X0334661Y0203232D01*
X0334581Y0203056D01*
X0334496Y0202883D01*
X0334407Y0202711D01*
X0334314Y0202542D01*
X0334217Y0202375D01*
X0334115Y0202210D01*
X0334010Y0202048D01*
X0333901Y0201889D01*
X0333787Y0201732D01*
X0333670Y0201579D01*
X0333550Y0201428D01*
X0333425Y0201280D01*
X0333297Y0201135D01*
X0333166Y0200994D01*
X0333031Y0200855D01*
X0332892Y0200720D01*
X0332751Y0200589D01*
X0332606Y0200461D01*
X0332458Y0200336D01*
X0332307Y0200216D01*
X0332154Y0200099D01*
X0331997Y0199985D01*
X0331838Y0199876D01*
X0331676Y0199771D01*
X0331511Y0199669D01*
X0331344Y0199572D01*
X0331175Y0199479D01*
X0331003Y0199390D01*
X0330830Y0199305D01*
X0330654Y0199225D01*
X0330476Y0199148D01*
X0330297Y0199077D01*
X0330116Y0199009D01*
X0329933Y0198946D01*
X0329749Y0198888D01*
X0329563Y0198834D01*
X0329376Y0198785D01*
X0329188Y0198740D01*
X0328999Y0198700D01*
X0328809Y0198665D01*
X0328618Y0198634D01*
X0328427Y0198608D01*
X0328235Y0198587D01*
X0328042Y0198570D01*
X0327849Y0198558D01*
X0327656Y0198551D01*
X0327463Y0198549D01*
X0327270Y0198551D01*
X0327077Y0198558D01*
X0326884Y0198570D01*
X0326691Y0198587D01*
X0326499Y0198608D01*
X0326308Y0198634D01*
X0326117Y0198665D01*
X0325927Y0198700D01*
X0325738Y0198740D01*
X0325550Y0198785D01*
X0325363Y0198834D01*
X0325177Y0198888D01*
X0324993Y0198946D01*
X0324810Y0199009D01*
X0324629Y0199077D01*
X0324450Y0199148D01*
X0324272Y0199225D01*
X0324096Y0199305D01*
X0323923Y0199390D01*
X0323751Y0199479D01*
X0323582Y0199572D01*
X0323415Y0199669D01*
X0323250Y0199771D01*
X0323088Y0199876D01*
X0322929Y0199985D01*
X0322772Y0200099D01*
X0322619Y0200216D01*
X0322468Y0200336D01*
X0322320Y0200461D01*
X0322175Y0200589D01*
X0322034Y0200720D01*
X0321895Y0200855D01*
X0321760Y0200994D01*
X0321629Y0201135D01*
X0321501Y0201280D01*
X0321376Y0201428D01*
X0321256Y0201579D01*
X0321139Y0201732D01*
X0321025Y0201889D01*
X0320916Y0202048D01*
X0320811Y0202210D01*
X0320709Y0202375D01*
X0320612Y0202542D01*
X0320519Y0202711D01*
X0320430Y0202883D01*
X0320345Y0203056D01*
X0320265Y0203232D01*
X0320188Y0203410D01*
X0320117Y0203589D01*
X0320049Y0203770D01*
X0319986Y0203953D01*
X0319928Y0204137D01*
X0319874Y0204323D01*
X0319825Y0204510D01*
X0319780Y0204698D01*
X0319740Y0204887D01*
X0319705Y0205077D01*
X0319674Y0205268D01*
X0319648Y0205459D01*
X0319627Y0205651D01*
X0319610Y0205844D01*
X0319598Y0206037D01*
X0319591Y0206230D01*
X0319589Y0206423D01*
X0319589Y0017446D02*
X0319591Y0017639D01*
X0319598Y0017832D01*
X0319610Y0018025D01*
X0319627Y0018218D01*
X0319648Y0018410D01*
X0319674Y0018601D01*
X0319705Y0018792D01*
X0319740Y0018982D01*
X0319780Y0019171D01*
X0319825Y0019359D01*
X0319874Y0019546D01*
X0319928Y0019732D01*
X0319986Y0019916D01*
X0320049Y0020099D01*
X0320117Y0020280D01*
X0320188Y0020459D01*
X0320265Y0020637D01*
X0320345Y0020813D01*
X0320430Y0020986D01*
X0320519Y0021158D01*
X0320612Y0021327D01*
X0320709Y0021494D01*
X0320811Y0021659D01*
X0320916Y0021821D01*
X0321025Y0021980D01*
X0321139Y0022137D01*
X0321256Y0022290D01*
X0321376Y0022441D01*
X0321501Y0022589D01*
X0321629Y0022734D01*
X0321760Y0022875D01*
X0321895Y0023014D01*
X0322034Y0023149D01*
X0322175Y0023280D01*
X0322320Y0023408D01*
X0322468Y0023533D01*
X0322619Y0023653D01*
X0322772Y0023770D01*
X0322929Y0023884D01*
X0323088Y0023993D01*
X0323250Y0024098D01*
X0323415Y0024200D01*
X0323582Y0024297D01*
X0323751Y0024390D01*
X0323923Y0024479D01*
X0324096Y0024564D01*
X0324272Y0024644D01*
X0324450Y0024721D01*
X0324629Y0024792D01*
X0324810Y0024860D01*
X0324993Y0024923D01*
X0325177Y0024981D01*
X0325363Y0025035D01*
X0325550Y0025084D01*
X0325738Y0025129D01*
X0325927Y0025169D01*
X0326117Y0025204D01*
X0326308Y0025235D01*
X0326499Y0025261D01*
X0326691Y0025282D01*
X0326884Y0025299D01*
X0327077Y0025311D01*
X0327270Y0025318D01*
X0327463Y0025320D01*
X0327656Y0025318D01*
X0327849Y0025311D01*
X0328042Y0025299D01*
X0328235Y0025282D01*
X0328427Y0025261D01*
X0328618Y0025235D01*
X0328809Y0025204D01*
X0328999Y0025169D01*
X0329188Y0025129D01*
X0329376Y0025084D01*
X0329563Y0025035D01*
X0329749Y0024981D01*
X0329933Y0024923D01*
X0330116Y0024860D01*
X0330297Y0024792D01*
X0330476Y0024721D01*
X0330654Y0024644D01*
X0330830Y0024564D01*
X0331003Y0024479D01*
X0331175Y0024390D01*
X0331344Y0024297D01*
X0331511Y0024200D01*
X0331676Y0024098D01*
X0331838Y0023993D01*
X0331997Y0023884D01*
X0332154Y0023770D01*
X0332307Y0023653D01*
X0332458Y0023533D01*
X0332606Y0023408D01*
X0332751Y0023280D01*
X0332892Y0023149D01*
X0333031Y0023014D01*
X0333166Y0022875D01*
X0333297Y0022734D01*
X0333425Y0022589D01*
X0333550Y0022441D01*
X0333670Y0022290D01*
X0333787Y0022137D01*
X0333901Y0021980D01*
X0334010Y0021821D01*
X0334115Y0021659D01*
X0334217Y0021494D01*
X0334314Y0021327D01*
X0334407Y0021158D01*
X0334496Y0020986D01*
X0334581Y0020813D01*
X0334661Y0020637D01*
X0334738Y0020459D01*
X0334809Y0020280D01*
X0334877Y0020099D01*
X0334940Y0019916D01*
X0334998Y0019732D01*
X0335052Y0019546D01*
X0335101Y0019359D01*
X0335146Y0019171D01*
X0335186Y0018982D01*
X0335221Y0018792D01*
X0335252Y0018601D01*
X0335278Y0018410D01*
X0335299Y0018218D01*
X0335316Y0018025D01*
X0335328Y0017832D01*
X0335335Y0017639D01*
X0335337Y0017446D01*
X0335335Y0017253D01*
X0335328Y0017060D01*
X0335316Y0016867D01*
X0335299Y0016674D01*
X0335278Y0016482D01*
X0335252Y0016291D01*
X0335221Y0016100D01*
X0335186Y0015910D01*
X0335146Y0015721D01*
X0335101Y0015533D01*
X0335052Y0015346D01*
X0334998Y0015160D01*
X0334940Y0014976D01*
X0334877Y0014793D01*
X0334809Y0014612D01*
X0334738Y0014433D01*
X0334661Y0014255D01*
X0334581Y0014079D01*
X0334496Y0013906D01*
X0334407Y0013734D01*
X0334314Y0013565D01*
X0334217Y0013398D01*
X0334115Y0013233D01*
X0334010Y0013071D01*
X0333901Y0012912D01*
X0333787Y0012755D01*
X0333670Y0012602D01*
X0333550Y0012451D01*
X0333425Y0012303D01*
X0333297Y0012158D01*
X0333166Y0012017D01*
X0333031Y0011878D01*
X0332892Y0011743D01*
X0332751Y0011612D01*
X0332606Y0011484D01*
X0332458Y0011359D01*
X0332307Y0011239D01*
X0332154Y0011122D01*
X0331997Y0011008D01*
X0331838Y0010899D01*
X0331676Y0010794D01*
X0331511Y0010692D01*
X0331344Y0010595D01*
X0331175Y0010502D01*
X0331003Y0010413D01*
X0330830Y0010328D01*
X0330654Y0010248D01*
X0330476Y0010171D01*
X0330297Y0010100D01*
X0330116Y0010032D01*
X0329933Y0009969D01*
X0329749Y0009911D01*
X0329563Y0009857D01*
X0329376Y0009808D01*
X0329188Y0009763D01*
X0328999Y0009723D01*
X0328809Y0009688D01*
X0328618Y0009657D01*
X0328427Y0009631D01*
X0328235Y0009610D01*
X0328042Y0009593D01*
X0327849Y0009581D01*
X0327656Y0009574D01*
X0327463Y0009572D01*
X0327270Y0009574D01*
X0327077Y0009581D01*
X0326884Y0009593D01*
X0326691Y0009610D01*
X0326499Y0009631D01*
X0326308Y0009657D01*
X0326117Y0009688D01*
X0325927Y0009723D01*
X0325738Y0009763D01*
X0325550Y0009808D01*
X0325363Y0009857D01*
X0325177Y0009911D01*
X0324993Y0009969D01*
X0324810Y0010032D01*
X0324629Y0010100D01*
X0324450Y0010171D01*
X0324272Y0010248D01*
X0324096Y0010328D01*
X0323923Y0010413D01*
X0323751Y0010502D01*
X0323582Y0010595D01*
X0323415Y0010692D01*
X0323250Y0010794D01*
X0323088Y0010899D01*
X0322929Y0011008D01*
X0322772Y0011122D01*
X0322619Y0011239D01*
X0322468Y0011359D01*
X0322320Y0011484D01*
X0322175Y0011612D01*
X0322034Y0011743D01*
X0321895Y0011878D01*
X0321760Y0012017D01*
X0321629Y0012158D01*
X0321501Y0012303D01*
X0321376Y0012451D01*
X0321256Y0012602D01*
X0321139Y0012755D01*
X0321025Y0012912D01*
X0320916Y0013071D01*
X0320811Y0013233D01*
X0320709Y0013398D01*
X0320612Y0013565D01*
X0320519Y0013734D01*
X0320430Y0013906D01*
X0320345Y0014079D01*
X0320265Y0014255D01*
X0320188Y0014433D01*
X0320117Y0014612D01*
X0320049Y0014793D01*
X0319986Y0014976D01*
X0319928Y0015160D01*
X0319874Y0015346D01*
X0319825Y0015533D01*
X0319780Y0015721D01*
X0319740Y0015910D01*
X0319705Y0016100D01*
X0319674Y0016291D01*
X0319648Y0016482D01*
X0319627Y0016674D01*
X0319610Y0016867D01*
X0319598Y0017060D01*
X0319591Y0017253D01*
X0319589Y0017446D01*
D11*
X0063296Y0151800D03*
X0050304Y0151800D03*
D12*
X0122863Y0041800D03*
X0130737Y0041800D03*
X0290363Y0174300D03*
X0298237Y0174300D03*
X0300737Y0199300D03*
X0292863Y0199300D03*
D13*
X0281800Y0175737D03*
X0281800Y0167863D03*
X0201800Y0115737D03*
X0201800Y0107863D03*
X0191800Y0108237D03*
X0201800Y0100737D03*
X0191800Y0100363D03*
X0201800Y0092863D03*
X0214300Y0088237D03*
X0214300Y0080363D03*
X0209300Y0073237D03*
X0209300Y0065363D03*
X0201800Y0070363D03*
X0194300Y0073237D03*
X0201800Y0078237D03*
X0194300Y0065363D03*
X0171800Y0048237D03*
X0171800Y0040363D03*
X0181800Y0043237D03*
X0189300Y0045737D03*
X0189300Y0037863D03*
X0181800Y0035363D03*
X0186800Y0023237D03*
X0179300Y0020737D03*
X0171800Y0023237D03*
X0171800Y0015363D03*
X0179300Y0012863D03*
X0186800Y0015363D03*
X0154300Y0030363D03*
X0154300Y0038237D03*
X0121800Y0055363D03*
X0121800Y0063237D03*
X0109300Y0068060D03*
X0109300Y0075540D03*
X0234300Y0077863D03*
X0246800Y0080363D03*
X0234300Y0085737D03*
X0246800Y0088237D03*
D14*
X0064595Y0101800D03*
X0039005Y0101800D03*
D15*
X0081170Y0086800D03*
X0102430Y0086800D03*
X0062430Y0071800D03*
X0041170Y0071800D03*
X0086170Y0041800D03*
X0107430Y0041800D03*
D16*
X0130560Y0034300D03*
X0138040Y0034300D03*
X0100540Y0066800D03*
X0093060Y0066800D03*
X0095540Y0104300D03*
X0088060Y0104300D03*
X0228060Y0099300D03*
X0235540Y0099300D03*
X0235540Y0111800D03*
X0228060Y0111800D03*
D17*
X0109300Y0105540D03*
X0109300Y0098060D03*
D18*
X0076800Y0178454D03*
X0076800Y0185146D03*
X0121800Y0183454D03*
X0121800Y0190146D03*
X0201800Y0187646D03*
X0201800Y0180954D03*
D19*
X0145146Y0166800D03*
X0138454Y0166800D03*
X0140146Y0141800D03*
X0133454Y0141800D03*
X0105146Y0131800D03*
X0098454Y0131800D03*
X0090146Y0176800D03*
X0083454Y0176800D03*
X0085954Y0189300D03*
X0092646Y0189300D03*
X0103454Y0191800D03*
X0110146Y0191800D03*
D20*
X0123690Y0134300D03*
X0134910Y0134300D03*
X0208690Y0111800D03*
X0219910Y0111800D03*
X0219910Y0099300D03*
X0208690Y0099300D03*
X0253690Y0079300D03*
X0264910Y0079300D03*
X0267410Y0094300D03*
X0256190Y0094300D03*
X0227410Y0069300D03*
X0216190Y0069300D03*
X0211190Y0059300D03*
X0222410Y0059300D03*
X0202410Y0051800D03*
X0191190Y0051800D03*
X0196190Y0041800D03*
X0207410Y0041800D03*
X0199910Y0029300D03*
X0188690Y0029300D03*
X0193690Y0019300D03*
X0204910Y0019300D03*
D21*
X0199300Y0015954D03*
X0199300Y0022646D03*
X0194300Y0025954D03*
X0194300Y0032646D03*
X0201800Y0038454D03*
X0201800Y0045146D03*
X0196800Y0048454D03*
X0196800Y0055146D03*
X0216800Y0055954D03*
X0216800Y0062646D03*
X0221800Y0065954D03*
X0221800Y0072646D03*
X0214300Y0095954D03*
X0214300Y0102646D03*
X0214300Y0108454D03*
X0214300Y0115146D03*
X0261800Y0097646D03*
X0261800Y0090954D03*
X0259300Y0082646D03*
X0259300Y0075954D03*
X0129300Y0130954D03*
X0129300Y0137646D03*
D22*
X0139300Y0119910D03*
X0129300Y0114910D03*
X0139300Y0108690D03*
X0129300Y0103690D03*
X0149300Y0103690D03*
X0159300Y0108690D03*
X0149300Y0114910D03*
X0159300Y0119910D03*
X0171800Y0122410D03*
X0171800Y0111190D03*
D23*
X0168454Y0116800D03*
X0162646Y0114300D03*
X0155954Y0114300D03*
X0152646Y0109300D03*
X0145954Y0109300D03*
X0142646Y0114300D03*
X0135954Y0114300D03*
X0132646Y0109300D03*
X0125954Y0109300D03*
X0175146Y0116800D03*
D24*
X0065461Y0131800D03*
X0048139Y0131800D03*
D25*
X0051800Y0041643D03*
D26*
X0042824Y0012902D03*
X0060776Y0012902D03*
D27*
X0234900Y0160776D03*
X0234900Y0163926D03*
X0234900Y0167076D03*
X0234900Y0170225D03*
X0234900Y0173375D03*
X0234900Y0176524D03*
X0234900Y0179674D03*
X0234900Y0182824D03*
X0268700Y0182824D03*
X0268700Y0179674D03*
X0268700Y0176524D03*
X0268700Y0173375D03*
X0268700Y0170225D03*
X0268700Y0167076D03*
X0268700Y0163926D03*
X0268700Y0160776D03*
D28*
X0262824Y0154900D03*
X0259674Y0154900D03*
X0256524Y0154900D03*
X0253375Y0154900D03*
X0250225Y0154900D03*
X0247076Y0154900D03*
X0243926Y0154900D03*
X0240776Y0154900D03*
X0240776Y0188700D03*
X0243926Y0188700D03*
X0247076Y0188700D03*
X0250225Y0188700D03*
X0253375Y0188700D03*
X0256524Y0188700D03*
X0259674Y0188700D03*
X0262824Y0188700D03*
D29*
X0031800Y0149674D03*
X0031800Y0133926D03*
D30*
X0278139Y0182076D03*
X0278139Y0191524D03*
X0295461Y0191524D03*
X0295461Y0182076D03*
D31*
X0144083Y0158828D03*
X0129517Y0158828D03*
X0129517Y0149772D03*
X0144083Y0149772D03*
D32*
X0036800Y0161190D03*
X0036800Y0172410D03*
D33*
X0031800Y0183800D02*
X0031800Y0189800D01*
X0041800Y0189800D02*
X0041800Y0183800D01*
X0051800Y0183800D02*
X0051800Y0189800D01*
X0061800Y0189800D02*
X0061800Y0183800D01*
X0236300Y0051800D02*
X0242300Y0051800D01*
X0242300Y0041800D02*
X0236300Y0041800D01*
X0236300Y0031800D02*
X0242300Y0031800D01*
X0242300Y0021800D02*
X0236300Y0021800D01*
X0236300Y0011800D02*
X0242300Y0011800D01*
X0263800Y0011800D02*
X0269800Y0011800D01*
X0269800Y0021800D02*
X0263800Y0021800D01*
X0263800Y0031800D02*
X0269800Y0031800D01*
X0269800Y0041800D02*
X0263800Y0041800D01*
X0263800Y0051800D02*
X0269800Y0051800D01*
X0291300Y0046800D02*
X0297300Y0046800D01*
X0297300Y0036800D02*
X0291300Y0036800D01*
X0318800Y0046800D02*
X0324800Y0046800D01*
X0324800Y0056800D02*
X0318800Y0056800D01*
X0318800Y0066800D02*
X0324800Y0066800D01*
X0324800Y0076800D02*
X0318800Y0076800D01*
X0318800Y0086800D02*
X0324800Y0086800D01*
X0297300Y0076800D02*
X0291300Y0076800D01*
X0291300Y0066800D02*
X0297300Y0066800D01*
X0297300Y0056800D02*
X0291300Y0056800D01*
D34*
X0271800Y0084300D03*
X0271800Y0099300D03*
X0236800Y0091800D03*
X0226800Y0074300D03*
X0221800Y0054300D03*
X0214300Y0051800D03*
X0211800Y0036800D03*
X0204300Y0024300D03*
X0206800Y0014300D03*
X0136800Y0026800D03*
X0236800Y0119300D03*
X0179300Y0121800D03*
X0154300Y0121800D03*
X0149300Y0121800D03*
X0144300Y0124300D03*
X0134300Y0129300D03*
X0131800Y0121800D03*
X0204300Y0159300D03*
X0206800Y0156800D03*
D35*
X0163434Y0073287D03*
X0160875Y0073287D03*
X0158316Y0073287D03*
X0155757Y0073287D03*
X0153198Y0073287D03*
X0150639Y0073287D03*
X0148080Y0073287D03*
X0145520Y0073287D03*
X0142961Y0073287D03*
X0140402Y0073287D03*
X0137843Y0073287D03*
X0135284Y0073287D03*
X0132725Y0073287D03*
X0130166Y0073287D03*
X0130166Y0050313D03*
X0132725Y0050313D03*
X0135284Y0050313D03*
X0137843Y0050313D03*
X0140402Y0050313D03*
X0142961Y0050313D03*
X0145520Y0050313D03*
X0148080Y0050313D03*
X0150639Y0050313D03*
X0153198Y0050313D03*
X0155757Y0050313D03*
X0158316Y0050313D03*
X0160875Y0050313D03*
X0163434Y0050313D03*
D36*
X0152950Y0146800D03*
X0152950Y0151800D03*
X0152950Y0156800D03*
X0152950Y0161800D03*
X0152950Y0166800D03*
X0152950Y0171800D03*
X0152950Y0176800D03*
X0152950Y0181800D03*
X0152950Y0186800D03*
X0190650Y0186800D03*
X0190650Y0181800D03*
X0190650Y0176800D03*
X0190650Y0171800D03*
X0190650Y0166800D03*
X0190650Y0161800D03*
X0190650Y0156800D03*
X0190650Y0151800D03*
X0190650Y0146800D03*
D37*
X0111800Y0148690D03*
X0106800Y0148690D03*
X0101800Y0148690D03*
X0096800Y0148690D03*
X0096800Y0174910D03*
X0101800Y0174910D03*
X0106800Y0174910D03*
X0111800Y0174910D03*
D38*
X0314300Y0171800D03*
X0324300Y0171800D03*
X0324300Y0161800D03*
X0314300Y0161800D03*
X0314300Y0151800D03*
X0324300Y0151800D03*
X0324300Y0141800D03*
X0314300Y0141800D03*
X0314300Y0131800D03*
X0324300Y0131800D03*
D39*
X0319300Y0136800D01*
X0319300Y0154300D01*
X0316800Y0156800D01*
X0299300Y0156800D01*
X0295719Y0156856D02*
X0294200Y0156856D01*
X0294200Y0158454D02*
X0296109Y0158454D01*
X0296264Y0158829D02*
X0295719Y0157512D01*
X0295719Y0156088D01*
X0296264Y0154771D01*
X0297271Y0153764D01*
X0298588Y0153219D01*
X0300012Y0153219D01*
X0301329Y0153764D01*
X0301764Y0154200D01*
X0310195Y0154200D01*
X0309700Y0153705D01*
X0309700Y0149895D01*
X0312395Y0147200D01*
X0316205Y0147200D01*
X0316700Y0147695D01*
X0316700Y0145905D01*
X0316205Y0146400D01*
X0313094Y0146400D01*
X0311335Y0148159D01*
X0310659Y0148835D01*
X0309777Y0149200D01*
X0297794Y0149200D01*
X0294200Y0152794D01*
X0294200Y0159136D01*
X0294836Y0159771D01*
X0295381Y0161088D01*
X0295381Y0162512D01*
X0294836Y0163829D01*
X0293829Y0164836D01*
X0292512Y0165381D01*
X0291088Y0165381D01*
X0289771Y0164836D01*
X0288764Y0163829D01*
X0288219Y0162512D01*
X0288219Y0161088D01*
X0288764Y0159771D01*
X0289400Y0159136D01*
X0289400Y0152594D01*
X0284200Y0157794D01*
X0284200Y0159136D01*
X0284836Y0159771D01*
X0285381Y0161088D01*
X0285381Y0162512D01*
X0284970Y0163504D01*
X0285187Y0163504D01*
X0285644Y0163627D01*
X0286055Y0163864D01*
X0286390Y0164199D01*
X0286627Y0164609D01*
X0286750Y0165067D01*
X0286750Y0167383D01*
X0282280Y0167383D01*
X0282280Y0168343D01*
X0286750Y0168343D01*
X0286750Y0169659D01*
X0287058Y0169350D01*
X0293668Y0169350D01*
X0294300Y0169983D01*
X0294573Y0169710D01*
X0294983Y0169473D01*
X0295441Y0169350D01*
X0297757Y0169350D01*
X0297757Y0173820D01*
X0298717Y0173820D01*
X0298717Y0174780D01*
X0302596Y0174780D01*
X0302596Y0177687D01*
X0302473Y0178144D01*
X0302236Y0178555D01*
X0301901Y0178890D01*
X0301491Y0179127D01*
X0301033Y0179250D01*
X0301002Y0179250D01*
X0301002Y0185577D01*
X0299947Y0186631D01*
X0294245Y0186631D01*
X0294582Y0186969D01*
X0299947Y0186969D01*
X0301002Y0188023D01*
X0301002Y0195026D01*
X0300257Y0195770D01*
X0300257Y0198820D01*
X0301217Y0198820D01*
X0301217Y0199780D01*
X0300257Y0199780D01*
X0300257Y0204250D01*
X0297941Y0204250D01*
X0297483Y0204127D01*
X0297073Y0203890D01*
X0296800Y0203617D01*
X0296168Y0204250D01*
X0289558Y0204250D01*
X0288504Y0203195D01*
X0288504Y0195405D01*
X0289558Y0194350D01*
X0289921Y0194350D01*
X0289921Y0189661D01*
X0289660Y0189400D01*
X0283679Y0189400D01*
X0283679Y0195026D01*
X0282624Y0196080D01*
X0273653Y0196080D01*
X0272598Y0195026D01*
X0272598Y0189400D01*
X0271283Y0189400D01*
X0270327Y0189004D01*
X0267227Y0185904D01*
X0267047Y0185724D01*
X0265724Y0185724D01*
X0265724Y0191946D01*
X0264669Y0193000D01*
X0249100Y0193000D01*
X0249100Y0197753D01*
X0247753Y0199100D01*
X0242753Y0204100D01*
X0215847Y0204100D01*
X0214500Y0202753D01*
X0209500Y0197753D01*
X0209500Y0182753D01*
X0205847Y0179100D01*
X0205568Y0179100D01*
X0205568Y0183864D01*
X0205133Y0184300D01*
X0205568Y0184736D01*
X0205568Y0190557D01*
X0204514Y0191612D01*
X0199086Y0191612D01*
X0198031Y0190557D01*
X0198031Y0190166D01*
X0197512Y0190381D01*
X0196088Y0190381D01*
X0194771Y0189836D01*
X0194341Y0189405D01*
X0193646Y0190100D01*
X0187654Y0190100D01*
X0187416Y0189861D01*
X0183273Y0194004D01*
X0182317Y0194400D01*
X0141283Y0194400D01*
X0140327Y0194004D01*
X0139596Y0193273D01*
X0125723Y0179400D01*
X0124264Y0179400D01*
X0124140Y0179524D01*
X0124463Y0179611D01*
X0124874Y0179848D01*
X0125209Y0180183D01*
X0125446Y0180593D01*
X0125568Y0181051D01*
X0125568Y0183269D01*
X0121984Y0183269D01*
X0121984Y0183638D01*
X0125568Y0183638D01*
X0125568Y0185856D01*
X0125446Y0186314D01*
X0125209Y0186724D01*
X0125133Y0186800D01*
X0125568Y0187236D01*
X0125568Y0193057D01*
X0124514Y0194112D01*
X0121359Y0194112D01*
X0120664Y0194400D01*
X0114112Y0194400D01*
X0114112Y0194514D01*
X0113057Y0195568D01*
X0107236Y0195568D01*
X0106800Y0195133D01*
X0106364Y0195568D01*
X0100543Y0195568D01*
X0099488Y0194514D01*
X0099488Y0193165D01*
X0099300Y0192977D01*
X0094004Y0198273D01*
X0093273Y0199004D01*
X0092317Y0199400D01*
X0056283Y0199400D01*
X0055327Y0199004D01*
X0050923Y0194600D01*
X0050845Y0194600D01*
X0049081Y0193869D01*
X0047731Y0192519D01*
X0047000Y0190755D01*
X0047000Y0182845D01*
X0047731Y0181081D01*
X0049081Y0179731D01*
X0050845Y0179000D01*
X0052755Y0179000D01*
X0054519Y0179731D01*
X0055869Y0181081D01*
X0056600Y0182845D01*
X0056600Y0190755D01*
X0055965Y0192288D01*
X0057877Y0194200D01*
X0059880Y0194200D01*
X0059081Y0193869D01*
X0057731Y0192519D01*
X0057000Y0190755D01*
X0057000Y0182845D01*
X0057731Y0181081D01*
X0059081Y0179731D01*
X0060845Y0179000D01*
X0062755Y0179000D01*
X0064519Y0179731D01*
X0065869Y0181081D01*
X0066600Y0182845D01*
X0066600Y0187923D01*
X0070377Y0191700D01*
X0079954Y0191700D01*
X0079481Y0191504D01*
X0078749Y0190773D01*
X0077088Y0189112D01*
X0074086Y0189112D01*
X0073031Y0188057D01*
X0073031Y0182236D01*
X0073467Y0181800D01*
X0073391Y0181724D01*
X0073154Y0181314D01*
X0073031Y0180856D01*
X0073031Y0178638D01*
X0076616Y0178638D01*
X0076616Y0178269D01*
X0076984Y0178269D01*
X0076984Y0174488D01*
X0079005Y0174488D01*
X0079463Y0174611D01*
X0079488Y0174625D01*
X0079488Y0174595D01*
X0079611Y0174137D01*
X0079848Y0173726D01*
X0080183Y0173391D01*
X0080593Y0173154D01*
X0081051Y0173031D01*
X0083269Y0173031D01*
X0083269Y0176616D01*
X0083638Y0176616D01*
X0083638Y0173031D01*
X0085856Y0173031D01*
X0086314Y0173154D01*
X0086724Y0173391D01*
X0086800Y0173467D01*
X0087236Y0173031D01*
X0093057Y0173031D01*
X0093819Y0173793D01*
X0093819Y0169834D01*
X0094873Y0168780D01*
X0098727Y0168780D01*
X0099300Y0169353D01*
X0099873Y0168780D01*
X0103727Y0168780D01*
X0104300Y0169353D01*
X0104873Y0168780D01*
X0108727Y0168780D01*
X0109300Y0169353D01*
X0109873Y0168780D01*
X0113727Y0168780D01*
X0114781Y0169834D01*
X0114781Y0179987D01*
X0113727Y0181041D01*
X0109873Y0181041D01*
X0109400Y0180568D01*
X0109400Y0182317D01*
X0109004Y0183273D01*
X0104245Y0188031D01*
X0106364Y0188031D01*
X0106800Y0188467D01*
X0107236Y0188031D01*
X0113057Y0188031D01*
X0114112Y0189086D01*
X0114112Y0189200D01*
X0118031Y0189200D01*
X0118031Y0187236D01*
X0118467Y0186800D01*
X0118391Y0186724D01*
X0118154Y0186314D01*
X0118031Y0185856D01*
X0118031Y0183638D01*
X0121616Y0183638D01*
X0121616Y0183269D01*
X0118031Y0183269D01*
X0118031Y0181051D01*
X0118154Y0180593D01*
X0118391Y0180183D01*
X0118726Y0179848D01*
X0119137Y0179611D01*
X0119460Y0179524D01*
X0118764Y0178829D01*
X0118219Y0177512D01*
X0118219Y0176088D01*
X0118764Y0174771D01*
X0119771Y0173764D01*
X0121088Y0173219D01*
X0122512Y0173219D01*
X0123829Y0173764D01*
X0124264Y0174200D01*
X0125523Y0174200D01*
X0115723Y0164400D01*
X0101283Y0164400D01*
X0100327Y0164004D01*
X0095327Y0159004D01*
X0094596Y0158273D01*
X0094200Y0157317D01*
X0094200Y0154147D01*
X0093819Y0153766D01*
X0093819Y0143613D01*
X0094873Y0142559D01*
X0098727Y0142559D01*
X0099300Y0143132D01*
X0099514Y0142919D01*
X0099924Y0142682D01*
X0100382Y0142559D01*
X0101800Y0142559D01*
X0103218Y0142559D01*
X0103676Y0142682D01*
X0104086Y0142919D01*
X0104300Y0143132D01*
X0104400Y0143032D01*
X0104400Y0135568D01*
X0102236Y0135568D01*
X0101800Y0135133D01*
X0101724Y0135209D01*
X0101314Y0135446D01*
X0100856Y0135568D01*
X0098638Y0135568D01*
X0098638Y0131984D01*
X0098269Y0131984D01*
X0098269Y0131616D01*
X0094488Y0131616D01*
X0094488Y0129595D01*
X0094611Y0129137D01*
X0094848Y0128726D01*
X0095183Y0128391D01*
X0095593Y0128154D01*
X0096051Y0128031D01*
X0098269Y0128031D01*
X0098269Y0131616D01*
X0098638Y0131616D01*
X0098638Y0128031D01*
X0099200Y0128031D01*
X0099200Y0114264D01*
X0098764Y0113829D01*
X0098219Y0112512D01*
X0098219Y0111088D01*
X0098764Y0109771D01*
X0099771Y0108764D01*
X0101088Y0108219D01*
X0102512Y0108219D01*
X0103829Y0108764D01*
X0104836Y0109771D01*
X0105381Y0111088D01*
X0105381Y0112512D01*
X0104836Y0113829D01*
X0104400Y0114264D01*
X0104400Y0127377D01*
X0105055Y0128031D01*
X0108057Y0128031D01*
X0109112Y0129086D01*
X0109112Y0132241D01*
X0109400Y0132936D01*
X0109400Y0133971D01*
X0109200Y0134454D01*
X0109200Y0143032D01*
X0109300Y0143132D01*
X0109873Y0142559D01*
X0113727Y0142559D01*
X0114781Y0143613D01*
X0114781Y0151104D01*
X0123976Y0160299D01*
X0123976Y0155917D01*
X0125031Y0154862D01*
X0130929Y0154862D01*
X0129805Y0153738D01*
X0125031Y0153738D01*
X0123976Y0152683D01*
X0123976Y0146861D01*
X0125031Y0145807D01*
X0126917Y0145807D01*
X0126917Y0145220D01*
X0127312Y0144264D01*
X0128044Y0143533D01*
X0129488Y0142088D01*
X0129488Y0141612D01*
X0129300Y0141612D01*
X0129300Y0137647D01*
X0129300Y0141612D01*
X0127882Y0141612D01*
X0127424Y0141489D01*
X0127014Y0141252D01*
X0126679Y0140917D01*
X0126442Y0140507D01*
X0126319Y0140049D01*
X0126319Y0137675D01*
X0120188Y0137675D01*
X0119134Y0136620D01*
X0119134Y0131980D01*
X0119500Y0131613D01*
X0119500Y0080847D01*
X0127766Y0072581D01*
X0127766Y0070592D01*
X0128821Y0069537D01*
X0140860Y0069537D01*
X0140723Y0069400D01*
X0122877Y0069400D01*
X0114533Y0077744D01*
X0114250Y0077862D01*
X0114250Y0078845D01*
X0113195Y0079899D01*
X0112300Y0079899D01*
X0112300Y0080527D01*
X0111843Y0081629D01*
X0110844Y0082629D01*
X0111120Y0082905D01*
X0111120Y0084200D01*
X0112317Y0084200D01*
X0113273Y0084596D01*
X0114004Y0085327D01*
X0114004Y0085327D01*
X0118273Y0089596D01*
X0119004Y0090327D01*
X0119400Y0091283D01*
X0119400Y0102317D01*
X0119004Y0103273D01*
X0118273Y0104004D01*
X0115773Y0106504D01*
X0114817Y0106900D01*
X0114053Y0106900D01*
X0114053Y0108845D01*
X0112998Y0109899D01*
X0105602Y0109899D01*
X0104547Y0108845D01*
X0104547Y0106900D01*
X0099899Y0106900D01*
X0099899Y0107998D01*
X0098845Y0109053D01*
X0092236Y0109053D01*
X0091800Y0108617D01*
X0091724Y0108693D01*
X0091314Y0108930D01*
X0090856Y0109053D01*
X0088539Y0109053D01*
X0088539Y0104780D01*
X0087580Y0104780D01*
X0087580Y0109053D01*
X0085264Y0109053D01*
X0084806Y0108930D01*
X0084396Y0108693D01*
X0084060Y0108358D01*
X0083823Y0107948D01*
X0083701Y0107490D01*
X0083701Y0104780D01*
X0087580Y0104780D01*
X0087580Y0103820D01*
X0088539Y0103820D01*
X0088539Y0099547D01*
X0090856Y0099547D01*
X0091314Y0099670D01*
X0091724Y0099907D01*
X0091800Y0099983D01*
X0092236Y0099547D01*
X0098845Y0099547D01*
X0099899Y0100602D01*
X0099899Y0101700D01*
X0104893Y0101700D01*
X0104670Y0101314D01*
X0104547Y0100856D01*
X0104547Y0098539D01*
X0108820Y0098539D01*
X0108820Y0097580D01*
X0104547Y0097580D01*
X0104547Y0095264D01*
X0104670Y0094806D01*
X0104907Y0094396D01*
X0105242Y0094060D01*
X0105652Y0093823D01*
X0106110Y0093701D01*
X0108820Y0093701D01*
X0108820Y0097580D01*
X0109780Y0097580D01*
X0109780Y0098539D01*
X0114053Y0098539D01*
X0114053Y0100856D01*
X0114047Y0100876D01*
X0114200Y0100723D01*
X0114200Y0092877D01*
X0111120Y0089797D01*
X0111120Y0090695D01*
X0110065Y0091750D01*
X0094795Y0091750D01*
X0093740Y0090695D01*
X0093740Y0082905D01*
X0094795Y0081850D01*
X0103137Y0081850D01*
X0105246Y0079741D01*
X0104350Y0078845D01*
X0104350Y0072236D01*
X0104786Y0071800D01*
X0104350Y0071364D01*
X0104350Y0071047D01*
X0103845Y0071553D01*
X0103140Y0071553D01*
X0103140Y0073577D01*
X0102744Y0074533D01*
X0102013Y0075264D01*
X0100381Y0076896D01*
X0100381Y0077512D01*
X0099836Y0078829D01*
X0098829Y0079836D01*
X0097512Y0080381D01*
X0096088Y0080381D01*
X0094771Y0079836D01*
X0093764Y0078829D01*
X0093219Y0077512D01*
X0093219Y0076088D01*
X0093764Y0074771D01*
X0094771Y0073764D01*
X0096088Y0073219D01*
X0096704Y0073219D01*
X0097940Y0071983D01*
X0097940Y0071553D01*
X0097236Y0071553D01*
X0096800Y0071117D01*
X0096724Y0071193D01*
X0096314Y0071430D01*
X0095856Y0071553D01*
X0093539Y0071553D01*
X0093539Y0067280D01*
X0092580Y0067280D01*
X0092580Y0071553D01*
X0090264Y0071553D01*
X0089806Y0071430D01*
X0089396Y0071193D01*
X0089060Y0070858D01*
X0088823Y0070448D01*
X0088701Y0069990D01*
X0088701Y0067280D01*
X0092580Y0067280D01*
X0092580Y0066320D01*
X0093539Y0066320D01*
X0093539Y0062047D01*
X0095856Y0062047D01*
X0096314Y0062170D01*
X0096724Y0062407D01*
X0096800Y0062483D01*
X0097236Y0062047D01*
X0103845Y0062047D01*
X0104899Y0063102D01*
X0104899Y0064200D01*
X0104906Y0064200D01*
X0105405Y0063701D01*
X0106300Y0063701D01*
X0106300Y0046750D01*
X0099795Y0046750D01*
X0098740Y0045695D01*
X0098740Y0037905D01*
X0099795Y0036850D01*
X0102042Y0036850D01*
X0090392Y0025200D01*
X0068998Y0025200D01*
X0067748Y0024682D01*
X0066792Y0023726D01*
X0060918Y0017852D01*
X0058062Y0017852D01*
X0057008Y0016798D01*
X0057008Y0009007D01*
X0058062Y0007953D01*
X0063490Y0007953D01*
X0064545Y0009007D01*
X0064545Y0011863D01*
X0071082Y0018400D01*
X0092476Y0018400D01*
X0093726Y0018918D01*
X0109356Y0034548D01*
X0110312Y0035504D01*
X0110830Y0036754D01*
X0110830Y0036850D01*
X0115065Y0036850D01*
X0116120Y0037905D01*
X0116120Y0041702D01*
X0118504Y0041702D01*
X0118504Y0037905D01*
X0119558Y0036850D01*
X0126168Y0036850D01*
X0126201Y0036884D01*
X0126201Y0034780D01*
X0130080Y0034780D01*
X0130080Y0036850D01*
X0130257Y0036850D01*
X0130257Y0041320D01*
X0131217Y0041320D01*
X0131217Y0039053D01*
X0131039Y0039053D01*
X0131039Y0034780D01*
X0130080Y0034780D01*
X0130080Y0033820D01*
X0131039Y0033820D01*
X0131039Y0029547D01*
X0133356Y0029547D01*
X0133814Y0029670D01*
X0134224Y0029907D01*
X0134300Y0029983D01*
X0134500Y0029783D01*
X0134500Y0028716D01*
X0134273Y0028489D01*
X0133819Y0027393D01*
X0133819Y0026207D01*
X0134273Y0025111D01*
X0135111Y0024273D01*
X0136207Y0023819D01*
X0137393Y0023819D01*
X0138489Y0024273D01*
X0139327Y0025111D01*
X0139781Y0026207D01*
X0139781Y0027393D01*
X0139327Y0028489D01*
X0139100Y0028716D01*
X0139100Y0029547D01*
X0141345Y0029547D01*
X0142399Y0030602D01*
X0142399Y0037998D01*
X0142179Y0038219D01*
X0142512Y0038219D01*
X0143829Y0038764D01*
X0144836Y0039771D01*
X0145381Y0041088D01*
X0145381Y0042128D01*
X0147820Y0044568D01*
X0147820Y0046563D01*
X0148339Y0046563D01*
X0148339Y0044091D01*
X0147000Y0042753D01*
X0147000Y0033347D01*
X0149350Y0030997D01*
X0149350Y0027058D01*
X0150405Y0026004D01*
X0158195Y0026004D01*
X0158769Y0026578D01*
X0164500Y0020847D01*
X0164500Y0015847D01*
X0165937Y0014410D01*
X0166850Y0013497D01*
X0166850Y0012058D01*
X0167905Y0011004D01*
X0174350Y0011004D01*
X0174350Y0010067D01*
X0174473Y0009609D01*
X0174710Y0009199D01*
X0175045Y0008864D01*
X0175456Y0008627D01*
X0175913Y0008504D01*
X0178820Y0008504D01*
X0178820Y0012383D01*
X0179780Y0012383D01*
X0179780Y0008504D01*
X0182687Y0008504D01*
X0183144Y0008627D01*
X0183555Y0008864D01*
X0183890Y0009199D01*
X0184127Y0009609D01*
X0184250Y0010067D01*
X0184250Y0011004D01*
X0186320Y0011004D01*
X0186320Y0014883D01*
X0187280Y0014883D01*
X0187280Y0015843D01*
X0191750Y0015843D01*
X0191750Y0015925D01*
X0196319Y0015925D01*
X0196319Y0013551D01*
X0196442Y0013093D01*
X0196679Y0012683D01*
X0197014Y0012348D01*
X0197424Y0012111D01*
X0197882Y0011988D01*
X0199300Y0011988D01*
X0200718Y0011988D01*
X0201176Y0012111D01*
X0201586Y0012348D01*
X0201921Y0012683D01*
X0202158Y0013093D01*
X0202281Y0013551D01*
X0202281Y0015925D01*
X0204246Y0015925D01*
X0203819Y0014893D01*
X0203819Y0013707D01*
X0204273Y0012611D01*
X0205111Y0011773D01*
X0206207Y0011319D01*
X0207393Y0011319D01*
X0208489Y0011773D01*
X0209327Y0012611D01*
X0209781Y0013707D01*
X0209781Y0014893D01*
X0209327Y0015989D01*
X0209100Y0016216D01*
X0209100Y0016613D01*
X0209187Y0016700D01*
X0237317Y0016700D01*
X0238041Y0017000D01*
X0243255Y0017000D01*
X0245019Y0017731D01*
X0246369Y0019081D01*
X0247100Y0020845D01*
X0247100Y0022755D01*
X0246369Y0024519D01*
X0245019Y0025869D01*
X0243255Y0026600D01*
X0235345Y0026600D01*
X0233581Y0025869D01*
X0232231Y0024519D01*
X0231500Y0022755D01*
X0231500Y0021900D01*
X0209187Y0021900D01*
X0208412Y0022675D01*
X0206854Y0022675D01*
X0207281Y0023707D01*
X0207281Y0024893D01*
X0206827Y0025989D01*
X0206116Y0026700D01*
X0237317Y0026700D01*
X0238041Y0027000D01*
X0243255Y0027000D01*
X0245019Y0027731D01*
X0246369Y0029081D01*
X0247100Y0030845D01*
X0247100Y0032755D01*
X0247052Y0032871D01*
X0259000Y0020923D01*
X0259000Y0020845D01*
X0259731Y0019081D01*
X0261081Y0017731D01*
X0262845Y0017000D01*
X0270755Y0017000D01*
X0272519Y0017731D01*
X0273869Y0019081D01*
X0274600Y0020845D01*
X0274600Y0022755D01*
X0273869Y0024519D01*
X0272519Y0025869D01*
X0270755Y0026600D01*
X0262845Y0026600D01*
X0261312Y0025965D01*
X0249004Y0038273D01*
X0248273Y0039004D01*
X0247317Y0039400D01*
X0246464Y0039400D01*
X0246748Y0039957D01*
X0246982Y0040676D01*
X0247100Y0041422D01*
X0247100Y0041600D01*
X0239500Y0041600D01*
X0239500Y0042000D01*
X0247100Y0042000D01*
X0247100Y0042178D01*
X0246982Y0042924D01*
X0246973Y0042950D01*
X0259000Y0030923D01*
X0259000Y0030845D01*
X0259731Y0029081D01*
X0261081Y0027731D01*
X0262845Y0027000D01*
X0270755Y0027000D01*
X0272519Y0027731D01*
X0273869Y0029081D01*
X0274600Y0030845D01*
X0274600Y0032755D01*
X0273869Y0034519D01*
X0272519Y0035869D01*
X0270755Y0036600D01*
X0262845Y0036600D01*
X0261312Y0035965D01*
X0248273Y0049004D01*
X0247317Y0049400D01*
X0246501Y0049400D01*
X0247100Y0050845D01*
X0247100Y0052755D01*
X0246369Y0054519D01*
X0245019Y0055869D01*
X0243255Y0056600D01*
X0235345Y0056600D01*
X0233581Y0055869D01*
X0232231Y0054519D01*
X0231500Y0052755D01*
X0231500Y0050845D01*
X0232099Y0049400D01*
X0216116Y0049400D01*
X0216827Y0050111D01*
X0217281Y0051207D01*
X0217281Y0051988D01*
X0218218Y0051988D01*
X0218676Y0052111D01*
X0219086Y0052348D01*
X0219311Y0052573D01*
X0220111Y0051773D01*
X0221207Y0051319D01*
X0222393Y0051319D01*
X0223489Y0051773D01*
X0224327Y0052611D01*
X0224781Y0053707D01*
X0224781Y0054893D01*
X0224354Y0055925D01*
X0225912Y0055925D01*
X0226687Y0056700D01*
X0268223Y0056700D01*
X0268323Y0056600D01*
X0262845Y0056600D01*
X0261081Y0055869D01*
X0259731Y0054519D01*
X0259000Y0052755D01*
X0259000Y0050845D01*
X0259731Y0049081D01*
X0261081Y0047731D01*
X0262845Y0047000D01*
X0270755Y0047000D01*
X0272519Y0047731D01*
X0273869Y0049081D01*
X0274447Y0050476D01*
X0279596Y0045327D01*
X0280327Y0044596D01*
X0281283Y0044200D01*
X0287181Y0044200D01*
X0287231Y0044081D01*
X0288581Y0042731D01*
X0290345Y0042000D01*
X0298255Y0042000D01*
X0300019Y0042731D01*
X0301369Y0044081D01*
X0302100Y0045845D01*
X0302100Y0047755D01*
X0301369Y0049519D01*
X0300019Y0050869D01*
X0298255Y0051600D01*
X0290345Y0051600D01*
X0288581Y0050869D01*
X0287231Y0049519D01*
X0287181Y0049400D01*
X0282877Y0049400D01*
X0270773Y0061504D01*
X0270300Y0061700D01*
X0270723Y0061700D01*
X0277096Y0055327D01*
X0277827Y0054596D01*
X0278783Y0054200D01*
X0287181Y0054200D01*
X0287231Y0054081D01*
X0288581Y0052731D01*
X0290345Y0052000D01*
X0298255Y0052000D01*
X0300019Y0052731D01*
X0301369Y0054081D01*
X0302100Y0055845D01*
X0302100Y0057755D01*
X0301501Y0059200D01*
X0314599Y0059200D01*
X0314000Y0057755D01*
X0314000Y0055845D01*
X0314731Y0054081D01*
X0316081Y0052731D01*
X0317845Y0052000D01*
X0325755Y0052000D01*
X0327519Y0052731D01*
X0328869Y0054081D01*
X0329600Y0055845D01*
X0329600Y0057755D01*
X0328869Y0059519D01*
X0327519Y0060869D01*
X0325755Y0061600D01*
X0320677Y0061600D01*
X0320277Y0062000D01*
X0325755Y0062000D01*
X0327519Y0062731D01*
X0328869Y0064081D01*
X0329600Y0065845D01*
X0329600Y0067755D01*
X0328869Y0069519D01*
X0327519Y0070869D01*
X0325755Y0071600D01*
X0320677Y0071600D01*
X0320277Y0072000D01*
X0321600Y0072000D01*
X0321600Y0076600D01*
X0314000Y0076600D01*
X0314000Y0076422D01*
X0314118Y0075676D01*
X0314352Y0074957D01*
X0314636Y0074400D01*
X0301501Y0074400D01*
X0302100Y0075845D01*
X0302100Y0077755D01*
X0301369Y0079519D01*
X0300019Y0080869D01*
X0298255Y0081600D01*
X0290345Y0081600D01*
X0288581Y0080869D01*
X0287231Y0079519D01*
X0286500Y0077755D01*
X0286500Y0075845D01*
X0286548Y0075729D01*
X0279400Y0082877D01*
X0279400Y0087317D01*
X0279004Y0088273D01*
X0271966Y0095311D01*
X0271966Y0095603D01*
X0272753Y0096390D01*
X0272886Y0096523D01*
X0273489Y0096773D01*
X0274327Y0097611D01*
X0274781Y0098707D01*
X0274781Y0099893D01*
X0274327Y0100989D01*
X0273489Y0101827D01*
X0272393Y0102281D01*
X0271207Y0102281D01*
X0270111Y0101827D01*
X0269273Y0100989D01*
X0268819Y0099893D01*
X0268819Y0098961D01*
X0267532Y0097675D01*
X0264781Y0097675D01*
X0264781Y0100049D01*
X0264658Y0100507D01*
X0264421Y0100917D01*
X0264086Y0101252D01*
X0263676Y0101489D01*
X0263218Y0101612D01*
X0261800Y0101612D01*
X0261800Y0097647D01*
X0261800Y0101612D01*
X0260382Y0101612D01*
X0259924Y0101489D01*
X0259514Y0101252D01*
X0259179Y0100917D01*
X0258942Y0100507D01*
X0258819Y0100049D01*
X0258819Y0097675D01*
X0252688Y0097675D01*
X0251634Y0096620D01*
X0251634Y0096600D01*
X0243347Y0096600D01*
X0239593Y0092846D01*
X0239442Y0093212D01*
X0239116Y0093700D01*
X0238700Y0094116D01*
X0238212Y0094442D01*
X0237958Y0094547D01*
X0238336Y0094547D01*
X0238794Y0094670D01*
X0239204Y0094907D01*
X0239540Y0095242D01*
X0239777Y0095652D01*
X0239899Y0096110D01*
X0239899Y0098820D01*
X0236020Y0098820D01*
X0236020Y0094684D01*
X0235930Y0094667D01*
X0235388Y0094442D01*
X0234900Y0094116D01*
X0234484Y0093700D01*
X0234158Y0093212D01*
X0233933Y0092670D01*
X0233819Y0092094D01*
X0233819Y0091800D01*
X0236800Y0091800D01*
X0236800Y0091800D01*
X0233819Y0091800D01*
X0233819Y0091506D01*
X0233933Y0090930D01*
X0234158Y0090388D01*
X0234353Y0090096D01*
X0230405Y0090096D01*
X0229350Y0089042D01*
X0229350Y0088137D01*
X0219250Y0088137D01*
X0219250Y0091542D01*
X0218195Y0092596D01*
X0216835Y0092596D01*
X0216921Y0092683D01*
X0217158Y0093093D01*
X0217281Y0093551D01*
X0217281Y0095925D01*
X0223412Y0095925D01*
X0223701Y0096214D01*
X0223701Y0095602D01*
X0224755Y0094547D01*
X0231364Y0094547D01*
X0231800Y0094983D01*
X0231876Y0094907D01*
X0232286Y0094670D01*
X0232744Y0094547D01*
X0235061Y0094547D01*
X0235061Y0098820D01*
X0236020Y0098820D01*
X0236020Y0099780D01*
X0235061Y0099780D01*
X0235061Y0104053D01*
X0232744Y0104053D01*
X0232286Y0103930D01*
X0231876Y0103693D01*
X0231800Y0103617D01*
X0231364Y0104053D01*
X0224755Y0104053D01*
X0223701Y0102998D01*
X0223701Y0102386D01*
X0223412Y0102675D01*
X0217281Y0102675D01*
X0217281Y0105049D01*
X0217158Y0105507D01*
X0217133Y0105550D01*
X0217158Y0105593D01*
X0217281Y0106051D01*
X0217281Y0108425D01*
X0223412Y0108425D01*
X0223701Y0108714D01*
X0223701Y0108102D01*
X0224755Y0107047D01*
X0231364Y0107047D01*
X0231800Y0107483D01*
X0232236Y0107047D01*
X0238845Y0107047D01*
X0239899Y0108102D01*
X0239899Y0109200D01*
X0295723Y0109200D01*
X0315067Y0089856D01*
X0314731Y0089519D01*
X0314000Y0087755D01*
X0314000Y0085845D01*
X0314731Y0084081D01*
X0316081Y0082731D01*
X0317845Y0082000D01*
X0325755Y0082000D01*
X0327519Y0082731D01*
X0328869Y0084081D01*
X0329600Y0085845D01*
X0329600Y0087755D01*
X0328869Y0089519D01*
X0327519Y0090869D01*
X0325755Y0091600D01*
X0320677Y0091600D01*
X0299004Y0113273D01*
X0298273Y0114004D01*
X0297317Y0114400D01*
X0239899Y0114400D01*
X0239899Y0115498D01*
X0238845Y0116553D01*
X0237958Y0116553D01*
X0238489Y0116773D01*
X0239327Y0117611D01*
X0239781Y0118707D01*
X0239781Y0119893D01*
X0239327Y0120989D01*
X0238489Y0121827D01*
X0237393Y0122281D01*
X0236207Y0122281D01*
X0235111Y0121827D01*
X0234273Y0120989D01*
X0233819Y0119893D01*
X0233819Y0119572D01*
X0233240Y0118993D01*
X0233240Y0116553D01*
X0232236Y0116553D01*
X0231800Y0116117D01*
X0231364Y0116553D01*
X0224755Y0116553D01*
X0223701Y0115498D01*
X0223701Y0114886D01*
X0223412Y0115175D01*
X0217281Y0115175D01*
X0217281Y0117549D01*
X0217158Y0118007D01*
X0216921Y0118417D01*
X0216586Y0118752D01*
X0216176Y0118989D01*
X0215718Y0119112D01*
X0214300Y0119112D01*
X0214300Y0115147D01*
X0214300Y0119112D01*
X0212882Y0119112D01*
X0212424Y0118989D01*
X0212014Y0118752D01*
X0211679Y0118417D01*
X0211442Y0118007D01*
X0211319Y0117549D01*
X0211319Y0115175D01*
X0206750Y0115175D01*
X0206750Y0115257D01*
X0202280Y0115257D01*
X0202280Y0116217D01*
X0201320Y0116217D01*
X0201320Y0120096D01*
X0198413Y0120096D01*
X0197956Y0119973D01*
X0197545Y0119736D01*
X0197210Y0119401D01*
X0196973Y0118991D01*
X0196850Y0118533D01*
X0196850Y0116217D01*
X0201320Y0116217D01*
X0201320Y0115257D01*
X0196850Y0115257D01*
X0196850Y0112941D01*
X0196973Y0112483D01*
X0197210Y0112073D01*
X0197483Y0111800D01*
X0196850Y0111168D01*
X0196850Y0110537D01*
X0196750Y0110537D01*
X0196750Y0111542D01*
X0195695Y0112596D01*
X0187905Y0112596D01*
X0186850Y0111542D01*
X0186850Y0110537D01*
X0184784Y0110537D01*
X0183437Y0109190D01*
X0173347Y0099100D01*
X0168347Y0099100D01*
X0167000Y0097753D01*
X0148339Y0079091D01*
X0148339Y0077037D01*
X0148080Y0077037D01*
X0148080Y0073288D01*
X0148079Y0073288D01*
X0148079Y0077037D01*
X0147243Y0077037D01*
X0146946Y0076958D01*
X0146866Y0077037D01*
X0145261Y0077037D01*
X0145261Y0081398D01*
X0170497Y0106634D01*
X0174120Y0106634D01*
X0175175Y0107688D01*
X0175175Y0113819D01*
X0177549Y0113819D01*
X0178007Y0113942D01*
X0178417Y0114179D01*
X0178752Y0114514D01*
X0178989Y0114924D01*
X0179112Y0115382D01*
X0179112Y0116800D01*
X0179112Y0118218D01*
X0178989Y0118676D01*
X0178907Y0118819D01*
X0179893Y0118819D01*
X0180989Y0119273D01*
X0181827Y0120111D01*
X0182281Y0121207D01*
X0182281Y0122393D01*
X0181827Y0123489D01*
X0180989Y0124327D01*
X0179893Y0124781D01*
X0178707Y0124781D01*
X0177611Y0124327D01*
X0177384Y0124100D01*
X0176742Y0124100D01*
X0179642Y0127000D01*
X0215253Y0127000D01*
X0222753Y0134500D01*
X0252753Y0134500D01*
X0263776Y0145524D01*
X0265124Y0146871D01*
X0265124Y0151054D01*
X0265724Y0151654D01*
X0265724Y0157876D01*
X0271946Y0157876D01*
X0273000Y0158931D01*
X0273000Y0167076D01*
X0273000Y0173375D01*
X0273000Y0173924D01*
X0276850Y0173924D01*
X0276850Y0172432D01*
X0277483Y0171800D01*
X0277210Y0171527D01*
X0276973Y0171117D01*
X0276850Y0170659D01*
X0276850Y0168343D01*
X0281320Y0168343D01*
X0281320Y0167383D01*
X0276850Y0167383D01*
X0276850Y0165067D01*
X0276973Y0164609D01*
X0277210Y0164199D01*
X0277545Y0163864D01*
X0277956Y0163627D01*
X0278413Y0163504D01*
X0278630Y0163504D01*
X0278219Y0162512D01*
X0278219Y0161088D01*
X0278764Y0159771D01*
X0279400Y0159136D01*
X0279400Y0156323D01*
X0279765Y0155441D01*
X0280441Y0154765D01*
X0295441Y0139765D01*
X0296323Y0139400D01*
X0303306Y0139400D01*
X0309700Y0133006D01*
X0309700Y0129895D01*
X0312395Y0127200D01*
X0316205Y0127200D01*
X0318900Y0129895D01*
X0318900Y0133523D01*
X0319700Y0132723D01*
X0319700Y0129895D01*
X0322395Y0127200D01*
X0326205Y0127200D01*
X0328900Y0129895D01*
X0328900Y0133705D01*
X0326205Y0136400D01*
X0323377Y0136400D01*
X0322577Y0137200D01*
X0326205Y0137200D01*
X0328900Y0139895D01*
X0328900Y0143705D01*
X0326205Y0146400D01*
X0322395Y0146400D01*
X0321900Y0145905D01*
X0321900Y0147695D01*
X0322395Y0147200D01*
X0326205Y0147200D01*
X0328900Y0149895D01*
X0328900Y0153705D01*
X0326205Y0156400D01*
X0322395Y0156400D01*
X0321581Y0155587D01*
X0321504Y0155773D01*
X0319004Y0158273D01*
X0318273Y0159004D01*
X0318087Y0159081D01*
X0318900Y0159895D01*
X0318900Y0163705D01*
X0316205Y0166400D01*
X0312395Y0166400D01*
X0309700Y0163705D01*
X0309700Y0159895D01*
X0310195Y0159400D01*
X0301764Y0159400D01*
X0301329Y0159836D01*
X0300012Y0160381D01*
X0298588Y0160381D01*
X0297271Y0159836D01*
X0296264Y0158829D01*
X0294952Y0160053D02*
X0297795Y0160053D01*
X0295381Y0161651D02*
X0309700Y0161651D01*
X0309700Y0160053D02*
X0300805Y0160053D01*
X0295076Y0163250D02*
X0309700Y0163250D01*
X0310843Y0164848D02*
X0293799Y0164848D01*
X0289801Y0164848D02*
X0286691Y0164848D01*
X0286750Y0166447D02*
X0336897Y0166447D01*
X0336897Y0168045D02*
X0327051Y0168045D01*
X0326205Y0167200D02*
X0328900Y0169895D01*
X0328900Y0171700D01*
X0324400Y0171700D01*
X0324400Y0171900D01*
X0324200Y0171900D01*
X0324200Y0176400D01*
X0322395Y0176400D01*
X0319700Y0173705D01*
X0319700Y0171900D01*
X0324200Y0171900D01*
X0324200Y0171700D01*
X0319700Y0171700D01*
X0319700Y0169895D01*
X0322395Y0167200D01*
X0324200Y0167200D01*
X0324200Y0171700D01*
X0324400Y0171700D01*
X0324400Y0167200D01*
X0326205Y0167200D01*
X0326205Y0166400D02*
X0322395Y0166400D01*
X0319700Y0163705D01*
X0319700Y0159895D01*
X0322395Y0157200D01*
X0326205Y0157200D01*
X0328900Y0159895D01*
X0328900Y0163705D01*
X0326205Y0166400D01*
X0327757Y0164848D02*
X0336897Y0164848D01*
X0336897Y0163250D02*
X0328900Y0163250D01*
X0328900Y0161651D02*
X0336897Y0161651D01*
X0336897Y0160053D02*
X0328900Y0160053D01*
X0327459Y0158454D02*
X0336897Y0158454D01*
X0336897Y0156856D02*
X0320421Y0156856D01*
X0321141Y0158454D02*
X0318823Y0158454D01*
X0318900Y0160053D02*
X0319700Y0160053D01*
X0319700Y0161651D02*
X0318900Y0161651D01*
X0318900Y0163250D02*
X0319700Y0163250D01*
X0320843Y0164848D02*
X0317757Y0164848D01*
X0316205Y0167200D02*
X0318900Y0169895D01*
X0318900Y0173705D01*
X0316205Y0176400D01*
X0312395Y0176400D01*
X0309700Y0173705D01*
X0309700Y0169895D01*
X0312395Y0167200D01*
X0316205Y0167200D01*
X0317051Y0168045D02*
X0321549Y0168045D01*
X0319951Y0169644D02*
X0318649Y0169644D01*
X0318900Y0171242D02*
X0319700Y0171242D01*
X0319700Y0172841D02*
X0318900Y0172841D01*
X0318166Y0174439D02*
X0320434Y0174439D01*
X0322032Y0176038D02*
X0316568Y0176038D01*
X0312032Y0176038D02*
X0302596Y0176038D01*
X0302596Y0177636D02*
X0336897Y0177636D01*
X0336897Y0176038D02*
X0326568Y0176038D01*
X0326205Y0176400D02*
X0324400Y0176400D01*
X0324400Y0171900D01*
X0328900Y0171900D01*
X0328900Y0173705D01*
X0326205Y0176400D01*
X0324400Y0176038D02*
X0324200Y0176038D01*
X0324200Y0174439D02*
X0324400Y0174439D01*
X0324400Y0172841D02*
X0324200Y0172841D01*
X0324300Y0171800D02*
X0324300Y0179300D01*
X0321800Y0181800D01*
X0305737Y0181800D01*
X0300737Y0176800D01*
X0298237Y0174300D01*
X0296800Y0172863D01*
X0296800Y0171800D01*
X0292863Y0167863D01*
X0281800Y0167863D01*
X0281013Y0167076D01*
X0276800Y0167076D01*
X0276800Y0171800D01*
X0275225Y0173375D01*
X0268700Y0173375D01*
X0273000Y0173375D01*
X0268700Y0173375D01*
X0268700Y0173375D01*
X0268700Y0176524D02*
X0264024Y0176524D01*
X0261800Y0174300D01*
X0256426Y0179674D01*
X0251800Y0179674D01*
X0251800Y0179300D01*
X0251800Y0179674D02*
X0234900Y0179674D01*
X0229674Y0179674D01*
X0229300Y0179300D01*
X0226736Y0176800D02*
X0226264Y0177271D01*
X0225719Y0178588D01*
X0225719Y0180012D01*
X0225931Y0180524D01*
X0223776Y0180524D01*
X0210805Y0167553D01*
X0211329Y0167336D01*
X0212336Y0166329D01*
X0212378Y0166226D01*
X0230600Y0166226D01*
X0230600Y0170225D01*
X0234900Y0170225D01*
X0234900Y0170225D01*
X0234900Y0170225D01*
X0239200Y0170225D01*
X0239200Y0168921D01*
X0239200Y0162453D01*
X0239824Y0163076D01*
X0264400Y0163076D01*
X0264400Y0167076D01*
X0268700Y0167076D01*
X0273000Y0167076D01*
X0268700Y0167076D01*
X0268700Y0167076D01*
X0268700Y0167076D01*
X0276800Y0167076D01*
X0276850Y0166447D02*
X0273000Y0166447D01*
X0273000Y0168045D02*
X0281320Y0168045D01*
X0282280Y0168045D02*
X0311549Y0168045D01*
X0309951Y0169644D02*
X0301786Y0169644D01*
X0301901Y0169710D02*
X0302236Y0170045D01*
X0302473Y0170456D01*
X0302596Y0170913D01*
X0302596Y0173820D01*
X0298717Y0173820D01*
X0298717Y0169350D01*
X0301033Y0169350D01*
X0301491Y0169473D01*
X0301901Y0169710D01*
X0302596Y0171242D02*
X0309700Y0171242D01*
X0309700Y0172841D02*
X0302596Y0172841D01*
X0298717Y0172841D02*
X0297757Y0172841D01*
X0297757Y0171242D02*
X0298717Y0171242D01*
X0298717Y0169644D02*
X0297757Y0169644D01*
X0294688Y0169644D02*
X0293961Y0169644D01*
X0290363Y0174300D02*
X0290363Y0178237D01*
X0286524Y0182076D01*
X0278139Y0182076D01*
X0275737Y0179674D01*
X0268700Y0179674D01*
X0268700Y0182824D02*
X0268700Y0183700D01*
X0271800Y0186800D01*
X0290737Y0186800D01*
X0295461Y0191524D01*
X0295461Y0196702D01*
X0292863Y0199300D01*
X0288504Y0200015D02*
X0246837Y0200015D01*
X0248436Y0198417D02*
X0288504Y0198417D01*
X0288504Y0196818D02*
X0249100Y0196818D01*
X0249100Y0195220D02*
X0272792Y0195220D01*
X0272598Y0193621D02*
X0249100Y0193621D01*
X0245239Y0201614D02*
X0288504Y0201614D01*
X0288521Y0203212D02*
X0243640Y0203212D01*
X0265646Y0192023D02*
X0272598Y0192023D01*
X0272598Y0190424D02*
X0265724Y0190424D01*
X0265724Y0188826D02*
X0270149Y0188826D01*
X0268550Y0187227D02*
X0265724Y0187227D01*
X0255349Y0177074D02*
X0259200Y0173223D01*
X0259200Y0171283D01*
X0259596Y0170327D01*
X0260327Y0169596D01*
X0261902Y0168021D01*
X0262858Y0167625D01*
X0264400Y0167625D01*
X0264400Y0167076D01*
X0268700Y0167076D01*
X0259024Y0167076D01*
X0255875Y0170225D01*
X0234900Y0170225D01*
X0230225Y0170225D01*
X0229300Y0169300D01*
X0230600Y0169644D02*
X0212896Y0169644D01*
X0211298Y0168045D02*
X0230600Y0168045D01*
X0230600Y0166447D02*
X0212218Y0166447D01*
X0214495Y0171242D02*
X0227324Y0171242D01*
X0227271Y0171264D02*
X0228588Y0170719D01*
X0230012Y0170719D01*
X0230147Y0170775D01*
X0230600Y0170775D01*
X0230600Y0170225D01*
X0234900Y0170225D01*
X0239200Y0170225D01*
X0239200Y0177074D01*
X0248962Y0177074D01*
X0249771Y0176264D01*
X0251088Y0175719D01*
X0252512Y0175719D01*
X0253829Y0176264D01*
X0254638Y0177074D01*
X0255349Y0177074D01*
X0256385Y0176038D02*
X0253282Y0176038D01*
X0250318Y0176038D02*
X0239200Y0176038D01*
X0239200Y0174439D02*
X0257984Y0174439D01*
X0259200Y0172841D02*
X0239200Y0172841D01*
X0239200Y0171242D02*
X0259217Y0171242D01*
X0260279Y0169644D02*
X0239200Y0169644D01*
X0239200Y0168045D02*
X0261878Y0168045D01*
X0263375Y0170225D02*
X0261800Y0171800D01*
X0261800Y0174300D01*
X0263375Y0170225D02*
X0268700Y0170225D01*
X0273000Y0169644D02*
X0276850Y0169644D01*
X0277045Y0171242D02*
X0273000Y0171242D01*
X0273000Y0172841D02*
X0276850Y0172841D01*
X0281013Y0176524D02*
X0281800Y0175737D01*
X0281013Y0176524D02*
X0268700Y0176524D01*
X0264400Y0166447D02*
X0239200Y0166447D01*
X0239200Y0164848D02*
X0264400Y0164848D01*
X0264400Y0163250D02*
X0239200Y0163250D01*
X0227271Y0171264D02*
X0226264Y0172271D01*
X0225719Y0173588D01*
X0225719Y0175012D01*
X0226264Y0176329D01*
X0226736Y0176800D01*
X0226144Y0176038D02*
X0219290Y0176038D01*
X0217692Y0174439D02*
X0225719Y0174439D01*
X0226028Y0172841D02*
X0216093Y0172841D01*
X0220889Y0177636D02*
X0226113Y0177636D01*
X0225719Y0179235D02*
X0222487Y0179235D01*
X0229300Y0174300D02*
X0230225Y0173375D01*
X0234900Y0173375D01*
X0209179Y0182432D02*
X0205568Y0182432D01*
X0205568Y0180833D02*
X0207581Y0180833D01*
X0205982Y0179235D02*
X0205568Y0179235D01*
X0205403Y0184030D02*
X0209500Y0184030D01*
X0209500Y0185629D02*
X0205568Y0185629D01*
X0205568Y0187227D02*
X0209500Y0187227D01*
X0209500Y0188826D02*
X0205568Y0188826D01*
X0205568Y0190424D02*
X0209500Y0190424D01*
X0209500Y0192023D02*
X0185254Y0192023D01*
X0183656Y0193621D02*
X0209500Y0193621D01*
X0209500Y0195220D02*
X0113406Y0195220D01*
X0110146Y0191800D02*
X0120146Y0191800D01*
X0121800Y0190146D01*
X0118031Y0188826D02*
X0113852Y0188826D01*
X0118040Y0187227D02*
X0105050Y0187227D01*
X0106648Y0185629D02*
X0118031Y0185629D01*
X0118031Y0184030D02*
X0108247Y0184030D01*
X0109353Y0182432D02*
X0118031Y0182432D01*
X0116800Y0181800D02*
X0120146Y0181800D01*
X0121800Y0183454D01*
X0125568Y0184030D02*
X0130353Y0184030D01*
X0128755Y0182432D02*
X0125568Y0182432D01*
X0125510Y0180833D02*
X0127156Y0180833D01*
X0126800Y0176800D02*
X0141800Y0191800D01*
X0181800Y0191800D01*
X0186800Y0186800D01*
X0166800Y0166800D01*
X0170381Y0166704D02*
X0186600Y0182923D01*
X0186600Y0179554D01*
X0186854Y0179300D01*
X0186600Y0179046D01*
X0186600Y0174554D01*
X0186854Y0174300D01*
X0186600Y0174046D01*
X0186600Y0169554D01*
X0186854Y0169300D01*
X0186600Y0169046D01*
X0186600Y0164554D01*
X0186854Y0164300D01*
X0186600Y0164046D01*
X0186600Y0159554D01*
X0186854Y0159300D01*
X0186600Y0159046D01*
X0186600Y0154554D01*
X0186854Y0154300D01*
X0186600Y0154046D01*
X0186600Y0149554D01*
X0186854Y0149300D01*
X0186600Y0149046D01*
X0186600Y0144554D01*
X0187054Y0144100D01*
X0160847Y0144100D01*
X0159500Y0142753D01*
X0153347Y0136600D01*
X0139466Y0136600D01*
X0139466Y0136620D01*
X0138412Y0137675D01*
X0132281Y0137675D01*
X0132281Y0138031D01*
X0136364Y0138031D01*
X0136800Y0138467D01*
X0136876Y0138391D01*
X0137286Y0138154D01*
X0137744Y0138031D01*
X0139962Y0138031D01*
X0139962Y0141616D01*
X0140331Y0141616D01*
X0140331Y0141984D01*
X0144112Y0141984D01*
X0144112Y0144005D01*
X0143989Y0144463D01*
X0143752Y0144874D01*
X0143417Y0145209D01*
X0143007Y0145446D01*
X0142549Y0145568D01*
X0140331Y0145568D01*
X0140331Y0141984D01*
X0139962Y0141984D01*
X0139962Y0145568D01*
X0137744Y0145568D01*
X0137286Y0145446D01*
X0136876Y0145209D01*
X0136800Y0145133D01*
X0136364Y0145568D01*
X0133362Y0145568D01*
X0133123Y0145807D01*
X0134002Y0145807D01*
X0135057Y0146861D01*
X0135057Y0151636D01*
X0135121Y0151700D01*
X0138543Y0151700D01*
X0138543Y0146861D01*
X0139598Y0145807D01*
X0148569Y0145807D01*
X0148900Y0146138D01*
X0148900Y0145063D01*
X0149023Y0144605D01*
X0149260Y0144195D01*
X0149595Y0143860D01*
X0150005Y0143623D01*
X0150463Y0143500D01*
X0152950Y0143500D01*
X0155437Y0143500D01*
X0155895Y0143623D01*
X0156305Y0143860D01*
X0156640Y0144195D01*
X0156877Y0144605D01*
X0157000Y0145063D01*
X0157000Y0146800D01*
X0157000Y0148537D01*
X0156877Y0148995D01*
X0156717Y0149272D01*
X0157000Y0149554D01*
X0157000Y0154046D01*
X0156746Y0154300D01*
X0157000Y0154554D01*
X0157000Y0159046D01*
X0156746Y0159300D01*
X0157000Y0159554D01*
X0157000Y0164046D01*
X0156746Y0164300D01*
X0157000Y0164554D01*
X0157000Y0169046D01*
X0156746Y0169300D01*
X0157000Y0169554D01*
X0157000Y0174046D01*
X0156746Y0174300D01*
X0157000Y0174554D01*
X0157000Y0179046D01*
X0156746Y0179300D01*
X0157000Y0179554D01*
X0157000Y0184046D01*
X0156746Y0184300D01*
X0157000Y0184554D01*
X0157000Y0189046D01*
X0156846Y0189200D01*
X0180723Y0189200D01*
X0183123Y0186800D01*
X0166704Y0170381D01*
X0166088Y0170381D01*
X0164771Y0169836D01*
X0163764Y0168829D01*
X0163219Y0167512D01*
X0163219Y0166088D01*
X0163764Y0164771D01*
X0164771Y0163764D01*
X0166088Y0163219D01*
X0167512Y0163219D01*
X0168829Y0163764D01*
X0169836Y0164771D01*
X0170381Y0166088D01*
X0170381Y0166704D01*
X0170381Y0166447D02*
X0186600Y0166447D01*
X0186600Y0168045D02*
X0171722Y0168045D01*
X0173321Y0169644D02*
X0186600Y0169644D01*
X0186600Y0171242D02*
X0174919Y0171242D01*
X0176518Y0172841D02*
X0186600Y0172841D01*
X0186715Y0174439D02*
X0178116Y0174439D01*
X0179715Y0176038D02*
X0186600Y0176038D01*
X0186600Y0177636D02*
X0181313Y0177636D01*
X0182912Y0179235D02*
X0186789Y0179235D01*
X0186600Y0180833D02*
X0184510Y0180833D01*
X0186109Y0182432D02*
X0186600Y0182432D01*
X0186800Y0186800D02*
X0190650Y0186800D01*
X0196800Y0186800D01*
X0198031Y0190424D02*
X0186853Y0190424D01*
X0182696Y0187227D02*
X0157000Y0187227D01*
X0157000Y0185629D02*
X0181952Y0185629D01*
X0180353Y0184030D02*
X0157000Y0184030D01*
X0157000Y0182432D02*
X0178755Y0182432D01*
X0177156Y0180833D02*
X0157000Y0180833D01*
X0156811Y0179235D02*
X0175558Y0179235D01*
X0173959Y0177636D02*
X0157000Y0177636D01*
X0157000Y0176038D02*
X0172361Y0176038D01*
X0170762Y0174439D02*
X0156885Y0174439D01*
X0157000Y0172841D02*
X0169164Y0172841D01*
X0167565Y0171242D02*
X0157000Y0171242D01*
X0157000Y0169644D02*
X0164579Y0169644D01*
X0163440Y0168045D02*
X0157000Y0168045D01*
X0157000Y0166447D02*
X0163219Y0166447D01*
X0163732Y0164848D02*
X0157000Y0164848D01*
X0157000Y0163250D02*
X0166013Y0163250D01*
X0167587Y0163250D02*
X0186600Y0163250D01*
X0186600Y0164848D02*
X0169868Y0164848D01*
X0157000Y0161651D02*
X0186600Y0161651D01*
X0186600Y0160053D02*
X0157000Y0160053D01*
X0157000Y0158454D02*
X0186600Y0158454D01*
X0186600Y0156856D02*
X0157000Y0156856D01*
X0157000Y0155257D02*
X0186600Y0155257D01*
X0186600Y0153659D02*
X0157000Y0153659D01*
X0157000Y0152060D02*
X0186600Y0152060D01*
X0186600Y0150462D02*
X0157000Y0150462D01*
X0156913Y0148863D02*
X0186600Y0148863D01*
X0186600Y0147265D02*
X0157000Y0147265D01*
X0157000Y0146800D02*
X0152950Y0146800D01*
X0152950Y0142950D01*
X0151800Y0141800D01*
X0140146Y0141800D01*
X0140331Y0141616D02*
X0140331Y0138031D01*
X0142549Y0138031D01*
X0143007Y0138154D01*
X0143417Y0138391D01*
X0143752Y0138726D01*
X0143989Y0139137D01*
X0144112Y0139595D01*
X0144112Y0141616D01*
X0140331Y0141616D01*
X0140331Y0140870D02*
X0139962Y0140870D01*
X0139962Y0139272D02*
X0140331Y0139272D01*
X0138413Y0137673D02*
X0154421Y0137673D01*
X0156019Y0139272D02*
X0144025Y0139272D01*
X0144112Y0140870D02*
X0157618Y0140870D01*
X0159216Y0142469D02*
X0144112Y0142469D01*
X0144095Y0144068D02*
X0149387Y0144068D01*
X0148900Y0145666D02*
X0133264Y0145666D01*
X0135057Y0147265D02*
X0138543Y0147265D01*
X0138543Y0148863D02*
X0135057Y0148863D01*
X0135057Y0150462D02*
X0138543Y0150462D01*
X0134044Y0154300D02*
X0149300Y0154300D01*
X0151800Y0151800D01*
X0152950Y0151800D01*
X0152950Y0146800D02*
X0152950Y0146800D01*
X0157000Y0146800D01*
X0157000Y0145666D02*
X0186600Y0145666D01*
X0160815Y0144068D02*
X0156513Y0144068D01*
X0152950Y0144068D02*
X0152950Y0144068D01*
X0152950Y0143500D02*
X0152950Y0146800D01*
X0152950Y0146800D01*
X0152950Y0143500D01*
X0152950Y0145666D02*
X0152950Y0145666D01*
X0140331Y0144068D02*
X0139962Y0144068D01*
X0139962Y0142469D02*
X0140331Y0142469D01*
X0133454Y0141800D02*
X0129517Y0145737D01*
X0129517Y0149772D01*
X0134044Y0154300D01*
X0135057Y0156900D02*
X0135057Y0161738D01*
X0134002Y0162793D01*
X0126470Y0162793D01*
X0142877Y0179200D01*
X0149054Y0179200D01*
X0148900Y0179046D01*
X0148900Y0174554D01*
X0149154Y0174300D01*
X0148900Y0174046D01*
X0148900Y0169726D01*
X0148057Y0170568D01*
X0142236Y0170568D01*
X0141800Y0170133D01*
X0141724Y0170209D01*
X0141314Y0170446D01*
X0140856Y0170568D01*
X0138638Y0170568D01*
X0138638Y0166984D01*
X0138269Y0166984D01*
X0138269Y0166616D01*
X0134488Y0166616D01*
X0134488Y0164595D01*
X0134611Y0164137D01*
X0134848Y0163726D01*
X0135183Y0163391D01*
X0135593Y0163154D01*
X0136051Y0163031D01*
X0138269Y0163031D01*
X0138269Y0166616D01*
X0138638Y0166616D01*
X0138638Y0163031D01*
X0140856Y0163031D01*
X0141314Y0163154D01*
X0141724Y0163391D01*
X0141800Y0163467D01*
X0142236Y0163031D01*
X0142546Y0163031D01*
X0142546Y0162793D01*
X0139598Y0162793D01*
X0138543Y0161738D01*
X0138543Y0156900D01*
X0135057Y0156900D01*
X0135057Y0158454D02*
X0138543Y0158454D01*
X0138543Y0160053D02*
X0135057Y0160053D01*
X0135057Y0161651D02*
X0138543Y0161651D01*
X0138638Y0163250D02*
X0138269Y0163250D01*
X0138269Y0164848D02*
X0138638Y0164848D01*
X0138638Y0166447D02*
X0138269Y0166447D01*
X0138454Y0166800D02*
X0141800Y0170146D01*
X0141800Y0171800D01*
X0138269Y0170568D02*
X0136051Y0170568D01*
X0135593Y0170446D01*
X0135183Y0170209D01*
X0134848Y0169874D01*
X0134611Y0169463D01*
X0134488Y0169005D01*
X0134488Y0166984D01*
X0138269Y0166984D01*
X0138269Y0170568D01*
X0138269Y0169644D02*
X0138638Y0169644D01*
X0138638Y0168045D02*
X0138269Y0168045D01*
X0134488Y0168045D02*
X0131722Y0168045D01*
X0130124Y0166447D02*
X0134488Y0166447D01*
X0134488Y0164848D02*
X0128525Y0164848D01*
X0126927Y0163250D02*
X0135428Y0163250D01*
X0141479Y0163250D02*
X0142017Y0163250D01*
X0145146Y0159891D02*
X0145146Y0166800D01*
X0148900Y0171242D02*
X0134919Y0171242D01*
X0134715Y0169644D02*
X0133321Y0169644D01*
X0136518Y0172841D02*
X0148900Y0172841D01*
X0149015Y0174439D02*
X0138116Y0174439D01*
X0139715Y0176038D02*
X0148900Y0176038D01*
X0148900Y0177636D02*
X0141313Y0177636D01*
X0141800Y0181800D02*
X0111800Y0151800D01*
X0111800Y0148690D01*
X0114781Y0148863D02*
X0123976Y0148863D01*
X0123976Y0147265D02*
X0114781Y0147265D01*
X0114781Y0145666D02*
X0126917Y0145666D01*
X0127509Y0144068D02*
X0114781Y0144068D01*
X0109200Y0142469D02*
X0129108Y0142469D01*
X0129300Y0140870D02*
X0129300Y0140870D01*
X0129300Y0139272D02*
X0129300Y0139272D01*
X0129300Y0137673D02*
X0129300Y0137673D01*
X0129300Y0137647D02*
X0129300Y0137647D01*
X0129300Y0137646D02*
X0129300Y0134919D01*
X0129300Y0130954D01*
X0129300Y0130954D01*
X0129300Y0137646D01*
X0129300Y0137646D01*
X0129300Y0136075D02*
X0129300Y0136075D01*
X0129300Y0134476D02*
X0129300Y0134476D01*
X0129300Y0132878D02*
X0129300Y0132878D01*
X0129300Y0131279D02*
X0129300Y0131279D01*
X0129300Y0130953D02*
X0129300Y0127553D01*
X0129300Y0127553D01*
X0129300Y0130953D01*
X0129300Y0130953D01*
X0129300Y0129681D02*
X0129300Y0129681D01*
X0129300Y0128082D02*
X0129300Y0128082D01*
X0128736Y0126988D02*
X0127000Y0125253D01*
X0127000Y0120847D01*
X0127000Y0119466D01*
X0126980Y0119466D01*
X0125925Y0118412D01*
X0125925Y0112281D01*
X0124100Y0112281D01*
X0124100Y0130925D01*
X0126319Y0130925D01*
X0126319Y0128551D01*
X0126442Y0128093D01*
X0126679Y0127683D01*
X0127014Y0127348D01*
X0127424Y0127111D01*
X0127882Y0126988D01*
X0128736Y0126988D01*
X0128231Y0126484D02*
X0124100Y0126484D01*
X0124100Y0128082D02*
X0126448Y0128082D01*
X0126319Y0129681D02*
X0124100Y0129681D01*
X0119500Y0129681D02*
X0109112Y0129681D01*
X0109112Y0131279D02*
X0119500Y0131279D01*
X0119134Y0132878D02*
X0109376Y0132878D01*
X0109200Y0134476D02*
X0119134Y0134476D01*
X0119134Y0136075D02*
X0109200Y0136075D01*
X0109200Y0137673D02*
X0120187Y0137673D01*
X0126319Y0139272D02*
X0109200Y0139272D01*
X0109200Y0140870D02*
X0126652Y0140870D01*
X0123976Y0150462D02*
X0114781Y0150462D01*
X0115737Y0152060D02*
X0123976Y0152060D01*
X0124952Y0153659D02*
X0117336Y0153659D01*
X0118934Y0155257D02*
X0124636Y0155257D01*
X0123976Y0156856D02*
X0120533Y0156856D01*
X0122131Y0158454D02*
X0123976Y0158454D01*
X0123976Y0160053D02*
X0123730Y0160053D01*
X0116800Y0161800D02*
X0101800Y0161800D01*
X0096800Y0156800D01*
X0096800Y0148690D01*
X0093819Y0148863D02*
X0067458Y0148863D01*
X0067458Y0147265D02*
X0093819Y0147265D01*
X0093819Y0145666D02*
X0067355Y0145666D01*
X0067336Y0145593D02*
X0067458Y0146051D01*
X0067458Y0151419D01*
X0063677Y0151419D01*
X0063677Y0144488D01*
X0065895Y0144488D01*
X0066353Y0144611D01*
X0066763Y0144848D01*
X0067099Y0145183D01*
X0067336Y0145593D01*
X0063677Y0145666D02*
X0062915Y0145666D01*
X0062915Y0144488D02*
X0060697Y0144488D01*
X0060239Y0144611D01*
X0059829Y0144848D01*
X0059493Y0145183D01*
X0059257Y0145593D01*
X0059134Y0146051D01*
X0059134Y0151419D01*
X0062915Y0151419D01*
X0062915Y0152181D01*
X0059134Y0152181D01*
X0059134Y0157549D01*
X0059257Y0158007D01*
X0059493Y0158417D01*
X0059829Y0158752D01*
X0060239Y0158989D01*
X0060697Y0159112D01*
X0062915Y0159112D01*
X0062915Y0152181D01*
X0063677Y0152181D01*
X0063677Y0159112D01*
X0065895Y0159112D01*
X0066353Y0158989D01*
X0066763Y0158752D01*
X0067099Y0158417D01*
X0067336Y0158007D01*
X0067458Y0157549D01*
X0067458Y0152181D01*
X0063677Y0152181D01*
X0063677Y0151419D01*
X0062915Y0151419D01*
X0062915Y0144488D01*
X0062915Y0147265D02*
X0063677Y0147265D01*
X0063677Y0148863D02*
X0062915Y0148863D01*
X0062915Y0150462D02*
X0063677Y0150462D01*
X0063296Y0151800D02*
X0063296Y0158296D01*
X0066800Y0161800D01*
X0056800Y0161800D01*
X0046800Y0171800D01*
X0046800Y0181800D01*
X0041800Y0186800D01*
X0042000Y0187000D02*
X0041600Y0187000D01*
X0041600Y0194600D01*
X0041422Y0194600D01*
X0040676Y0194482D01*
X0039957Y0194248D01*
X0039284Y0193905D01*
X0038673Y0193461D01*
X0038139Y0192927D01*
X0037695Y0192316D01*
X0037352Y0191643D01*
X0037118Y0190924D01*
X0037000Y0190178D01*
X0037000Y0187000D01*
X0041600Y0187000D01*
X0041600Y0186600D01*
X0037000Y0186600D01*
X0037000Y0185843D01*
X0036600Y0186243D01*
X0036600Y0190755D01*
X0035869Y0192519D01*
X0034519Y0193869D01*
X0032755Y0194600D01*
X0030845Y0194600D01*
X0029081Y0193869D01*
X0027731Y0192519D01*
X0027000Y0190755D01*
X0027000Y0182845D01*
X0027731Y0181081D01*
X0029081Y0179731D01*
X0030845Y0179000D01*
X0032755Y0179000D01*
X0033800Y0179433D01*
X0033800Y0175785D01*
X0029165Y0175785D01*
X0028110Y0174731D01*
X0028110Y0170090D01*
X0029165Y0169035D01*
X0044435Y0169035D01*
X0045490Y0170090D01*
X0045490Y0174731D01*
X0044435Y0175785D01*
X0039800Y0175785D01*
X0039800Y0179432D01*
X0039957Y0179352D01*
X0040676Y0179118D01*
X0041422Y0179000D01*
X0041600Y0179000D01*
X0041600Y0186600D01*
X0042000Y0186600D01*
X0042000Y0187000D01*
X0042000Y0194600D01*
X0042178Y0194600D01*
X0042924Y0194482D01*
X0043643Y0194248D01*
X0044316Y0193905D01*
X0044927Y0193461D01*
X0045461Y0192927D01*
X0045905Y0192316D01*
X0046248Y0191643D01*
X0046482Y0190924D01*
X0046600Y0190178D01*
X0046600Y0187000D01*
X0042000Y0187000D01*
X0042000Y0187227D02*
X0041600Y0187227D01*
X0042000Y0186600D02*
X0046600Y0186600D01*
X0046600Y0183422D01*
X0046482Y0182676D01*
X0046248Y0181957D01*
X0045905Y0181284D01*
X0045461Y0180673D01*
X0044927Y0180139D01*
X0044316Y0179695D01*
X0043643Y0179352D01*
X0042924Y0179118D01*
X0042178Y0179000D01*
X0042000Y0179000D01*
X0042000Y0186600D01*
X0042000Y0185629D02*
X0041600Y0185629D01*
X0041600Y0184030D02*
X0042000Y0184030D01*
X0042000Y0182432D02*
X0041600Y0182432D01*
X0041600Y0180833D02*
X0042000Y0180833D01*
X0042000Y0179235D02*
X0041600Y0179235D01*
X0040317Y0179235D02*
X0039800Y0179235D01*
X0039800Y0177636D02*
X0073031Y0177636D01*
X0073031Y0178269D02*
X0073031Y0176051D01*
X0073154Y0175593D01*
X0073391Y0175183D01*
X0073726Y0174848D01*
X0074137Y0174611D01*
X0074595Y0174488D01*
X0076616Y0174488D01*
X0076616Y0178269D01*
X0073031Y0178269D01*
X0073031Y0179235D02*
X0063322Y0179235D01*
X0065621Y0180833D02*
X0073031Y0180833D01*
X0073031Y0182432D02*
X0066429Y0182432D01*
X0066600Y0184030D02*
X0073031Y0184030D01*
X0073031Y0185629D02*
X0066600Y0185629D01*
X0066600Y0187227D02*
X0073031Y0187227D01*
X0073800Y0188826D02*
X0067503Y0188826D01*
X0069101Y0190424D02*
X0078401Y0190424D01*
X0080954Y0189300D02*
X0085954Y0189300D01*
X0089300Y0185967D02*
X0089736Y0185531D01*
X0094392Y0185531D01*
X0099200Y0180723D01*
X0099200Y0180568D01*
X0098727Y0181041D01*
X0094873Y0181041D01*
X0093819Y0179987D01*
X0093819Y0179807D01*
X0093057Y0180568D01*
X0087236Y0180568D01*
X0086800Y0180133D01*
X0086724Y0180209D01*
X0086314Y0180446D01*
X0085856Y0180568D01*
X0083638Y0180568D01*
X0083638Y0176984D01*
X0083269Y0176984D01*
X0083269Y0180568D01*
X0081051Y0180568D01*
X0080593Y0180446D01*
X0080568Y0180431D01*
X0080568Y0180856D01*
X0080446Y0181314D01*
X0080209Y0181724D01*
X0080133Y0181800D01*
X0080568Y0182236D01*
X0080568Y0185238D01*
X0081988Y0186658D01*
X0081988Y0186586D01*
X0083043Y0185531D01*
X0088864Y0185531D01*
X0089300Y0185967D01*
X0088962Y0185629D02*
X0089638Y0185629D01*
X0092646Y0189300D02*
X0092646Y0190954D01*
X0089300Y0194300D01*
X0069300Y0194300D01*
X0061800Y0186800D01*
X0057000Y0187227D02*
X0056600Y0187227D01*
X0056600Y0185629D02*
X0057000Y0185629D01*
X0057000Y0184030D02*
X0056600Y0184030D01*
X0056429Y0182432D02*
X0057171Y0182432D01*
X0057979Y0180833D02*
X0055621Y0180833D01*
X0053322Y0179235D02*
X0060278Y0179235D01*
X0050278Y0179235D02*
X0043283Y0179235D01*
X0045578Y0180833D02*
X0047979Y0180833D01*
X0047171Y0182432D02*
X0046402Y0182432D01*
X0046600Y0184030D02*
X0047000Y0184030D01*
X0047000Y0185629D02*
X0046600Y0185629D01*
X0046600Y0187227D02*
X0047000Y0187227D01*
X0047000Y0188826D02*
X0046600Y0188826D01*
X0046561Y0190424D02*
X0047000Y0190424D01*
X0047525Y0192023D02*
X0046055Y0192023D01*
X0044707Y0193621D02*
X0048833Y0193621D01*
X0051543Y0195220D02*
X0010942Y0195220D01*
X0010942Y0196818D02*
X0017059Y0196818D01*
X0017571Y0196563D02*
X0014199Y0198242D01*
X0014199Y0198242D01*
X0011661Y0201026D01*
X0011661Y0201026D01*
X0010942Y0202882D01*
X0010942Y0020987D01*
X0011661Y0022843D01*
X0011661Y0022843D01*
X0014199Y0025627D01*
X0014199Y0025627D01*
X0014199Y0025627D01*
X0017571Y0027306D01*
X0017571Y0027306D01*
X0021322Y0027653D01*
X0021322Y0027653D01*
X0024945Y0026623D01*
X0024945Y0026623D01*
X0027952Y0024352D01*
X0027952Y0024352D01*
X0028400Y0023628D01*
X0028400Y0067476D01*
X0028918Y0068726D01*
X0032480Y0072289D01*
X0032480Y0075695D01*
X0033535Y0076750D01*
X0035605Y0076750D01*
X0035605Y0095079D01*
X0031369Y0095079D01*
X0030315Y0096133D01*
X0030315Y0099168D01*
X0030101Y0099257D01*
X0029257Y0100101D01*
X0028800Y0101203D01*
X0028800Y0128583D01*
X0023968Y0128583D01*
X0022913Y0129637D01*
X0022913Y0138215D01*
X0023968Y0139269D01*
X0039632Y0139269D01*
X0040687Y0138215D01*
X0040687Y0136526D01*
X0041614Y0136526D01*
X0041614Y0137270D01*
X0042669Y0138324D01*
X0053609Y0138324D01*
X0054663Y0137270D01*
X0054663Y0126330D01*
X0053609Y0125276D01*
X0042669Y0125276D01*
X0041614Y0126330D01*
X0041614Y0131326D01*
X0040687Y0131326D01*
X0040687Y0129637D01*
X0039632Y0128583D01*
X0034800Y0128583D01*
X0034800Y0108521D01*
X0046640Y0108521D01*
X0047694Y0107467D01*
X0047694Y0096133D01*
X0046640Y0095079D01*
X0042405Y0095079D01*
X0042405Y0076750D01*
X0048805Y0076750D01*
X0049860Y0075695D01*
X0049860Y0067905D01*
X0048805Y0066850D01*
X0036659Y0066850D01*
X0035200Y0065392D01*
X0035200Y0025334D01*
X0042682Y0017852D01*
X0045538Y0017852D01*
X0046592Y0016798D01*
X0046592Y0009007D01*
X0045538Y0007953D01*
X0040110Y0007953D01*
X0039055Y0009007D01*
X0039055Y0011863D01*
X0029973Y0020945D01*
X0030627Y0017446D01*
X0030627Y0017446D01*
X0029935Y0013743D01*
X0027952Y0010540D01*
X0027952Y0010540D01*
X0024945Y0008270D01*
X0024945Y0008270D01*
X0021322Y0007239D01*
X0021322Y0007239D01*
X0017571Y0007587D01*
X0017571Y0007587D01*
X0014199Y0009266D01*
X0014199Y0009266D01*
X0011661Y0012050D01*
X0011661Y0012050D01*
X0010942Y0013906D01*
X0010942Y0004075D01*
X0336897Y0004075D01*
X0336897Y0013543D01*
X0335038Y0010540D01*
X0335038Y0010540D01*
X0335038Y0010540D01*
X0332032Y0008270D01*
X0332032Y0008270D01*
X0328409Y0007239D01*
X0328409Y0007239D01*
X0324658Y0007587D01*
X0324658Y0007587D01*
X0321285Y0009266D01*
X0321285Y0009266D01*
X0318748Y0012050D01*
X0318748Y0012050D01*
X0317387Y0015563D01*
X0317387Y0019330D01*
X0318748Y0022843D01*
X0318748Y0022843D01*
X0321285Y0025627D01*
X0321285Y0025627D01*
X0324658Y0027306D01*
X0324658Y0027306D01*
X0328409Y0027653D01*
X0328409Y0027653D01*
X0332032Y0026623D01*
X0332032Y0026623D01*
X0335038Y0024352D01*
X0335038Y0024352D01*
X0335038Y0024352D01*
X0336897Y0021350D01*
X0336897Y0202519D01*
X0335038Y0199517D01*
X0335038Y0199517D01*
X0335038Y0199517D01*
X0332032Y0197247D01*
X0332032Y0197247D01*
X0328409Y0196216D01*
X0328409Y0196216D01*
X0324658Y0196563D01*
X0324658Y0196563D01*
X0321285Y0198242D01*
X0321285Y0198242D01*
X0318748Y0201026D01*
X0318748Y0201026D01*
X0317387Y0204539D01*
X0317387Y0208306D01*
X0318748Y0211819D01*
X0318748Y0211819D01*
X0321285Y0214603D01*
X0321285Y0214603D01*
X0324658Y0216282D01*
X0324658Y0216282D01*
X0328409Y0216630D01*
X0328409Y0216630D01*
X0332032Y0215599D01*
X0332032Y0215599D01*
X0335038Y0213329D01*
X0335038Y0213329D01*
X0335038Y0213329D01*
X0336897Y0210327D01*
X0336897Y0219794D01*
X0010942Y0219794D01*
X0010942Y0209963D01*
X0011661Y0211819D01*
X0011661Y0211819D01*
X0014199Y0214603D01*
X0014199Y0214603D01*
X0017571Y0216282D01*
X0017571Y0216282D01*
X0021322Y0216630D01*
X0021322Y0216630D01*
X0024945Y0215599D01*
X0024945Y0215599D01*
X0027952Y0213329D01*
X0027952Y0213329D01*
X0027952Y0213329D01*
X0029935Y0210126D01*
X0029935Y0210126D01*
X0030627Y0206423D01*
X0030627Y0206423D01*
X0029935Y0202720D01*
X0027952Y0199517D01*
X0027952Y0199517D01*
X0024945Y0197247D01*
X0024945Y0197247D01*
X0021322Y0196216D01*
X0021322Y0196216D01*
X0017571Y0196563D01*
X0017571Y0196563D01*
X0014040Y0198417D02*
X0010942Y0198417D01*
X0010942Y0200015D02*
X0012583Y0200015D01*
X0011433Y0201614D02*
X0010942Y0201614D01*
X0023440Y0196818D02*
X0053141Y0196818D01*
X0054740Y0198417D02*
X0026495Y0198417D01*
X0028260Y0200015D02*
X0211763Y0200015D01*
X0210164Y0198417D02*
X0093860Y0198417D01*
X0094004Y0198273D02*
X0094004Y0198273D01*
X0095459Y0196818D02*
X0209500Y0196818D01*
X0213361Y0201614D02*
X0029250Y0201614D01*
X0030027Y0203212D02*
X0214960Y0203212D01*
X0181097Y0188826D02*
X0157000Y0188826D01*
X0152950Y0186800D02*
X0141800Y0186800D01*
X0116800Y0161800D01*
X0116171Y0164848D02*
X0010942Y0164848D01*
X0010942Y0163250D02*
X0028110Y0163250D01*
X0028110Y0163510D02*
X0028110Y0158869D01*
X0029165Y0157815D01*
X0040046Y0157815D01*
X0045187Y0152674D01*
X0040687Y0152674D01*
X0040687Y0153963D01*
X0039632Y0155017D01*
X0023968Y0155017D01*
X0022913Y0153963D01*
X0022913Y0145385D01*
X0023968Y0144331D01*
X0039632Y0144331D01*
X0040687Y0145385D01*
X0040687Y0146674D01*
X0046142Y0146674D01*
X0046142Y0145543D01*
X0047196Y0144488D01*
X0053412Y0144488D01*
X0054466Y0145543D01*
X0054466Y0158057D01*
X0053412Y0159112D01*
X0047235Y0159112D01*
X0045490Y0160857D01*
X0045490Y0163510D01*
X0044435Y0164565D01*
X0029165Y0164565D01*
X0028110Y0163510D01*
X0028110Y0161651D02*
X0010942Y0161651D01*
X0010942Y0160053D02*
X0028110Y0160053D01*
X0028525Y0158454D02*
X0010942Y0158454D01*
X0010942Y0156856D02*
X0041006Y0156856D01*
X0042604Y0155257D02*
X0010942Y0155257D01*
X0010942Y0153659D02*
X0022913Y0153659D01*
X0022913Y0152060D02*
X0010942Y0152060D01*
X0010942Y0150462D02*
X0022913Y0150462D01*
X0022913Y0148863D02*
X0010942Y0148863D01*
X0010942Y0147265D02*
X0022913Y0147265D01*
X0022913Y0145666D02*
X0010942Y0145666D01*
X0010942Y0144068D02*
X0093819Y0144068D01*
X0099300Y0139300D02*
X0101800Y0141800D01*
X0101800Y0148690D01*
X0101800Y0142559D01*
X0101800Y0148690D01*
X0101800Y0148690D01*
X0101800Y0147265D02*
X0101800Y0147265D01*
X0101800Y0145666D02*
X0101800Y0145666D01*
X0101800Y0144068D02*
X0101800Y0144068D01*
X0104400Y0142469D02*
X0010942Y0142469D01*
X0010942Y0140870D02*
X0104400Y0140870D01*
X0104400Y0139272D02*
X0010942Y0139272D01*
X0010942Y0137673D02*
X0022913Y0137673D01*
X0022913Y0136075D02*
X0010942Y0136075D01*
X0010942Y0134476D02*
X0022913Y0134476D01*
X0022913Y0132878D02*
X0010942Y0132878D01*
X0010942Y0131279D02*
X0022913Y0131279D01*
X0022913Y0129681D02*
X0010942Y0129681D01*
X0010942Y0128082D02*
X0028800Y0128082D01*
X0028800Y0126484D02*
X0010942Y0126484D01*
X0010942Y0124885D02*
X0028800Y0124885D01*
X0028800Y0123287D02*
X0010942Y0123287D01*
X0010942Y0121688D02*
X0028800Y0121688D01*
X0028800Y0120090D02*
X0010942Y0120090D01*
X0010942Y0118491D02*
X0028800Y0118491D01*
X0028800Y0116893D02*
X0010942Y0116893D01*
X0010942Y0115294D02*
X0028800Y0115294D01*
X0028800Y0113696D02*
X0010942Y0113696D01*
X0010942Y0112097D02*
X0028800Y0112097D01*
X0028800Y0110499D02*
X0010942Y0110499D01*
X0010942Y0108900D02*
X0028800Y0108900D01*
X0028800Y0107302D02*
X0010942Y0107302D01*
X0010942Y0105703D02*
X0028800Y0105703D01*
X0028800Y0104105D02*
X0010942Y0104105D01*
X0010942Y0102506D02*
X0028800Y0102506D01*
X0028922Y0100908D02*
X0010942Y0100908D01*
X0010942Y0099309D02*
X0030048Y0099309D01*
X0030315Y0097711D02*
X0010942Y0097711D01*
X0010942Y0096112D02*
X0030336Y0096112D01*
X0035605Y0094514D02*
X0010942Y0094514D01*
X0010942Y0092915D02*
X0035605Y0092915D01*
X0035605Y0091317D02*
X0010942Y0091317D01*
X0010942Y0089718D02*
X0035605Y0089718D01*
X0035605Y0088120D02*
X0010942Y0088120D01*
X0010942Y0086521D02*
X0035605Y0086521D01*
X0035605Y0084923D02*
X0010942Y0084923D01*
X0010942Y0083324D02*
X0035605Y0083324D01*
X0035605Y0081726D02*
X0010942Y0081726D01*
X0010942Y0080127D02*
X0035605Y0080127D01*
X0035605Y0078529D02*
X0010942Y0078529D01*
X0010942Y0076930D02*
X0035605Y0076930D01*
X0032480Y0075332D02*
X0010942Y0075332D01*
X0010942Y0073733D02*
X0032480Y0073733D01*
X0032326Y0072134D02*
X0010942Y0072134D01*
X0010942Y0070536D02*
X0030728Y0070536D01*
X0029129Y0068937D02*
X0010942Y0068937D01*
X0010942Y0067339D02*
X0028400Y0067339D01*
X0028400Y0065740D02*
X0010942Y0065740D01*
X0010942Y0064142D02*
X0028400Y0064142D01*
X0028400Y0062543D02*
X0010942Y0062543D01*
X0010942Y0060945D02*
X0028400Y0060945D01*
X0028400Y0059346D02*
X0010942Y0059346D01*
X0010942Y0057748D02*
X0028400Y0057748D01*
X0028400Y0056149D02*
X0010942Y0056149D01*
X0010942Y0054551D02*
X0028400Y0054551D01*
X0028400Y0052952D02*
X0010942Y0052952D01*
X0010942Y0051354D02*
X0028400Y0051354D01*
X0028400Y0049755D02*
X0010942Y0049755D01*
X0010942Y0048157D02*
X0028400Y0048157D01*
X0028400Y0046558D02*
X0010942Y0046558D01*
X0010942Y0044960D02*
X0028400Y0044960D01*
X0028400Y0043361D02*
X0010942Y0043361D01*
X0010942Y0041763D02*
X0028400Y0041763D01*
X0028400Y0040164D02*
X0010942Y0040164D01*
X0010942Y0038566D02*
X0028400Y0038566D01*
X0028400Y0036967D02*
X0010942Y0036967D01*
X0010942Y0035369D02*
X0028400Y0035369D01*
X0028400Y0033770D02*
X0010942Y0033770D01*
X0010942Y0032172D02*
X0028400Y0032172D01*
X0028400Y0030573D02*
X0010942Y0030573D01*
X0010942Y0028975D02*
X0028400Y0028975D01*
X0028400Y0027376D02*
X0022297Y0027376D01*
X0018330Y0027376D02*
X0010942Y0027376D01*
X0010942Y0025778D02*
X0014502Y0025778D01*
X0012879Y0024179D02*
X0010942Y0024179D01*
X0010942Y0022581D02*
X0011559Y0022581D01*
X0026064Y0025778D02*
X0028400Y0025778D01*
X0027952Y0024352D02*
X0027952Y0024352D01*
X0028059Y0024179D02*
X0028400Y0024179D01*
X0030265Y0019384D02*
X0031534Y0019384D01*
X0030564Y0017785D02*
X0033133Y0017785D01*
X0034731Y0016187D02*
X0030392Y0016187D01*
X0030093Y0014588D02*
X0036330Y0014588D01*
X0037928Y0012990D02*
X0029468Y0012990D01*
X0028478Y0011391D02*
X0039055Y0011391D01*
X0039055Y0009793D02*
X0026961Y0009793D01*
X0024678Y0008194D02*
X0039868Y0008194D01*
X0045779Y0008194D02*
X0057821Y0008194D01*
X0057008Y0009793D02*
X0046592Y0009793D01*
X0046592Y0011391D02*
X0057008Y0011391D01*
X0057008Y0012990D02*
X0046592Y0012990D01*
X0046592Y0014588D02*
X0057008Y0014588D01*
X0057008Y0016187D02*
X0046592Y0016187D01*
X0045605Y0017785D02*
X0057995Y0017785D01*
X0062449Y0019384D02*
X0041151Y0019384D01*
X0039552Y0020982D02*
X0064048Y0020982D01*
X0065646Y0022581D02*
X0037954Y0022581D01*
X0036355Y0024179D02*
X0067245Y0024179D01*
X0063535Y0027997D02*
X0063870Y0028333D01*
X0064107Y0028743D01*
X0064230Y0029201D01*
X0064230Y0040843D01*
X0052600Y0040843D01*
X0052600Y0042442D01*
X0064230Y0042442D01*
X0064230Y0054084D01*
X0064107Y0054542D01*
X0063870Y0054952D01*
X0063535Y0055288D01*
X0063125Y0055525D01*
X0062667Y0055647D01*
X0052600Y0055647D01*
X0052600Y0042443D01*
X0051000Y0042443D01*
X0051000Y0055647D01*
X0040933Y0055647D01*
X0040475Y0055525D01*
X0040065Y0055288D01*
X0039730Y0054952D01*
X0039493Y0054542D01*
X0039370Y0054084D01*
X0039370Y0042442D01*
X0051000Y0042442D01*
X0051000Y0040843D01*
X0039370Y0040843D01*
X0039370Y0029201D01*
X0039493Y0028743D01*
X0039730Y0028333D01*
X0040065Y0027997D01*
X0040475Y0027760D01*
X0040933Y0027638D01*
X0051000Y0027638D01*
X0051000Y0040842D01*
X0052600Y0040842D01*
X0052600Y0027638D01*
X0062667Y0027638D01*
X0063125Y0027760D01*
X0063535Y0027997D01*
X0064169Y0028975D02*
X0094166Y0028975D01*
X0092568Y0027376D02*
X0035200Y0027376D01*
X0035200Y0025778D02*
X0090969Y0025778D01*
X0097389Y0022581D02*
X0162767Y0022581D01*
X0161168Y0024179D02*
X0138263Y0024179D01*
X0139603Y0025778D02*
X0159570Y0025778D01*
X0164365Y0020982D02*
X0095790Y0020982D01*
X0094192Y0019384D02*
X0164500Y0019384D01*
X0164500Y0017785D02*
X0070467Y0017785D01*
X0068869Y0016187D02*
X0164500Y0016187D01*
X0165759Y0014588D02*
X0067270Y0014588D01*
X0065672Y0012990D02*
X0166850Y0012990D01*
X0167518Y0011391D02*
X0064545Y0011391D01*
X0064545Y0009793D02*
X0174424Y0009793D01*
X0178820Y0009793D02*
X0179780Y0009793D01*
X0179780Y0011391D02*
X0178820Y0011391D01*
X0184176Y0009793D02*
X0231936Y0009793D01*
X0231852Y0009957D02*
X0232195Y0009284D01*
X0232639Y0008673D01*
X0233173Y0008139D01*
X0233784Y0007695D01*
X0234457Y0007352D01*
X0235176Y0007118D01*
X0235922Y0007000D01*
X0239100Y0007000D01*
X0239100Y0011600D01*
X0239500Y0011600D01*
X0239500Y0012000D01*
X0239100Y0012000D01*
X0239100Y0016600D01*
X0235922Y0016600D01*
X0235176Y0016482D01*
X0234457Y0016248D01*
X0233784Y0015905D01*
X0233173Y0015461D01*
X0232639Y0014927D01*
X0232195Y0014316D01*
X0231852Y0013643D01*
X0231618Y0012924D01*
X0231500Y0012178D01*
X0231500Y0012000D01*
X0239100Y0012000D01*
X0239100Y0011600D01*
X0231500Y0011600D01*
X0231500Y0011422D01*
X0231618Y0010676D01*
X0231852Y0009957D01*
X0231505Y0011391D02*
X0207567Y0011391D01*
X0206033Y0011391D02*
X0191082Y0011391D01*
X0191055Y0011364D02*
X0191390Y0011699D01*
X0191627Y0012109D01*
X0191750Y0012567D01*
X0191750Y0014883D01*
X0187280Y0014883D01*
X0187280Y0011004D01*
X0190187Y0011004D01*
X0190644Y0011127D01*
X0191055Y0011364D01*
X0191750Y0012990D02*
X0196502Y0012990D01*
X0196319Y0014588D02*
X0191750Y0014588D01*
X0187280Y0014588D02*
X0186320Y0014588D01*
X0186320Y0015843D02*
X0186320Y0017000D01*
X0187280Y0017000D01*
X0187280Y0015843D01*
X0186320Y0015843D01*
X0186320Y0016187D02*
X0187280Y0016187D01*
X0187280Y0012990D02*
X0186320Y0012990D01*
X0186320Y0011391D02*
X0187280Y0011391D01*
X0199300Y0011988D02*
X0199300Y0015953D01*
X0199300Y0011988D01*
X0199300Y0012990D02*
X0199300Y0012990D01*
X0199300Y0014588D02*
X0199300Y0014588D01*
X0199300Y0015953D02*
X0199300Y0015953D01*
X0199300Y0015954D02*
X0199300Y0018681D01*
X0199300Y0022646D01*
X0199300Y0022646D01*
X0199300Y0015954D01*
X0199300Y0015954D01*
X0199300Y0016187D02*
X0199300Y0016187D01*
X0199300Y0017785D02*
X0199300Y0017785D01*
X0199300Y0019384D02*
X0199300Y0019384D01*
X0199300Y0020982D02*
X0199300Y0020982D01*
X0199300Y0022581D02*
X0199300Y0022581D01*
X0196380Y0025953D02*
X0194300Y0025953D01*
X0194300Y0025954D01*
X0194300Y0029919D01*
X0194300Y0032646D01*
X0194300Y0025954D01*
X0194300Y0025954D01*
X0196380Y0025954D01*
X0196380Y0025953D01*
X0194300Y0027376D02*
X0194300Y0027376D01*
X0194300Y0028975D02*
X0194300Y0028975D01*
X0194300Y0030573D02*
X0194300Y0030573D01*
X0194300Y0032172D02*
X0194300Y0032172D01*
X0194300Y0032646D02*
X0194300Y0032646D01*
X0194300Y0032647D01*
X0194300Y0036612D01*
X0194300Y0032647D01*
X0194300Y0032647D01*
X0196380Y0032647D01*
X0196380Y0032646D01*
X0194300Y0032646D01*
X0194300Y0033770D02*
X0194300Y0033770D01*
X0194300Y0035369D02*
X0194300Y0035369D01*
X0194300Y0036612D02*
X0194250Y0036612D01*
X0194250Y0037383D01*
X0189780Y0037383D01*
X0189780Y0038343D01*
X0194250Y0038343D01*
X0194250Y0038425D01*
X0198819Y0038425D01*
X0198819Y0036051D01*
X0198942Y0035593D01*
X0199179Y0035183D01*
X0199514Y0034848D01*
X0199924Y0034611D01*
X0200382Y0034488D01*
X0201800Y0034488D01*
X0203218Y0034488D01*
X0203676Y0034611D01*
X0204086Y0034848D01*
X0204421Y0035183D01*
X0204658Y0035593D01*
X0204781Y0036051D01*
X0204781Y0038425D01*
X0206922Y0038425D01*
X0208819Y0036528D01*
X0208819Y0036207D01*
X0209273Y0035111D01*
X0210111Y0034273D01*
X0211207Y0033819D01*
X0212393Y0033819D01*
X0213489Y0034273D01*
X0214327Y0035111D01*
X0214781Y0036207D01*
X0214781Y0037393D01*
X0214327Y0038489D01*
X0213616Y0039200D01*
X0220723Y0039200D01*
X0224596Y0035327D01*
X0225327Y0034596D01*
X0226283Y0034200D01*
X0232099Y0034200D01*
X0231500Y0032755D01*
X0231500Y0031900D01*
X0204187Y0031900D01*
X0203412Y0032675D01*
X0197281Y0032675D01*
X0197281Y0035049D01*
X0197158Y0035507D01*
X0196921Y0035917D01*
X0196586Y0036252D01*
X0196176Y0036489D01*
X0195718Y0036612D01*
X0194300Y0036612D01*
X0194250Y0036967D02*
X0198819Y0036967D01*
X0199071Y0035369D02*
X0197195Y0035369D01*
X0197281Y0033770D02*
X0231921Y0033770D01*
X0231500Y0032172D02*
X0203915Y0032172D01*
X0201800Y0034488D02*
X0201800Y0038453D01*
X0201800Y0038453D01*
X0201800Y0034488D01*
X0201800Y0035369D02*
X0201800Y0035369D01*
X0201800Y0036967D02*
X0201800Y0036967D01*
X0201800Y0038454D02*
X0201800Y0041181D01*
X0201800Y0045146D01*
X0201800Y0045146D01*
X0201800Y0038454D01*
X0201800Y0038454D01*
X0201800Y0038566D02*
X0201800Y0038566D01*
X0201800Y0040164D02*
X0201800Y0040164D01*
X0201800Y0041763D02*
X0201800Y0041763D01*
X0201800Y0043361D02*
X0201800Y0043361D01*
X0201800Y0044960D02*
X0201800Y0044960D01*
X0198880Y0048453D02*
X0196800Y0048453D01*
X0196800Y0048454D01*
X0196800Y0052419D01*
X0196800Y0055146D01*
X0196800Y0048454D01*
X0196800Y0048454D01*
X0198880Y0048454D01*
X0198880Y0048453D01*
X0196800Y0049755D02*
X0196800Y0049755D01*
X0196800Y0051354D02*
X0196800Y0051354D01*
X0196800Y0052952D02*
X0196800Y0052952D01*
X0196800Y0054551D02*
X0196800Y0054551D01*
X0196800Y0055146D02*
X0196800Y0055146D01*
X0196800Y0055147D02*
X0196800Y0059112D01*
X0196800Y0055147D01*
X0196800Y0055147D01*
X0196800Y0056149D02*
X0196800Y0056149D01*
X0196800Y0057748D02*
X0196800Y0057748D01*
X0196800Y0059112D02*
X0195382Y0059112D01*
X0194924Y0058989D01*
X0194514Y0058752D01*
X0194179Y0058417D01*
X0193942Y0058007D01*
X0193819Y0057549D01*
X0193819Y0055175D01*
X0187688Y0055175D01*
X0186634Y0054120D01*
X0186634Y0054100D01*
X0184164Y0054100D01*
X0184836Y0054771D01*
X0185381Y0056088D01*
X0185381Y0057512D01*
X0184836Y0058829D01*
X0183829Y0059836D01*
X0182512Y0060381D01*
X0181088Y0060381D01*
X0179771Y0059836D01*
X0179336Y0059400D01*
X0160318Y0059400D01*
X0150180Y0069537D01*
X0158575Y0069537D01*
X0158575Y0066773D01*
X0159922Y0065425D01*
X0160847Y0064500D01*
X0189350Y0064500D01*
X0189350Y0062058D01*
X0190405Y0061004D01*
X0198195Y0061004D01*
X0199250Y0062058D01*
X0199250Y0063063D01*
X0204350Y0063063D01*
X0204350Y0062058D01*
X0205405Y0061004D01*
X0206634Y0061004D01*
X0206634Y0056980D01*
X0207688Y0055925D01*
X0213819Y0055925D01*
X0213819Y0054781D01*
X0213707Y0054781D01*
X0212611Y0054327D01*
X0212384Y0054100D01*
X0208041Y0054100D01*
X0207317Y0054400D01*
X0206687Y0054400D01*
X0205912Y0055175D01*
X0199781Y0055175D01*
X0199781Y0057549D01*
X0199658Y0058007D01*
X0199421Y0058417D01*
X0199086Y0058752D01*
X0198676Y0058989D01*
X0198218Y0059112D01*
X0196800Y0059112D01*
X0193872Y0057748D02*
X0185284Y0057748D01*
X0185381Y0056149D02*
X0193819Y0056149D01*
X0199781Y0056149D02*
X0207464Y0056149D01*
X0206634Y0057748D02*
X0199728Y0057748D01*
X0199250Y0062543D02*
X0204350Y0062543D01*
X0206634Y0060945D02*
X0158773Y0060945D01*
X0157174Y0062543D02*
X0189350Y0062543D01*
X0189350Y0064142D02*
X0155576Y0064142D01*
X0153977Y0065740D02*
X0159607Y0065740D01*
X0158575Y0067339D02*
X0152379Y0067339D01*
X0150780Y0068937D02*
X0158575Y0068937D01*
X0163175Y0069100D02*
X0163175Y0069537D01*
X0164779Y0069537D01*
X0165834Y0070592D01*
X0165834Y0075081D01*
X0167753Y0077000D01*
X0187284Y0077000D01*
X0189350Y0074934D01*
X0189350Y0069932D01*
X0189983Y0069300D01*
X0189783Y0069100D01*
X0163175Y0069100D01*
X0165778Y0070536D02*
X0189350Y0070536D01*
X0189350Y0072134D02*
X0165834Y0072134D01*
X0165834Y0073733D02*
X0189350Y0073733D01*
X0188953Y0075332D02*
X0166084Y0075332D01*
X0167683Y0076930D02*
X0187354Y0076930D01*
X0190663Y0080127D02*
X0196850Y0080127D01*
X0196850Y0081033D02*
X0196850Y0078717D01*
X0201320Y0078717D01*
X0201320Y0077757D01*
X0196850Y0077757D01*
X0196850Y0077596D01*
X0193194Y0077596D01*
X0189190Y0081600D01*
X0187284Y0081600D01*
X0167353Y0081600D01*
X0167753Y0082000D01*
X0197309Y0082000D01*
X0197210Y0081901D01*
X0196973Y0081491D01*
X0196850Y0081033D01*
X0197109Y0081726D02*
X0167478Y0081726D01*
X0167353Y0089100D02*
X0170253Y0092000D01*
X0175253Y0092000D01*
X0176600Y0093347D01*
X0181316Y0098063D01*
X0186850Y0098063D01*
X0186850Y0097058D01*
X0187905Y0096004D01*
X0195695Y0096004D01*
X0196750Y0097058D01*
X0196750Y0098437D01*
X0196850Y0098437D01*
X0196850Y0097432D01*
X0197483Y0096800D01*
X0197210Y0096527D01*
X0196973Y0096117D01*
X0196850Y0095659D01*
X0196850Y0093343D01*
X0201320Y0093343D01*
X0201320Y0092383D01*
X0196850Y0092383D01*
X0196850Y0090067D01*
X0196973Y0089609D01*
X0197210Y0089199D01*
X0197309Y0089100D01*
X0167353Y0089100D01*
X0167971Y0089718D02*
X0196944Y0089718D01*
X0196850Y0091317D02*
X0169569Y0091317D01*
X0165359Y0096112D02*
X0159975Y0096112D01*
X0158377Y0094514D02*
X0163761Y0094514D01*
X0162162Y0092915D02*
X0156778Y0092915D01*
X0155180Y0091317D02*
X0160564Y0091317D01*
X0158965Y0089718D02*
X0153581Y0089718D01*
X0151983Y0088120D02*
X0157367Y0088120D01*
X0155768Y0086521D02*
X0150384Y0086521D01*
X0148786Y0084923D02*
X0154170Y0084923D01*
X0152571Y0083324D02*
X0147187Y0083324D01*
X0145588Y0081726D02*
X0150973Y0081726D01*
X0149374Y0080127D02*
X0145261Y0080127D01*
X0145261Y0078529D02*
X0148339Y0078529D01*
X0148080Y0076930D02*
X0148079Y0076930D01*
X0148079Y0075332D02*
X0148080Y0075332D01*
X0148079Y0073733D02*
X0148080Y0073733D01*
X0145520Y0070520D02*
X0159241Y0056800D01*
X0181800Y0056800D01*
X0184318Y0059346D02*
X0206634Y0059346D01*
X0206536Y0054551D02*
X0213151Y0054551D01*
X0216800Y0055954D02*
X0216800Y0062646D01*
X0216800Y0058681D01*
X0216800Y0055954D01*
X0216800Y0055954D01*
X0216800Y0056149D02*
X0216800Y0056149D01*
X0216800Y0057748D02*
X0216800Y0057748D01*
X0216800Y0059346D02*
X0216800Y0059346D01*
X0216800Y0060945D02*
X0216800Y0060945D01*
X0216800Y0062543D02*
X0216800Y0062543D01*
X0216800Y0062646D02*
X0216800Y0062646D01*
X0219720Y0065953D02*
X0219720Y0065954D01*
X0221800Y0065954D01*
X0221800Y0069919D01*
X0221800Y0072646D01*
X0221800Y0065954D01*
X0221800Y0065954D01*
X0221800Y0065953D01*
X0219720Y0065953D01*
X0221800Y0067339D02*
X0221800Y0067339D01*
X0221800Y0068937D02*
X0221800Y0068937D01*
X0221800Y0070536D02*
X0221800Y0070536D01*
X0221800Y0072134D02*
X0221800Y0072134D01*
X0221800Y0072646D02*
X0221800Y0072646D01*
X0221800Y0072647D02*
X0221800Y0076612D01*
X0221800Y0072647D01*
X0221800Y0072647D01*
X0221800Y0073733D02*
X0221800Y0073733D01*
X0221800Y0075332D02*
X0221800Y0075332D01*
X0221800Y0076612D02*
X0220382Y0076612D01*
X0219924Y0076489D01*
X0219514Y0076252D01*
X0219179Y0075917D01*
X0218942Y0075507D01*
X0218819Y0075049D01*
X0218819Y0072675D01*
X0214250Y0072675D01*
X0214250Y0072757D01*
X0209780Y0072757D01*
X0209780Y0073717D01*
X0208820Y0073717D01*
X0208820Y0077596D01*
X0206750Y0077596D01*
X0206750Y0077757D01*
X0202280Y0077757D01*
X0202280Y0078717D01*
X0206750Y0078717D01*
X0206750Y0081033D01*
X0206627Y0081491D01*
X0206390Y0081901D01*
X0206291Y0082000D01*
X0209269Y0082000D01*
X0209350Y0081918D01*
X0209350Y0077058D01*
X0209780Y0076629D01*
X0209780Y0073717D01*
X0214250Y0073717D01*
X0214250Y0076004D01*
X0218195Y0076004D01*
X0219250Y0077058D01*
X0219250Y0079400D01*
X0229350Y0079400D01*
X0229350Y0078343D01*
X0233820Y0078343D01*
X0233820Y0077383D01*
X0234780Y0077383D01*
X0234780Y0078343D01*
X0239250Y0078343D01*
X0239250Y0079400D01*
X0240806Y0079400D01*
X0241202Y0079003D01*
X0241850Y0078355D01*
X0241850Y0077058D01*
X0242905Y0076004D01*
X0250110Y0076004D01*
X0250188Y0075925D01*
X0256319Y0075925D01*
X0256319Y0073551D01*
X0256442Y0073093D01*
X0256679Y0072683D01*
X0257014Y0072348D01*
X0257424Y0072111D01*
X0257882Y0071988D01*
X0259300Y0071988D01*
X0260718Y0071988D01*
X0261176Y0072111D01*
X0261586Y0072348D01*
X0261921Y0072683D01*
X0262158Y0073093D01*
X0262281Y0073551D01*
X0262281Y0075925D01*
X0268412Y0075925D01*
X0268705Y0076218D01*
X0285327Y0059596D01*
X0285800Y0059400D01*
X0280377Y0059400D01*
X0273273Y0066504D01*
X0272317Y0066900D01*
X0233487Y0066900D01*
X0231966Y0068421D01*
X0231966Y0071620D01*
X0230912Y0072675D01*
X0229710Y0072675D01*
X0229710Y0073536D01*
X0229781Y0073707D01*
X0229781Y0074128D01*
X0230045Y0073864D01*
X0230456Y0073627D01*
X0230913Y0073504D01*
X0233820Y0073504D01*
X0233820Y0077383D01*
X0229350Y0077383D01*
X0229350Y0075933D01*
X0229327Y0075989D01*
X0228489Y0076827D01*
X0227393Y0077281D01*
X0226207Y0077281D01*
X0225111Y0076827D01*
X0224311Y0076027D01*
X0224086Y0076252D01*
X0223676Y0076489D01*
X0223218Y0076612D01*
X0221800Y0076612D01*
X0219121Y0076930D02*
X0225359Y0076930D01*
X0228241Y0076930D02*
X0229350Y0076930D01*
X0229350Y0078529D02*
X0219250Y0078529D01*
X0218895Y0075332D02*
X0214250Y0075332D01*
X0214250Y0073733D02*
X0218819Y0073733D01*
X0209780Y0073733D02*
X0208820Y0073733D01*
X0208820Y0075332D02*
X0209780Y0075332D01*
X0209479Y0076930D02*
X0208820Y0076930D01*
X0209350Y0078529D02*
X0202280Y0078529D01*
X0201320Y0078529D02*
X0192261Y0078529D01*
X0201320Y0089100D02*
X0201320Y0092383D01*
X0202280Y0092383D01*
X0202280Y0093343D01*
X0206750Y0093343D01*
X0206750Y0095659D01*
X0206678Y0095925D01*
X0211319Y0095925D01*
X0211319Y0093551D01*
X0211442Y0093093D01*
X0211679Y0092683D01*
X0211765Y0092596D01*
X0210405Y0092596D01*
X0209350Y0091542D01*
X0209350Y0089182D01*
X0209269Y0089100D01*
X0206291Y0089100D01*
X0206390Y0089199D01*
X0206627Y0089609D01*
X0206750Y0090067D01*
X0206750Y0092383D01*
X0202280Y0092383D01*
X0202280Y0089100D01*
X0201320Y0089100D01*
X0201320Y0089718D02*
X0202280Y0089718D01*
X0202280Y0091317D02*
X0201320Y0091317D01*
X0201320Y0092915D02*
X0176168Y0092915D01*
X0177766Y0094514D02*
X0196850Y0094514D01*
X0196972Y0096112D02*
X0195803Y0096112D01*
X0196750Y0097711D02*
X0196850Y0097711D01*
X0202280Y0092915D02*
X0211544Y0092915D01*
X0211319Y0094514D02*
X0206750Y0094514D01*
X0206750Y0091317D02*
X0209350Y0091317D01*
X0209350Y0089718D02*
X0206656Y0089718D01*
X0214300Y0095954D02*
X0214300Y0099919D01*
X0214300Y0102646D01*
X0214300Y0095954D01*
X0214300Y0095954D01*
X0214300Y0096112D02*
X0214300Y0096112D01*
X0214300Y0097711D02*
X0214300Y0097711D01*
X0214300Y0099309D02*
X0214300Y0099309D01*
X0214300Y0100908D02*
X0214300Y0100908D01*
X0214300Y0102506D02*
X0214300Y0102506D01*
X0214300Y0102646D02*
X0214300Y0102646D01*
X0214300Y0102647D02*
X0214300Y0108453D01*
X0214300Y0106612D01*
X0214300Y0102647D01*
X0214300Y0102647D01*
X0214300Y0104105D02*
X0214300Y0104105D01*
X0214300Y0105703D02*
X0214300Y0105703D01*
X0214300Y0107302D02*
X0214300Y0107302D01*
X0214300Y0108453D02*
X0214300Y0108453D01*
X0214300Y0108454D02*
X0214300Y0111181D01*
X0214300Y0115146D01*
X0214300Y0115146D01*
X0214300Y0108454D01*
X0214300Y0108454D01*
X0214300Y0108900D02*
X0214300Y0108900D01*
X0214300Y0110499D02*
X0214300Y0110499D01*
X0214300Y0112097D02*
X0214300Y0112097D01*
X0214300Y0113696D02*
X0214300Y0113696D01*
X0214300Y0115147D02*
X0214300Y0115147D01*
X0214300Y0115294D02*
X0214300Y0115294D01*
X0214300Y0116893D02*
X0214300Y0116893D01*
X0214300Y0118491D02*
X0214300Y0118491D01*
X0216847Y0118491D02*
X0233240Y0118491D01*
X0233240Y0116893D02*
X0217281Y0116893D01*
X0217281Y0115294D02*
X0223701Y0115294D01*
X0233900Y0120090D02*
X0205210Y0120090D01*
X0205187Y0120096D02*
X0202280Y0120096D01*
X0202280Y0116217D01*
X0206750Y0116217D01*
X0206750Y0118533D01*
X0206627Y0118991D01*
X0206390Y0119401D01*
X0206055Y0119736D01*
X0205644Y0119973D01*
X0205187Y0120096D01*
X0206750Y0118491D02*
X0211753Y0118491D01*
X0211319Y0116893D02*
X0206750Y0116893D01*
X0202280Y0116893D02*
X0201320Y0116893D01*
X0201320Y0118491D02*
X0202280Y0118491D01*
X0202280Y0120090D02*
X0201320Y0120090D01*
X0198390Y0120090D02*
X0181806Y0120090D01*
X0182281Y0121688D02*
X0234972Y0121688D01*
X0238628Y0121688D02*
X0336897Y0121688D01*
X0336897Y0120090D02*
X0239700Y0120090D01*
X0239692Y0118491D02*
X0336897Y0118491D01*
X0336897Y0116893D02*
X0238609Y0116893D01*
X0239899Y0115294D02*
X0336897Y0115294D01*
X0336897Y0113696D02*
X0298581Y0113696D01*
X0300180Y0112097D02*
X0336897Y0112097D01*
X0336897Y0110499D02*
X0301778Y0110499D01*
X0303377Y0108900D02*
X0336897Y0108900D01*
X0336897Y0107302D02*
X0304975Y0107302D01*
X0306574Y0105703D02*
X0336897Y0105703D01*
X0336897Y0104105D02*
X0308172Y0104105D01*
X0309771Y0102506D02*
X0336897Y0102506D01*
X0336897Y0100908D02*
X0311369Y0100908D01*
X0312968Y0099309D02*
X0336897Y0099309D01*
X0336897Y0097711D02*
X0314566Y0097711D01*
X0316165Y0096112D02*
X0336897Y0096112D01*
X0336897Y0094514D02*
X0317763Y0094514D01*
X0319362Y0092915D02*
X0336897Y0092915D01*
X0336897Y0091317D02*
X0326439Y0091317D01*
X0328670Y0089718D02*
X0336897Y0089718D01*
X0336897Y0088120D02*
X0329449Y0088120D01*
X0329600Y0086521D02*
X0336897Y0086521D01*
X0336897Y0084923D02*
X0329218Y0084923D01*
X0328112Y0083324D02*
X0336897Y0083324D01*
X0336897Y0081726D02*
X0280551Y0081726D01*
X0279400Y0083324D02*
X0315488Y0083324D01*
X0314382Y0084923D02*
X0279400Y0084923D01*
X0279400Y0086521D02*
X0314000Y0086521D01*
X0314151Y0088120D02*
X0279068Y0088120D01*
X0277559Y0089718D02*
X0314930Y0089718D01*
X0313606Y0091317D02*
X0275960Y0091317D01*
X0274362Y0092915D02*
X0312008Y0092915D01*
X0310409Y0094514D02*
X0272763Y0094514D01*
X0272475Y0096112D02*
X0308811Y0096112D01*
X0307212Y0097711D02*
X0274368Y0097711D01*
X0274781Y0099309D02*
X0305614Y0099309D01*
X0304015Y0100908D02*
X0274361Y0100908D01*
X0269239Y0100908D02*
X0264427Y0100908D01*
X0264781Y0099309D02*
X0268819Y0099309D01*
X0267568Y0097711D02*
X0264781Y0097711D01*
X0261800Y0097711D02*
X0261800Y0097711D01*
X0261800Y0097647D02*
X0261800Y0097647D01*
X0261800Y0097646D02*
X0261800Y0093681D01*
X0261800Y0090954D01*
X0261800Y0097646D01*
X0261800Y0097646D01*
X0261800Y0096112D02*
X0261800Y0096112D01*
X0261800Y0094514D02*
X0261800Y0094514D01*
X0261800Y0092915D02*
X0261800Y0092915D01*
X0261800Y0091317D02*
X0261800Y0091317D01*
X0261800Y0090954D02*
X0261800Y0090954D01*
X0261800Y0090953D02*
X0261800Y0086988D01*
X0263218Y0086988D01*
X0263676Y0087111D01*
X0264086Y0087348D01*
X0264421Y0087683D01*
X0264658Y0088093D01*
X0264781Y0088551D01*
X0264781Y0090925D01*
X0268998Y0090925D01*
X0272818Y0087105D01*
X0272393Y0087281D01*
X0271207Y0087281D01*
X0270111Y0086827D01*
X0269984Y0086700D01*
X0269433Y0086700D01*
X0268551Y0086335D01*
X0267876Y0085659D01*
X0264891Y0082675D01*
X0262281Y0082675D01*
X0262281Y0085049D01*
X0262158Y0085507D01*
X0261921Y0085917D01*
X0261586Y0086252D01*
X0261176Y0086489D01*
X0260718Y0086612D01*
X0259300Y0086612D01*
X0259300Y0082647D01*
X0259300Y0086612D01*
X0257882Y0086612D01*
X0257424Y0086489D01*
X0257014Y0086252D01*
X0256679Y0085917D01*
X0256442Y0085507D01*
X0256319Y0085049D01*
X0256319Y0082675D01*
X0251750Y0082675D01*
X0251750Y0083668D01*
X0251117Y0084300D01*
X0251390Y0084573D01*
X0251627Y0084983D01*
X0251750Y0085441D01*
X0251750Y0087757D01*
X0247280Y0087757D01*
X0247280Y0088717D01*
X0251750Y0088717D01*
X0251750Y0091033D01*
X0251627Y0091491D01*
X0251390Y0091901D01*
X0251291Y0092000D01*
X0251634Y0092000D01*
X0251634Y0091980D01*
X0252688Y0090925D01*
X0258819Y0090925D01*
X0258819Y0088551D01*
X0258942Y0088093D01*
X0259179Y0087683D01*
X0259514Y0087348D01*
X0259924Y0087111D01*
X0260382Y0086988D01*
X0261800Y0086988D01*
X0261800Y0090953D01*
X0261800Y0090953D01*
X0261800Y0089718D02*
X0261800Y0089718D01*
X0261800Y0088120D02*
X0261800Y0088120D01*
X0261057Y0086521D02*
X0269001Y0086521D01*
X0267139Y0084923D02*
X0262281Y0084923D01*
X0262281Y0083324D02*
X0265540Y0083324D01*
X0270782Y0081495D02*
X0271207Y0081319D01*
X0272393Y0081319D01*
X0273489Y0081773D01*
X0274200Y0082484D01*
X0274200Y0081283D01*
X0274596Y0080327D01*
X0275327Y0079596D01*
X0285327Y0069596D01*
X0286283Y0069200D01*
X0287136Y0069200D01*
X0286852Y0068643D01*
X0286618Y0067924D01*
X0286500Y0067178D01*
X0286500Y0067000D01*
X0294100Y0067000D01*
X0294100Y0066600D01*
X0286500Y0066600D01*
X0286500Y0066422D01*
X0286618Y0065676D01*
X0286627Y0065650D01*
X0271504Y0080773D01*
X0270782Y0081495D01*
X0272150Y0080127D02*
X0274796Y0080127D01*
X0274200Y0081726D02*
X0273375Y0081726D01*
X0273748Y0078529D02*
X0276395Y0078529D01*
X0275347Y0076930D02*
X0277993Y0076930D01*
X0276945Y0075332D02*
X0279592Y0075332D01*
X0278544Y0073733D02*
X0281190Y0073733D01*
X0280142Y0072134D02*
X0282789Y0072134D01*
X0281741Y0070536D02*
X0284387Y0070536D01*
X0283339Y0068937D02*
X0287002Y0068937D01*
X0286526Y0067339D02*
X0284938Y0067339D01*
X0286536Y0065740D02*
X0286608Y0065740D01*
X0286800Y0061800D02*
X0269300Y0079300D01*
X0264910Y0079300D01*
X0259300Y0079919D02*
X0259300Y0082646D01*
X0259300Y0075954D01*
X0259300Y0079919D01*
X0259300Y0080127D02*
X0259300Y0080127D01*
X0259300Y0078529D02*
X0259300Y0078529D01*
X0259300Y0076930D02*
X0259300Y0076930D01*
X0259300Y0075954D02*
X0259300Y0075954D01*
X0259300Y0075953D02*
X0259300Y0071988D01*
X0259300Y0075953D01*
X0259300Y0075953D01*
X0259300Y0075332D02*
X0259300Y0075332D01*
X0259300Y0073733D02*
X0259300Y0073733D01*
X0259300Y0072134D02*
X0259300Y0072134D01*
X0261217Y0072134D02*
X0272789Y0072134D01*
X0274387Y0070536D02*
X0231966Y0070536D01*
X0231966Y0068937D02*
X0275986Y0068937D01*
X0277584Y0067339D02*
X0233048Y0067339D01*
X0232410Y0064300D02*
X0227410Y0069300D01*
X0231452Y0072134D02*
X0257383Y0072134D01*
X0256319Y0073733D02*
X0238329Y0073733D01*
X0238144Y0073627D02*
X0238555Y0073864D01*
X0238890Y0074199D01*
X0239127Y0074609D01*
X0239250Y0075067D01*
X0239250Y0077383D01*
X0234780Y0077383D01*
X0234780Y0073504D01*
X0237687Y0073504D01*
X0238144Y0073627D01*
X0239250Y0075332D02*
X0256319Y0075332D01*
X0262281Y0075332D02*
X0269592Y0075332D01*
X0271190Y0073733D02*
X0262281Y0073733D01*
X0274036Y0065740D02*
X0279183Y0065740D01*
X0280781Y0064142D02*
X0275635Y0064142D01*
X0277234Y0062543D02*
X0282380Y0062543D01*
X0283978Y0060945D02*
X0278832Y0060945D01*
X0273077Y0059346D02*
X0272931Y0059346D01*
X0271478Y0060945D02*
X0271332Y0060945D01*
X0269300Y0059300D02*
X0281800Y0046800D01*
X0294300Y0046800D01*
X0294100Y0041600D02*
X0290922Y0041600D01*
X0290176Y0041482D01*
X0289457Y0041248D01*
X0288784Y0040905D01*
X0288173Y0040461D01*
X0287639Y0039927D01*
X0287195Y0039316D01*
X0286852Y0038643D01*
X0286618Y0037924D01*
X0286500Y0037178D01*
X0286500Y0037000D01*
X0294100Y0037000D01*
X0294100Y0041600D01*
X0294500Y0041600D02*
X0294500Y0037000D01*
X0294100Y0037000D01*
X0294100Y0036600D01*
X0294500Y0036600D01*
X0294500Y0037000D01*
X0302100Y0037000D01*
X0302100Y0037178D01*
X0301982Y0037924D01*
X0301748Y0038643D01*
X0301405Y0039316D01*
X0300961Y0039927D01*
X0300427Y0040461D01*
X0299816Y0040905D01*
X0299143Y0041248D01*
X0298424Y0041482D01*
X0297678Y0041600D01*
X0294500Y0041600D01*
X0294500Y0040164D02*
X0294100Y0040164D01*
X0294100Y0038566D02*
X0294500Y0038566D01*
X0294500Y0036967D02*
X0336897Y0036967D01*
X0336897Y0035369D02*
X0301882Y0035369D01*
X0301982Y0035676D02*
X0302100Y0036422D01*
X0302100Y0036600D01*
X0294500Y0036600D01*
X0294500Y0032000D01*
X0297678Y0032000D01*
X0298424Y0032118D01*
X0299143Y0032352D01*
X0299816Y0032695D01*
X0300427Y0033139D01*
X0300961Y0033673D01*
X0301405Y0034284D01*
X0301748Y0034957D01*
X0301982Y0035676D01*
X0301032Y0033770D02*
X0336897Y0033770D01*
X0336897Y0032172D02*
X0298589Y0032172D01*
X0294500Y0032172D02*
X0294100Y0032172D01*
X0294100Y0032000D02*
X0294100Y0036600D01*
X0286500Y0036600D01*
X0286500Y0036422D01*
X0286618Y0035676D01*
X0286852Y0034957D01*
X0287195Y0034284D01*
X0287639Y0033673D01*
X0288173Y0033139D01*
X0288784Y0032695D01*
X0289457Y0032352D01*
X0290176Y0032118D01*
X0290922Y0032000D01*
X0294100Y0032000D01*
X0294100Y0033770D02*
X0294500Y0033770D01*
X0294500Y0035369D02*
X0294100Y0035369D01*
X0294100Y0036967D02*
X0260310Y0036967D01*
X0261284Y0037695D02*
X0261957Y0037352D01*
X0262676Y0037118D01*
X0263422Y0037000D01*
X0266600Y0037000D01*
X0266600Y0041600D01*
X0267000Y0041600D01*
X0267000Y0042000D01*
X0266600Y0042000D01*
X0266600Y0046600D01*
X0263422Y0046600D01*
X0262676Y0046482D01*
X0261957Y0046248D01*
X0261284Y0045905D01*
X0260673Y0045461D01*
X0260139Y0044927D01*
X0259695Y0044316D01*
X0259352Y0043643D01*
X0259118Y0042924D01*
X0259000Y0042178D01*
X0259000Y0042000D01*
X0266600Y0042000D01*
X0266600Y0041600D01*
X0259000Y0041600D01*
X0259000Y0041422D01*
X0259118Y0040676D01*
X0259352Y0039957D01*
X0259695Y0039284D01*
X0260139Y0038673D01*
X0260673Y0038139D01*
X0261284Y0037695D01*
X0260246Y0038566D02*
X0258711Y0038566D01*
X0259284Y0040164D02*
X0257113Y0040164D01*
X0255514Y0041763D02*
X0266600Y0041763D01*
X0267000Y0041763D02*
X0336897Y0041763D01*
X0336897Y0043361D02*
X0328150Y0043361D01*
X0327927Y0043139D02*
X0328461Y0043673D01*
X0328905Y0044284D01*
X0329248Y0044957D01*
X0329482Y0045676D01*
X0329600Y0046422D01*
X0329600Y0046600D01*
X0322000Y0046600D01*
X0322000Y0047000D01*
X0321600Y0047000D01*
X0321600Y0051600D01*
X0318422Y0051600D01*
X0317676Y0051482D01*
X0316957Y0051248D01*
X0316284Y0050905D01*
X0315673Y0050461D01*
X0315139Y0049927D01*
X0314695Y0049316D01*
X0314352Y0048643D01*
X0314118Y0047924D01*
X0314000Y0047178D01*
X0314000Y0047000D01*
X0321600Y0047000D01*
X0321600Y0046600D01*
X0322000Y0046600D01*
X0322000Y0042000D01*
X0325178Y0042000D01*
X0325924Y0042118D01*
X0326643Y0042352D01*
X0327316Y0042695D01*
X0327927Y0043139D01*
X0329249Y0044960D02*
X0336897Y0044960D01*
X0336897Y0046558D02*
X0329600Y0046558D01*
X0329600Y0047000D02*
X0329600Y0047178D01*
X0329482Y0047924D01*
X0329248Y0048643D01*
X0328905Y0049316D01*
X0328461Y0049927D01*
X0327927Y0050461D01*
X0327316Y0050905D01*
X0326643Y0051248D01*
X0325924Y0051482D01*
X0325178Y0051600D01*
X0322000Y0051600D01*
X0322000Y0047000D01*
X0329600Y0047000D01*
X0329406Y0048157D02*
X0336897Y0048157D01*
X0336897Y0049755D02*
X0328586Y0049755D01*
X0326318Y0051354D02*
X0336897Y0051354D01*
X0336897Y0052952D02*
X0327741Y0052952D01*
X0329064Y0054551D02*
X0336897Y0054551D01*
X0336897Y0056149D02*
X0329600Y0056149D01*
X0329600Y0057748D02*
X0336897Y0057748D01*
X0336897Y0059346D02*
X0328941Y0059346D01*
X0327336Y0060945D02*
X0336897Y0060945D01*
X0336897Y0062543D02*
X0327067Y0062543D01*
X0328894Y0064142D02*
X0336897Y0064142D01*
X0336897Y0065740D02*
X0329557Y0065740D01*
X0329600Y0067339D02*
X0336897Y0067339D01*
X0336897Y0068937D02*
X0329110Y0068937D01*
X0327852Y0070536D02*
X0336897Y0070536D01*
X0336897Y0072134D02*
X0325974Y0072134D01*
X0325924Y0072118D02*
X0326643Y0072352D01*
X0327316Y0072695D01*
X0327927Y0073139D01*
X0328461Y0073673D01*
X0328905Y0074284D01*
X0329248Y0074957D01*
X0329482Y0075676D01*
X0329600Y0076422D01*
X0329600Y0076600D01*
X0322000Y0076600D01*
X0322000Y0077000D01*
X0321600Y0077000D01*
X0321600Y0081600D01*
X0318422Y0081600D01*
X0317676Y0081482D01*
X0316957Y0081248D01*
X0316284Y0080905D01*
X0315673Y0080461D01*
X0315139Y0079927D01*
X0314695Y0079316D01*
X0314352Y0078643D01*
X0314118Y0077924D01*
X0314000Y0077178D01*
X0314000Y0077000D01*
X0321600Y0077000D01*
X0321600Y0076600D01*
X0322000Y0076600D01*
X0322000Y0072000D01*
X0325178Y0072000D01*
X0325924Y0072118D01*
X0328505Y0073733D02*
X0336897Y0073733D01*
X0336897Y0075332D02*
X0329370Y0075332D01*
X0329600Y0077000D02*
X0329600Y0077178D01*
X0329482Y0077924D01*
X0329248Y0078643D01*
X0328905Y0079316D01*
X0328461Y0079927D01*
X0327927Y0080461D01*
X0327316Y0080905D01*
X0326643Y0081248D01*
X0325924Y0081482D01*
X0325178Y0081600D01*
X0322000Y0081600D01*
X0322000Y0077000D01*
X0329600Y0077000D01*
X0329285Y0078529D02*
X0336897Y0078529D01*
X0336897Y0080127D02*
X0328261Y0080127D01*
X0322000Y0080127D02*
X0321600Y0080127D01*
X0321600Y0078529D02*
X0322000Y0078529D01*
X0322000Y0076930D02*
X0336897Y0076930D01*
X0322000Y0075332D02*
X0321600Y0075332D01*
X0321600Y0076930D02*
X0302100Y0076930D01*
X0301887Y0075332D02*
X0314230Y0075332D01*
X0316800Y0071800D02*
X0286800Y0071800D01*
X0276800Y0081800D01*
X0276800Y0086800D01*
X0269300Y0094300D01*
X0267410Y0094300D01*
X0264781Y0089718D02*
X0270205Y0089718D01*
X0271803Y0088120D02*
X0264665Y0088120D01*
X0259300Y0086521D02*
X0259300Y0086521D01*
X0259300Y0084923D02*
X0259300Y0084923D01*
X0259300Y0083324D02*
X0259300Y0083324D01*
X0259300Y0082647D02*
X0259300Y0082647D01*
X0259300Y0082646D02*
X0259300Y0082646D01*
X0259300Y0081726D02*
X0259300Y0081726D01*
X0256319Y0083324D02*
X0251750Y0083324D01*
X0251592Y0084923D02*
X0256319Y0084923D01*
X0257543Y0086521D02*
X0251750Y0086521D01*
X0251750Y0089718D02*
X0258819Y0089718D01*
X0258935Y0088120D02*
X0247280Y0088120D01*
X0246320Y0088120D02*
X0241434Y0088120D01*
X0241447Y0088194D02*
X0241969Y0088717D01*
X0246320Y0088717D01*
X0246320Y0087757D01*
X0241850Y0087757D01*
X0241850Y0085441D01*
X0241973Y0084983D01*
X0242210Y0084573D01*
X0242483Y0084300D01*
X0242352Y0084169D01*
X0242277Y0084200D01*
X0239250Y0084200D01*
X0239250Y0086440D01*
X0240036Y0087000D01*
X0240253Y0087000D01*
X0240791Y0087538D01*
X0241411Y0087980D01*
X0241447Y0088194D01*
X0241850Y0086521D02*
X0239364Y0086521D01*
X0239250Y0084923D02*
X0242008Y0084923D01*
X0241677Y0078529D02*
X0239250Y0078529D01*
X0239250Y0076930D02*
X0241979Y0076930D01*
X0234780Y0076930D02*
X0233820Y0076930D01*
X0233820Y0075332D02*
X0234780Y0075332D01*
X0234780Y0073733D02*
X0233820Y0073733D01*
X0230271Y0073733D02*
X0229781Y0073733D01*
X0232410Y0064300D02*
X0271800Y0064300D01*
X0279300Y0056800D01*
X0294300Y0056800D01*
X0300241Y0052952D02*
X0315859Y0052952D01*
X0314536Y0054551D02*
X0301564Y0054551D01*
X0302100Y0056149D02*
X0314000Y0056149D01*
X0314000Y0057748D02*
X0302100Y0057748D01*
X0301464Y0064400D02*
X0301748Y0064957D01*
X0301982Y0065676D01*
X0302100Y0066422D01*
X0302100Y0066600D01*
X0294500Y0066600D01*
X0294500Y0067000D01*
X0302100Y0067000D01*
X0302100Y0067178D01*
X0301982Y0067924D01*
X0301748Y0068643D01*
X0301464Y0069200D01*
X0314599Y0069200D01*
X0314000Y0067755D01*
X0314000Y0065845D01*
X0314599Y0064400D01*
X0301464Y0064400D01*
X0301992Y0065740D02*
X0314043Y0065740D01*
X0314000Y0067339D02*
X0302074Y0067339D01*
X0301598Y0068937D02*
X0314490Y0068937D01*
X0316800Y0071800D02*
X0321800Y0066800D01*
X0316800Y0061800D02*
X0286800Y0061800D01*
X0277936Y0054551D02*
X0277726Y0054551D01*
X0276274Y0056149D02*
X0276128Y0056149D01*
X0274675Y0057748D02*
X0274529Y0057748D01*
X0269300Y0059300D02*
X0222410Y0059300D01*
X0226136Y0056149D02*
X0234257Y0056149D01*
X0232263Y0054551D02*
X0224781Y0054551D01*
X0224469Y0052952D02*
X0231582Y0052952D01*
X0231500Y0051354D02*
X0222477Y0051354D01*
X0221123Y0051354D02*
X0217281Y0051354D01*
X0216471Y0049755D02*
X0231951Y0049755D01*
X0232136Y0044200D02*
X0222800Y0044200D01*
X0223273Y0044004D01*
X0227877Y0039400D01*
X0232136Y0039400D01*
X0231852Y0039957D01*
X0231618Y0040676D01*
X0231500Y0041422D01*
X0231500Y0041600D01*
X0239100Y0041600D01*
X0239100Y0042000D01*
X0231500Y0042000D01*
X0231500Y0042178D01*
X0231618Y0042924D01*
X0231852Y0043643D01*
X0232136Y0044200D01*
X0231760Y0043361D02*
X0223916Y0043361D01*
X0225514Y0041763D02*
X0239100Y0041763D01*
X0239500Y0041763D02*
X0248160Y0041763D01*
X0246816Y0040164D02*
X0249759Y0040164D01*
X0248711Y0038566D02*
X0251357Y0038566D01*
X0250310Y0036967D02*
X0252956Y0036967D01*
X0251908Y0035369D02*
X0254554Y0035369D01*
X0253507Y0033770D02*
X0256153Y0033770D01*
X0255105Y0032172D02*
X0257751Y0032172D01*
X0256704Y0030573D02*
X0259113Y0030573D01*
X0259837Y0028975D02*
X0258302Y0028975D01*
X0259901Y0027376D02*
X0261937Y0027376D01*
X0261800Y0031800D02*
X0246800Y0046800D01*
X0211800Y0046800D01*
X0206800Y0051800D01*
X0202410Y0051800D01*
X0207410Y0041800D02*
X0221800Y0041800D01*
X0226800Y0036800D01*
X0246800Y0036800D01*
X0261800Y0021800D01*
X0266800Y0021800D01*
X0266600Y0016600D02*
X0263422Y0016600D01*
X0262676Y0016482D01*
X0261957Y0016248D01*
X0261284Y0015905D01*
X0260673Y0015461D01*
X0260139Y0014927D01*
X0259695Y0014316D01*
X0259352Y0013643D01*
X0259118Y0012924D01*
X0259000Y0012178D01*
X0259000Y0012000D01*
X0266600Y0012000D01*
X0266600Y0016600D01*
X0267000Y0016600D02*
X0267000Y0012000D01*
X0266600Y0012000D01*
X0266600Y0011600D01*
X0267000Y0011600D01*
X0267000Y0012000D01*
X0274600Y0012000D01*
X0274600Y0012178D01*
X0274482Y0012924D01*
X0274248Y0013643D01*
X0273905Y0014316D01*
X0273461Y0014927D01*
X0272927Y0015461D01*
X0272316Y0015905D01*
X0271643Y0016248D01*
X0270924Y0016482D01*
X0270178Y0016600D01*
X0267000Y0016600D01*
X0267000Y0016187D02*
X0266600Y0016187D01*
X0266600Y0014588D02*
X0267000Y0014588D01*
X0267000Y0012990D02*
X0266600Y0012990D01*
X0266600Y0011600D02*
X0259000Y0011600D01*
X0259000Y0011422D01*
X0259118Y0010676D01*
X0259352Y0009957D01*
X0259695Y0009284D01*
X0260139Y0008673D01*
X0260673Y0008139D01*
X0261284Y0007695D01*
X0261957Y0007352D01*
X0262676Y0007118D01*
X0263422Y0007000D01*
X0266600Y0007000D01*
X0266600Y0011600D01*
X0266600Y0011391D02*
X0267000Y0011391D01*
X0267000Y0011600D02*
X0267000Y0007000D01*
X0270178Y0007000D01*
X0270924Y0007118D01*
X0271643Y0007352D01*
X0272316Y0007695D01*
X0272927Y0008139D01*
X0273461Y0008673D01*
X0273905Y0009284D01*
X0274248Y0009957D01*
X0274482Y0010676D01*
X0274600Y0011422D01*
X0274600Y0011600D01*
X0267000Y0011600D01*
X0267000Y0009793D02*
X0266600Y0009793D01*
X0266600Y0008194D02*
X0267000Y0008194D01*
X0272982Y0008194D02*
X0323438Y0008194D01*
X0320805Y0009793D02*
X0274164Y0009793D01*
X0274595Y0011391D02*
X0319348Y0011391D01*
X0318384Y0012990D02*
X0274460Y0012990D01*
X0273707Y0014588D02*
X0317764Y0014588D01*
X0317387Y0016187D02*
X0271764Y0016187D01*
X0272573Y0017785D02*
X0317387Y0017785D01*
X0317407Y0019384D02*
X0273995Y0019384D01*
X0274600Y0020982D02*
X0318027Y0020982D01*
X0318646Y0022581D02*
X0274600Y0022581D01*
X0274010Y0024179D02*
X0319966Y0024179D01*
X0321589Y0025778D02*
X0272611Y0025778D01*
X0271663Y0027376D02*
X0325417Y0027376D01*
X0329383Y0027376D02*
X0336897Y0027376D01*
X0336897Y0025778D02*
X0333151Y0025778D01*
X0335146Y0024179D02*
X0336897Y0024179D01*
X0336897Y0022581D02*
X0336135Y0022581D01*
X0336897Y0028975D02*
X0273763Y0028975D01*
X0274487Y0030573D02*
X0336897Y0030573D01*
X0336897Y0038566D02*
X0301773Y0038566D01*
X0300724Y0040164D02*
X0336897Y0040164D01*
X0322000Y0043361D02*
X0321600Y0043361D01*
X0321600Y0042000D02*
X0318422Y0042000D01*
X0317676Y0042118D01*
X0316957Y0042352D01*
X0316284Y0042695D01*
X0315673Y0043139D01*
X0315139Y0043673D01*
X0314695Y0044284D01*
X0314352Y0044957D01*
X0314118Y0045676D01*
X0314000Y0046422D01*
X0314000Y0046600D01*
X0321600Y0046600D01*
X0321600Y0042000D01*
X0321600Y0044960D02*
X0322000Y0044960D01*
X0322000Y0046558D02*
X0321600Y0046558D01*
X0321600Y0048157D02*
X0322000Y0048157D01*
X0322000Y0049755D02*
X0321600Y0049755D01*
X0321600Y0051354D02*
X0322000Y0051354D01*
X0317282Y0051354D02*
X0298849Y0051354D01*
X0301133Y0049755D02*
X0315014Y0049755D01*
X0314194Y0048157D02*
X0301933Y0048157D01*
X0302100Y0046558D02*
X0314000Y0046558D01*
X0314351Y0044960D02*
X0301733Y0044960D01*
X0300650Y0043361D02*
X0315450Y0043361D01*
X0321800Y0056800D02*
X0316800Y0061800D01*
X0321600Y0072134D02*
X0322000Y0072134D01*
X0322000Y0073733D02*
X0321600Y0073733D01*
X0314315Y0078529D02*
X0301779Y0078529D01*
X0300761Y0080127D02*
X0315339Y0080127D01*
X0321800Y0086800D02*
X0296800Y0111800D01*
X0235540Y0111800D01*
X0239899Y0108900D02*
X0296023Y0108900D01*
X0297621Y0107302D02*
X0239099Y0107302D01*
X0238336Y0104053D02*
X0236020Y0104053D01*
X0236020Y0099780D01*
X0239899Y0099780D01*
X0239899Y0102490D01*
X0239777Y0102948D01*
X0239540Y0103358D01*
X0239204Y0103693D01*
X0238794Y0103930D01*
X0238336Y0104053D01*
X0239895Y0102506D02*
X0302417Y0102506D01*
X0300818Y0104105D02*
X0217281Y0104105D01*
X0217188Y0105703D02*
X0299220Y0105703D01*
X0311512Y0128082D02*
X0216335Y0128082D01*
X0217934Y0129681D02*
X0309914Y0129681D01*
X0309700Y0131279D02*
X0219532Y0131279D01*
X0221131Y0132878D02*
X0309700Y0132878D01*
X0308229Y0134476D02*
X0222729Y0134476D01*
X0196850Y0118491D02*
X0179039Y0118491D01*
X0179112Y0116893D02*
X0196850Y0116893D01*
X0201320Y0115294D02*
X0179088Y0115294D01*
X0179112Y0116800D02*
X0175147Y0116800D01*
X0179112Y0116800D01*
X0175147Y0116800D02*
X0175147Y0116800D01*
X0175146Y0116800D02*
X0171181Y0116800D01*
X0168454Y0116800D01*
X0175146Y0116800D01*
X0175146Y0116800D01*
X0175175Y0113696D02*
X0196850Y0113696D01*
X0197196Y0112097D02*
X0196194Y0112097D01*
X0202280Y0115294D02*
X0211319Y0115294D01*
X0217281Y0107302D02*
X0224501Y0107302D01*
X0223701Y0102506D02*
X0223580Y0102506D01*
X0231619Y0107302D02*
X0231981Y0107302D01*
X0235061Y0102506D02*
X0236020Y0102506D01*
X0236020Y0100908D02*
X0235061Y0100908D01*
X0236020Y0099309D02*
X0258819Y0099309D01*
X0258819Y0097711D02*
X0239899Y0097711D01*
X0239899Y0096112D02*
X0242859Y0096112D01*
X0241261Y0094514D02*
X0238039Y0094514D01*
X0239565Y0092915D02*
X0239662Y0092915D01*
X0235561Y0094514D02*
X0217281Y0094514D01*
X0217055Y0092915D02*
X0234035Y0092915D01*
X0233857Y0091317D02*
X0219250Y0091317D01*
X0219250Y0089718D02*
X0230027Y0089718D01*
X0235061Y0096112D02*
X0236020Y0096112D01*
X0236020Y0097711D02*
X0235061Y0097711D01*
X0239899Y0100908D02*
X0259173Y0100908D01*
X0261800Y0100908D02*
X0261800Y0100908D01*
X0261800Y0099309D02*
X0261800Y0099309D01*
X0252297Y0091317D02*
X0251674Y0091317D01*
X0223701Y0096112D02*
X0223599Y0096112D01*
X0209350Y0081726D02*
X0206491Y0081726D01*
X0206750Y0080127D02*
X0209350Y0080127D01*
X0187797Y0096112D02*
X0179365Y0096112D01*
X0180963Y0097711D02*
X0186850Y0097711D01*
X0178352Y0104105D02*
X0167968Y0104105D01*
X0169566Y0105703D02*
X0179951Y0105703D01*
X0181549Y0107302D02*
X0174788Y0107302D01*
X0175175Y0108900D02*
X0183148Y0108900D01*
X0184746Y0110499D02*
X0175175Y0110499D01*
X0175175Y0112097D02*
X0187406Y0112097D01*
X0181911Y0123287D02*
X0336897Y0123287D01*
X0336897Y0124885D02*
X0177528Y0124885D01*
X0179126Y0126484D02*
X0336897Y0126484D01*
X0336897Y0128082D02*
X0327088Y0128082D01*
X0328686Y0129681D02*
X0336897Y0129681D01*
X0336897Y0131279D02*
X0328900Y0131279D01*
X0328900Y0132878D02*
X0336897Y0132878D01*
X0336897Y0134476D02*
X0328129Y0134476D01*
X0326530Y0136075D02*
X0336897Y0136075D01*
X0336897Y0137673D02*
X0326679Y0137673D01*
X0328277Y0139272D02*
X0336897Y0139272D01*
X0336897Y0140870D02*
X0328900Y0140870D01*
X0328900Y0142469D02*
X0336897Y0142469D01*
X0336897Y0144068D02*
X0328538Y0144068D01*
X0326939Y0145666D02*
X0336897Y0145666D01*
X0336897Y0147265D02*
X0326270Y0147265D01*
X0327868Y0148863D02*
X0336897Y0148863D01*
X0336897Y0150462D02*
X0328900Y0150462D01*
X0328900Y0152060D02*
X0336897Y0152060D01*
X0336897Y0153659D02*
X0328900Y0153659D01*
X0327348Y0155257D02*
X0336897Y0155257D01*
X0322330Y0147265D02*
X0321900Y0147265D01*
X0316700Y0147265D02*
X0316270Y0147265D01*
X0312330Y0147265D02*
X0312230Y0147265D01*
X0310732Y0148863D02*
X0310591Y0148863D01*
X0309700Y0150462D02*
X0296533Y0150462D01*
X0294934Y0152060D02*
X0309700Y0152060D01*
X0309700Y0153659D02*
X0301074Y0153659D01*
X0297526Y0153659D02*
X0294200Y0153659D01*
X0294200Y0155257D02*
X0296063Y0155257D01*
X0289400Y0155257D02*
X0286737Y0155257D01*
X0288336Y0153659D02*
X0289400Y0153659D01*
X0289400Y0156856D02*
X0285138Y0156856D01*
X0284200Y0158454D02*
X0289400Y0158454D01*
X0288648Y0160053D02*
X0284952Y0160053D01*
X0285381Y0161651D02*
X0288219Y0161651D01*
X0288524Y0163250D02*
X0285076Y0163250D01*
X0278524Y0163250D02*
X0273000Y0163250D01*
X0273000Y0164848D02*
X0276909Y0164848D01*
X0278219Y0161651D02*
X0273000Y0161651D01*
X0273000Y0160053D02*
X0278648Y0160053D01*
X0279400Y0158454D02*
X0272523Y0158454D01*
X0265724Y0156856D02*
X0279400Y0156856D01*
X0279949Y0155257D02*
X0265724Y0155257D01*
X0265724Y0153659D02*
X0281547Y0153659D01*
X0283146Y0152060D02*
X0265724Y0152060D01*
X0265124Y0150462D02*
X0284744Y0150462D01*
X0286343Y0148863D02*
X0265124Y0148863D01*
X0265124Y0147265D02*
X0287941Y0147265D01*
X0289540Y0145666D02*
X0263919Y0145666D01*
X0262320Y0144068D02*
X0291138Y0144068D01*
X0292737Y0142469D02*
X0260722Y0142469D01*
X0259123Y0140870D02*
X0294335Y0140870D01*
X0303434Y0139272D02*
X0257525Y0139272D01*
X0255926Y0137673D02*
X0305032Y0137673D01*
X0306631Y0136075D02*
X0254328Y0136075D01*
X0254300Y0149300D02*
X0253375Y0150225D01*
X0253375Y0154900D01*
X0286750Y0169644D02*
X0286765Y0169644D01*
X0298717Y0174439D02*
X0310434Y0174439D01*
X0300737Y0176800D02*
X0300737Y0199300D01*
X0301217Y0199780D02*
X0301217Y0204250D01*
X0303533Y0204250D01*
X0303991Y0204127D01*
X0304401Y0203890D01*
X0304736Y0203555D01*
X0304973Y0203144D01*
X0305096Y0202687D01*
X0305096Y0199780D01*
X0301217Y0199780D01*
X0301217Y0200015D02*
X0300257Y0200015D01*
X0301217Y0198820D02*
X0305096Y0198820D01*
X0305096Y0195913D01*
X0304973Y0195456D01*
X0304736Y0195045D01*
X0304401Y0194710D01*
X0303991Y0194473D01*
X0303533Y0194350D01*
X0301217Y0194350D01*
X0301217Y0198820D01*
X0301217Y0198417D02*
X0300257Y0198417D01*
X0300257Y0196818D02*
X0301217Y0196818D01*
X0301217Y0195220D02*
X0300808Y0195220D01*
X0301002Y0193621D02*
X0336897Y0193621D01*
X0336897Y0192023D02*
X0301002Y0192023D01*
X0301002Y0190424D02*
X0336897Y0190424D01*
X0336897Y0188826D02*
X0301002Y0188826D01*
X0300206Y0187227D02*
X0336897Y0187227D01*
X0336897Y0185629D02*
X0300950Y0185629D01*
X0301002Y0184030D02*
X0336897Y0184030D01*
X0336897Y0182432D02*
X0301002Y0182432D01*
X0301002Y0180833D02*
X0336897Y0180833D01*
X0336897Y0179235D02*
X0301088Y0179235D01*
X0289921Y0190424D02*
X0283679Y0190424D01*
X0283679Y0192023D02*
X0289921Y0192023D01*
X0289921Y0193621D02*
X0283679Y0193621D01*
X0283485Y0195220D02*
X0288689Y0195220D01*
X0300257Y0201614D02*
X0301217Y0201614D01*
X0301217Y0203212D02*
X0300257Y0203212D01*
X0304934Y0203212D02*
X0317901Y0203212D01*
X0317387Y0204811D02*
X0030326Y0204811D01*
X0030625Y0206409D02*
X0317387Y0206409D01*
X0317387Y0208008D02*
X0030331Y0208008D01*
X0030032Y0209606D02*
X0317890Y0209606D01*
X0318510Y0211205D02*
X0029267Y0211205D01*
X0028277Y0212803D02*
X0319645Y0212803D01*
X0321102Y0214402D02*
X0026530Y0214402D01*
X0023534Y0216001D02*
X0324092Y0216001D01*
X0330620Y0216001D02*
X0336897Y0216001D01*
X0336897Y0217599D02*
X0010942Y0217599D01*
X0010942Y0216001D02*
X0017005Y0216001D01*
X0014199Y0214603D02*
X0014199Y0214603D01*
X0014016Y0214402D02*
X0010942Y0214402D01*
X0010942Y0212803D02*
X0012558Y0212803D01*
X0011423Y0211205D02*
X0010942Y0211205D01*
X0010942Y0219198D02*
X0336897Y0219198D01*
X0336897Y0214402D02*
X0333617Y0214402D01*
X0335364Y0212803D02*
X0336897Y0212803D01*
X0336897Y0211205D02*
X0336353Y0211205D01*
X0336337Y0201614D02*
X0336897Y0201614D01*
X0336897Y0200015D02*
X0335347Y0200015D01*
X0336897Y0198417D02*
X0333582Y0198417D01*
X0330527Y0196818D02*
X0336897Y0196818D01*
X0336897Y0195220D02*
X0304837Y0195220D01*
X0305096Y0196818D02*
X0324145Y0196818D01*
X0321126Y0198417D02*
X0305096Y0198417D01*
X0305096Y0200015D02*
X0319669Y0200015D01*
X0318520Y0201614D02*
X0305096Y0201614D01*
X0328166Y0174439D02*
X0336897Y0174439D01*
X0336897Y0172841D02*
X0328900Y0172841D01*
X0328900Y0171242D02*
X0336897Y0171242D01*
X0336897Y0169644D02*
X0328649Y0169644D01*
X0324400Y0169644D02*
X0324200Y0169644D01*
X0324200Y0171242D02*
X0324400Y0171242D01*
X0324400Y0168045D02*
X0324200Y0168045D01*
X0319545Y0132878D02*
X0318900Y0132878D01*
X0318900Y0131279D02*
X0319700Y0131279D01*
X0319914Y0129681D02*
X0318686Y0129681D01*
X0317088Y0128082D02*
X0321512Y0128082D01*
X0287839Y0080127D02*
X0282150Y0080127D01*
X0283748Y0078529D02*
X0286821Y0078529D01*
X0286500Y0076930D02*
X0285347Y0076930D01*
X0261757Y0056149D02*
X0244343Y0056149D01*
X0246337Y0054551D02*
X0259763Y0054551D01*
X0259082Y0052952D02*
X0247018Y0052952D01*
X0247100Y0051354D02*
X0259000Y0051354D01*
X0259451Y0049755D02*
X0246649Y0049755D01*
X0249120Y0048157D02*
X0260655Y0048157D01*
X0263159Y0046558D02*
X0250719Y0046558D01*
X0252317Y0044960D02*
X0260172Y0044960D01*
X0259260Y0043361D02*
X0253916Y0043361D01*
X0249004Y0038273D02*
X0249004Y0038273D01*
X0247751Y0032172D02*
X0247100Y0032172D01*
X0246987Y0030573D02*
X0249350Y0030573D01*
X0250948Y0028975D02*
X0246263Y0028975D01*
X0244163Y0027376D02*
X0252547Y0027376D01*
X0254145Y0025778D02*
X0245111Y0025778D01*
X0246510Y0024179D02*
X0255744Y0024179D01*
X0257342Y0022581D02*
X0247100Y0022581D01*
X0247100Y0020982D02*
X0258941Y0020982D01*
X0259605Y0019384D02*
X0246495Y0019384D01*
X0245073Y0017785D02*
X0261027Y0017785D01*
X0261836Y0016187D02*
X0244264Y0016187D01*
X0244143Y0016248D02*
X0243424Y0016482D01*
X0242678Y0016600D01*
X0239500Y0016600D01*
X0239500Y0012000D01*
X0247100Y0012000D01*
X0247100Y0012178D01*
X0246982Y0012924D01*
X0246748Y0013643D01*
X0246405Y0014316D01*
X0245961Y0014927D01*
X0245427Y0015461D01*
X0244816Y0015905D01*
X0244143Y0016248D01*
X0246207Y0014588D02*
X0259893Y0014588D01*
X0259140Y0012990D02*
X0246960Y0012990D01*
X0247100Y0011600D02*
X0239500Y0011600D01*
X0239500Y0007000D01*
X0242678Y0007000D01*
X0243424Y0007118D01*
X0244143Y0007352D01*
X0244816Y0007695D01*
X0245427Y0008139D01*
X0245961Y0008673D01*
X0246405Y0009284D01*
X0246748Y0009957D01*
X0246982Y0010676D01*
X0247100Y0011422D01*
X0247100Y0011600D01*
X0247095Y0011391D02*
X0259005Y0011391D01*
X0259436Y0009793D02*
X0246664Y0009793D01*
X0245482Y0008194D02*
X0260618Y0008194D01*
X0239500Y0008194D02*
X0239100Y0008194D01*
X0239100Y0009793D02*
X0239500Y0009793D01*
X0239500Y0011391D02*
X0239100Y0011391D01*
X0239300Y0011800D02*
X0234300Y0006800D01*
X0141800Y0006800D01*
X0130560Y0018040D01*
X0130560Y0034300D01*
X0130080Y0033820D02*
X0130080Y0029547D01*
X0127764Y0029547D01*
X0127306Y0029670D01*
X0126896Y0029907D01*
X0126560Y0030242D01*
X0126323Y0030652D01*
X0126201Y0031110D01*
X0126201Y0033820D01*
X0130080Y0033820D01*
X0130080Y0033770D02*
X0131039Y0033770D01*
X0131039Y0032172D02*
X0130080Y0032172D01*
X0130080Y0030573D02*
X0131039Y0030573D01*
X0134500Y0028975D02*
X0103783Y0028975D01*
X0105382Y0030573D02*
X0126369Y0030573D01*
X0126201Y0032172D02*
X0106980Y0032172D01*
X0108579Y0033770D02*
X0126201Y0033770D01*
X0126201Y0035369D02*
X0110177Y0035369D01*
X0115182Y0036967D02*
X0119441Y0036967D01*
X0118504Y0038566D02*
X0116120Y0038566D01*
X0116120Y0040164D02*
X0118504Y0040164D01*
X0119111Y0046302D02*
X0115513Y0046302D01*
X0115065Y0046750D01*
X0112300Y0046750D01*
X0112300Y0063701D01*
X0113195Y0063701D01*
X0114250Y0064755D01*
X0114250Y0070673D01*
X0117616Y0067307D01*
X0116850Y0066542D01*
X0116850Y0059932D01*
X0117483Y0059300D01*
X0117210Y0059027D01*
X0116973Y0058617D01*
X0116850Y0058159D01*
X0116850Y0055843D01*
X0121320Y0055843D01*
X0121320Y0054883D01*
X0122280Y0054883D01*
X0122280Y0055843D01*
X0126750Y0055843D01*
X0126750Y0058159D01*
X0126627Y0058617D01*
X0126390Y0059027D01*
X0126117Y0059300D01*
X0126750Y0059932D01*
X0126750Y0064200D01*
X0142317Y0064200D01*
X0143273Y0064596D01*
X0145520Y0066844D01*
X0157037Y0055327D01*
X0157768Y0054596D01*
X0158724Y0054200D01*
X0179336Y0054200D01*
X0179771Y0053764D01*
X0180295Y0053547D01*
X0179500Y0052753D01*
X0177284Y0050537D01*
X0176750Y0050537D01*
X0176750Y0051542D01*
X0175695Y0052596D01*
X0167905Y0052596D01*
X0166850Y0051542D01*
X0166850Y0050537D01*
X0166462Y0050537D01*
X0165834Y0051165D01*
X0165834Y0053008D01*
X0164779Y0054063D01*
X0150380Y0054063D01*
X0150380Y0056084D01*
X0150381Y0056088D01*
X0150381Y0057512D01*
X0149836Y0058829D01*
X0148829Y0059836D01*
X0147512Y0060381D01*
X0146088Y0060381D01*
X0144771Y0059836D01*
X0143764Y0058829D01*
X0143219Y0057512D01*
X0143219Y0056088D01*
X0143764Y0054771D01*
X0144473Y0054063D01*
X0144175Y0054063D01*
X0144095Y0053983D01*
X0143798Y0054063D01*
X0142961Y0054063D01*
X0142124Y0054063D01*
X0141682Y0053944D01*
X0141239Y0054063D01*
X0140402Y0054063D01*
X0139565Y0054063D01*
X0139268Y0053983D01*
X0139189Y0054063D01*
X0133939Y0054063D01*
X0133859Y0053983D01*
X0133562Y0054063D01*
X0132725Y0054063D01*
X0131888Y0054063D01*
X0131591Y0053983D01*
X0131512Y0054063D01*
X0128821Y0054063D01*
X0127766Y0053008D01*
X0127766Y0052613D01*
X0126860Y0052613D01*
X0126726Y0052479D01*
X0126750Y0052567D01*
X0126750Y0054883D01*
X0122280Y0054883D01*
X0122280Y0051004D01*
X0125187Y0051004D01*
X0125275Y0051028D01*
X0123347Y0049100D01*
X0122000Y0047753D01*
X0122000Y0046750D01*
X0119558Y0046750D01*
X0119111Y0046302D01*
X0119367Y0046558D02*
X0115257Y0046558D01*
X0112300Y0048157D02*
X0122404Y0048157D01*
X0124003Y0049755D02*
X0112300Y0049755D01*
X0112300Y0051354D02*
X0117562Y0051354D01*
X0117545Y0051364D02*
X0117956Y0051127D01*
X0118413Y0051004D01*
X0121320Y0051004D01*
X0121320Y0054883D01*
X0116850Y0054883D01*
X0116850Y0052567D01*
X0116973Y0052109D01*
X0117210Y0051699D01*
X0117545Y0051364D01*
X0116850Y0052952D02*
X0112300Y0052952D01*
X0112300Y0054551D02*
X0116850Y0054551D01*
X0116850Y0056149D02*
X0112300Y0056149D01*
X0112300Y0057748D02*
X0116850Y0057748D01*
X0117436Y0059346D02*
X0112300Y0059346D01*
X0112300Y0060945D02*
X0116850Y0060945D01*
X0116850Y0062543D02*
X0112300Y0062543D01*
X0113636Y0064142D02*
X0116850Y0064142D01*
X0116850Y0065740D02*
X0114250Y0065740D01*
X0114250Y0067339D02*
X0117584Y0067339D01*
X0115986Y0068937D02*
X0114250Y0068937D01*
X0114250Y0070536D02*
X0114387Y0070536D01*
X0109300Y0068060D02*
X0109300Y0066800D01*
X0100540Y0066800D01*
X0100540Y0073060D01*
X0096800Y0076800D01*
X0095474Y0080127D02*
X0042405Y0080127D01*
X0042405Y0078529D02*
X0093640Y0078529D01*
X0093219Y0076930D02*
X0042405Y0076930D01*
X0042405Y0081726D02*
X0103262Y0081726D01*
X0104860Y0080127D02*
X0098126Y0080127D01*
X0099960Y0078529D02*
X0104350Y0078529D01*
X0104350Y0076930D02*
X0100381Y0076930D01*
X0101945Y0075332D02*
X0104350Y0075332D01*
X0104350Y0073733D02*
X0103076Y0073733D01*
X0103140Y0072134D02*
X0104451Y0072134D01*
X0097789Y0072134D02*
X0063205Y0072134D01*
X0063205Y0072575D02*
X0071120Y0072575D01*
X0071120Y0075187D01*
X0070997Y0075644D01*
X0070760Y0076055D01*
X0070425Y0076390D01*
X0070014Y0076627D01*
X0069557Y0076750D01*
X0063205Y0076750D01*
X0063205Y0072575D01*
X0063205Y0071025D01*
X0071120Y0071025D01*
X0071120Y0068413D01*
X0070997Y0067956D01*
X0070760Y0067545D01*
X0070425Y0067210D01*
X0070014Y0066973D01*
X0069557Y0066850D01*
X0063205Y0066850D01*
X0063205Y0071025D01*
X0061655Y0071025D01*
X0061655Y0066850D01*
X0055303Y0066850D01*
X0054845Y0066973D01*
X0054435Y0067210D01*
X0054100Y0067545D01*
X0053863Y0067956D01*
X0053740Y0068413D01*
X0053740Y0071025D01*
X0061655Y0071025D01*
X0061655Y0072575D01*
X0061655Y0076750D01*
X0055303Y0076750D01*
X0054845Y0076627D01*
X0054435Y0076390D01*
X0054100Y0076055D01*
X0053863Y0075644D01*
X0053740Y0075187D01*
X0053740Y0072575D01*
X0061655Y0072575D01*
X0063205Y0072575D01*
X0062430Y0071800D02*
X0064595Y0071800D01*
X0064595Y0101800D01*
X0064595Y0131800D01*
X0063296Y0131800D01*
X0063296Y0151800D01*
X0061800Y0151800D01*
X0062915Y0152060D02*
X0054466Y0152060D01*
X0054466Y0150462D02*
X0059134Y0150462D01*
X0059134Y0148863D02*
X0054466Y0148863D01*
X0054466Y0147265D02*
X0059134Y0147265D01*
X0059237Y0145666D02*
X0054466Y0145666D01*
X0050304Y0149674D02*
X0050304Y0151800D01*
X0051800Y0151800D01*
X0054466Y0153659D02*
X0059134Y0153659D01*
X0059134Y0155257D02*
X0054466Y0155257D01*
X0054466Y0156856D02*
X0059134Y0156856D01*
X0059531Y0158454D02*
X0054069Y0158454D01*
X0046294Y0160053D02*
X0096376Y0160053D01*
X0097974Y0161651D02*
X0045490Y0161651D01*
X0045490Y0163250D02*
X0099573Y0163250D01*
X0094009Y0169644D02*
X0045044Y0169644D01*
X0045490Y0171242D02*
X0093819Y0171242D01*
X0093819Y0172841D02*
X0045490Y0172841D01*
X0045490Y0174439D02*
X0079530Y0174439D01*
X0081800Y0175146D02*
X0083454Y0176800D01*
X0081800Y0178454D01*
X0076800Y0178454D01*
X0076616Y0177636D02*
X0076984Y0177636D01*
X0076984Y0176038D02*
X0076616Y0176038D01*
X0073035Y0176038D02*
X0039800Y0176038D01*
X0033800Y0176038D02*
X0010942Y0176038D01*
X0010942Y0177636D02*
X0033800Y0177636D01*
X0033800Y0179235D02*
X0033322Y0179235D01*
X0030278Y0179235D02*
X0010942Y0179235D01*
X0010942Y0180833D02*
X0027979Y0180833D01*
X0027171Y0182432D02*
X0010942Y0182432D01*
X0010942Y0184030D02*
X0027000Y0184030D01*
X0027000Y0185629D02*
X0010942Y0185629D01*
X0010942Y0187227D02*
X0027000Y0187227D01*
X0027000Y0188826D02*
X0010942Y0188826D01*
X0010942Y0190424D02*
X0027000Y0190424D01*
X0027525Y0192023D02*
X0010942Y0192023D01*
X0010942Y0193621D02*
X0028833Y0193621D01*
X0034767Y0193621D02*
X0038893Y0193621D01*
X0037545Y0192023D02*
X0036075Y0192023D01*
X0036600Y0190424D02*
X0037039Y0190424D01*
X0037000Y0188826D02*
X0036600Y0188826D01*
X0036600Y0187227D02*
X0037000Y0187227D01*
X0041600Y0188826D02*
X0042000Y0188826D01*
X0042000Y0190424D02*
X0041600Y0190424D01*
X0041600Y0192023D02*
X0042000Y0192023D01*
X0042000Y0193621D02*
X0041600Y0193621D01*
X0051800Y0191800D02*
X0051800Y0186800D01*
X0051800Y0191800D02*
X0056800Y0196800D01*
X0091800Y0196800D01*
X0099300Y0189300D01*
X0101800Y0191800D01*
X0103454Y0191800D01*
X0099488Y0193621D02*
X0098656Y0193621D01*
X0100194Y0195220D02*
X0097057Y0195220D01*
X0099300Y0189300D02*
X0106800Y0181800D01*
X0106800Y0174910D01*
X0101800Y0174910D02*
X0101800Y0181800D01*
X0094300Y0189300D01*
X0092646Y0189300D01*
X0095893Y0184030D02*
X0080568Y0184030D01*
X0080568Y0182432D02*
X0097491Y0182432D01*
X0098934Y0180833D02*
X0099090Y0180833D01*
X0094666Y0180833D02*
X0080568Y0180833D01*
X0083269Y0179235D02*
X0083638Y0179235D01*
X0083638Y0177636D02*
X0083269Y0177636D01*
X0083269Y0176038D02*
X0083638Y0176038D01*
X0083638Y0174439D02*
X0083269Y0174439D01*
X0081800Y0175146D02*
X0081800Y0171800D01*
X0071800Y0161800D01*
X0066800Y0161800D01*
X0067062Y0158454D02*
X0094777Y0158454D01*
X0094200Y0156856D02*
X0067458Y0156856D01*
X0067458Y0155257D02*
X0094200Y0155257D01*
X0093819Y0153659D02*
X0067458Y0153659D01*
X0067458Y0150462D02*
X0093819Y0150462D01*
X0093819Y0152060D02*
X0063677Y0152060D01*
X0063677Y0153659D02*
X0062915Y0153659D01*
X0062915Y0155257D02*
X0063677Y0155257D01*
X0063677Y0156856D02*
X0062915Y0156856D01*
X0062915Y0158454D02*
X0063677Y0158454D01*
X0046142Y0145666D02*
X0040687Y0145666D01*
X0040687Y0153659D02*
X0044203Y0153659D01*
X0040914Y0161190D02*
X0036800Y0161190D01*
X0028556Y0169644D02*
X0010942Y0169644D01*
X0010942Y0171242D02*
X0028110Y0171242D01*
X0028110Y0172841D02*
X0010942Y0172841D01*
X0010942Y0174439D02*
X0028110Y0174439D01*
X0010942Y0168045D02*
X0119368Y0168045D01*
X0117770Y0166447D02*
X0010942Y0166447D01*
X0040687Y0137673D02*
X0042018Y0137673D01*
X0048139Y0133926D02*
X0031800Y0133926D01*
X0034800Y0128082D02*
X0041614Y0128082D01*
X0041614Y0126484D02*
X0034800Y0126484D01*
X0034800Y0124885D02*
X0099200Y0124885D01*
X0099200Y0123287D02*
X0034800Y0123287D01*
X0034800Y0121688D02*
X0099200Y0121688D01*
X0099200Y0120090D02*
X0034800Y0120090D01*
X0034800Y0118491D02*
X0099200Y0118491D01*
X0099200Y0116893D02*
X0034800Y0116893D01*
X0034800Y0115294D02*
X0099200Y0115294D01*
X0098709Y0113696D02*
X0034800Y0113696D01*
X0034800Y0112097D02*
X0098219Y0112097D01*
X0098463Y0110499D02*
X0034800Y0110499D01*
X0034800Y0108900D02*
X0084754Y0108900D01*
X0083701Y0107302D02*
X0073193Y0107302D01*
X0073162Y0107416D02*
X0072925Y0107826D01*
X0072590Y0108162D01*
X0072180Y0108399D01*
X0071722Y0108521D01*
X0065395Y0108521D01*
X0065395Y0102600D01*
X0063795Y0102600D01*
X0063795Y0101000D01*
X0055906Y0101000D01*
X0055906Y0096642D01*
X0056028Y0096184D01*
X0056265Y0095774D01*
X0056600Y0095438D01*
X0057011Y0095201D01*
X0057469Y0095079D01*
X0063795Y0095079D01*
X0063795Y0101000D01*
X0065395Y0101000D01*
X0065395Y0095079D01*
X0071722Y0095079D01*
X0072180Y0095201D01*
X0072590Y0095438D01*
X0072925Y0095774D01*
X0073162Y0096184D01*
X0073285Y0096642D01*
X0073285Y0101000D01*
X0065395Y0101000D01*
X0065395Y0102600D01*
X0073285Y0102600D01*
X0073285Y0106958D01*
X0073162Y0107416D01*
X0073285Y0105703D02*
X0083701Y0105703D01*
X0083701Y0103820D02*
X0083701Y0101110D01*
X0083823Y0100652D01*
X0084060Y0100242D01*
X0084396Y0099907D01*
X0084806Y0099670D01*
X0085264Y0099547D01*
X0087580Y0099547D01*
X0087580Y0103820D01*
X0083701Y0103820D01*
X0083701Y0102506D02*
X0065395Y0102506D01*
X0065395Y0100908D02*
X0063795Y0100908D01*
X0063795Y0102506D02*
X0047694Y0102506D01*
X0047694Y0100908D02*
X0055906Y0100908D01*
X0055906Y0099309D02*
X0047694Y0099309D01*
X0047694Y0097711D02*
X0055906Y0097711D01*
X0056070Y0096112D02*
X0047673Y0096112D01*
X0042405Y0094514D02*
X0104839Y0094514D01*
X0104547Y0096112D02*
X0073121Y0096112D01*
X0073285Y0097711D02*
X0108820Y0097711D01*
X0109300Y0098060D02*
X0108040Y0096800D01*
X0088060Y0096800D01*
X0088060Y0104300D01*
X0087580Y0104105D02*
X0073285Y0104105D01*
X0073285Y0100908D02*
X0083755Y0100908D01*
X0087580Y0100908D02*
X0088539Y0100908D01*
X0088539Y0102506D02*
X0087580Y0102506D01*
X0087580Y0105703D02*
X0088539Y0105703D01*
X0088539Y0107302D02*
X0087580Y0107302D01*
X0087580Y0108900D02*
X0088539Y0108900D01*
X0091365Y0108900D02*
X0092083Y0108900D01*
X0095540Y0104300D02*
X0108060Y0104300D01*
X0114300Y0104300D01*
X0116800Y0101800D01*
X0116800Y0091800D01*
X0111800Y0086800D01*
X0102430Y0086800D01*
X0110498Y0091317D02*
X0112640Y0091317D01*
X0114200Y0092915D02*
X0042405Y0092915D01*
X0042405Y0091317D02*
X0073102Y0091317D01*
X0073175Y0091390D02*
X0072840Y0091055D01*
X0072603Y0090644D01*
X0072480Y0090187D01*
X0072480Y0087575D01*
X0080395Y0087575D01*
X0080395Y0086025D01*
X0072480Y0086025D01*
X0072480Y0083413D01*
X0072603Y0082956D01*
X0072840Y0082545D01*
X0073175Y0082210D01*
X0073586Y0081973D01*
X0074043Y0081850D01*
X0080395Y0081850D01*
X0080395Y0086025D01*
X0081945Y0086025D01*
X0081945Y0081850D01*
X0088297Y0081850D01*
X0088755Y0081973D01*
X0089165Y0082210D01*
X0089500Y0082545D01*
X0089737Y0082956D01*
X0089860Y0083413D01*
X0089860Y0086025D01*
X0081945Y0086025D01*
X0081945Y0087575D01*
X0080395Y0087575D01*
X0080395Y0091750D01*
X0074043Y0091750D01*
X0073586Y0091627D01*
X0073175Y0091390D01*
X0072480Y0089718D02*
X0042405Y0089718D01*
X0042405Y0088120D02*
X0072480Y0088120D01*
X0072480Y0084923D02*
X0042405Y0084923D01*
X0042405Y0086521D02*
X0080395Y0086521D01*
X0081170Y0086800D02*
X0088060Y0093690D01*
X0088060Y0096800D01*
X0088297Y0091750D02*
X0081945Y0091750D01*
X0081945Y0087575D01*
X0089860Y0087575D01*
X0089860Y0090187D01*
X0089737Y0090644D01*
X0089500Y0091055D01*
X0089165Y0091390D01*
X0088755Y0091627D01*
X0088297Y0091750D01*
X0089238Y0091317D02*
X0094362Y0091317D01*
X0093740Y0089718D02*
X0089860Y0089718D01*
X0089860Y0088120D02*
X0093740Y0088120D01*
X0093740Y0086521D02*
X0081945Y0086521D01*
X0081170Y0086800D02*
X0081170Y0072430D01*
X0086800Y0066800D01*
X0093060Y0066800D01*
X0092580Y0066320D02*
X0092580Y0062047D01*
X0090264Y0062047D01*
X0089806Y0062170D01*
X0089396Y0062407D01*
X0089060Y0062742D01*
X0088823Y0063152D01*
X0088701Y0063610D01*
X0088701Y0066320D01*
X0092580Y0066320D01*
X0092580Y0065740D02*
X0093539Y0065740D01*
X0093539Y0064142D02*
X0092580Y0064142D01*
X0092580Y0062543D02*
X0093539Y0062543D01*
X0089259Y0062543D02*
X0035200Y0062543D01*
X0035200Y0060945D02*
X0106300Y0060945D01*
X0106300Y0062543D02*
X0104341Y0062543D01*
X0104899Y0064142D02*
X0104964Y0064142D01*
X0106300Y0059346D02*
X0035200Y0059346D01*
X0035200Y0057748D02*
X0106300Y0057748D01*
X0106300Y0056149D02*
X0035200Y0056149D01*
X0035200Y0054551D02*
X0039498Y0054551D01*
X0039370Y0052952D02*
X0035200Y0052952D01*
X0035200Y0051354D02*
X0039370Y0051354D01*
X0039370Y0049755D02*
X0035200Y0049755D01*
X0035200Y0048157D02*
X0039370Y0048157D01*
X0039370Y0046558D02*
X0035200Y0046558D01*
X0035200Y0044960D02*
X0039370Y0044960D01*
X0039370Y0043361D02*
X0035200Y0043361D01*
X0035200Y0041763D02*
X0051000Y0041763D01*
X0051000Y0043361D02*
X0052600Y0043361D01*
X0052600Y0041763D02*
X0085395Y0041763D01*
X0085395Y0041025D02*
X0077480Y0041025D01*
X0077480Y0038413D01*
X0077603Y0037956D01*
X0077840Y0037545D01*
X0078175Y0037210D01*
X0078586Y0036973D01*
X0079043Y0036850D01*
X0085395Y0036850D01*
X0085395Y0041025D01*
X0085395Y0042575D01*
X0077480Y0042575D01*
X0077480Y0045187D01*
X0077603Y0045644D01*
X0077840Y0046055D01*
X0078175Y0046390D01*
X0078586Y0046627D01*
X0079043Y0046750D01*
X0085395Y0046750D01*
X0085395Y0042575D01*
X0086945Y0042575D01*
X0086945Y0046750D01*
X0093297Y0046750D01*
X0093755Y0046627D01*
X0094165Y0046390D01*
X0094500Y0046055D01*
X0094737Y0045644D01*
X0094860Y0045187D01*
X0094860Y0042575D01*
X0086945Y0042575D01*
X0086945Y0041025D01*
X0086945Y0036850D01*
X0093297Y0036850D01*
X0093755Y0036973D01*
X0094165Y0037210D01*
X0094500Y0037545D01*
X0094737Y0037956D01*
X0094860Y0038413D01*
X0094860Y0041025D01*
X0086945Y0041025D01*
X0085395Y0041025D01*
X0085395Y0040164D02*
X0086945Y0040164D01*
X0086945Y0038566D02*
X0085395Y0038566D01*
X0085395Y0036967D02*
X0086945Y0036967D01*
X0086945Y0041763D02*
X0098740Y0041763D01*
X0098740Y0043361D02*
X0094860Y0043361D01*
X0094860Y0044960D02*
X0098740Y0044960D01*
X0099603Y0046558D02*
X0093873Y0046558D01*
X0093060Y0041800D02*
X0086800Y0041800D01*
X0086800Y0056800D01*
X0088701Y0064142D02*
X0035200Y0064142D01*
X0035549Y0065740D02*
X0088701Y0065740D01*
X0088701Y0067339D02*
X0070554Y0067339D01*
X0071120Y0068937D02*
X0088701Y0068937D01*
X0088875Y0070536D02*
X0071120Y0070536D01*
X0071120Y0073733D02*
X0094846Y0073733D01*
X0093532Y0075332D02*
X0071081Y0075332D01*
X0063205Y0075332D02*
X0061655Y0075332D01*
X0061655Y0073733D02*
X0063205Y0073733D01*
X0061655Y0072134D02*
X0049860Y0072134D01*
X0049860Y0070536D02*
X0053740Y0070536D01*
X0053740Y0068937D02*
X0049860Y0068937D01*
X0049294Y0067339D02*
X0054306Y0067339D01*
X0053740Y0073733D02*
X0049860Y0073733D01*
X0049860Y0075332D02*
X0053779Y0075332D01*
X0061655Y0070536D02*
X0063205Y0070536D01*
X0063205Y0068937D02*
X0061655Y0068937D01*
X0061655Y0067339D02*
X0063205Y0067339D01*
X0064102Y0054551D02*
X0106300Y0054551D01*
X0106300Y0052952D02*
X0064230Y0052952D01*
X0064230Y0051354D02*
X0106300Y0051354D01*
X0106300Y0049755D02*
X0064230Y0049755D01*
X0064230Y0048157D02*
X0106300Y0048157D01*
X0098740Y0040164D02*
X0094860Y0040164D01*
X0094860Y0038566D02*
X0098740Y0038566D01*
X0099678Y0036967D02*
X0093733Y0036967D01*
X0097363Y0032172D02*
X0064230Y0032172D01*
X0064230Y0033770D02*
X0098962Y0033770D01*
X0100560Y0035369D02*
X0064230Y0035369D01*
X0064230Y0036967D02*
X0078607Y0036967D01*
X0077480Y0038566D02*
X0064230Y0038566D01*
X0064230Y0040164D02*
X0077480Y0040164D01*
X0077480Y0043361D02*
X0064230Y0043361D01*
X0064230Y0044960D02*
X0077480Y0044960D01*
X0078467Y0046558D02*
X0064230Y0046558D01*
X0052600Y0046558D02*
X0051000Y0046558D01*
X0051000Y0044960D02*
X0052600Y0044960D01*
X0052600Y0048157D02*
X0051000Y0048157D01*
X0051000Y0049755D02*
X0052600Y0049755D01*
X0052600Y0051354D02*
X0051000Y0051354D01*
X0051000Y0052952D02*
X0052600Y0052952D01*
X0052600Y0054551D02*
X0051000Y0054551D01*
X0051000Y0040164D02*
X0052600Y0040164D01*
X0052600Y0038566D02*
X0051000Y0038566D01*
X0051000Y0036967D02*
X0052600Y0036967D01*
X0052600Y0035369D02*
X0051000Y0035369D01*
X0051000Y0033770D02*
X0052600Y0033770D01*
X0052600Y0032172D02*
X0051000Y0032172D01*
X0051000Y0030573D02*
X0052600Y0030573D01*
X0052600Y0028975D02*
X0051000Y0028975D01*
X0039431Y0028975D02*
X0035200Y0028975D01*
X0035200Y0030573D02*
X0039370Y0030573D01*
X0039370Y0032172D02*
X0035200Y0032172D01*
X0035200Y0033770D02*
X0039370Y0033770D01*
X0039370Y0035369D02*
X0035200Y0035369D01*
X0035200Y0036967D02*
X0039370Y0036967D01*
X0039370Y0038566D02*
X0035200Y0038566D01*
X0035200Y0040164D02*
X0039370Y0040164D01*
X0064230Y0030573D02*
X0095765Y0030573D01*
X0100586Y0025778D02*
X0133997Y0025778D01*
X0133819Y0027376D02*
X0102184Y0027376D01*
X0098987Y0024179D02*
X0135337Y0024179D01*
X0139781Y0027376D02*
X0149350Y0027376D01*
X0149350Y0028975D02*
X0139100Y0028975D01*
X0142371Y0030573D02*
X0149350Y0030573D01*
X0148176Y0032172D02*
X0142399Y0032172D01*
X0142399Y0033770D02*
X0147000Y0033770D01*
X0147000Y0035369D02*
X0142399Y0035369D01*
X0142399Y0036967D02*
X0147000Y0036967D01*
X0147000Y0038566D02*
X0143350Y0038566D01*
X0144999Y0040164D02*
X0147000Y0040164D01*
X0147000Y0041763D02*
X0145381Y0041763D01*
X0146614Y0043361D02*
X0147609Y0043361D01*
X0147820Y0044960D02*
X0148339Y0044960D01*
X0148339Y0046558D02*
X0147820Y0046558D01*
X0143220Y0046558D02*
X0137584Y0046558D01*
X0137584Y0046563D02*
X0139189Y0046563D01*
X0139268Y0046642D01*
X0139565Y0046563D01*
X0140402Y0046563D01*
X0140402Y0050312D01*
X0140402Y0050312D01*
X0140402Y0046563D01*
X0141239Y0046563D01*
X0141682Y0046681D01*
X0142124Y0046563D01*
X0142961Y0046563D01*
X0142961Y0050312D01*
X0142961Y0050312D01*
X0142961Y0050313D02*
X0140561Y0050313D01*
X0140402Y0050313D01*
X0140402Y0054063D01*
X0140402Y0050313D01*
X0140402Y0050313D01*
X0142961Y0050313D01*
X0142961Y0054063D01*
X0142961Y0050313D01*
X0142961Y0050313D01*
X0142961Y0050313D01*
X0142961Y0050312D02*
X0142961Y0046563D01*
X0143220Y0046563D01*
X0143220Y0046473D01*
X0142128Y0045381D01*
X0141088Y0045381D01*
X0139771Y0044836D01*
X0138764Y0043829D01*
X0138547Y0043305D01*
X0137584Y0044268D01*
X0137584Y0046563D01*
X0137584Y0044960D02*
X0140071Y0044960D01*
X0138571Y0043361D02*
X0138491Y0043361D01*
X0140402Y0048157D02*
X0140402Y0048157D01*
X0140402Y0049755D02*
X0140402Y0049755D01*
X0140402Y0050313D02*
X0140402Y0050313D01*
X0140402Y0051354D02*
X0140402Y0051354D01*
X0140402Y0052952D02*
X0140402Y0052952D01*
X0142961Y0052952D02*
X0142961Y0052952D01*
X0142961Y0051354D02*
X0142961Y0051354D01*
X0142961Y0049755D02*
X0142961Y0049755D01*
X0142961Y0048157D02*
X0142961Y0048157D01*
X0143985Y0054551D02*
X0126750Y0054551D01*
X0126750Y0056149D02*
X0143219Y0056149D01*
X0143316Y0057748D02*
X0126750Y0057748D01*
X0126164Y0059346D02*
X0144282Y0059346D01*
X0149318Y0059346D02*
X0153018Y0059346D01*
X0154616Y0057748D02*
X0150284Y0057748D01*
X0150381Y0056149D02*
X0156215Y0056149D01*
X0157877Y0054551D02*
X0150380Y0054551D01*
X0151419Y0060945D02*
X0126750Y0060945D01*
X0126750Y0062543D02*
X0149821Y0062543D01*
X0148222Y0064142D02*
X0126750Y0064142D01*
X0121800Y0066800D02*
X0141800Y0066800D01*
X0145520Y0070520D01*
X0144417Y0065740D02*
X0146624Y0065740D01*
X0132725Y0054063D02*
X0132725Y0050313D01*
X0132725Y0054063D01*
X0132725Y0052952D02*
X0132725Y0052952D01*
X0132725Y0051354D02*
X0132725Y0051354D01*
X0132725Y0050313D02*
X0132725Y0050313D01*
X0127766Y0052952D02*
X0126750Y0052952D01*
X0122280Y0052952D02*
X0121320Y0052952D01*
X0121320Y0051354D02*
X0122280Y0051354D01*
X0122280Y0054551D02*
X0121320Y0054551D01*
X0121800Y0066800D02*
X0113060Y0075540D01*
X0109300Y0075540D01*
X0112300Y0080127D02*
X0120220Y0080127D01*
X0119500Y0081726D02*
X0111747Y0081726D01*
X0111120Y0083324D02*
X0119500Y0083324D01*
X0119500Y0084923D02*
X0113600Y0084923D01*
X0115198Y0086521D02*
X0119500Y0086521D01*
X0119500Y0088120D02*
X0116797Y0088120D01*
X0118273Y0089596D02*
X0118273Y0089596D01*
X0118395Y0089718D02*
X0119500Y0089718D01*
X0119500Y0091317D02*
X0119400Y0091317D01*
X0119400Y0092915D02*
X0119500Y0092915D01*
X0119500Y0094514D02*
X0119400Y0094514D01*
X0119400Y0096112D02*
X0119500Y0096112D01*
X0119500Y0097711D02*
X0119400Y0097711D01*
X0119400Y0099309D02*
X0119500Y0099309D01*
X0119500Y0100908D02*
X0119400Y0100908D01*
X0119322Y0102506D02*
X0119500Y0102506D01*
X0119500Y0104105D02*
X0118172Y0104105D01*
X0119500Y0105703D02*
X0116574Y0105703D01*
X0114053Y0107302D02*
X0119500Y0107302D01*
X0119500Y0108900D02*
X0113997Y0108900D01*
X0109300Y0105540D02*
X0108060Y0104300D01*
X0104547Y0107302D02*
X0099899Y0107302D01*
X0099635Y0108900D02*
X0098997Y0108900D01*
X0103965Y0108900D02*
X0104603Y0108900D01*
X0105137Y0110499D02*
X0119500Y0110499D01*
X0119500Y0112097D02*
X0105381Y0112097D01*
X0104891Y0113696D02*
X0119500Y0113696D01*
X0119500Y0115294D02*
X0104400Y0115294D01*
X0104400Y0116893D02*
X0119500Y0116893D01*
X0119500Y0118491D02*
X0104400Y0118491D01*
X0104400Y0120090D02*
X0119500Y0120090D01*
X0119500Y0121688D02*
X0104400Y0121688D01*
X0104400Y0123287D02*
X0119500Y0123287D01*
X0119500Y0124885D02*
X0104400Y0124885D01*
X0104400Y0126484D02*
X0119500Y0126484D01*
X0119500Y0128082D02*
X0108108Y0128082D01*
X0105146Y0131800D02*
X0106800Y0133454D01*
X0105146Y0131800D02*
X0101800Y0128454D01*
X0101800Y0111800D01*
X0099899Y0100908D02*
X0104561Y0100908D01*
X0104547Y0099309D02*
X0073285Y0099309D01*
X0065395Y0099309D02*
X0063795Y0099309D01*
X0063795Y0097711D02*
X0065395Y0097711D01*
X0065395Y0096112D02*
X0063795Y0096112D01*
X0063795Y0102600D02*
X0055906Y0102600D01*
X0055906Y0106958D01*
X0056028Y0107416D01*
X0056265Y0107826D01*
X0056600Y0108162D01*
X0057011Y0108399D01*
X0057469Y0108521D01*
X0063795Y0108521D01*
X0063795Y0102600D01*
X0063795Y0104105D02*
X0065395Y0104105D01*
X0065395Y0105703D02*
X0063795Y0105703D01*
X0063795Y0107302D02*
X0065395Y0107302D01*
X0055998Y0107302D02*
X0047694Y0107302D01*
X0047694Y0105703D02*
X0055906Y0105703D01*
X0055906Y0104105D02*
X0047694Y0104105D01*
X0039005Y0101800D02*
X0031800Y0101800D01*
X0042405Y0083324D02*
X0072504Y0083324D01*
X0080395Y0083324D02*
X0081945Y0083324D01*
X0081945Y0084923D02*
X0080395Y0084923D01*
X0080395Y0088120D02*
X0081945Y0088120D01*
X0081945Y0089718D02*
X0080395Y0089718D01*
X0080395Y0091317D02*
X0081945Y0091317D01*
X0089860Y0084923D02*
X0093740Y0084923D01*
X0093740Y0083324D02*
X0089836Y0083324D01*
X0092580Y0070536D02*
X0093539Y0070536D01*
X0093539Y0068937D02*
X0092580Y0068937D01*
X0092580Y0067339D02*
X0093539Y0067339D01*
X0114250Y0078529D02*
X0121819Y0078529D01*
X0123417Y0076930D02*
X0115347Y0076930D01*
X0116945Y0075332D02*
X0125016Y0075332D01*
X0126614Y0073733D02*
X0118544Y0073733D01*
X0120142Y0072134D02*
X0127766Y0072134D01*
X0127822Y0070536D02*
X0121741Y0070536D01*
X0129815Y0077037D02*
X0124100Y0082753D01*
X0124100Y0106319D01*
X0125925Y0106319D01*
X0125925Y0100188D01*
X0126980Y0099134D01*
X0130425Y0099134D01*
X0130425Y0077037D01*
X0129815Y0077037D01*
X0130425Y0078529D02*
X0128324Y0078529D01*
X0126726Y0080127D02*
X0130425Y0080127D01*
X0130425Y0081726D02*
X0125127Y0081726D01*
X0124100Y0083324D02*
X0130425Y0083324D01*
X0130425Y0084923D02*
X0124100Y0084923D01*
X0124100Y0086521D02*
X0130425Y0086521D01*
X0130425Y0088120D02*
X0124100Y0088120D01*
X0124100Y0089718D02*
X0130425Y0089718D01*
X0130425Y0091317D02*
X0124100Y0091317D01*
X0124100Y0092915D02*
X0130425Y0092915D01*
X0130425Y0094514D02*
X0124100Y0094514D01*
X0124100Y0096112D02*
X0130425Y0096112D01*
X0130425Y0097711D02*
X0124100Y0097711D01*
X0124100Y0099309D02*
X0126804Y0099309D01*
X0125925Y0100908D02*
X0124100Y0100908D01*
X0124100Y0102506D02*
X0125925Y0102506D01*
X0125925Y0104105D02*
X0124100Y0104105D01*
X0124100Y0105703D02*
X0125925Y0105703D01*
X0125954Y0109300D02*
X0128681Y0109300D01*
X0132646Y0109300D01*
X0132646Y0109300D01*
X0125954Y0109300D01*
X0125954Y0109300D01*
X0125925Y0113696D02*
X0124100Y0113696D01*
X0124100Y0115294D02*
X0125925Y0115294D01*
X0125925Y0116893D02*
X0124100Y0116893D01*
X0124100Y0118491D02*
X0126005Y0118491D01*
X0127000Y0120090D02*
X0124100Y0120090D01*
X0124100Y0121688D02*
X0127000Y0121688D01*
X0127000Y0123287D02*
X0124100Y0123287D01*
X0124100Y0124885D02*
X0127000Y0124885D01*
X0135954Y0114300D02*
X0142646Y0114300D01*
X0138681Y0114300D01*
X0135954Y0114300D01*
X0135954Y0114300D01*
X0142646Y0114300D02*
X0142646Y0114300D01*
X0142647Y0114300D01*
X0142647Y0112220D01*
X0142646Y0112220D01*
X0142646Y0114300D01*
X0142646Y0113696D02*
X0142647Y0113696D01*
X0145954Y0109300D02*
X0152646Y0109300D01*
X0148681Y0109300D01*
X0145954Y0109300D01*
X0145954Y0109300D01*
X0152646Y0109300D02*
X0152646Y0109300D01*
X0152646Y0111380D01*
X0152647Y0111380D01*
X0152647Y0109300D01*
X0152646Y0109300D01*
X0152646Y0110499D02*
X0152647Y0110499D01*
X0155954Y0114300D02*
X0155954Y0114300D01*
X0162646Y0114300D01*
X0158681Y0114300D01*
X0155954Y0114300D01*
X0162646Y0114300D02*
X0162646Y0114300D01*
X0168454Y0116800D02*
X0168454Y0116800D01*
X0166369Y0102506D02*
X0176754Y0102506D01*
X0175155Y0100908D02*
X0164771Y0100908D01*
X0163172Y0099309D02*
X0173557Y0099309D01*
X0166958Y0097711D02*
X0161574Y0097711D01*
X0132647Y0109300D02*
X0132646Y0109300D01*
X0132646Y0111380D01*
X0132647Y0111380D01*
X0132647Y0109300D01*
X0132646Y0110499D02*
X0132647Y0110499D01*
X0114200Y0099309D02*
X0114053Y0099309D01*
X0114200Y0097711D02*
X0109780Y0097711D01*
X0109780Y0097580D02*
X0114053Y0097580D01*
X0114053Y0095264D01*
X0113930Y0094806D01*
X0113693Y0094396D01*
X0113358Y0094060D01*
X0112948Y0093823D01*
X0112490Y0093701D01*
X0109780Y0093701D01*
X0109780Y0097580D01*
X0109780Y0096112D02*
X0108820Y0096112D01*
X0108820Y0094514D02*
X0109780Y0094514D01*
X0113761Y0094514D02*
X0114200Y0094514D01*
X0114200Y0096112D02*
X0114053Y0096112D01*
X0099200Y0126484D02*
X0071891Y0126484D01*
X0071863Y0126381D02*
X0071986Y0126839D01*
X0071986Y0131000D01*
X0066261Y0131000D01*
X0066261Y0125276D01*
X0070423Y0125276D01*
X0070881Y0125398D01*
X0071291Y0125635D01*
X0071626Y0125970D01*
X0071863Y0126381D01*
X0071986Y0128082D02*
X0095861Y0128082D01*
X0094488Y0129681D02*
X0071986Y0129681D01*
X0066261Y0129681D02*
X0064661Y0129681D01*
X0064661Y0131000D02*
X0064661Y0125276D01*
X0060500Y0125276D01*
X0060042Y0125398D01*
X0059632Y0125635D01*
X0059297Y0125970D01*
X0059060Y0126381D01*
X0058937Y0126839D01*
X0058937Y0131000D01*
X0064661Y0131000D01*
X0064661Y0132600D01*
X0058937Y0132600D01*
X0058937Y0136761D01*
X0059060Y0137219D01*
X0059297Y0137630D01*
X0059632Y0137965D01*
X0060042Y0138202D01*
X0060500Y0138324D01*
X0064661Y0138324D01*
X0064661Y0132600D01*
X0066261Y0132600D01*
X0066261Y0138324D01*
X0070423Y0138324D01*
X0070881Y0138202D01*
X0071291Y0137965D01*
X0071626Y0137630D01*
X0071863Y0137219D01*
X0071986Y0136761D01*
X0071986Y0132600D01*
X0066261Y0132600D01*
X0066261Y0131000D01*
X0064661Y0131000D01*
X0064661Y0131279D02*
X0054663Y0131279D01*
X0054663Y0129681D02*
X0058937Y0129681D01*
X0058937Y0128082D02*
X0054663Y0128082D01*
X0054663Y0126484D02*
X0059032Y0126484D01*
X0064661Y0126484D02*
X0066261Y0126484D01*
X0066261Y0128082D02*
X0064661Y0128082D01*
X0066261Y0131279D02*
X0094488Y0131279D01*
X0094488Y0131984D02*
X0098269Y0131984D01*
X0098269Y0135568D01*
X0096051Y0135568D01*
X0095593Y0135446D01*
X0095183Y0135209D01*
X0094848Y0134874D01*
X0094611Y0134463D01*
X0094488Y0134005D01*
X0094488Y0131984D01*
X0094488Y0132878D02*
X0071986Y0132878D01*
X0071986Y0134476D02*
X0094618Y0134476D01*
X0098269Y0134476D02*
X0098638Y0134476D01*
X0098638Y0132878D02*
X0098269Y0132878D01*
X0099300Y0132646D02*
X0099300Y0139300D01*
X0104400Y0137673D02*
X0071582Y0137673D01*
X0071986Y0136075D02*
X0104400Y0136075D01*
X0104300Y0132646D02*
X0105146Y0131800D01*
X0099300Y0132646D02*
X0098454Y0131800D01*
X0098269Y0131279D02*
X0098638Y0131279D01*
X0098638Y0129681D02*
X0098269Y0129681D01*
X0098269Y0128082D02*
X0098638Y0128082D01*
X0106800Y0148690D02*
X0106800Y0154300D01*
X0104300Y0156800D01*
X0114591Y0169644D02*
X0120967Y0169644D01*
X0122565Y0171242D02*
X0114781Y0171242D01*
X0114781Y0172841D02*
X0124164Y0172841D01*
X0119096Y0174439D02*
X0114781Y0174439D01*
X0114781Y0176038D02*
X0118240Y0176038D01*
X0118270Y0177636D02*
X0114781Y0177636D01*
X0114781Y0179235D02*
X0119170Y0179235D01*
X0118090Y0180833D02*
X0113934Y0180833D01*
X0109666Y0180833D02*
X0109400Y0180833D01*
X0121800Y0176800D02*
X0126800Y0176800D01*
X0125568Y0185629D02*
X0131952Y0185629D01*
X0133550Y0187227D02*
X0125560Y0187227D01*
X0125568Y0188826D02*
X0135149Y0188826D01*
X0136747Y0190424D02*
X0125568Y0190424D01*
X0125568Y0192023D02*
X0138346Y0192023D01*
X0139944Y0193621D02*
X0125005Y0193621D01*
X0106887Y0195220D02*
X0106713Y0195220D01*
X0082945Y0185629D02*
X0080959Y0185629D01*
X0080954Y0189300D02*
X0076800Y0185146D01*
X0090146Y0176800D02*
X0094910Y0176800D01*
X0096800Y0174910D01*
X0057000Y0188826D02*
X0056600Y0188826D01*
X0056600Y0190424D02*
X0057000Y0190424D01*
X0057525Y0192023D02*
X0056075Y0192023D01*
X0057298Y0193621D02*
X0058833Y0193621D01*
X0141800Y0181800D02*
X0152950Y0181800D01*
X0145146Y0159891D02*
X0144083Y0158828D01*
X0146111Y0156800D01*
X0152950Y0156800D01*
X0066261Y0137673D02*
X0064661Y0137673D01*
X0064661Y0136075D02*
X0066261Y0136075D01*
X0066261Y0134476D02*
X0064661Y0134476D01*
X0064661Y0132878D02*
X0066261Y0132878D01*
X0065461Y0131800D02*
X0064595Y0131800D01*
X0058937Y0132878D02*
X0054663Y0132878D01*
X0054663Y0134476D02*
X0058937Y0134476D01*
X0058937Y0136075D02*
X0054663Y0136075D01*
X0054260Y0137673D02*
X0059340Y0137673D01*
X0048139Y0133926D02*
X0048139Y0131800D01*
X0041614Y0131279D02*
X0040687Y0131279D01*
X0040687Y0129681D02*
X0041614Y0129681D01*
X0165834Y0052952D02*
X0179700Y0052952D01*
X0178101Y0051354D02*
X0176750Y0051354D01*
X0184615Y0054551D02*
X0187064Y0054551D01*
X0166850Y0051354D02*
X0165834Y0051354D01*
X0164100Y0041247D02*
X0164500Y0040847D01*
X0165847Y0039500D01*
X0166850Y0039500D01*
X0166850Y0037058D01*
X0167905Y0036004D01*
X0175695Y0036004D01*
X0176750Y0037058D01*
X0176750Y0038063D01*
X0176850Y0038063D01*
X0176850Y0035843D01*
X0181320Y0035843D01*
X0181320Y0034883D01*
X0176850Y0034883D01*
X0176850Y0032567D01*
X0176973Y0032109D01*
X0177210Y0031699D01*
X0177309Y0031600D01*
X0176910Y0031600D01*
X0175563Y0030253D01*
X0172906Y0027596D01*
X0170694Y0027596D01*
X0164100Y0034190D01*
X0164100Y0041247D01*
X0164100Y0040164D02*
X0165183Y0040164D01*
X0164100Y0038566D02*
X0166850Y0038566D01*
X0166941Y0036967D02*
X0164100Y0036967D01*
X0164100Y0035369D02*
X0181320Y0035369D01*
X0186750Y0033504D02*
X0186750Y0032675D01*
X0191319Y0032675D01*
X0191319Y0033504D01*
X0189780Y0033504D01*
X0189780Y0037383D01*
X0188820Y0037383D01*
X0188820Y0033504D01*
X0186750Y0033504D01*
X0188820Y0033770D02*
X0189780Y0033770D01*
X0189780Y0035369D02*
X0188820Y0035369D01*
X0188820Y0036967D02*
X0189780Y0036967D01*
X0199910Y0029300D02*
X0236800Y0029300D01*
X0239300Y0031800D01*
X0233489Y0025778D02*
X0206915Y0025778D01*
X0207281Y0024179D02*
X0232090Y0024179D01*
X0231500Y0022581D02*
X0208506Y0022581D01*
X0204910Y0019300D02*
X0236800Y0019300D01*
X0239300Y0021800D01*
X0239100Y0016187D02*
X0239500Y0016187D01*
X0239500Y0014588D02*
X0239100Y0014588D01*
X0239100Y0012990D02*
X0239500Y0012990D01*
X0234336Y0016187D02*
X0209129Y0016187D01*
X0209781Y0014588D02*
X0232393Y0014588D01*
X0231640Y0012990D02*
X0209484Y0012990D01*
X0204116Y0012990D02*
X0202098Y0012990D01*
X0202281Y0014588D02*
X0203819Y0014588D01*
X0233118Y0008194D02*
X0063732Y0008194D01*
X0016352Y0008194D02*
X0010942Y0008194D01*
X0010942Y0006596D02*
X0336897Y0006596D01*
X0336897Y0008194D02*
X0331764Y0008194D01*
X0334048Y0009793D02*
X0336897Y0009793D01*
X0336897Y0011391D02*
X0335565Y0011391D01*
X0336555Y0012990D02*
X0336897Y0012990D01*
X0336897Y0004997D02*
X0010942Y0004997D01*
X0010942Y0009793D02*
X0013719Y0009793D01*
X0012262Y0011391D02*
X0010942Y0011391D01*
X0010942Y0012990D02*
X0011297Y0012990D01*
X0085395Y0043361D02*
X0086945Y0043361D01*
X0086800Y0041800D02*
X0086170Y0041800D01*
X0085395Y0044960D02*
X0086945Y0044960D01*
X0086945Y0046558D02*
X0085395Y0046558D01*
X0130257Y0040164D02*
X0131217Y0040164D01*
X0131039Y0038566D02*
X0130257Y0038566D01*
X0130257Y0036967D02*
X0131039Y0036967D01*
X0131039Y0035369D02*
X0130080Y0035369D01*
X0164519Y0033770D02*
X0176850Y0033770D01*
X0176956Y0032172D02*
X0166118Y0032172D01*
X0167716Y0030573D02*
X0175884Y0030573D01*
X0174285Y0028975D02*
X0169315Y0028975D01*
X0176659Y0036967D02*
X0176850Y0036967D01*
X0204529Y0035369D02*
X0209166Y0035369D01*
X0208380Y0036967D02*
X0204781Y0036967D01*
X0214250Y0038566D02*
X0221357Y0038566D01*
X0222956Y0036967D02*
X0214781Y0036967D01*
X0214434Y0035369D02*
X0224554Y0035369D01*
X0224596Y0035327D02*
X0224596Y0035327D01*
X0227113Y0040164D02*
X0231784Y0040164D01*
X0261800Y0031800D02*
X0266800Y0031800D01*
X0267000Y0037000D02*
X0270178Y0037000D01*
X0270924Y0037118D01*
X0271643Y0037352D01*
X0272316Y0037695D01*
X0272927Y0038139D01*
X0273461Y0038673D01*
X0273905Y0039284D01*
X0274248Y0039957D01*
X0274482Y0040676D01*
X0274600Y0041422D01*
X0274600Y0041600D01*
X0267000Y0041600D01*
X0267000Y0037000D01*
X0267000Y0038566D02*
X0266600Y0038566D01*
X0266600Y0040164D02*
X0267000Y0040164D01*
X0267000Y0042000D02*
X0274600Y0042000D01*
X0274600Y0042178D01*
X0274482Y0042924D01*
X0274248Y0043643D01*
X0273905Y0044316D01*
X0273461Y0044927D01*
X0272927Y0045461D01*
X0272316Y0045905D01*
X0271643Y0046248D01*
X0270924Y0046482D01*
X0270178Y0046600D01*
X0267000Y0046600D01*
X0267000Y0042000D01*
X0267000Y0043361D02*
X0266600Y0043361D01*
X0266600Y0044960D02*
X0267000Y0044960D01*
X0267000Y0046558D02*
X0266600Y0046558D01*
X0270441Y0046558D02*
X0278365Y0046558D01*
X0279963Y0044960D02*
X0273428Y0044960D01*
X0274340Y0043361D02*
X0287950Y0043361D01*
X0287876Y0040164D02*
X0274316Y0040164D01*
X0273354Y0038566D02*
X0286827Y0038566D01*
X0286718Y0035369D02*
X0273019Y0035369D01*
X0274179Y0033770D02*
X0287568Y0033770D01*
X0290011Y0032172D02*
X0274600Y0032172D01*
X0272945Y0048157D02*
X0276766Y0048157D01*
X0275168Y0049755D02*
X0274149Y0049755D01*
X0279325Y0052952D02*
X0288359Y0052952D01*
X0289751Y0051354D02*
X0280923Y0051354D01*
X0282522Y0049755D02*
X0287467Y0049755D01*
D40*
X0109300Y0044335D02*
X0109300Y0068060D01*
X0109300Y0075540D02*
X0109300Y0079930D01*
X0102430Y0086800D01*
X0031800Y0101800D02*
X0031800Y0133926D01*
X0031800Y0149674D02*
X0050304Y0149674D01*
X0050304Y0151800D02*
X0040914Y0161190D01*
X0036800Y0172410D02*
X0036800Y0181800D01*
X0031800Y0186800D01*
D41*
X0039005Y0101800D02*
X0039005Y0073965D01*
X0041170Y0071800D01*
X0036800Y0071800D01*
X0031800Y0066800D01*
X0031800Y0023926D01*
X0042824Y0012902D01*
X0060776Y0012902D02*
X0069674Y0021800D01*
X0091800Y0021800D01*
X0107430Y0037430D01*
X0107430Y0041800D01*
X0086170Y0041800D02*
X0061800Y0041800D01*
X0061800Y0069005D01*
X0064595Y0071800D01*
X0061800Y0041800D02*
X0051957Y0041800D01*
X0051800Y0041643D01*
D42*
X0046800Y0041800D03*
X0046800Y0036800D03*
X0046800Y0031800D03*
X0056800Y0031800D03*
X0056800Y0036800D03*
X0056800Y0041800D03*
X0086800Y0056800D03*
X0096800Y0076800D03*
X0126800Y0086800D03*
X0146800Y0079300D03*
X0176800Y0071800D03*
X0194300Y0079300D03*
X0194300Y0091800D03*
X0181800Y0056800D03*
X0146800Y0056800D03*
X0131800Y0056800D03*
X0141800Y0041800D03*
X0146800Y0016800D03*
X0101800Y0111800D03*
X0111800Y0121800D03*
X0099300Y0139300D03*
X0104300Y0156800D03*
X0081800Y0171800D03*
X0066800Y0161800D03*
X0116800Y0181800D03*
X0121800Y0176800D03*
X0141800Y0171800D03*
X0166800Y0166800D03*
X0196800Y0186800D03*
X0201800Y0171800D03*
X0209300Y0164300D03*
X0209300Y0159300D03*
X0229300Y0169300D03*
X0229300Y0174300D03*
X0229300Y0179300D03*
X0236800Y0186800D03*
X0241800Y0196800D03*
X0261800Y0181800D03*
X0251800Y0179300D03*
X0281800Y0161800D03*
X0291800Y0161800D03*
X0299300Y0156800D03*
X0254300Y0149300D03*
X0266800Y0126800D03*
X0151800Y0141800D03*
D43*
X0154300Y0134300D02*
X0161800Y0141800D01*
X0201800Y0141800D01*
X0214900Y0154900D01*
X0240776Y0154900D01*
X0243926Y0154900D02*
X0243926Y0148926D01*
X0241800Y0146800D01*
X0211800Y0146800D01*
X0204300Y0139300D01*
X0164300Y0139300D01*
X0156800Y0131800D01*
X0141800Y0131800D01*
X0136800Y0126800D01*
X0131800Y0126800D01*
X0129300Y0124300D01*
X0129300Y0121800D01*
X0131800Y0121800D01*
X0129300Y0121800D02*
X0129300Y0114910D01*
X0132646Y0110993D02*
X0135954Y0114300D01*
X0142646Y0114300D01*
X0142646Y0112607D01*
X0145954Y0109300D01*
X0152646Y0109300D01*
X0152646Y0110993D01*
X0155954Y0114300D01*
X0162646Y0114300D01*
X0165954Y0114300D01*
X0168454Y0116800D01*
X0175146Y0116800D01*
X0172410Y0121800D02*
X0171800Y0122410D01*
X0178690Y0129300D01*
X0214300Y0129300D01*
X0221800Y0136800D01*
X0251800Y0136800D01*
X0262824Y0147824D01*
X0262824Y0154900D01*
X0259674Y0154900D02*
X0259674Y0149674D01*
X0249300Y0139300D01*
X0219300Y0139300D01*
X0211800Y0131800D01*
X0171800Y0131800D01*
X0159910Y0119910D01*
X0159300Y0119910D01*
X0157410Y0121800D01*
X0154300Y0121800D01*
X0149300Y0121800D02*
X0149300Y0124300D01*
X0151800Y0126800D01*
X0161800Y0126800D01*
X0169300Y0134300D01*
X0209300Y0134300D01*
X0216800Y0141800D01*
X0244300Y0141800D01*
X0250225Y0147725D01*
X0250225Y0154900D01*
X0247076Y0154900D02*
X0246800Y0154624D01*
X0246800Y0149300D01*
X0241800Y0144300D01*
X0214300Y0144300D01*
X0206800Y0136800D01*
X0166800Y0136800D01*
X0159300Y0129300D01*
X0144300Y0129300D01*
X0139300Y0124300D01*
X0144300Y0124300D01*
X0149300Y0121800D02*
X0149300Y0114910D01*
X0139300Y0119910D02*
X0139300Y0124300D01*
X0134300Y0129300D02*
X0134300Y0133690D01*
X0134910Y0134300D01*
X0154300Y0134300D01*
X0172410Y0121800D02*
X0179300Y0121800D01*
X0171800Y0111190D02*
X0142961Y0082351D01*
X0142961Y0073287D01*
X0140402Y0073287D02*
X0140402Y0085402D01*
X0159300Y0104300D01*
X0159300Y0108690D01*
X0149300Y0103690D02*
X0137843Y0092233D01*
X0137843Y0073287D01*
X0135284Y0073287D02*
X0135284Y0104674D01*
X0139300Y0108690D01*
X0132646Y0109300D02*
X0132646Y0110993D01*
X0132646Y0109300D02*
X0125954Y0109300D01*
X0124300Y0110954D01*
X0124300Y0124300D01*
X0129300Y0129300D01*
X0129300Y0130954D01*
X0129300Y0137646D01*
X0123690Y0134300D02*
X0121800Y0132410D01*
X0121800Y0081800D01*
X0130166Y0073434D01*
X0130166Y0073287D01*
X0132725Y0073287D02*
X0132725Y0100265D01*
X0129300Y0103690D01*
X0155757Y0075757D02*
X0166800Y0086800D01*
X0210363Y0086800D01*
X0210363Y0084300D02*
X0166800Y0084300D01*
X0158316Y0075816D01*
X0158316Y0073287D01*
X0160875Y0073287D02*
X0160875Y0067725D01*
X0161800Y0066800D01*
X0192863Y0066800D01*
X0194300Y0065363D01*
X0209300Y0065363D01*
X0209300Y0061190D01*
X0211190Y0059300D01*
X0216800Y0055954D02*
X0216800Y0062646D01*
X0220107Y0065954D01*
X0221800Y0065954D01*
X0221800Y0072646D01*
X0221209Y0073237D01*
X0209300Y0073237D01*
X0204300Y0078237D01*
X0201800Y0078237D01*
X0195363Y0078237D01*
X0194300Y0079300D01*
X0188237Y0079300D02*
X0194300Y0073237D01*
X0198926Y0073237D01*
X0201800Y0070363D01*
X0202863Y0069300D01*
X0216190Y0069300D01*
X0227410Y0069300D02*
X0227410Y0073690D01*
X0226800Y0074300D01*
X0234300Y0074300D02*
X0236800Y0071800D01*
X0255146Y0071800D01*
X0259300Y0075954D01*
X0259300Y0082646D02*
X0261800Y0085146D01*
X0261800Y0090954D01*
X0249517Y0090954D01*
X0246800Y0088237D01*
X0244300Y0094300D02*
X0239300Y0089300D01*
X0234300Y0085737D01*
X0236800Y0091800D02*
X0236800Y0098040D01*
X0235540Y0099300D01*
X0260146Y0099300D01*
X0261800Y0097646D01*
X0261800Y0096800D01*
X0261800Y0090954D01*
X0256190Y0094300D02*
X0244300Y0094300D01*
X0228060Y0099300D02*
X0219910Y0099300D01*
X0214300Y0095954D02*
X0204891Y0095954D01*
X0201800Y0092863D01*
X0203237Y0099300D02*
X0208690Y0099300D01*
X0203237Y0099300D02*
X0201800Y0100737D01*
X0192174Y0100737D01*
X0191800Y0100363D01*
X0180363Y0100363D01*
X0174300Y0094300D01*
X0169300Y0094300D01*
X0153198Y0078198D01*
X0153198Y0073287D01*
X0155757Y0073287D02*
X0155757Y0075757D01*
X0150639Y0078139D02*
X0150639Y0073287D01*
X0148080Y0073287D02*
X0148080Y0078080D01*
X0146800Y0079300D01*
X0150639Y0078139D02*
X0169300Y0096800D01*
X0174300Y0096800D01*
X0185737Y0108237D01*
X0191800Y0108237D01*
X0201426Y0108237D01*
X0201800Y0107863D01*
X0204753Y0107863D01*
X0208690Y0111800D01*
X0203237Y0115737D02*
X0206800Y0119300D01*
X0211800Y0119300D01*
X0214300Y0116800D01*
X0214300Y0108454D01*
X0214300Y0102646D01*
X0214300Y0095954D01*
X0219910Y0111800D02*
X0228060Y0111800D01*
X0235540Y0111800D02*
X0235540Y0118040D01*
X0236800Y0119300D01*
X0203237Y0115737D02*
X0201800Y0115737D01*
X0201426Y0115363D01*
X0199300Y0151800D02*
X0206800Y0151800D01*
X0211800Y0156800D01*
X0236800Y0156800D01*
X0240776Y0160776D01*
X0268700Y0160776D01*
X0234900Y0160776D02*
X0210776Y0160776D01*
X0209300Y0159300D01*
X0206800Y0156800D01*
X0204300Y0159300D02*
X0208926Y0163926D01*
X0209674Y0163926D01*
X0211800Y0163926D01*
X0234900Y0163926D01*
X0209674Y0163926D02*
X0209300Y0164300D01*
X0201800Y0161800D02*
X0222824Y0182824D01*
X0234900Y0182824D01*
X0236800Y0186800D02*
X0238700Y0188700D01*
X0240776Y0188700D01*
X0243926Y0188700D02*
X0244300Y0189074D01*
X0244300Y0194300D01*
X0241800Y0196800D01*
X0221800Y0196800D01*
X0216800Y0191800D01*
X0216800Y0181800D01*
X0201800Y0166800D01*
X0190650Y0166800D01*
X0190650Y0161800D02*
X0201800Y0161800D01*
X0196800Y0156800D02*
X0199300Y0151800D01*
X0196800Y0156800D02*
X0190650Y0156800D01*
X0190650Y0171800D02*
X0201800Y0171800D01*
X0206800Y0176800D02*
X0190650Y0176800D01*
X0190650Y0181800D02*
X0200954Y0181800D01*
X0201800Y0180954D01*
X0206800Y0176800D02*
X0211800Y0181800D01*
X0211800Y0196800D01*
X0216800Y0201800D01*
X0241800Y0201800D01*
X0246800Y0196800D01*
X0246800Y0188976D01*
X0247076Y0188700D01*
X0201800Y0187646D02*
X0197646Y0187646D01*
X0196800Y0186800D01*
X0271800Y0099300D02*
X0271800Y0098690D01*
X0267410Y0094300D01*
X0234300Y0077863D02*
X0234300Y0074300D01*
X0222410Y0059300D02*
X0222410Y0058690D01*
X0221800Y0054300D01*
X0216800Y0055954D02*
X0197607Y0055954D01*
X0196800Y0055146D01*
X0196800Y0048454D01*
X0198493Y0048454D01*
X0201800Y0045146D01*
X0201800Y0038454D01*
X0195993Y0032646D01*
X0194300Y0032646D01*
X0189300Y0037646D01*
X0189300Y0037863D01*
X0189891Y0038454D01*
X0189300Y0037863D02*
X0186800Y0035363D01*
X0181800Y0035363D01*
X0184300Y0029300D02*
X0177863Y0029300D01*
X0171800Y0023237D01*
X0161800Y0033237D01*
X0161800Y0041800D01*
X0158316Y0045284D01*
X0158316Y0050313D01*
X0160875Y0050313D02*
X0160875Y0047725D01*
X0166800Y0041800D01*
X0170363Y0041800D01*
X0171800Y0040363D01*
X0178926Y0040363D01*
X0181800Y0043237D01*
X0183237Y0041800D01*
X0196190Y0041800D01*
X0189300Y0045737D02*
X0189300Y0049910D01*
X0191190Y0051800D01*
X0181800Y0051800D01*
X0178237Y0048237D01*
X0171800Y0048237D01*
X0165509Y0048237D01*
X0163434Y0050313D01*
X0155757Y0050313D02*
X0155757Y0045343D01*
X0159300Y0041800D01*
X0159300Y0029300D01*
X0166800Y0021800D01*
X0166800Y0016800D01*
X0168237Y0015363D01*
X0171800Y0015363D01*
X0173926Y0015363D01*
X0179300Y0020737D01*
X0180737Y0019300D01*
X0193690Y0019300D01*
X0199300Y0022646D02*
X0195993Y0025954D01*
X0194300Y0025954D01*
X0194300Y0032646D01*
X0188690Y0029300D02*
X0186800Y0027410D01*
X0186800Y0023237D01*
X0186800Y0026800D01*
X0184300Y0029300D01*
X0199910Y0029300D02*
X0199910Y0028690D01*
X0204300Y0024300D01*
X0199300Y0022646D02*
X0199300Y0015954D01*
X0186800Y0015954D01*
X0186800Y0015363D02*
X0184300Y0012863D01*
X0179300Y0012863D01*
X0204910Y0019300D02*
X0206800Y0017410D01*
X0206800Y0014300D01*
X0211800Y0036800D02*
X0207410Y0041190D01*
X0207410Y0041800D01*
X0206800Y0051800D02*
X0214300Y0051800D01*
X0188237Y0079300D02*
X0166800Y0079300D01*
X0163434Y0075934D01*
X0163434Y0073287D01*
X0145520Y0073287D02*
X0145520Y0070520D01*
X0146800Y0056800D02*
X0148080Y0055520D01*
X0148080Y0050313D01*
X0150639Y0050313D02*
X0150639Y0043139D01*
X0149300Y0041800D01*
X0149300Y0034300D01*
X0151800Y0031800D01*
X0152863Y0031800D01*
X0154300Y0030363D01*
X0154300Y0038237D02*
X0153198Y0039339D01*
X0153198Y0050313D01*
X0145520Y0050313D02*
X0145520Y0045520D01*
X0141800Y0041800D01*
X0138040Y0040560D02*
X0135284Y0043316D01*
X0135284Y0050313D01*
X0132725Y0050313D02*
X0132725Y0052725D01*
X0134300Y0054300D01*
X0131800Y0056800D01*
X0130363Y0055363D01*
X0121800Y0055363D01*
X0127813Y0050313D02*
X0124300Y0046800D01*
X0124300Y0043237D01*
X0122863Y0041800D01*
X0122863Y0044002D01*
X0109632Y0044002D01*
X0107430Y0041800D01*
X0127813Y0050313D02*
X0130166Y0050313D01*
X0132725Y0050313D02*
X0132725Y0043788D01*
X0130737Y0041800D01*
X0130737Y0034477D01*
X0130560Y0034300D01*
X0136800Y0033060D02*
X0138040Y0034300D01*
X0138040Y0040560D01*
X0136800Y0033060D02*
X0136800Y0026800D01*
X0140402Y0050313D02*
X0142961Y0050313D01*
X0140402Y0050313D02*
X0140402Y0053198D01*
X0139300Y0054300D01*
X0134300Y0054300D01*
X0131800Y0056800D02*
X0130560Y0055560D01*
X0121800Y0063237D02*
X0121800Y0066800D01*
X0111553Y0070313D02*
X0109300Y0068060D01*
X0086800Y0066800D02*
X0086800Y0056800D01*
D44*
X0109300Y0044335D02*
X0109632Y0044002D01*
X0194300Y0091800D02*
X0201800Y0091800D01*
X0201800Y0092863D01*
X0210363Y0086800D02*
X0211800Y0088237D01*
X0214300Y0088237D01*
X0216800Y0085737D01*
X0234300Y0085737D01*
X0241800Y0081800D02*
X0243237Y0080363D01*
X0246800Y0080363D01*
X0247863Y0079300D01*
X0253690Y0079300D01*
X0259300Y0082646D02*
X0259300Y0075954D01*
X0264910Y0079300D02*
X0269910Y0084300D01*
X0271800Y0084300D01*
X0261800Y0096800D02*
X0266800Y0101800D01*
X0286800Y0101800D01*
X0311800Y0076800D01*
X0321800Y0076800D01*
X0241800Y0081800D02*
X0215737Y0081800D01*
X0214300Y0080363D01*
X0210363Y0084300D01*
X0221800Y0076800D02*
X0221800Y0072646D01*
X0221800Y0076800D02*
X0224300Y0079300D01*
X0232863Y0079300D01*
X0304300Y0141800D02*
X0314300Y0131800D01*
X0314300Y0141800D02*
X0309300Y0146800D01*
X0296800Y0146800D01*
X0291800Y0151800D01*
X0291800Y0161800D01*
X0281800Y0161800D02*
X0281800Y0156800D01*
X0296800Y0141800D01*
X0304300Y0141800D01*
X0261800Y0181800D02*
X0260776Y0182824D01*
X0234900Y0182824D01*
X0140146Y0141800D02*
X0135993Y0137646D01*
X0129300Y0137646D01*
X0106800Y0133454D02*
X0106800Y0148690D01*
M02*
