G75*
%MOIN*%
%OFA0B0*%
%FSLAX25Y25*%
%IPPOS*%
%LPD*%
%AMOC8*
5,1,8,0,0,1.08239X$1,22.5*
%
%ADD10C,0.00004*%
%ADD11R,0.06299X0.05118*%
%ADD12R,0.04331X0.03937*%
%ADD13R,0.03150X0.05512*%
%ADD14R,0.04331X0.02362*%
%ADD15R,0.05906X0.05118*%
D10*
X0008565Y0001698D02*
X0008565Y0222171D01*
X0339274Y0222171D01*
X0339274Y0001698D01*
X0008565Y0001698D01*
X0012502Y0017446D02*
X0012504Y0017639D01*
X0012511Y0017832D01*
X0012523Y0018025D01*
X0012540Y0018218D01*
X0012561Y0018410D01*
X0012587Y0018601D01*
X0012618Y0018792D01*
X0012653Y0018982D01*
X0012693Y0019171D01*
X0012738Y0019359D01*
X0012787Y0019546D01*
X0012841Y0019732D01*
X0012899Y0019916D01*
X0012962Y0020099D01*
X0013030Y0020280D01*
X0013101Y0020459D01*
X0013178Y0020637D01*
X0013258Y0020813D01*
X0013343Y0020986D01*
X0013432Y0021158D01*
X0013525Y0021327D01*
X0013622Y0021494D01*
X0013724Y0021659D01*
X0013829Y0021821D01*
X0013938Y0021980D01*
X0014052Y0022137D01*
X0014169Y0022290D01*
X0014289Y0022441D01*
X0014414Y0022589D01*
X0014542Y0022734D01*
X0014673Y0022875D01*
X0014808Y0023014D01*
X0014947Y0023149D01*
X0015088Y0023280D01*
X0015233Y0023408D01*
X0015381Y0023533D01*
X0015532Y0023653D01*
X0015685Y0023770D01*
X0015842Y0023884D01*
X0016001Y0023993D01*
X0016163Y0024098D01*
X0016328Y0024200D01*
X0016495Y0024297D01*
X0016664Y0024390D01*
X0016836Y0024479D01*
X0017009Y0024564D01*
X0017185Y0024644D01*
X0017363Y0024721D01*
X0017542Y0024792D01*
X0017723Y0024860D01*
X0017906Y0024923D01*
X0018090Y0024981D01*
X0018276Y0025035D01*
X0018463Y0025084D01*
X0018651Y0025129D01*
X0018840Y0025169D01*
X0019030Y0025204D01*
X0019221Y0025235D01*
X0019412Y0025261D01*
X0019604Y0025282D01*
X0019797Y0025299D01*
X0019990Y0025311D01*
X0020183Y0025318D01*
X0020376Y0025320D01*
X0020569Y0025318D01*
X0020762Y0025311D01*
X0020955Y0025299D01*
X0021148Y0025282D01*
X0021340Y0025261D01*
X0021531Y0025235D01*
X0021722Y0025204D01*
X0021912Y0025169D01*
X0022101Y0025129D01*
X0022289Y0025084D01*
X0022476Y0025035D01*
X0022662Y0024981D01*
X0022846Y0024923D01*
X0023029Y0024860D01*
X0023210Y0024792D01*
X0023389Y0024721D01*
X0023567Y0024644D01*
X0023743Y0024564D01*
X0023916Y0024479D01*
X0024088Y0024390D01*
X0024257Y0024297D01*
X0024424Y0024200D01*
X0024589Y0024098D01*
X0024751Y0023993D01*
X0024910Y0023884D01*
X0025067Y0023770D01*
X0025220Y0023653D01*
X0025371Y0023533D01*
X0025519Y0023408D01*
X0025664Y0023280D01*
X0025805Y0023149D01*
X0025944Y0023014D01*
X0026079Y0022875D01*
X0026210Y0022734D01*
X0026338Y0022589D01*
X0026463Y0022441D01*
X0026583Y0022290D01*
X0026700Y0022137D01*
X0026814Y0021980D01*
X0026923Y0021821D01*
X0027028Y0021659D01*
X0027130Y0021494D01*
X0027227Y0021327D01*
X0027320Y0021158D01*
X0027409Y0020986D01*
X0027494Y0020813D01*
X0027574Y0020637D01*
X0027651Y0020459D01*
X0027722Y0020280D01*
X0027790Y0020099D01*
X0027853Y0019916D01*
X0027911Y0019732D01*
X0027965Y0019546D01*
X0028014Y0019359D01*
X0028059Y0019171D01*
X0028099Y0018982D01*
X0028134Y0018792D01*
X0028165Y0018601D01*
X0028191Y0018410D01*
X0028212Y0018218D01*
X0028229Y0018025D01*
X0028241Y0017832D01*
X0028248Y0017639D01*
X0028250Y0017446D01*
X0028248Y0017253D01*
X0028241Y0017060D01*
X0028229Y0016867D01*
X0028212Y0016674D01*
X0028191Y0016482D01*
X0028165Y0016291D01*
X0028134Y0016100D01*
X0028099Y0015910D01*
X0028059Y0015721D01*
X0028014Y0015533D01*
X0027965Y0015346D01*
X0027911Y0015160D01*
X0027853Y0014976D01*
X0027790Y0014793D01*
X0027722Y0014612D01*
X0027651Y0014433D01*
X0027574Y0014255D01*
X0027494Y0014079D01*
X0027409Y0013906D01*
X0027320Y0013734D01*
X0027227Y0013565D01*
X0027130Y0013398D01*
X0027028Y0013233D01*
X0026923Y0013071D01*
X0026814Y0012912D01*
X0026700Y0012755D01*
X0026583Y0012602D01*
X0026463Y0012451D01*
X0026338Y0012303D01*
X0026210Y0012158D01*
X0026079Y0012017D01*
X0025944Y0011878D01*
X0025805Y0011743D01*
X0025664Y0011612D01*
X0025519Y0011484D01*
X0025371Y0011359D01*
X0025220Y0011239D01*
X0025067Y0011122D01*
X0024910Y0011008D01*
X0024751Y0010899D01*
X0024589Y0010794D01*
X0024424Y0010692D01*
X0024257Y0010595D01*
X0024088Y0010502D01*
X0023916Y0010413D01*
X0023743Y0010328D01*
X0023567Y0010248D01*
X0023389Y0010171D01*
X0023210Y0010100D01*
X0023029Y0010032D01*
X0022846Y0009969D01*
X0022662Y0009911D01*
X0022476Y0009857D01*
X0022289Y0009808D01*
X0022101Y0009763D01*
X0021912Y0009723D01*
X0021722Y0009688D01*
X0021531Y0009657D01*
X0021340Y0009631D01*
X0021148Y0009610D01*
X0020955Y0009593D01*
X0020762Y0009581D01*
X0020569Y0009574D01*
X0020376Y0009572D01*
X0020183Y0009574D01*
X0019990Y0009581D01*
X0019797Y0009593D01*
X0019604Y0009610D01*
X0019412Y0009631D01*
X0019221Y0009657D01*
X0019030Y0009688D01*
X0018840Y0009723D01*
X0018651Y0009763D01*
X0018463Y0009808D01*
X0018276Y0009857D01*
X0018090Y0009911D01*
X0017906Y0009969D01*
X0017723Y0010032D01*
X0017542Y0010100D01*
X0017363Y0010171D01*
X0017185Y0010248D01*
X0017009Y0010328D01*
X0016836Y0010413D01*
X0016664Y0010502D01*
X0016495Y0010595D01*
X0016328Y0010692D01*
X0016163Y0010794D01*
X0016001Y0010899D01*
X0015842Y0011008D01*
X0015685Y0011122D01*
X0015532Y0011239D01*
X0015381Y0011359D01*
X0015233Y0011484D01*
X0015088Y0011612D01*
X0014947Y0011743D01*
X0014808Y0011878D01*
X0014673Y0012017D01*
X0014542Y0012158D01*
X0014414Y0012303D01*
X0014289Y0012451D01*
X0014169Y0012602D01*
X0014052Y0012755D01*
X0013938Y0012912D01*
X0013829Y0013071D01*
X0013724Y0013233D01*
X0013622Y0013398D01*
X0013525Y0013565D01*
X0013432Y0013734D01*
X0013343Y0013906D01*
X0013258Y0014079D01*
X0013178Y0014255D01*
X0013101Y0014433D01*
X0013030Y0014612D01*
X0012962Y0014793D01*
X0012899Y0014976D01*
X0012841Y0015160D01*
X0012787Y0015346D01*
X0012738Y0015533D01*
X0012693Y0015721D01*
X0012653Y0015910D01*
X0012618Y0016100D01*
X0012587Y0016291D01*
X0012561Y0016482D01*
X0012540Y0016674D01*
X0012523Y0016867D01*
X0012511Y0017060D01*
X0012504Y0017253D01*
X0012502Y0017446D01*
X0012502Y0206423D02*
X0012504Y0206616D01*
X0012511Y0206809D01*
X0012523Y0207002D01*
X0012540Y0207195D01*
X0012561Y0207387D01*
X0012587Y0207578D01*
X0012618Y0207769D01*
X0012653Y0207959D01*
X0012693Y0208148D01*
X0012738Y0208336D01*
X0012787Y0208523D01*
X0012841Y0208709D01*
X0012899Y0208893D01*
X0012962Y0209076D01*
X0013030Y0209257D01*
X0013101Y0209436D01*
X0013178Y0209614D01*
X0013258Y0209790D01*
X0013343Y0209963D01*
X0013432Y0210135D01*
X0013525Y0210304D01*
X0013622Y0210471D01*
X0013724Y0210636D01*
X0013829Y0210798D01*
X0013938Y0210957D01*
X0014052Y0211114D01*
X0014169Y0211267D01*
X0014289Y0211418D01*
X0014414Y0211566D01*
X0014542Y0211711D01*
X0014673Y0211852D01*
X0014808Y0211991D01*
X0014947Y0212126D01*
X0015088Y0212257D01*
X0015233Y0212385D01*
X0015381Y0212510D01*
X0015532Y0212630D01*
X0015685Y0212747D01*
X0015842Y0212861D01*
X0016001Y0212970D01*
X0016163Y0213075D01*
X0016328Y0213177D01*
X0016495Y0213274D01*
X0016664Y0213367D01*
X0016836Y0213456D01*
X0017009Y0213541D01*
X0017185Y0213621D01*
X0017363Y0213698D01*
X0017542Y0213769D01*
X0017723Y0213837D01*
X0017906Y0213900D01*
X0018090Y0213958D01*
X0018276Y0214012D01*
X0018463Y0214061D01*
X0018651Y0214106D01*
X0018840Y0214146D01*
X0019030Y0214181D01*
X0019221Y0214212D01*
X0019412Y0214238D01*
X0019604Y0214259D01*
X0019797Y0214276D01*
X0019990Y0214288D01*
X0020183Y0214295D01*
X0020376Y0214297D01*
X0020569Y0214295D01*
X0020762Y0214288D01*
X0020955Y0214276D01*
X0021148Y0214259D01*
X0021340Y0214238D01*
X0021531Y0214212D01*
X0021722Y0214181D01*
X0021912Y0214146D01*
X0022101Y0214106D01*
X0022289Y0214061D01*
X0022476Y0214012D01*
X0022662Y0213958D01*
X0022846Y0213900D01*
X0023029Y0213837D01*
X0023210Y0213769D01*
X0023389Y0213698D01*
X0023567Y0213621D01*
X0023743Y0213541D01*
X0023916Y0213456D01*
X0024088Y0213367D01*
X0024257Y0213274D01*
X0024424Y0213177D01*
X0024589Y0213075D01*
X0024751Y0212970D01*
X0024910Y0212861D01*
X0025067Y0212747D01*
X0025220Y0212630D01*
X0025371Y0212510D01*
X0025519Y0212385D01*
X0025664Y0212257D01*
X0025805Y0212126D01*
X0025944Y0211991D01*
X0026079Y0211852D01*
X0026210Y0211711D01*
X0026338Y0211566D01*
X0026463Y0211418D01*
X0026583Y0211267D01*
X0026700Y0211114D01*
X0026814Y0210957D01*
X0026923Y0210798D01*
X0027028Y0210636D01*
X0027130Y0210471D01*
X0027227Y0210304D01*
X0027320Y0210135D01*
X0027409Y0209963D01*
X0027494Y0209790D01*
X0027574Y0209614D01*
X0027651Y0209436D01*
X0027722Y0209257D01*
X0027790Y0209076D01*
X0027853Y0208893D01*
X0027911Y0208709D01*
X0027965Y0208523D01*
X0028014Y0208336D01*
X0028059Y0208148D01*
X0028099Y0207959D01*
X0028134Y0207769D01*
X0028165Y0207578D01*
X0028191Y0207387D01*
X0028212Y0207195D01*
X0028229Y0207002D01*
X0028241Y0206809D01*
X0028248Y0206616D01*
X0028250Y0206423D01*
X0028248Y0206230D01*
X0028241Y0206037D01*
X0028229Y0205844D01*
X0028212Y0205651D01*
X0028191Y0205459D01*
X0028165Y0205268D01*
X0028134Y0205077D01*
X0028099Y0204887D01*
X0028059Y0204698D01*
X0028014Y0204510D01*
X0027965Y0204323D01*
X0027911Y0204137D01*
X0027853Y0203953D01*
X0027790Y0203770D01*
X0027722Y0203589D01*
X0027651Y0203410D01*
X0027574Y0203232D01*
X0027494Y0203056D01*
X0027409Y0202883D01*
X0027320Y0202711D01*
X0027227Y0202542D01*
X0027130Y0202375D01*
X0027028Y0202210D01*
X0026923Y0202048D01*
X0026814Y0201889D01*
X0026700Y0201732D01*
X0026583Y0201579D01*
X0026463Y0201428D01*
X0026338Y0201280D01*
X0026210Y0201135D01*
X0026079Y0200994D01*
X0025944Y0200855D01*
X0025805Y0200720D01*
X0025664Y0200589D01*
X0025519Y0200461D01*
X0025371Y0200336D01*
X0025220Y0200216D01*
X0025067Y0200099D01*
X0024910Y0199985D01*
X0024751Y0199876D01*
X0024589Y0199771D01*
X0024424Y0199669D01*
X0024257Y0199572D01*
X0024088Y0199479D01*
X0023916Y0199390D01*
X0023743Y0199305D01*
X0023567Y0199225D01*
X0023389Y0199148D01*
X0023210Y0199077D01*
X0023029Y0199009D01*
X0022846Y0198946D01*
X0022662Y0198888D01*
X0022476Y0198834D01*
X0022289Y0198785D01*
X0022101Y0198740D01*
X0021912Y0198700D01*
X0021722Y0198665D01*
X0021531Y0198634D01*
X0021340Y0198608D01*
X0021148Y0198587D01*
X0020955Y0198570D01*
X0020762Y0198558D01*
X0020569Y0198551D01*
X0020376Y0198549D01*
X0020183Y0198551D01*
X0019990Y0198558D01*
X0019797Y0198570D01*
X0019604Y0198587D01*
X0019412Y0198608D01*
X0019221Y0198634D01*
X0019030Y0198665D01*
X0018840Y0198700D01*
X0018651Y0198740D01*
X0018463Y0198785D01*
X0018276Y0198834D01*
X0018090Y0198888D01*
X0017906Y0198946D01*
X0017723Y0199009D01*
X0017542Y0199077D01*
X0017363Y0199148D01*
X0017185Y0199225D01*
X0017009Y0199305D01*
X0016836Y0199390D01*
X0016664Y0199479D01*
X0016495Y0199572D01*
X0016328Y0199669D01*
X0016163Y0199771D01*
X0016001Y0199876D01*
X0015842Y0199985D01*
X0015685Y0200099D01*
X0015532Y0200216D01*
X0015381Y0200336D01*
X0015233Y0200461D01*
X0015088Y0200589D01*
X0014947Y0200720D01*
X0014808Y0200855D01*
X0014673Y0200994D01*
X0014542Y0201135D01*
X0014414Y0201280D01*
X0014289Y0201428D01*
X0014169Y0201579D01*
X0014052Y0201732D01*
X0013938Y0201889D01*
X0013829Y0202048D01*
X0013724Y0202210D01*
X0013622Y0202375D01*
X0013525Y0202542D01*
X0013432Y0202711D01*
X0013343Y0202883D01*
X0013258Y0203056D01*
X0013178Y0203232D01*
X0013101Y0203410D01*
X0013030Y0203589D01*
X0012962Y0203770D01*
X0012899Y0203953D01*
X0012841Y0204137D01*
X0012787Y0204323D01*
X0012738Y0204510D01*
X0012693Y0204698D01*
X0012653Y0204887D01*
X0012618Y0205077D01*
X0012587Y0205268D01*
X0012561Y0205459D01*
X0012540Y0205651D01*
X0012523Y0205844D01*
X0012511Y0206037D01*
X0012504Y0206230D01*
X0012502Y0206423D01*
X0319589Y0206423D02*
X0319591Y0206616D01*
X0319598Y0206809D01*
X0319610Y0207002D01*
X0319627Y0207195D01*
X0319648Y0207387D01*
X0319674Y0207578D01*
X0319705Y0207769D01*
X0319740Y0207959D01*
X0319780Y0208148D01*
X0319825Y0208336D01*
X0319874Y0208523D01*
X0319928Y0208709D01*
X0319986Y0208893D01*
X0320049Y0209076D01*
X0320117Y0209257D01*
X0320188Y0209436D01*
X0320265Y0209614D01*
X0320345Y0209790D01*
X0320430Y0209963D01*
X0320519Y0210135D01*
X0320612Y0210304D01*
X0320709Y0210471D01*
X0320811Y0210636D01*
X0320916Y0210798D01*
X0321025Y0210957D01*
X0321139Y0211114D01*
X0321256Y0211267D01*
X0321376Y0211418D01*
X0321501Y0211566D01*
X0321629Y0211711D01*
X0321760Y0211852D01*
X0321895Y0211991D01*
X0322034Y0212126D01*
X0322175Y0212257D01*
X0322320Y0212385D01*
X0322468Y0212510D01*
X0322619Y0212630D01*
X0322772Y0212747D01*
X0322929Y0212861D01*
X0323088Y0212970D01*
X0323250Y0213075D01*
X0323415Y0213177D01*
X0323582Y0213274D01*
X0323751Y0213367D01*
X0323923Y0213456D01*
X0324096Y0213541D01*
X0324272Y0213621D01*
X0324450Y0213698D01*
X0324629Y0213769D01*
X0324810Y0213837D01*
X0324993Y0213900D01*
X0325177Y0213958D01*
X0325363Y0214012D01*
X0325550Y0214061D01*
X0325738Y0214106D01*
X0325927Y0214146D01*
X0326117Y0214181D01*
X0326308Y0214212D01*
X0326499Y0214238D01*
X0326691Y0214259D01*
X0326884Y0214276D01*
X0327077Y0214288D01*
X0327270Y0214295D01*
X0327463Y0214297D01*
X0327656Y0214295D01*
X0327849Y0214288D01*
X0328042Y0214276D01*
X0328235Y0214259D01*
X0328427Y0214238D01*
X0328618Y0214212D01*
X0328809Y0214181D01*
X0328999Y0214146D01*
X0329188Y0214106D01*
X0329376Y0214061D01*
X0329563Y0214012D01*
X0329749Y0213958D01*
X0329933Y0213900D01*
X0330116Y0213837D01*
X0330297Y0213769D01*
X0330476Y0213698D01*
X0330654Y0213621D01*
X0330830Y0213541D01*
X0331003Y0213456D01*
X0331175Y0213367D01*
X0331344Y0213274D01*
X0331511Y0213177D01*
X0331676Y0213075D01*
X0331838Y0212970D01*
X0331997Y0212861D01*
X0332154Y0212747D01*
X0332307Y0212630D01*
X0332458Y0212510D01*
X0332606Y0212385D01*
X0332751Y0212257D01*
X0332892Y0212126D01*
X0333031Y0211991D01*
X0333166Y0211852D01*
X0333297Y0211711D01*
X0333425Y0211566D01*
X0333550Y0211418D01*
X0333670Y0211267D01*
X0333787Y0211114D01*
X0333901Y0210957D01*
X0334010Y0210798D01*
X0334115Y0210636D01*
X0334217Y0210471D01*
X0334314Y0210304D01*
X0334407Y0210135D01*
X0334496Y0209963D01*
X0334581Y0209790D01*
X0334661Y0209614D01*
X0334738Y0209436D01*
X0334809Y0209257D01*
X0334877Y0209076D01*
X0334940Y0208893D01*
X0334998Y0208709D01*
X0335052Y0208523D01*
X0335101Y0208336D01*
X0335146Y0208148D01*
X0335186Y0207959D01*
X0335221Y0207769D01*
X0335252Y0207578D01*
X0335278Y0207387D01*
X0335299Y0207195D01*
X0335316Y0207002D01*
X0335328Y0206809D01*
X0335335Y0206616D01*
X0335337Y0206423D01*
X0335335Y0206230D01*
X0335328Y0206037D01*
X0335316Y0205844D01*
X0335299Y0205651D01*
X0335278Y0205459D01*
X0335252Y0205268D01*
X0335221Y0205077D01*
X0335186Y0204887D01*
X0335146Y0204698D01*
X0335101Y0204510D01*
X0335052Y0204323D01*
X0334998Y0204137D01*
X0334940Y0203953D01*
X0334877Y0203770D01*
X0334809Y0203589D01*
X0334738Y0203410D01*
X0334661Y0203232D01*
X0334581Y0203056D01*
X0334496Y0202883D01*
X0334407Y0202711D01*
X0334314Y0202542D01*
X0334217Y0202375D01*
X0334115Y0202210D01*
X0334010Y0202048D01*
X0333901Y0201889D01*
X0333787Y0201732D01*
X0333670Y0201579D01*
X0333550Y0201428D01*
X0333425Y0201280D01*
X0333297Y0201135D01*
X0333166Y0200994D01*
X0333031Y0200855D01*
X0332892Y0200720D01*
X0332751Y0200589D01*
X0332606Y0200461D01*
X0332458Y0200336D01*
X0332307Y0200216D01*
X0332154Y0200099D01*
X0331997Y0199985D01*
X0331838Y0199876D01*
X0331676Y0199771D01*
X0331511Y0199669D01*
X0331344Y0199572D01*
X0331175Y0199479D01*
X0331003Y0199390D01*
X0330830Y0199305D01*
X0330654Y0199225D01*
X0330476Y0199148D01*
X0330297Y0199077D01*
X0330116Y0199009D01*
X0329933Y0198946D01*
X0329749Y0198888D01*
X0329563Y0198834D01*
X0329376Y0198785D01*
X0329188Y0198740D01*
X0328999Y0198700D01*
X0328809Y0198665D01*
X0328618Y0198634D01*
X0328427Y0198608D01*
X0328235Y0198587D01*
X0328042Y0198570D01*
X0327849Y0198558D01*
X0327656Y0198551D01*
X0327463Y0198549D01*
X0327270Y0198551D01*
X0327077Y0198558D01*
X0326884Y0198570D01*
X0326691Y0198587D01*
X0326499Y0198608D01*
X0326308Y0198634D01*
X0326117Y0198665D01*
X0325927Y0198700D01*
X0325738Y0198740D01*
X0325550Y0198785D01*
X0325363Y0198834D01*
X0325177Y0198888D01*
X0324993Y0198946D01*
X0324810Y0199009D01*
X0324629Y0199077D01*
X0324450Y0199148D01*
X0324272Y0199225D01*
X0324096Y0199305D01*
X0323923Y0199390D01*
X0323751Y0199479D01*
X0323582Y0199572D01*
X0323415Y0199669D01*
X0323250Y0199771D01*
X0323088Y0199876D01*
X0322929Y0199985D01*
X0322772Y0200099D01*
X0322619Y0200216D01*
X0322468Y0200336D01*
X0322320Y0200461D01*
X0322175Y0200589D01*
X0322034Y0200720D01*
X0321895Y0200855D01*
X0321760Y0200994D01*
X0321629Y0201135D01*
X0321501Y0201280D01*
X0321376Y0201428D01*
X0321256Y0201579D01*
X0321139Y0201732D01*
X0321025Y0201889D01*
X0320916Y0202048D01*
X0320811Y0202210D01*
X0320709Y0202375D01*
X0320612Y0202542D01*
X0320519Y0202711D01*
X0320430Y0202883D01*
X0320345Y0203056D01*
X0320265Y0203232D01*
X0320188Y0203410D01*
X0320117Y0203589D01*
X0320049Y0203770D01*
X0319986Y0203953D01*
X0319928Y0204137D01*
X0319874Y0204323D01*
X0319825Y0204510D01*
X0319780Y0204698D01*
X0319740Y0204887D01*
X0319705Y0205077D01*
X0319674Y0205268D01*
X0319648Y0205459D01*
X0319627Y0205651D01*
X0319610Y0205844D01*
X0319598Y0206037D01*
X0319591Y0206230D01*
X0319589Y0206423D01*
X0319589Y0017446D02*
X0319591Y0017639D01*
X0319598Y0017832D01*
X0319610Y0018025D01*
X0319627Y0018218D01*
X0319648Y0018410D01*
X0319674Y0018601D01*
X0319705Y0018792D01*
X0319740Y0018982D01*
X0319780Y0019171D01*
X0319825Y0019359D01*
X0319874Y0019546D01*
X0319928Y0019732D01*
X0319986Y0019916D01*
X0320049Y0020099D01*
X0320117Y0020280D01*
X0320188Y0020459D01*
X0320265Y0020637D01*
X0320345Y0020813D01*
X0320430Y0020986D01*
X0320519Y0021158D01*
X0320612Y0021327D01*
X0320709Y0021494D01*
X0320811Y0021659D01*
X0320916Y0021821D01*
X0321025Y0021980D01*
X0321139Y0022137D01*
X0321256Y0022290D01*
X0321376Y0022441D01*
X0321501Y0022589D01*
X0321629Y0022734D01*
X0321760Y0022875D01*
X0321895Y0023014D01*
X0322034Y0023149D01*
X0322175Y0023280D01*
X0322320Y0023408D01*
X0322468Y0023533D01*
X0322619Y0023653D01*
X0322772Y0023770D01*
X0322929Y0023884D01*
X0323088Y0023993D01*
X0323250Y0024098D01*
X0323415Y0024200D01*
X0323582Y0024297D01*
X0323751Y0024390D01*
X0323923Y0024479D01*
X0324096Y0024564D01*
X0324272Y0024644D01*
X0324450Y0024721D01*
X0324629Y0024792D01*
X0324810Y0024860D01*
X0324993Y0024923D01*
X0325177Y0024981D01*
X0325363Y0025035D01*
X0325550Y0025084D01*
X0325738Y0025129D01*
X0325927Y0025169D01*
X0326117Y0025204D01*
X0326308Y0025235D01*
X0326499Y0025261D01*
X0326691Y0025282D01*
X0326884Y0025299D01*
X0327077Y0025311D01*
X0327270Y0025318D01*
X0327463Y0025320D01*
X0327656Y0025318D01*
X0327849Y0025311D01*
X0328042Y0025299D01*
X0328235Y0025282D01*
X0328427Y0025261D01*
X0328618Y0025235D01*
X0328809Y0025204D01*
X0328999Y0025169D01*
X0329188Y0025129D01*
X0329376Y0025084D01*
X0329563Y0025035D01*
X0329749Y0024981D01*
X0329933Y0024923D01*
X0330116Y0024860D01*
X0330297Y0024792D01*
X0330476Y0024721D01*
X0330654Y0024644D01*
X0330830Y0024564D01*
X0331003Y0024479D01*
X0331175Y0024390D01*
X0331344Y0024297D01*
X0331511Y0024200D01*
X0331676Y0024098D01*
X0331838Y0023993D01*
X0331997Y0023884D01*
X0332154Y0023770D01*
X0332307Y0023653D01*
X0332458Y0023533D01*
X0332606Y0023408D01*
X0332751Y0023280D01*
X0332892Y0023149D01*
X0333031Y0023014D01*
X0333166Y0022875D01*
X0333297Y0022734D01*
X0333425Y0022589D01*
X0333550Y0022441D01*
X0333670Y0022290D01*
X0333787Y0022137D01*
X0333901Y0021980D01*
X0334010Y0021821D01*
X0334115Y0021659D01*
X0334217Y0021494D01*
X0334314Y0021327D01*
X0334407Y0021158D01*
X0334496Y0020986D01*
X0334581Y0020813D01*
X0334661Y0020637D01*
X0334738Y0020459D01*
X0334809Y0020280D01*
X0334877Y0020099D01*
X0334940Y0019916D01*
X0334998Y0019732D01*
X0335052Y0019546D01*
X0335101Y0019359D01*
X0335146Y0019171D01*
X0335186Y0018982D01*
X0335221Y0018792D01*
X0335252Y0018601D01*
X0335278Y0018410D01*
X0335299Y0018218D01*
X0335316Y0018025D01*
X0335328Y0017832D01*
X0335335Y0017639D01*
X0335337Y0017446D01*
X0335335Y0017253D01*
X0335328Y0017060D01*
X0335316Y0016867D01*
X0335299Y0016674D01*
X0335278Y0016482D01*
X0335252Y0016291D01*
X0335221Y0016100D01*
X0335186Y0015910D01*
X0335146Y0015721D01*
X0335101Y0015533D01*
X0335052Y0015346D01*
X0334998Y0015160D01*
X0334940Y0014976D01*
X0334877Y0014793D01*
X0334809Y0014612D01*
X0334738Y0014433D01*
X0334661Y0014255D01*
X0334581Y0014079D01*
X0334496Y0013906D01*
X0334407Y0013734D01*
X0334314Y0013565D01*
X0334217Y0013398D01*
X0334115Y0013233D01*
X0334010Y0013071D01*
X0333901Y0012912D01*
X0333787Y0012755D01*
X0333670Y0012602D01*
X0333550Y0012451D01*
X0333425Y0012303D01*
X0333297Y0012158D01*
X0333166Y0012017D01*
X0333031Y0011878D01*
X0332892Y0011743D01*
X0332751Y0011612D01*
X0332606Y0011484D01*
X0332458Y0011359D01*
X0332307Y0011239D01*
X0332154Y0011122D01*
X0331997Y0011008D01*
X0331838Y0010899D01*
X0331676Y0010794D01*
X0331511Y0010692D01*
X0331344Y0010595D01*
X0331175Y0010502D01*
X0331003Y0010413D01*
X0330830Y0010328D01*
X0330654Y0010248D01*
X0330476Y0010171D01*
X0330297Y0010100D01*
X0330116Y0010032D01*
X0329933Y0009969D01*
X0329749Y0009911D01*
X0329563Y0009857D01*
X0329376Y0009808D01*
X0329188Y0009763D01*
X0328999Y0009723D01*
X0328809Y0009688D01*
X0328618Y0009657D01*
X0328427Y0009631D01*
X0328235Y0009610D01*
X0328042Y0009593D01*
X0327849Y0009581D01*
X0327656Y0009574D01*
X0327463Y0009572D01*
X0327270Y0009574D01*
X0327077Y0009581D01*
X0326884Y0009593D01*
X0326691Y0009610D01*
X0326499Y0009631D01*
X0326308Y0009657D01*
X0326117Y0009688D01*
X0325927Y0009723D01*
X0325738Y0009763D01*
X0325550Y0009808D01*
X0325363Y0009857D01*
X0325177Y0009911D01*
X0324993Y0009969D01*
X0324810Y0010032D01*
X0324629Y0010100D01*
X0324450Y0010171D01*
X0324272Y0010248D01*
X0324096Y0010328D01*
X0323923Y0010413D01*
X0323751Y0010502D01*
X0323582Y0010595D01*
X0323415Y0010692D01*
X0323250Y0010794D01*
X0323088Y0010899D01*
X0322929Y0011008D01*
X0322772Y0011122D01*
X0322619Y0011239D01*
X0322468Y0011359D01*
X0322320Y0011484D01*
X0322175Y0011612D01*
X0322034Y0011743D01*
X0321895Y0011878D01*
X0321760Y0012017D01*
X0321629Y0012158D01*
X0321501Y0012303D01*
X0321376Y0012451D01*
X0321256Y0012602D01*
X0321139Y0012755D01*
X0321025Y0012912D01*
X0320916Y0013071D01*
X0320811Y0013233D01*
X0320709Y0013398D01*
X0320612Y0013565D01*
X0320519Y0013734D01*
X0320430Y0013906D01*
X0320345Y0014079D01*
X0320265Y0014255D01*
X0320188Y0014433D01*
X0320117Y0014612D01*
X0320049Y0014793D01*
X0319986Y0014976D01*
X0319928Y0015160D01*
X0319874Y0015346D01*
X0319825Y0015533D01*
X0319780Y0015721D01*
X0319740Y0015910D01*
X0319705Y0016100D01*
X0319674Y0016291D01*
X0319648Y0016482D01*
X0319627Y0016674D01*
X0319610Y0016867D01*
X0319598Y0017060D01*
X0319591Y0017253D01*
X0319589Y0017446D01*
D11*
X0239300Y0167863D03*
X0239300Y0175737D03*
X0221800Y0175737D03*
X0221800Y0167863D03*
D12*
X0160146Y0169300D03*
X0153454Y0169300D03*
D13*
X0151800Y0072410D03*
X0139300Y0072410D03*
X0139300Y0061190D03*
X0151800Y0061190D03*
D14*
X0148454Y0066800D03*
X0142646Y0066800D03*
X0135954Y0066800D03*
X0155146Y0066800D03*
D15*
X0251800Y0163060D03*
X0251800Y0170540D03*
M02*
